<svg class="main-svg" xmlns="http://www.w3.org/2000/svg" xmlns:xlink="http://www.w3.org/1999/xlink" width="80mm" height="70mm" style="" viewBox="0 0 302 265"><rect x="0" y="0" width="80mm" height="70mm" style="fill: rgb(255, 255, 255); fill-opacity: 1;"/><defs id="defs-36b83f"><g class="clips"><clipPath id="clip36b83fxyplot" class="plotclip"><rect width="249" height="207"/></clipPath><clipPath class="axesclip" id="clip36b83fx"><rect x="45" y="0" width="249" height="70mm"/></clipPath><clipPath class="axesclip" id="clip36b83fy"><rect x="0" y="15" width="80mm" height="207"/></clipPath><clipPath class="axesclip" id="clip36b83fxy"><rect x="45" y="15" width="249" height="207"/></clipPath></g><g class="gradients"/><g class="patterns"/></defs><g class="bglayer"/><g class="layer-below"><g class="imagelayer"/><g class="shapelayer"/></g><g class="cartesianlayer"><g class="subplot xy"><g class="layer-subplot"><g class="shapelayer"/><g class="imagelayer"/></g><g class="minor-gridlayer"><g class="x"/><g class="y"/></g><g class="gridlayer"><g class="x"/><g class="y"><path class="ygrid crisp" transform="translate(0,155.15)" d="M45,0h249" style="stroke: rgb(255, 255, 255); stroke-opacity: 1; stroke-width: 1px;"/><path class="ygrid crisp" transform="translate(0,88.31)" d="M45,0h249" style="stroke: rgb(255, 255, 255); stroke-opacity: 1; stroke-width: 1px;"/><path class="ygrid crisp" transform="translate(0,21.46)" d="M45,0h249" style="stroke: rgb(255, 255, 255); stroke-opacity: 1; stroke-width: 1px;"/></g></g><g class="zerolinelayer"/><g class="layer-between"><g class="shapelayer"/><g class="imagelayer"/></g><path class="xlines-below"/><path class="ylines-below"/><g class="overlines-below"/><g class="xaxislayer-below"/><g class="yaxislayer-below"/><g class="overaxes-below"/><g class="overplot"><g class="xy" transform="translate(45,15)" clip-path="url(#clip36b83fxyplot)"><g class="boxlayer mlayer"><g class="trace boxes" style="opacity: 1;"><path class="box" d="M28.49,19.56H41.91M28.49,21.82H41.91V17.3H28.49ZM35.2,21.82V24.08M35.2,17.3V17.3M31.85,24.08H38.56M31.85,17.3H38.56" style="vector-effect: none; stroke-width: 2px; stroke: rgb(93, 105, 177); stroke-opacity: 1; fill: rgb(93, 105, 177); fill-opacity: 0.5;"/><path class="box" d="M83.28,118.46H96.7M83.28,120.68H96.7V116.99H83.28ZM89.99,120.68V122.89M89.99,116.99V111.82M86.63,122.89H93.35M86.63,111.82H93.35" style="vector-effect: none; stroke-width: 2px; stroke: rgb(93, 105, 177); stroke-opacity: 1; fill: rgb(93, 105, 177); fill-opacity: 0.5;"/><path class="box" d="M138.07,90.75H151.49M138.07,98.01H151.49V78.64H138.07ZM144.78,98.01V107.7M144.78,78.64V68.95M141.42,107.7H148.13M141.42,68.95H148.13" style="vector-effect: none; stroke-width: 2px; stroke: rgb(93, 105, 177); stroke-opacity: 1; fill: rgb(93, 105, 177); fill-opacity: 0.5;"/><path class="box" d="M192.86,134.22H206.28M192.86,137.65H206.28V133.22H192.86ZM199.57,137.65V138.38M199.57,133.22V129.53M196.21,138.38H202.92M196.21,129.53H202.92" style="vector-effect: none; stroke-width: 2px; stroke: rgb(93, 105, 177); stroke-opacity: 1; fill: rgb(93, 105, 177); fill-opacity: 0.5;"/><g class="points"><path class="point" transform="translate(25.87,24.08)" d="M3,0A3,3 0 1,1 0,-3A3,3 0 0,1 3,0Z" style="opacity: 1; stroke-width: 0px; fill: rgb(93, 105, 177); fill-opacity: 1;"/><path class="point" transform="translate(24.21,23.32)" d="M3,0A3,3 0 1,1 0,-3A3,3 0 0,1 3,0Z" style="opacity: 1; stroke-width: 0px; fill: rgb(93, 105, 177); fill-opacity: 1;"/><path class="point" transform="translate(26.2,21.82)" d="M3,0A3,3 0 1,1 0,-3A3,3 0 0,1 3,0Z" style="opacity: 1; stroke-width: 0px; fill: rgb(93, 105, 177); fill-opacity: 1;"/><path class="point" transform="translate(23.89,21.07)" d="M3,0A3,3 0 1,1 0,-3A3,3 0 0,1 3,0Z" style="opacity: 1; stroke-width: 0px; fill: rgb(93, 105, 177); fill-opacity: 1;"/><path class="point" transform="translate(24.75,19.56)" d="M3,0A3,3 0 1,1 0,-3A3,3 0 0,1 3,0Z" style="opacity: 1; stroke-width: 0px; fill: rgb(93, 105, 177); fill-opacity: 1;"/><path class="point" transform="translate(25.95,19.56)" d="M3,0A3,3 0 1,1 0,-3A3,3 0 0,1 3,0Z" style="opacity: 1; stroke-width: 0px; fill: rgb(93, 105, 177); fill-opacity: 1;"/><path class="point" transform="translate(25.08,18.81)" d="M3,0A3,3 0 1,1 0,-3A3,3 0 0,1 3,0Z" style="opacity: 1; stroke-width: 0px; fill: rgb(93, 105, 177); fill-opacity: 1;"/><path class="point" transform="translate(25.62,17.3)" d="M3,0A3,3 0 1,1 0,-3A3,3 0 0,1 3,0Z" style="opacity: 1; stroke-width: 0px; fill: rgb(93, 105, 177); fill-opacity: 1;"/><path class="point" transform="translate(24.59,17.3)" d="M3,0A3,3 0 1,1 0,-3A3,3 0 0,1 3,0Z" style="opacity: 1; stroke-width: 0px; fill: rgb(93, 105, 177); fill-opacity: 1;"/><path class="point" transform="translate(23.66,17.3)" d="M3,0A3,3 0 1,1 0,-3A3,3 0 0,1 3,0Z" style="opacity: 1; stroke-width: 0px; fill: rgb(93, 105, 177); fill-opacity: 1;"/></g><g class="points"><path class="point" transform="translate(80.41,122.89)" d="M3,0A3,3 0 1,1 0,-3A3,3 0 0,1 3,0Z" style="opacity: 1; stroke-width: 0px; fill: rgb(93, 105, 177); fill-opacity: 1;"/><path class="point" transform="translate(79.31,122.89)" d="M3,0A3,3 0 1,1 0,-3A3,3 0 0,1 3,0Z" style="opacity: 1; stroke-width: 0px; fill: rgb(93, 105, 177); fill-opacity: 1;"/><path class="point" transform="translate(81.2,120.68)" d="M3,0A3,3 0 1,1 0,-3A3,3 0 0,1 3,0Z" style="opacity: 1; stroke-width: 0px; fill: rgb(93, 105, 177); fill-opacity: 1;"/><path class="point" transform="translate(78.34,119.94)" d="M3,0A3,3 0 1,1 0,-3A3,3 0 0,1 3,0Z" style="opacity: 1; stroke-width: 0px; fill: rgb(93, 105, 177); fill-opacity: 1;"/><path class="point" transform="translate(78.96,119.2)" d="M3,0A3,3 0 1,1 0,-3A3,3 0 0,1 3,0Z" style="opacity: 1; stroke-width: 0px; fill: rgb(93, 105, 177); fill-opacity: 1;"/><path class="point" transform="translate(81.4,117.72)" d="M3,0A3,3 0 1,1 0,-3A3,3 0 0,1 3,0Z" style="opacity: 1; stroke-width: 0px; fill: rgb(93, 105, 177); fill-opacity: 1;"/><path class="point" transform="translate(79.53,116.99)" d="M3,0A3,3 0 1,1 0,-3A3,3 0 0,1 3,0Z" style="opacity: 1; stroke-width: 0px; fill: rgb(93, 105, 177); fill-opacity: 1;"/><path class="point" transform="translate(78.51,116.99)" d="M3,0A3,3 0 1,1 0,-3A3,3 0 0,1 3,0Z" style="opacity: 1; stroke-width: 0px; fill: rgb(93, 105, 177); fill-opacity: 1;"/><path class="point" transform="translate(79.4,112.56)" d="M3,0A3,3 0 1,1 0,-3A3,3 0 0,1 3,0Z" style="opacity: 1; stroke-width: 0px; fill: rgb(93, 105, 177); fill-opacity: 1;"/><path class="point" transform="translate(79.89,111.82)" d="M3,0A3,3 0 1,1 0,-3A3,3 0 0,1 3,0Z" style="opacity: 1; stroke-width: 0px; fill: rgb(93, 105, 177); fill-opacity: 1;"/></g><g class="points"><path class="point" transform="translate(135.54,107.7)" d="M3,0A3,3 0 1,1 0,-3A3,3 0 0,1 3,0Z" style="opacity: 1; stroke-width: 0px; fill: rgb(93, 105, 177); fill-opacity: 1;"/><path class="point" transform="translate(134.94,102.86)" d="M3,0A3,3 0 1,1 0,-3A3,3 0 0,1 3,0Z" style="opacity: 1; stroke-width: 0px; fill: rgb(93, 105, 177); fill-opacity: 1;"/><path class="point" transform="translate(134.18,98.01)" d="M3,0A3,3 0 1,1 0,-3A3,3 0 0,1 3,0Z" style="opacity: 1; stroke-width: 0px; fill: rgb(93, 105, 177); fill-opacity: 1;"/><path class="point" transform="translate(133.15,95.59)" d="M3,0A3,3 0 1,1 0,-3A3,3 0 0,1 3,0Z" style="opacity: 1; stroke-width: 0px; fill: rgb(93, 105, 177); fill-opacity: 1;"/><path class="point" transform="translate(134.71,95.59)" d="M3,0A3,3 0 1,1 0,-3A3,3 0 0,1 3,0Z" style="opacity: 1; stroke-width: 0px; fill: rgb(93, 105, 177); fill-opacity: 1;"/><path class="point" transform="translate(134.17,85.9)" d="M3,0A3,3 0 1,1 0,-3A3,3 0 0,1 3,0Z" style="opacity: 1; stroke-width: 0px; fill: rgb(93, 105, 177); fill-opacity: 1;"/><path class="point" transform="translate(135.58,85.9)" d="M3,0A3,3 0 1,1 0,-3A3,3 0 0,1 3,0Z" style="opacity: 1; stroke-width: 0px; fill: rgb(93, 105, 177); fill-opacity: 1;"/><path class="point" transform="translate(134.54,78.64)" d="M3,0A3,3 0 1,1 0,-3A3,3 0 0,1 3,0Z" style="opacity: 1; stroke-width: 0px; fill: rgb(93, 105, 177); fill-opacity: 1;"/><path class="point" transform="translate(133.52,73.79)" d="M3,0A3,3 0 1,1 0,-3A3,3 0 0,1 3,0Z" style="opacity: 1; stroke-width: 0px; fill: rgb(93, 105, 177); fill-opacity: 1;"/><path class="point" transform="translate(133.16,68.95)" d="M3,0A3,3 0 1,1 0,-3A3,3 0 0,1 3,0Z" style="opacity: 1; stroke-width: 0px; fill: rgb(93, 105, 177); fill-opacity: 1;"/></g><g class="points"><path class="point" transform="translate(190.46,138.38)" d="M3,0A3,3 0 1,1 0,-3A3,3 0 0,1 3,0Z" style="opacity: 1; stroke-width: 0px; fill: rgb(93, 105, 177); fill-opacity: 1;"/><path class="point" transform="translate(187.91,137.65)" d="M3,0A3,3 0 1,1 0,-3A3,3 0 0,1 3,0Z" style="opacity: 1; stroke-width: 0px; fill: rgb(93, 105, 177); fill-opacity: 1;"/><path class="point" transform="translate(190.7,137.65)" d="M3,0A3,3 0 1,1 0,-3A3,3 0 0,1 3,0Z" style="opacity: 1; stroke-width: 0px; fill: rgb(93, 105, 177); fill-opacity: 1;"/><path class="point" transform="translate(189.94,134.69)" d="M3,0A3,3 0 1,1 0,-3A3,3 0 0,1 3,0Z" style="opacity: 1; stroke-width: 0px; fill: rgb(93, 105, 177); fill-opacity: 1;"/><path class="point" transform="translate(188.98,134.69)" d="M3,0A3,3 0 1,1 0,-3A3,3 0 0,1 3,0Z" style="opacity: 1; stroke-width: 0px; fill: rgb(93, 105, 177); fill-opacity: 1;"/><path class="point" transform="translate(188.47,133.22)" d="M3,0A3,3 0 1,1 0,-3A3,3 0 0,1 3,0Z" style="opacity: 1; stroke-width: 0px; fill: rgb(93, 105, 177); fill-opacity: 1;"/><path class="point" transform="translate(190.27,133.22)" d="M3,0A3,3 0 1,1 0,-3A3,3 0 0,1 3,0Z" style="opacity: 1; stroke-width: 0px; fill: rgb(93, 105, 177); fill-opacity: 1;"/><path class="point" transform="translate(189.33,133.22)" d="M3,0A3,3 0 1,1 0,-3A3,3 0 0,1 3,0Z" style="opacity: 1; stroke-width: 0px; fill: rgb(93, 105, 177); fill-opacity: 1;"/><path class="point" transform="translate(190.78,132.48)" d="M3,0A3,3 0 1,1 0,-3A3,3 0 0,1 3,0Z" style="opacity: 1; stroke-width: 0px; fill: rgb(93, 105, 177); fill-opacity: 1;"/><path class="point" transform="translate(188.07,129.53)" d="M3,0A3,3 0 1,1 0,-3A3,3 0 0,1 3,0Z" style="opacity: 1; stroke-width: 0px; fill: rgb(93, 105, 177); fill-opacity: 1;"/></g></g><g class="trace boxes" style="opacity: 1;"><path class="box" d="M47.67,15.96H61.09M47.67,17.08H61.09V14.09H47.67ZM54.38,17.08V18.57M54.38,14.09V10.35M51.02,18.57H57.73M51.02,10.35H57.73" style="vector-effect: none; stroke-width: 2px; stroke: rgb(229, 134, 6); stroke-opacity: 1; fill: rgb(229, 134, 6); fill-opacity: 0.5;"/><path class="box" d="M102.45,125.97H115.88M102.45,126.7H115.88V125.25H102.45ZM109.17,126.7V126.7M109.17,125.25V124.53M105.81,126.7H112.52M105.81,124.53H112.52" style="vector-effect: none; stroke-width: 2px; stroke: rgb(229, 134, 6); stroke-opacity: 1; fill: rgb(229, 134, 6); fill-opacity: 0.5;"/><path class="box" d="M157.24,88.32H170.67M157.24,93.17H170.67V85.9H157.24ZM163.95,93.17V98.01M163.95,85.9V76.21M160.6,98.01H167.31M160.6,76.21H167.31" style="vector-effect: none; stroke-width: 2px; stroke: rgb(229, 134, 6); stroke-opacity: 1; fill: rgb(229, 134, 6); fill-opacity: 0.5;"/><path class="box" d="M212.03,119.78H225.46M212.03,121.24H225.46V117.58H212.03ZM218.74,121.24V124.91M218.74,117.58V113.91M215.39,124.91H222.1M215.39,113.91H222.1" style="vector-effect: none; stroke-width: 2px; stroke: rgb(229, 134, 6); stroke-opacity: 1; fill: rgb(229, 134, 6); fill-opacity: 0.5;"/><g class="points"><path class="point" transform="translate(45.35,18.57)" d="M3,0A3,3 0 1,1 0,-3A3,3 0 0,1 3,0Z" style="opacity: 1; stroke-width: 0px; fill: rgb(229, 134, 6); fill-opacity: 1;"/><path class="point" transform="translate(43.16,17.08)" d="M3,0A3,3 0 1,1 0,-3A3,3 0 0,1 3,0Z" style="opacity: 1; stroke-width: 0px; fill: rgb(229, 134, 6); fill-opacity: 1;"/><path class="point" transform="translate(45.82,17.08)" d="M3,0A3,3 0 1,1 0,-3A3,3 0 0,1 3,0Z" style="opacity: 1; stroke-width: 0px; fill: rgb(229, 134, 6); fill-opacity: 1;"/><path class="point" transform="translate(42.87,17.08)" d="M3,0A3,3 0 1,1 0,-3A3,3 0 0,1 3,0Z" style="opacity: 1; stroke-width: 0px; fill: rgb(229, 134, 6); fill-opacity: 1;"/><path class="point" transform="translate(43.91,16.33)" d="M3,0A3,3 0 1,1 0,-3A3,3 0 0,1 3,0Z" style="opacity: 1; stroke-width: 0px; fill: rgb(229, 134, 6); fill-opacity: 1;"/><path class="point" transform="translate(45.17,15.58)" d="M3,0A3,3 0 1,1 0,-3A3,3 0 0,1 3,0Z" style="opacity: 1; stroke-width: 0px; fill: rgb(229, 134, 6); fill-opacity: 1;"/><path class="point" transform="translate(44.25,14.09)" d="M3,0A3,3 0 1,1 0,-3A3,3 0 0,1 3,0Z" style="opacity: 1; stroke-width: 0px; fill: rgb(229, 134, 6); fill-opacity: 1;"/><path class="point" transform="translate(44.77,14.09)" d="M3,0A3,3 0 1,1 0,-3A3,3 0 0,1 3,0Z" style="opacity: 1; stroke-width: 0px; fill: rgb(229, 134, 6); fill-opacity: 1;"/><path class="point" transform="translate(43.84,11.85)" d="M3,0A3,3 0 1,1 0,-3A3,3 0 0,1 3,0Z" style="opacity: 1; stroke-width: 0px; fill: rgb(229, 134, 6); fill-opacity: 1;"/><path class="point" transform="translate(43.27,10.35)" d="M3,0A3,3 0 1,1 0,-3A3,3 0 0,1 3,0Z" style="opacity: 1; stroke-width: 0px; fill: rgb(229, 134, 6); fill-opacity: 1;"/></g><g class="points"><path class="point" transform="translate(99.47,132.49)" d="M3,0A3,3 0 1,1 0,-3A3,3 0 0,1 3,0Z" style="opacity: 1; stroke-width: 0px; fill: rgb(229, 134, 6); fill-opacity: 1;"/><path class="point" transform="translate(98.6,131.04)" d="M3,0A3,3 0 1,1 0,-3A3,3 0 0,1 3,0Z" style="opacity: 1; stroke-width: 0px; fill: rgb(229, 134, 6); fill-opacity: 1;"/><path class="point" transform="translate(100.09,126.7)" d="M3,0A3,3 0 1,1 0,-3A3,3 0 0,1 3,0Z" style="opacity: 1; stroke-width: 0px; fill: rgb(229, 134, 6); fill-opacity: 1;"/><path class="point" transform="translate(97.55,126.7)" d="M3,0A3,3 0 1,1 0,-3A3,3 0 0,1 3,0Z" style="opacity: 1; stroke-width: 0px; fill: rgb(229, 134, 6); fill-opacity: 1;"/><path class="point" transform="translate(98.23,125.97)" d="M3,0A3,3 0 1,1 0,-3A3,3 0 0,1 3,0Z" style="opacity: 1; stroke-width: 0px; fill: rgb(229, 134, 6); fill-opacity: 1;"/><path class="point" transform="translate(100.42,125.97)" d="M3,0A3,3 0 1,1 0,-3A3,3 0 0,1 3,0Z" style="opacity: 1; stroke-width: 0px; fill: rgb(229, 134, 6); fill-opacity: 1;"/><path class="point" transform="translate(98.72,125.97)" d="M3,0A3,3 0 1,1 0,-3A3,3 0 0,1 3,0Z" style="opacity: 1; stroke-width: 0px; fill: rgb(229, 134, 6); fill-opacity: 1;"/><path class="point" transform="translate(97.37,125.25)" d="M3,0A3,3 0 1,1 0,-3A3,3 0 0,1 3,0Z" style="opacity: 1; stroke-width: 0px; fill: rgb(229, 134, 6); fill-opacity: 1;"/><path class="point" transform="translate(98.48,124.53)" d="M3,0A3,3 0 1,1 0,-3A3,3 0 0,1 3,0Z" style="opacity: 1; stroke-width: 0px; fill: rgb(229, 134, 6); fill-opacity: 1;"/><path class="point" transform="translate(99.06,122.36)" d="M3,0A3,3 0 1,1 0,-3A3,3 0 0,1 3,0Z" style="opacity: 1; stroke-width: 0px; fill: rgb(229, 134, 6); fill-opacity: 1;"/></g><g class="points"><path class="point" transform="translate(154.69,98.01)" d="M3,0A3,3 0 1,1 0,-3A3,3 0 0,1 3,0Z" style="opacity: 1; stroke-width: 0px; fill: rgb(229, 134, 6); fill-opacity: 1;"/><path class="point" transform="translate(154.1,95.59)" d="M3,0A3,3 0 1,1 0,-3A3,3 0 0,1 3,0Z" style="opacity: 1; stroke-width: 0px; fill: rgb(229, 134, 6); fill-opacity: 1;"/><path class="point" transform="translate(153.36,93.17)" d="M3,0A3,3 0 1,1 0,-3A3,3 0 0,1 3,0Z" style="opacity: 1; stroke-width: 0px; fill: rgb(229, 134, 6); fill-opacity: 1;"/><path class="point" transform="translate(152.2,90.75)" d="M3,0A3,3 0 1,1 0,-3A3,3 0 0,1 3,0Z" style="opacity: 1; stroke-width: 0px; fill: rgb(229, 134, 6); fill-opacity: 1;"/><path class="point" transform="translate(153.88,88.32)" d="M3,0A3,3 0 1,1 0,-3A3,3 0 0,1 3,0Z" style="opacity: 1; stroke-width: 0px; fill: rgb(229, 134, 6); fill-opacity: 1;"/><path class="point" transform="translate(153.42,88.32)" d="M3,0A3,3 0 1,1 0,-3A3,3 0 0,1 3,0Z" style="opacity: 1; stroke-width: 0px; fill: rgb(229, 134, 6); fill-opacity: 1;"/><path class="point" transform="translate(154.63,88.32)" d="M3,0A3,3 0 1,1 0,-3A3,3 0 0,1 3,0Z" style="opacity: 1; stroke-width: 0px; fill: rgb(229, 134, 6); fill-opacity: 1;"/><path class="point" transform="translate(153.75,85.9)" d="M3,0A3,3 0 1,1 0,-3A3,3 0 0,1 3,0Z" style="opacity: 1; stroke-width: 0px; fill: rgb(229, 134, 6); fill-opacity: 1;"/><path class="point" transform="translate(152.85,85.9)" d="M3,0A3,3 0 1,1 0,-3A3,3 0 0,1 3,0Z" style="opacity: 1; stroke-width: 0px; fill: rgb(229, 134, 6); fill-opacity: 1;"/><path class="point" transform="translate(152.4,76.21)" d="M3,0A3,3 0 1,1 0,-3A3,3 0 0,1 3,0Z" style="opacity: 1; stroke-width: 0px; fill: rgb(229, 134, 6); fill-opacity: 1;"/></g><g class="points"><path class="point" transform="translate(209.62,124.91)" d="M3,0A3,3 0 1,1 0,-3A3,3 0 0,1 3,0Z" style="opacity: 1; stroke-width: 0px; fill: rgb(229, 134, 6); fill-opacity: 1;"/><path class="point" transform="translate(207.11,121.24)" d="M3,0A3,3 0 1,1 0,-3A3,3 0 0,1 3,0Z" style="opacity: 1; stroke-width: 0px; fill: rgb(229, 134, 6); fill-opacity: 1;"/><path class="point" transform="translate(209.8,121.24)" d="M3,0A3,3 0 1,1 0,-3A3,3 0 0,1 3,0Z" style="opacity: 1; stroke-width: 0px; fill: rgb(229, 134, 6); fill-opacity: 1;"/><path class="point" transform="translate(209.12,121.24)" d="M3,0A3,3 0 1,1 0,-3A3,3 0 0,1 3,0Z" style="opacity: 1; stroke-width: 0px; fill: rgb(229, 134, 6); fill-opacity: 1;"/><path class="point" transform="translate(208.16,121.24)" d="M3,0A3,3 0 1,1 0,-3A3,3 0 0,1 3,0Z" style="opacity: 1; stroke-width: 0px; fill: rgb(229, 134, 6); fill-opacity: 1;"/><path class="point" transform="translate(207.64,118.31)" d="M3,0A3,3 0 1,1 0,-3A3,3 0 0,1 3,0Z" style="opacity: 1; stroke-width: 0px; fill: rgb(229, 134, 6); fill-opacity: 1;"/><path class="point" transform="translate(209.58,118.31)" d="M3,0A3,3 0 1,1 0,-3A3,3 0 0,1 3,0Z" style="opacity: 1; stroke-width: 0px; fill: rgb(229, 134, 6); fill-opacity: 1;"/><path class="point" transform="translate(208.47,117.58)" d="M3,0A3,3 0 1,1 0,-3A3,3 0 0,1 3,0Z" style="opacity: 1; stroke-width: 0px; fill: rgb(229, 134, 6); fill-opacity: 1;"/><path class="point" transform="translate(209.87,117.58)" d="M3,0A3,3 0 1,1 0,-3A3,3 0 0,1 3,0Z" style="opacity: 1; stroke-width: 0px; fill: rgb(229, 134, 6); fill-opacity: 1;"/><path class="point" transform="translate(207.34,113.91)" d="M3,0A3,3 0 1,1 0,-3A3,3 0 0,1 3,0Z" style="opacity: 1; stroke-width: 0px; fill: rgb(229, 134, 6); fill-opacity: 1;"/></g></g></g></g></g><g class="zerolinelayer-above"/><path class="xlines-above crisp" d="M43,223H294" style="fill: none; stroke-width: 2px; stroke: rgb(0, 0, 0); stroke-opacity: 1;"/><path class="ylines-above crisp" d="M44,15V222" style="fill: none; stroke-width: 2px; stroke: rgb(0, 0, 0); stroke-opacity: 1;"/><g class="overlines-above"/><g class="xaxislayer-above"><path class="xtick ticks crisp" d="M0,224v5" transform="translate(89.78999999999999,0)" style="stroke: rgb(68, 68, 68); stroke-opacity: 1; stroke-width: 1px;"/><path class="xtick ticks crisp" d="M0,224v5" transform="translate(144.57999999999998,0)" style="stroke: rgb(68, 68, 68); stroke-opacity: 1; stroke-width: 1px;"/><path class="xtick ticks crisp" d="M0,224v5" transform="translate(199.37,0)" style="stroke: rgb(68, 68, 68); stroke-opacity: 1; stroke-width: 1px;"/><path class="xtick ticks crisp" d="M0,224v5" transform="translate(254.16,0)" style="stroke: rgb(68, 68, 68); stroke-opacity: 1; stroke-width: 1px;"/><g class="xtick"><text text-anchor="middle" x="0" y="236.2" transform="translate(89.78999999999999,0)" style="font-family: Arial; font-size: 6px; fill: rgb(42, 63, 95); fill-opacity: 1; white-space: pre;">S1</text></g><g class="xtick"><text text-anchor="middle" x="0" y="236.2" transform="translate(144.57999999999998,0)" style="font-family: Arial; font-size: 6px; fill: rgb(42, 63, 95); fill-opacity: 1; white-space: pre;">S2</text></g><g class="xtick"><text text-anchor="middle" x="0" y="236.2" transform="translate(199.37,0)" style="font-family: Arial; font-size: 6px; fill: rgb(42, 63, 95); fill-opacity: 1; white-space: pre;">S3</text></g><g class="xtick"><text text-anchor="middle" x="0" y="236.2" transform="translate(254.16,0)" style="font-family: Arial; font-size: 6px; fill: rgb(42, 63, 95); fill-opacity: 1; white-space: pre;">S4</text></g></g><g class="yaxislayer-above"><path class="ytick ticks crisp" d="M43,0h-5" transform="translate(0,222)" style="stroke: rgb(68, 68, 68); stroke-opacity: 1; stroke-width: 1px;"/><path class="ytick ticks crisp" d="M43,0h-5" transform="translate(0,155.15)" style="stroke: rgb(68, 68, 68); stroke-opacity: 1; stroke-width: 1px;"/><path class="ytick ticks crisp" d="M43,0h-5" transform="translate(0,88.31)" style="stroke: rgb(68, 68, 68); stroke-opacity: 1; stroke-width: 1px;"/><path class="ytick ticks crisp" d="M43,0h-5" transform="translate(0,21.46)" style="stroke: rgb(68, 68, 68); stroke-opacity: 1; stroke-width: 1px;"/><g class="ytick"><text text-anchor="end" x="36.8" y="2.0999999999999996" transform="translate(0,222)" style="font-family: Arial; font-size: 6px; fill: rgb(42, 63, 95); fill-opacity: 1; white-space: pre;">0</text></g><g class="ytick"><text text-anchor="end" x="36.8" y="2.0999999999999996" style="font-family: Arial; font-size: 6px; fill: rgb(42, 63, 95); fill-opacity: 1; white-space: pre;" transform="translate(0,155.15)">0.2</text></g><g class="ytick"><text text-anchor="end" x="36.8" y="2.0999999999999996" style="font-family: Arial; font-size: 6px; fill: rgb(42, 63, 95); fill-opacity: 1; white-space: pre;" transform="translate(0,88.31)">0.4</text></g><g class="ytick"><text text-anchor="end" x="36.8" y="2.0999999999999996" style="font-family: Arial; font-size: 6px; fill: rgb(42, 63, 95); fill-opacity: 1; white-space: pre;" transform="translate(0,21.46)">0.6</text></g></g><g class="overaxes-above"/></g></g><g class="polarlayer"/><g class="smithlayer"/><g class="ternarylayer"/><g class="geolayer"/><g class="funnelarealayer"/><g class="pielayer"/><g class="iciclelayer"/><g class="treemaplayer"/><g class="sunburstlayer"/><g class="glimages"/><defs id="topdefs-36b83f"><g class="clips"/><clipPath id="legend36b83f"><rect width="142" height="29" x="0" y="0"/></clipPath></defs><g class="layer-above"><g class="imagelayer"/><g class="shapelayer"><g class="shape-group" data-index="0" clip-path="url(#clip36b83fy)"><path data-index="0" fill-rule="evenodd" d="M45,184.86L294,184.86" style="opacity: 1; stroke: rgb(128, 128, 128); stroke-opacity: 1; fill: rgb(0, 0, 0); fill-opacity: 0; stroke-dasharray: 9px, 9px; stroke-width: 2px;"/></g></g></g><g class="infolayer"><g class="legend" pointer-events="all" transform="translate(47.49,188.85999999999999)"><rect class="bg" shape-rendering="crispEdges" style="stroke: rgb(68, 68, 68); stroke-opacity: 1; fill: rgb(255, 255, 255); fill-opacity: 1; stroke-width: 0px;" width="142" height="29" x="0" y="0"/><g class="scrollbox" transform="" clip-path="url(#legend36b83f)"><g class="groups" transform=""><g class="traces" transform="translate(0,14.5)" style="opacity: 1;"><text class="legendtext" text-anchor="start" x="40" y="2.3400000000000003" style="font-family: Arial; font-size: 6px; fill: rgb(42, 63, 95); fill-opacity: 1; white-space: pre;">Manual</text><g class="layers" style="opacity: 1;"><g class="legendfill"/><g class="legendlines"/><g class="legendsymbols"><g class="legendpoints"><path class="legendbox" d="M6,6H-6V-6H6Z" transform="translate(20,0)" style="stroke-width: 2px; fill: rgb(93, 105, 177); fill-opacity: 0.5; stroke: rgb(93, 105, 177); stroke-opacity: 1;"/></g></g></g><rect class="legendtoggle" x="0" y="-9.5" width="62.845703125" height="19" style="fill: rgb(0, 0, 0); fill-opacity: 0;"/></g></g><g class="groups" transform="translate(65.345703125,0)"><g class="traces" transform="translate(0,14.5)" style="opacity: 1;"><text class="legendtext" text-anchor="start" x="40" y="2.3400000000000003" style="font-family: Arial; font-size: 6px; fill: rgb(42, 63, 95); fill-opacity: 1; white-space: pre;">Automated</text><g class="layers" style="opacity: 1;"><g class="legendfill"/><g class="legendlines"/><g class="legendsymbols"><g class="legendpoints"><path class="legendbox" d="M6,6H-6V-6H6Z" transform="translate(20,0)" style="stroke-width: 2px; fill: rgb(229, 134, 6); fill-opacity: 0.5; stroke: rgb(229, 134, 6); stroke-opacity: 1;"/></g></g></g><rect class="legendtoggle" x="0" y="-9.5" width="73.181640625" height="19" style="fill: rgb(0, 0, 0); fill-opacity: 0;"/></g></g></g><rect class="scrollbar" rx="20" ry="3" width="0" height="0" style="fill: rgb(128, 139, 164); fill-opacity: 1;" x="0" y="0"/></g><g class="g-gtitle"/><g class="g-xtitle"><text class="xtitle" x="169.5" y="256.1001953125" text-anchor="middle" style="opacity: 1; font-family: Arial; font-size: 7px; fill: rgb(42, 63, 95); fill-opacity: 1; white-space: pre;">Patient</text></g><g class="g-ytitle"><text class="ytitle" transform="rotate(-90,11.006054687499997,118.5)" x="11.006054687499997" y="118.5" text-anchor="middle" style="opacity: 1; font-family: Arial; font-size: 7px; fill: rgb(42, 63, 95); fill-opacity: 1; white-space: pre;">Accuracy</text></g><g class="annotation" data-index="0" style="opacity: 1;"><g class="annotation-text-g" transform="rotate(0,281.5,189.86)"><g class="cursor-pointer" transform="translate(269,185)"><rect class="bg" x="0.5" y="0.5" width="24" height="9" style="stroke-width: 1px; stroke: rgb(0, 0, 0); stroke-opacity: 0; fill: rgb(0, 0, 0); fill-opacity: 0;"/><text class="annotation-text" text-anchor="middle" x="12.34375" y="7" style="font-family: Arial; font-size: 6px; fill: rgb(42, 63, 95); fill-opacity: 1; white-space: pre;">Chance</text></g></g></g></g></svg>