<svg class="main-svg" xmlns="http://www.w3.org/2000/svg" xmlns:xlink="http://www.w3.org/1999/xlink" width="80mm" height="70mm" style="" viewBox="0 0 302 265"><rect x="0" y="0" width="80mm" height="70mm" style="fill: rgb(255, 255, 255); fill-opacity: 1;"/><defs id="defs-cd6bfa"><g class="clips"><clipPath id="clipcd6bfaxyplot" class="plotclip"><rect width="252" height="210"/></clipPath><clipPath class="axesclip" id="clipcd6bfax"><rect x="42" y="0" width="252" height="70mm"/></clipPath><clipPath class="axesclip" id="clipcd6bfay"><rect x="0" y="15" width="80mm" height="210"/></clipPath><clipPath class="axesclip" id="clipcd6bfaxy"><rect x="42" y="15" width="252" height="210"/></clipPath></g><g class="gradients"/><g class="patterns"/></defs><g class="bglayer"/><g class="layer-below"><g class="imagelayer"/><g class="shapelayer"/></g><g class="cartesianlayer"><g class="subplot xy"><g class="layer-subplot"><g class="shapelayer"/><g class="imagelayer"/></g><g class="minor-gridlayer"><g class="x"/><g class="y"/></g><g class="gridlayer"><g class="x"><path class="xgrid crisp" transform="translate(277.65,0)" d="M0,15v210" style="stroke: rgb(255, 255, 255); stroke-opacity: 1; stroke-width: 1px;"/><path class="xgrid crisp" transform="translate(233.35,0)" d="M0,15v210" style="stroke: rgb(255, 255, 255); stroke-opacity: 1; stroke-width: 1px;"/><path class="xgrid crisp" transform="translate(189.04,0)" d="M0,15v210" style="stroke: rgb(255, 255, 255); stroke-opacity: 1; stroke-width: 1px;"/><path class="xgrid crisp" transform="translate(144.74,0)" d="M0,15v210" style="stroke: rgb(255, 255, 255); stroke-opacity: 1; stroke-width: 1px;"/><path class="xgrid crisp" transform="translate(100.44,0)" d="M0,15v210" style="stroke: rgb(255, 255, 255); stroke-opacity: 1; stroke-width: 1px;"/><path class="xgrid crisp" transform="translate(78.28999999999999,0)" d="M0,15v210" style="stroke: rgb(255, 255, 255); stroke-opacity: 1; stroke-width: 1px;"/><path class="xgrid crisp" transform="translate(58.35,0)" d="M0,15v210" style="stroke: rgb(255, 255, 255); stroke-opacity: 1; stroke-width: 1px;"/></g><g class="y"><path class="ygrid crisp" transform="translate(0,191.22)" d="M42,0h252" style="stroke: rgb(255, 255, 255); stroke-opacity: 1; stroke-width: 1px;"/><path class="ygrid crisp" transform="translate(0,157.43)" d="M42,0h252" style="stroke: rgb(255, 255, 255); stroke-opacity: 1; stroke-width: 1px;"/><path class="ygrid crisp" transform="translate(0,123.65)" d="M42,0h252" style="stroke: rgb(255, 255, 255); stroke-opacity: 1; stroke-width: 1px;"/><path class="ygrid crisp" transform="translate(0,89.86)" d="M42,0h252" style="stroke: rgb(255, 255, 255); stroke-opacity: 1; stroke-width: 1px;"/><path class="ygrid crisp" transform="translate(0,56.08)" d="M42,0h252" style="stroke: rgb(255, 255, 255); stroke-opacity: 1; stroke-width: 1px;"/><path class="ygrid crisp" transform="translate(0,22.3)" d="M42,0h252" style="stroke: rgb(255, 255, 255); stroke-opacity: 1; stroke-width: 1px;"/></g></g><g class="zerolinelayer"><path class="xzl zl crisp" transform="translate(56.13,0)" d="M0,15v210" style="stroke: rgb(255, 255, 255); stroke-opacity: 1; stroke-width: 2px;"/></g><g class="layer-between"><g class="shapelayer"/><g class="imagelayer"/></g><path class="xlines-below"/><path class="ylines-below"/><g class="overlines-below"/><g class="xaxislayer-below"/><g class="yaxislayer-below"/><g class="overaxes-below"/><g class="overplot"><g class="xy" transform="translate(42,15)" clip-path="url(#clipcd6bfaxyplot)"><g class="scatterlayer mlayer"><g class="trace scatter trace7ef940" style="stroke-miterlimit: 2; opacity: 1;"><g class="fills"/><g class="errorbars"/><g class="lines"><path class="js-line" d="M16.35,105.68L36.29,75.7L58.44,61.17L102.74,37.28L147.04,27.69L191.35,21.15L235.65,20.31" style="vector-effect: none; fill: none; stroke: rgb(93, 105, 177); stroke-opacity: 1; stroke-dasharray: 15px, 15px; stroke-width: 2px; opacity: 1;"/></g><g class="points"><path class="point" transform="translate(16.35,105.68)" d="M3,0A3,3 0 1,1 0,-3A3,3 0 0,1 3,0Z" style="opacity: 1; stroke-width: 0px; fill: rgb(93, 105, 177); fill-opacity: 1;"/><path class="point" transform="translate(36.29,75.7)" d="M3,0A3,3 0 1,1 0,-3A3,3 0 0,1 3,0Z" style="opacity: 1; stroke-width: 0px; fill: rgb(93, 105, 177); fill-opacity: 1;"/><path class="point" transform="translate(58.44,61.17)" d="M3,0A3,3 0 1,1 0,-3A3,3 0 0,1 3,0Z" style="opacity: 1; stroke-width: 0px; fill: rgb(93, 105, 177); fill-opacity: 1;"/><path class="point" transform="translate(102.74,37.28)" d="M3,0A3,3 0 1,1 0,-3A3,3 0 0,1 3,0Z" style="opacity: 1; stroke-width: 0px; fill: rgb(93, 105, 177); fill-opacity: 1;"/><path class="point" transform="translate(147.04,27.69)" d="M3,0A3,3 0 1,1 0,-3A3,3 0 0,1 3,0Z" style="opacity: 1; stroke-width: 0px; fill: rgb(93, 105, 177); fill-opacity: 1;"/><path class="point" transform="translate(191.35,21.15)" d="M3,0A3,3 0 1,1 0,-3A3,3 0 0,1 3,0Z" style="opacity: 1; stroke-width: 0px; fill: rgb(93, 105, 177); fill-opacity: 1;"/><path class="point" transform="translate(235.65,20.31)" d="M3,0A3,3 0 1,1 0,-3A3,3 0 0,1 3,0Z" style="opacity: 1; stroke-width: 0px; fill: rgb(93, 105, 177); fill-opacity: 1;"/></g><g class="text"/></g><g class="trace scatter trace90ddc8" style="stroke-miterlimit: 2; opacity: 1;"><g class="fills"/><g class="errorbars"/><g class="lines"><path class="js-line" d="M16.35,102.15L58.44,60.05L102.74,36.09L147.04,19.99L191.35,19.31L235.65,14.25" style="vector-effect: none; fill: none; stroke: rgb(229, 134, 6); stroke-opacity: 1; stroke-dasharray: 15px, 15px; stroke-width: 2px; opacity: 1;"/></g><g class="points"><path class="point" transform="translate(16.35,102.15)" d="M3,0A3,3 0 1,1 0,-3A3,3 0 0,1 3,0Z" style="opacity: 1; stroke-width: 0px; fill: rgb(229, 134, 6); fill-opacity: 1;"/><path class="point" transform="translate(36.29,81.74)" d="M3,0A3,3 0 1,1 0,-3A3,3 0 0,1 3,0Z" style="opacity: 1; stroke-width: 0px; fill: rgb(229, 134, 6); fill-opacity: 1;"/><path class="point" transform="translate(58.44,60.05)" d="M3,0A3,3 0 1,1 0,-3A3,3 0 0,1 3,0Z" style="opacity: 1; stroke-width: 0px; fill: rgb(229, 134, 6); fill-opacity: 1;"/><path class="point" transform="translate(102.74,36.09)" d="M3,0A3,3 0 1,1 0,-3A3,3 0 0,1 3,0Z" style="opacity: 1; stroke-width: 0px; fill: rgb(229, 134, 6); fill-opacity: 1;"/><path class="point" transform="translate(147.04,19.99)" d="M3,0A3,3 0 1,1 0,-3A3,3 0 0,1 3,0Z" style="opacity: 1; stroke-width: 0px; fill: rgb(229, 134, 6); fill-opacity: 1;"/><path class="point" transform="translate(191.35,19.31)" d="M3,0A3,3 0 1,1 0,-3A3,3 0 0,1 3,0Z" style="opacity: 1; stroke-width: 0px; fill: rgb(229, 134, 6); fill-opacity: 1;"/><path class="point" transform="translate(235.65,14.25)" d="M3,0A3,3 0 1,1 0,-3A3,3 0 0,1 3,0Z" style="opacity: 1; stroke-width: 0px; fill: rgb(229, 134, 6); fill-opacity: 1;"/></g><g class="text"/></g><g class="trace scatter tracefb2d98" style="stroke-miterlimit: 2; opacity: 1;"><g class="fills"/><g class="errorbars"/><g class="lines"><path class="js-line" d="M16.35,149.96L36.29,140.12L58.44,140.49L102.74,122.52L147.04,121.18L191.35,116.18L235.65,117.75" style="vector-effect: none; fill: none; stroke: rgb(93, 105, 177); stroke-opacity: 1; stroke-dasharray: 9px, 9px; stroke-width: 2px; opacity: 1;"/></g><g class="points"><path class="point" transform="translate(16.35,149.96)" d="M3,0A3,3 0 1,1 0,-3A3,3 0 0,1 3,0Z" style="opacity: 1; stroke-width: 0px; fill: rgb(93, 105, 177); fill-opacity: 1;"/><path class="point" transform="translate(36.29,140.12)" d="M3,0A3,3 0 1,1 0,-3A3,3 0 0,1 3,0Z" style="opacity: 1; stroke-width: 0px; fill: rgb(93, 105, 177); fill-opacity: 1;"/><path class="point" transform="translate(58.44,140.49)" d="M3,0A3,3 0 1,1 0,-3A3,3 0 0,1 3,0Z" style="opacity: 1; stroke-width: 0px; fill: rgb(93, 105, 177); fill-opacity: 1;"/><path class="point" transform="translate(102.74,122.52)" d="M3,0A3,3 0 1,1 0,-3A3,3 0 0,1 3,0Z" style="opacity: 1; stroke-width: 0px; fill: rgb(93, 105, 177); fill-opacity: 1;"/><path class="point" transform="translate(147.04,121.18)" d="M3,0A3,3 0 1,1 0,-3A3,3 0 0,1 3,0Z" style="opacity: 1; stroke-width: 0px; fill: rgb(93, 105, 177); fill-opacity: 1;"/><path class="point" transform="translate(191.35,116.18)" d="M3,0A3,3 0 1,1 0,-3A3,3 0 0,1 3,0Z" style="opacity: 1; stroke-width: 0px; fill: rgb(93, 105, 177); fill-opacity: 1;"/><path class="point" transform="translate(235.65,117.75)" d="M3,0A3,3 0 1,1 0,-3A3,3 0 0,1 3,0Z" style="opacity: 1; stroke-width: 0px; fill: rgb(93, 105, 177); fill-opacity: 1;"/></g><g class="text"/></g><g class="trace scatter trace700793" style="stroke-miterlimit: 2; opacity: 1;"><g class="fills"/><g class="errorbars"/><g class="lines"><path class="js-line" d="M16.35,151.28L36.29,152.89L58.44,144.7L102.74,126.71L147.04,125.17L191.35,129.42L235.65,128.39" style="vector-effect: none; fill: none; stroke: rgb(229, 134, 6); stroke-opacity: 1; stroke-dasharray: 9px, 9px; stroke-width: 2px; opacity: 1;"/></g><g class="points"><path class="point" transform="translate(16.35,151.28)" d="M3,0A3,3 0 1,1 0,-3A3,3 0 0,1 3,0Z" style="opacity: 1; stroke-width: 0px; fill: rgb(229, 134, 6); fill-opacity: 1;"/><path class="point" transform="translate(36.29,152.89)" d="M3,0A3,3 0 1,1 0,-3A3,3 0 0,1 3,0Z" style="opacity: 1; stroke-width: 0px; fill: rgb(229, 134, 6); fill-opacity: 1;"/><path class="point" transform="translate(58.44,144.7)" d="M3,0A3,3 0 1,1 0,-3A3,3 0 0,1 3,0Z" style="opacity: 1; stroke-width: 0px; fill: rgb(229, 134, 6); fill-opacity: 1;"/><path class="point" transform="translate(102.74,126.71)" d="M3,0A3,3 0 1,1 0,-3A3,3 0 0,1 3,0Z" style="opacity: 1; stroke-width: 0px; fill: rgb(229, 134, 6); fill-opacity: 1;"/><path class="point" transform="translate(147.04,125.17)" d="M3,0A3,3 0 1,1 0,-3A3,3 0 0,1 3,0Z" style="opacity: 1; stroke-width: 0px; fill: rgb(229, 134, 6); fill-opacity: 1;"/><path class="point" transform="translate(191.35,129.42)" d="M3,0A3,3 0 1,1 0,-3A3,3 0 0,1 3,0Z" style="opacity: 1; stroke-width: 0px; fill: rgb(229, 134, 6); fill-opacity: 1;"/><path class="point" transform="translate(235.65,128.39)" d="M3,0A3,3 0 1,1 0,-3A3,3 0 0,1 3,0Z" style="opacity: 1; stroke-width: 0px; fill: rgb(229, 134, 6); fill-opacity: 1;"/></g><g class="text"/></g><g class="trace scatter traceeef42d" style="stroke-miterlimit: 2; opacity: 1;"><g class="fills"/><g class="errorbars"/><g class="lines"><path class="js-line" d="M16.35,112.57L36.29,115.26L58.44,98.86L102.74,89.06L147.04,72.42L191.35,80.25L235.65,98.37" style="vector-effect: none; fill: none; stroke: rgb(93, 105, 177); stroke-opacity: 1; stroke-dasharray: 9px, 3px, 3px, 3px; stroke-width: 2px; opacity: 1;"/></g><g class="points"><path class="point" transform="translate(16.35,112.57)" d="M3,0A3,3 0 1,1 0,-3A3,3 0 0,1 3,0Z" style="opacity: 1; stroke-width: 0px; fill: rgb(93, 105, 177); fill-opacity: 1;"/><path class="point" transform="translate(36.29,115.26)" d="M3,0A3,3 0 1,1 0,-3A3,3 0 0,1 3,0Z" style="opacity: 1; stroke-width: 0px; fill: rgb(93, 105, 177); fill-opacity: 1;"/><path class="point" transform="translate(58.44,98.86)" d="M3,0A3,3 0 1,1 0,-3A3,3 0 0,1 3,0Z" style="opacity: 1; stroke-width: 0px; fill: rgb(93, 105, 177); fill-opacity: 1;"/><path class="point" transform="translate(102.74,89.06)" d="M3,0A3,3 0 1,1 0,-3A3,3 0 0,1 3,0Z" style="opacity: 1; stroke-width: 0px; fill: rgb(93, 105, 177); fill-opacity: 1;"/><path class="point" transform="translate(147.04,72.42)" d="M3,0A3,3 0 1,1 0,-3A3,3 0 0,1 3,0Z" style="opacity: 1; stroke-width: 0px; fill: rgb(93, 105, 177); fill-opacity: 1;"/><path class="point" transform="translate(191.35,80.25)" d="M3,0A3,3 0 1,1 0,-3A3,3 0 0,1 3,0Z" style="opacity: 1; stroke-width: 0px; fill: rgb(93, 105, 177); fill-opacity: 1;"/><path class="point" transform="translate(235.65,98.37)" d="M3,0A3,3 0 1,1 0,-3A3,3 0 0,1 3,0Z" style="opacity: 1; stroke-width: 0px; fill: rgb(93, 105, 177); fill-opacity: 1;"/></g><g class="text"/></g><g class="trace scatter trace8aa9b5" style="stroke-miterlimit: 2; opacity: 1;"><g class="fills"/><g class="errorbars"/><g class="lines"><path class="js-line" d="M16.35,123.83L36.29,110.85L58.44,89.8L102.74,82.7L147.04,81.72L191.35,81.23L235.65,92.74" style="vector-effect: none; fill: none; stroke: rgb(229, 134, 6); stroke-opacity: 1; stroke-dasharray: 9px, 3px, 3px, 3px; stroke-width: 2px; opacity: 1;"/></g><g class="points"><path class="point" transform="translate(16.35,123.83)" d="M3,0A3,3 0 1,1 0,-3A3,3 0 0,1 3,0Z" style="opacity: 1; stroke-width: 0px; fill: rgb(229, 134, 6); fill-opacity: 1;"/><path class="point" transform="translate(36.29,110.85)" d="M3,0A3,3 0 1,1 0,-3A3,3 0 0,1 3,0Z" style="opacity: 1; stroke-width: 0px; fill: rgb(229, 134, 6); fill-opacity: 1;"/><path class="point" transform="translate(58.44,89.8)" d="M3,0A3,3 0 1,1 0,-3A3,3 0 0,1 3,0Z" style="opacity: 1; stroke-width: 0px; fill: rgb(229, 134, 6); fill-opacity: 1;"/><path class="point" transform="translate(102.74,82.7)" d="M3,0A3,3 0 1,1 0,-3A3,3 0 0,1 3,0Z" style="opacity: 1; stroke-width: 0px; fill: rgb(229, 134, 6); fill-opacity: 1;"/><path class="point" transform="translate(147.04,81.72)" d="M3,0A3,3 0 1,1 0,-3A3,3 0 0,1 3,0Z" style="opacity: 1; stroke-width: 0px; fill: rgb(229, 134, 6); fill-opacity: 1;"/><path class="point" transform="translate(191.35,81.23)" d="M3,0A3,3 0 1,1 0,-3A3,3 0 0,1 3,0Z" style="opacity: 1; stroke-width: 0px; fill: rgb(229, 134, 6); fill-opacity: 1;"/><path class="point" transform="translate(235.65,92.74)" d="M3,0A3,3 0 1,1 0,-3A3,3 0 0,1 3,0Z" style="opacity: 1; stroke-width: 0px; fill: rgb(229, 134, 6); fill-opacity: 1;"/></g><g class="text"/></g><g class="trace scatter trace9793bb" style="stroke-miterlimit: 2; opacity: 1;"><g class="fills"/><g class="errorbars"/><g class="lines"><path class="js-line" d="M16.35,150.11L58.44,142.73L102.74,152.43L147.04,146.53L191.35,147.35L235.65,138.63" style="vector-effect: none; fill: none; stroke: rgb(93, 105, 177); stroke-opacity: 1; stroke-dasharray: 3px, 3px; stroke-width: 2px; opacity: 1;"/></g><g class="points"><path class="point" transform="translate(16.35,150.11)" d="M3,0A3,3 0 1,1 0,-3A3,3 0 0,1 3,0Z" style="opacity: 1; stroke-width: 0px; fill: rgb(93, 105, 177); fill-opacity: 1;"/><path class="point" transform="translate(36.29,146.31)" d="M3,0A3,3 0 1,1 0,-3A3,3 0 0,1 3,0Z" style="opacity: 1; stroke-width: 0px; fill: rgb(93, 105, 177); fill-opacity: 1;"/><path class="point" transform="translate(58.44,142.73)" d="M3,0A3,3 0 1,1 0,-3A3,3 0 0,1 3,0Z" style="opacity: 1; stroke-width: 0px; fill: rgb(93, 105, 177); fill-opacity: 1;"/><path class="point" transform="translate(102.74,152.43)" d="M3,0A3,3 0 1,1 0,-3A3,3 0 0,1 3,0Z" style="opacity: 1; stroke-width: 0px; fill: rgb(93, 105, 177); fill-opacity: 1;"/><path class="point" transform="translate(147.04,146.53)" d="M3,0A3,3 0 1,1 0,-3A3,3 0 0,1 3,0Z" style="opacity: 1; stroke-width: 0px; fill: rgb(93, 105, 177); fill-opacity: 1;"/><path class="point" transform="translate(191.35,147.35)" d="M3,0A3,3 0 1,1 0,-3A3,3 0 0,1 3,0Z" style="opacity: 1; stroke-width: 0px; fill: rgb(93, 105, 177); fill-opacity: 1;"/><path class="point" transform="translate(235.65,138.63)" d="M3,0A3,3 0 1,1 0,-3A3,3 0 0,1 3,0Z" style="opacity: 1; stroke-width: 0px; fill: rgb(93, 105, 177); fill-opacity: 1;"/></g><g class="text"/></g><g class="trace scatter trace93af29" style="stroke-miterlimit: 2; opacity: 1;"><g class="fills"/><g class="errorbars"/><g class="lines"><path class="js-line" d="M16.35,151.32L36.29,149.03L58.44,145.69L102.74,145.47L147.04,133.25L191.35,124.06L235.65,121.91" style="vector-effect: none; fill: none; stroke: rgb(229, 134, 6); stroke-opacity: 1; stroke-dasharray: 3px, 3px; stroke-width: 2px; opacity: 1;"/></g><g class="points"><path class="point" transform="translate(16.35,151.32)" d="M3,0A3,3 0 1,1 0,-3A3,3 0 0,1 3,0Z" style="opacity: 1; stroke-width: 0px; fill: rgb(229, 134, 6); fill-opacity: 1;"/><path class="point" transform="translate(36.29,149.03)" d="M3,0A3,3 0 1,1 0,-3A3,3 0 0,1 3,0Z" style="opacity: 1; stroke-width: 0px; fill: rgb(229, 134, 6); fill-opacity: 1;"/><path class="point" transform="translate(58.44,145.69)" d="M3,0A3,3 0 1,1 0,-3A3,3 0 0,1 3,0Z" style="opacity: 1; stroke-width: 0px; fill: rgb(229, 134, 6); fill-opacity: 1;"/><path class="point" transform="translate(102.74,145.47)" d="M3,0A3,3 0 1,1 0,-3A3,3 0 0,1 3,0Z" style="opacity: 1; stroke-width: 0px; fill: rgb(229, 134, 6); fill-opacity: 1;"/><path class="point" transform="translate(147.04,133.25)" d="M3,0A3,3 0 1,1 0,-3A3,3 0 0,1 3,0Z" style="opacity: 1; stroke-width: 0px; fill: rgb(229, 134, 6); fill-opacity: 1;"/><path class="point" transform="translate(191.35,124.06)" d="M3,0A3,3 0 1,1 0,-3A3,3 0 0,1 3,0Z" style="opacity: 1; stroke-width: 0px; fill: rgb(229, 134, 6); fill-opacity: 1;"/><path class="point" transform="translate(235.65,121.91)" d="M3,0A3,3 0 1,1 0,-3A3,3 0 0,1 3,0Z" style="opacity: 1; stroke-width: 0px; fill: rgb(229, 134, 6); fill-opacity: 1;"/></g><g class="text"/></g><g class="trace scatter tracec15d11" style="stroke-miterlimit: 2; opacity: 1;"><g class="fills"/><g class="errorbars"/><g class="lines"/><g class="points"/><g class="text"/></g><g class="trace scatter trace774617" style="stroke-miterlimit: 2; opacity: 1;"><g class="fills"/><g class="errorbars"/><g class="lines"/><g class="points"/><g class="text"/></g><g class="trace scatter traced29cc3" style="stroke-miterlimit: 2; opacity: 1;"><g class="fills"/><g class="errorbars"/><g class="lines"/><g class="points"/><g class="text"/></g><g class="trace scatter trace542cf1" style="stroke-miterlimit: 2; opacity: 1;"><g class="fills"/><g class="errorbars"/><g class="lines"/><g class="points"/><g class="text"/></g><g class="trace scatter trace1734d7" style="stroke-miterlimit: 2; opacity: 1;"><g class="fills"/><g class="errorbars"/><g class="lines"/><g class="points"/><g class="text"/></g><g class="trace scatter trace459018" style="stroke-miterlimit: 2; opacity: 1;"><g class="fills"/><g class="errorbars"/><g class="lines"/><g class="points"/><g class="text"/></g></g></g></g><g class="zerolinelayer-above"/><path class="xlines-above crisp" d="M41,225.5H294" style="fill: none; stroke-width: 1px; stroke: rgb(0, 0, 0); stroke-opacity: 1;"/><path class="ylines-above crisp" d="M41.5,15V225" style="fill: none; stroke-width: 1px; stroke: rgb(0, 0, 0); stroke-opacity: 1;"/><g class="overlines-above"/><g class="xaxislayer-above"><path class="xtick ticks crisp" d="M0,226v5" transform="translate(277.65,0)" style="stroke: rgb(68, 68, 68); stroke-opacity: 1; stroke-width: 1px;"/><path class="xtick ticks crisp" d="M0,226v5" transform="translate(233.35,0)" style="stroke: rgb(68, 68, 68); stroke-opacity: 1; stroke-width: 1px;"/><path class="xtick ticks crisp" d="M0,226v5" transform="translate(189.04,0)" style="stroke: rgb(68, 68, 68); stroke-opacity: 1; stroke-width: 1px;"/><path class="xtick ticks crisp" d="M0,226v5" transform="translate(144.74,0)" style="stroke: rgb(68, 68, 68); stroke-opacity: 1; stroke-width: 1px;"/><path class="xtick ticks crisp" d="M0,226v5" transform="translate(100.44,0)" style="stroke: rgb(68, 68, 68); stroke-opacity: 1; stroke-width: 1px;"/><path class="xtick ticks crisp" d="M0,226v5" transform="translate(78.28999999999999,0)" style="stroke: rgb(68, 68, 68); stroke-opacity: 1; stroke-width: 1px;"/><path class="xtick ticks crisp" d="M0,226v5" transform="translate(58.35,0)" style="stroke: rgb(68, 68, 68); stroke-opacity: 1; stroke-width: 1px;"/><g class="xtick"><text text-anchor="middle" x="0" y="237" transform="translate(277.65,0)" style="font-family: Arial; font-size: 5px; fill: rgb(42, 63, 95); fill-opacity: 1; white-space: pre;">1000</text></g><g class="xtick"><text text-anchor="middle" x="0" y="237" style="font-family: Arial; font-size: 5px; fill: rgb(42, 63, 95); fill-opacity: 1; white-space: pre;" transform="translate(233.35,0)">800</text></g><g class="xtick"><text text-anchor="middle" x="0" y="237" style="font-family: Arial; font-size: 5px; fill: rgb(42, 63, 95); fill-opacity: 1; white-space: pre;" transform="translate(189.04,0)">600</text></g><g class="xtick"><text text-anchor="middle" x="0" y="237" style="font-family: Arial; font-size: 5px; fill: rgb(42, 63, 95); fill-opacity: 1; white-space: pre;" transform="translate(144.74,0)">400</text></g><g class="xtick"><text text-anchor="middle" x="0" y="237" style="font-family: Arial; font-size: 5px; fill: rgb(42, 63, 95); fill-opacity: 1; white-space: pre;" transform="translate(100.44,0)">200</text></g><g class="xtick"><text text-anchor="middle" x="0" y="237" style="font-family: Arial; font-size: 5px; fill: rgb(42, 63, 95); fill-opacity: 1; white-space: pre;" transform="translate(78.28999999999999,0)">100</text></g><g class="xtick"><text text-anchor="middle" x="0" y="237" style="font-family: Arial; font-size: 5px; fill: rgb(42, 63, 95); fill-opacity: 1; white-space: pre;" transform="translate(58.35,0)">10</text></g></g><g class="yaxislayer-above"><path class="ytick ticks crisp" d="M41,0h-5" transform="translate(0,225)" style="stroke: rgb(68, 68, 68); stroke-opacity: 1; stroke-width: 1px;"/><path class="ytick ticks crisp" d="M41,0h-5" transform="translate(0,191.22)" style="stroke: rgb(68, 68, 68); stroke-opacity: 1; stroke-width: 1px;"/><path class="ytick ticks crisp" d="M41,0h-5" transform="translate(0,157.43)" style="stroke: rgb(68, 68, 68); stroke-opacity: 1; stroke-width: 1px;"/><path class="ytick ticks crisp" d="M41,0h-5" transform="translate(0,123.65)" style="stroke: rgb(68, 68, 68); stroke-opacity: 1; stroke-width: 1px;"/><path class="ytick ticks crisp" d="M41,0h-5" transform="translate(0,89.86)" style="stroke: rgb(68, 68, 68); stroke-opacity: 1; stroke-width: 1px;"/><path class="ytick ticks crisp" d="M41,0h-5" transform="translate(0,56.08)" style="stroke: rgb(68, 68, 68); stroke-opacity: 1; stroke-width: 1px;"/><path class="ytick ticks crisp" d="M41,0h-5" transform="translate(0,22.3)" style="stroke: rgb(68, 68, 68); stroke-opacity: 1; stroke-width: 1px;"/><g class="ytick"><text text-anchor="end" x="35" y="1.75" transform="translate(0,225)" style="font-family: Arial; font-size: 5px; fill: rgb(42, 63, 95); fill-opacity: 1; white-space: pre;">0</text></g><g class="ytick"><text text-anchor="end" x="35" y="1.75" style="font-family: Arial; font-size: 5px; fill: rgb(42, 63, 95); fill-opacity: 1; white-space: pre;" transform="translate(0,191.22)">0.1</text></g><g class="ytick"><text text-anchor="end" x="35" y="1.75" style="font-family: Arial; font-size: 5px; fill: rgb(42, 63, 95); fill-opacity: 1; white-space: pre;" transform="translate(0,157.43)">0.2</text></g><g class="ytick"><text text-anchor="end" x="35" y="1.75" style="font-family: Arial; font-size: 5px; fill: rgb(42, 63, 95); fill-opacity: 1; white-space: pre;" transform="translate(0,123.65)">0.3</text></g><g class="ytick"><text text-anchor="end" x="35" y="1.75" style="font-family: Arial; font-size: 5px; fill: rgb(42, 63, 95); fill-opacity: 1; white-space: pre;" transform="translate(0,89.86)">0.4</text></g><g class="ytick"><text text-anchor="end" x="35" y="1.75" style="font-family: Arial; font-size: 5px; fill: rgb(42, 63, 95); fill-opacity: 1; white-space: pre;" transform="translate(0,56.08)">0.5</text></g><g class="ytick"><text text-anchor="end" x="35" y="1.75" style="font-family: Arial; font-size: 5px; fill: rgb(42, 63, 95); fill-opacity: 1; white-space: pre;" transform="translate(0,22.3)">0.6</text></g></g><g class="overaxes-above"/></g></g><g class="polarlayer"/><g class="smithlayer"/><g class="ternarylayer"/><g class="geolayer"/><g class="funnelarealayer"/><g class="pielayer"/><g class="iciclelayer"/><g class="treemaplayer"/><g class="sunburstlayer"/><g class="glimages"/><defs id="topdefs-cd6bfa"><g class="clips"/><clipPath id="legendcd6bfa"><rect width="205" height="48" x="0" y="0"/></clipPath></defs><g class="layer-above"><g class="imagelayer"/><g class="shapelayer"><g class="shape-group" data-index="0" clip-path="url(#clipcd6bfay)"><path data-index="0" fill-rule="evenodd" d="M42,187.46L294,187.46" style="opacity: 1; stroke: rgb(128, 128, 128); stroke-opacity: 1; fill: rgb(0, 0, 0); fill-opacity: 0; stroke-dasharray: 9px, 9px; stroke-width: 2px;"/></g></g></g><g class="infolayer"><g class="legend" pointer-events="all" transform="translate(44.52,172.79999999999998)"><rect class="bg" shape-rendering="crispEdges" style="stroke: rgb(68, 68, 68); stroke-opacity: 1; fill: rgb(255, 255, 255); fill-opacity: 1; stroke-width: 0px;" width="205" height="48" x="0" y="0"/><g class="scrollbox" transform="" clip-path="url(#legendcd6bfa)"><g class="groups"><g class="traces" transform="translate(0,14.5)" style="opacity: 1;"><text class="legendtext" text-anchor="start" x="40" y="2.3400000000000003" style="font-family: Arial; font-size: 6px; fill: rgb(42, 63, 95); fill-opacity: 1; white-space: pre;">Manual</text><g class="layers" style="opacity: 1;"><g class="legendfill"/><g class="legendlines"><path class="js-line" d="M5,0h30" style="fill: none; stroke: rgb(93, 105, 177); stroke-opacity: 1; stroke-width: 2px;"/></g><g class="legendsymbols"><g class="legendpoints"/></g></g><rect class="legendtoggle" x="0" y="-9.5" width="62.845703125" height="19" style="fill: rgb(0, 0, 0); fill-opacity: 0;"/></g><g class="traces" transform="translate(75.681640625,14.5)" style="opacity: 1;"><text class="legendtext" text-anchor="start" x="40" y="2.3400000000000003" style="font-family: Arial; font-size: 6px; fill: rgb(42, 63, 95); fill-opacity: 1; white-space: pre;">Automated</text><g class="layers" style="opacity: 1;"><g class="legendfill"/><g class="legendlines"><path class="js-line" d="M5,0h30" style="fill: none; stroke: rgb(229, 134, 6); stroke-opacity: 1; stroke-width: 2px;"/></g><g class="legendsymbols"><g class="legendpoints"/></g></g><rect class="legendtoggle" x="0" y="-9.5" width="73.181640625" height="19" style="fill: rgb(0, 0, 0); fill-opacity: 0;"/></g><g class="traces" transform="translate(151.36328125,14.5)" style="opacity: 1;"><text class="legendtext" text-anchor="start" x="40" y="2.3400000000000003" style="font-family: Arial; font-size: 6px; fill: rgb(42, 63, 95); fill-opacity: 1; white-space: pre;">S1</text><g class="layers" style="opacity: 1;"><g class="legendfill"/><g class="legendlines"><path class="js-line" d="M5,0h30" style="fill: none; stroke: rgb(128, 128, 128); stroke-opacity: 1; stroke-dasharray: 15px, 15px; stroke-width: 2px;"/></g><g class="legendsymbols"><g class="legendpoints"/></g></g><rect class="legendtoggle" x="0" y="-9.5" width="49.84375" height="19" style="fill: rgb(0, 0, 0); fill-opacity: 0;"/></g><g class="traces" transform="translate(0,33.5)" style="opacity: 1;"><text class="legendtext" text-anchor="start" x="40" y="2.3400000000000003" style="font-family: Arial; font-size: 6px; fill: rgb(42, 63, 95); fill-opacity: 1; white-space: pre;">S2</text><g class="layers" style="opacity: 1;"><g class="legendfill"/><g class="legendlines"><path class="js-line" d="M5,0h30" style="fill: none; stroke: rgb(128, 128, 128); stroke-opacity: 1; stroke-dasharray: 9px, 9px; stroke-width: 2px;"/></g><g class="legendsymbols"><g class="legendpoints"/></g></g><rect class="legendtoggle" x="0" y="-9.5" width="50.501953125" height="19" style="fill: rgb(0, 0, 0); fill-opacity: 0;"/></g><g class="traces" transform="translate(75.681640625,33.5)" style="opacity: 1;"><text class="legendtext" text-anchor="start" x="40" y="2.3400000000000003" style="font-family: Arial; font-size: 6px; fill: rgb(42, 63, 95); fill-opacity: 1; white-space: pre;">S3</text><g class="layers" style="opacity: 1;"><g class="legendfill"/><g class="legendlines"><path class="js-line" d="M5,0h30" style="fill: none; stroke: rgb(128, 128, 128); stroke-opacity: 1; stroke-dasharray: 9px, 3px, 3px, 3px; stroke-width: 2px;"/></g><g class="legendsymbols"><g class="legendpoints"/></g></g><rect class="legendtoggle" x="0" y="-9.5" width="50.501953125" height="19" style="fill: rgb(0, 0, 0); fill-opacity: 0;"/></g><g class="traces" transform="translate(151.36328125,33.5)" style="opacity: 1;"><text class="legendtext" text-anchor="start" x="40" y="2.3400000000000003" style="font-family: Arial; font-size: 6px; fill: rgb(42, 63, 95); fill-opacity: 1; white-space: pre;">S4</text><g class="layers" style="opacity: 1;"><g class="legendfill"/><g class="legendlines"><path class="js-line" d="M5,0h30" style="fill: none; stroke: rgb(128, 128, 128); stroke-opacity: 1; stroke-dasharray: 3px, 3px; stroke-width: 2px;"/></g><g class="legendsymbols"><g class="legendpoints"/></g></g><rect class="legendtoggle" x="0" y="-9.5" width="50.501953125" height="19" style="fill: rgb(0, 0, 0); fill-opacity: 0;"/></g></g></g><rect class="scrollbar" rx="20" ry="3" width="0" height="0" style="fill: rgb(128, 139, 164); fill-opacity: 1;" x="0" y="0"/></g><g class="g-gtitle"/><g class="g-xtitle"><text class="xtitle" x="168" y="256.7" text-anchor="middle" style="opacity: 1; font-family: Arial; font-size: 6px; fill: rgb(42, 63, 95); fill-opacity: 1; white-space: pre;">Decoding TW</text></g><g class="g-ytitle"><text class="ytitle" transform="rotate(-90,10.446874999999999,120)" x="10.446874999999999" y="120" text-anchor="middle" style="opacity: 1; font-family: Arial; font-size: 6px; fill: rgb(42, 63, 95); fill-opacity: 1; white-space: pre;">Decoding Accuracy</text></g><g class="annotation" data-index="0" style="opacity: 1;"><g class="annotation-text-g" transform="rotate(0,281.5,192.46)"><g class="cursor-pointer" transform="translate(269,187)"><rect class="bg" x="0.5" y="0.5" width="24" height="9" style="stroke-width: 1px; stroke: rgb(0, 0, 0); stroke-opacity: 0; fill: rgb(0, 0, 0); fill-opacity: 0;"/><text class="annotation-text" text-anchor="middle" x="12.34375" y="7" style="font-family: Arial; font-size: 6px; fill: rgb(42, 63, 95); fill-opacity: 1; white-space: pre;">Chance</text></g></g></g></g></svg>