<svg class="main-svg" xmlns="http://www.w3.org/2000/svg" xmlns:xlink="http://www.w3.org/1999/xlink" width="700" height="500" style="" viewBox="0 0 700 500"><rect x="0" y="0" width="700" height="500" style="fill: rgb(255, 255, 255); fill-opacity: 1;"/><defs id="defs-622c20"><g class="clips"><clipPath id="clip622c20xyplot" class="plotclip"><rect width="453" height="360"/></clipPath><clipPath class="axesclip" id="clip622c20x"><rect x="83" y="0" width="453" height="500"/></clipPath><clipPath class="axesclip" id="clip622c20y"><rect x="0" y="60" width="700" height="360"/></clipPath><clipPath class="axesclip" id="clip622c20xy"><rect x="83" y="60" width="453" height="360"/></clipPath></g><g class="gradients"/><g class="patterns"/></defs><g class="bglayer"/><g class="layer-below"><g class="imagelayer"/><g class="shapelayer"/></g><g class="cartesianlayer"><g class="subplot xy"><g class="layer-subplot"><g class="shapelayer"/><g class="imagelayer"/></g><g class="minor-gridlayer"><g class="x"/><g class="y"/></g><g class="gridlayer"><g class="x"/><g class="y"><path class="ygrid crisp" transform="translate(0,363.19)" d="M83,0h453" style="stroke: rgb(255, 255, 255); stroke-opacity: 1; stroke-width: 1px;"/><path class="ygrid crisp" transform="translate(0,306.38)" d="M83,0h453" style="stroke: rgb(255, 255, 255); stroke-opacity: 1; stroke-width: 1px;"/><path class="ygrid crisp" transform="translate(0,249.57)" d="M83,0h453" style="stroke: rgb(255, 255, 255); stroke-opacity: 1; stroke-width: 1px;"/><path class="ygrid crisp" transform="translate(0,192.76)" d="M83,0h453" style="stroke: rgb(255, 255, 255); stroke-opacity: 1; stroke-width: 1px;"/><path class="ygrid crisp" transform="translate(0,135.95)" d="M83,0h453" style="stroke: rgb(255, 255, 255); stroke-opacity: 1; stroke-width: 1px;"/><path class="ygrid crisp" transform="translate(0,79.14)" d="M83,0h453" style="stroke: rgb(255, 255, 255); stroke-opacity: 1; stroke-width: 1px;"/></g></g><g class="zerolinelayer"/><g class="layer-between"><g class="shapelayer"/><g class="imagelayer"/></g><path class="xlines-below"/><path class="ylines-below"/><g class="overlines-below"/><g class="xaxislayer-below"/><g class="yaxislayer-below"/><g class="overaxes-below"/><g class="overplot"><g class="xy" transform="translate(83,60)" clip-path="url(#clip622c20xyplot)"><g class="boxlayer mlayer"><g class="trace boxes" style="opacity: 1;"><path class="box" d="M56.92,147.54H89.62M56.92,236.79H89.62V53.68H56.92ZM73.27,236.79V265.57M73.27,53.68V20.3M65.1,265.57H81.45M65.1,20.3H81.45" style="vector-effect: none; stroke-width: 2px; stroke: rgb(93, 105, 177); stroke-opacity: 1; fill: rgb(93, 105, 177); fill-opacity: 0.5;"/><path class="box" d="M190.41,184.68H223.11M190.41,197.01H223.11V108.72H190.41ZM206.76,197.01V200.69M206.76,108.72V41.41M198.58,200.69H214.94M198.58,41.41H214.94" style="vector-effect: none; stroke-width: 2px; stroke: rgb(93, 105, 177); stroke-opacity: 1; fill: rgb(93, 105, 177); fill-opacity: 0.5;"/><path class="box" d="M323.89,208.87H356.6M323.89,247.13H356.6V128.43H323.89ZM340.25,247.13V268.58M340.25,128.43V64.82M332.07,268.58H348.42M332.07,64.82H348.42" style="vector-effect: none; stroke-width: 2px; stroke: rgb(93, 105, 177); stroke-opacity: 1; fill: rgb(93, 105, 177); fill-opacity: 0.5;"/><g class="points"><path class="point" transform="translate(51.29,265.57)" d="M2.5,0A2.5,2.5 0 1,1 0,-2.5A2.5,2.5 0 0,1 2.5,0Z" style="opacity: 0.9; stroke-width: 0px; fill: rgb(93, 105, 177); fill-opacity: 1;"/><path class="point" transform="translate(45.62,208.01)" d="M2.5,0A2.5,2.5 0 1,1 0,-2.5A2.5,2.5 0 0,1 2.5,0Z" style="opacity: 0.9; stroke-width: 0px; fill: rgb(93, 105, 177); fill-opacity: 1;"/><path class="point" transform="translate(52.55,87.07)" d="M2.5,0A2.5,2.5 0 1,1 0,-2.5A2.5,2.5 0 0,1 2.5,0Z" style="opacity: 0.9; stroke-width: 0px; fill: rgb(93, 105, 177); fill-opacity: 1;"/><path class="point" transform="translate(44.59,20.3)" d="M2.5,0A2.5,2.5 0 1,1 0,-2.5A2.5,2.5 0 0,1 2.5,0Z" style="opacity: 0.9; stroke-width: 0px; fill: rgb(93, 105, 177); fill-opacity: 1;"/></g><g class="points"><path class="point" transform="translate(181.02,200.69)" d="M2.5,0A2.5,2.5 0 1,1 0,-2.5A2.5,2.5 0 0,1 2.5,0Z" style="opacity: 0.9; stroke-width: 0px; fill: rgb(93, 105, 177); fill-opacity: 1;"/><path class="point" transform="translate(184.81,193.33)" d="M2.5,0A2.5,2.5 0 1,1 0,-2.5A2.5,2.5 0 0,1 2.5,0Z" style="opacity: 0.9; stroke-width: 0px; fill: rgb(93, 105, 177); fill-opacity: 1;"/><path class="point" transform="translate(182.05,176.03)" d="M2.5,0A2.5,2.5 0 1,1 0,-2.5A2.5,2.5 0 0,1 2.5,0Z" style="opacity: 0.9; stroke-width: 0px; fill: rgb(93, 105, 177); fill-opacity: 1;"/><path class="point" transform="translate(183.65,41.41)" d="M2.5,0A2.5,2.5 0 1,1 0,-2.5A2.5,2.5 0 0,1 2.5,0Z" style="opacity: 0.9; stroke-width: 0px; fill: rgb(93, 105, 177); fill-opacity: 1;"/></g><g class="points"><path class="point" transform="translate(314.15,268.58)" d="M2.5,0A2.5,2.5 0 1,1 0,-2.5A2.5,2.5 0 0,1 2.5,0Z" style="opacity: 0.9; stroke-width: 0px; fill: rgb(93, 105, 177); fill-opacity: 1;"/><path class="point" transform="translate(312.12,225.69)" d="M2.5,0A2.5,2.5 0 1,1 0,-2.5A2.5,2.5 0 0,1 2.5,0Z" style="opacity: 0.9; stroke-width: 0px; fill: rgb(93, 105, 177); fill-opacity: 1;"/><path class="point" transform="translate(317.03,192.04)" d="M2.5,0A2.5,2.5 0 1,1 0,-2.5A2.5,2.5 0 0,1 2.5,0Z" style="opacity: 0.9; stroke-width: 0px; fill: rgb(93, 105, 177); fill-opacity: 1;"/><path class="point" transform="translate(314.1,64.82)" d="M2.5,0A2.5,2.5 0 1,1 0,-2.5A2.5,2.5 0 0,1 2.5,0Z" style="opacity: 0.9; stroke-width: 0px; fill: rgb(93, 105, 177); fill-opacity: 1;"/></g><path class="mean" d="M56.92,145.23H89.62" style="fill: none; vector-effect: non-scaling-stroke; stroke-width: 2; stroke-dasharray: 4px, 2px; stroke: rgb(93, 105, 177); stroke-opacity: 1;"/><path class="mean" d="M190.41,152.86H223.11" style="fill: none; vector-effect: non-scaling-stroke; stroke-width: 2; stroke-dasharray: 4px, 2px; stroke: rgb(93, 105, 177); stroke-opacity: 1;"/><path class="mean" d="M323.89,187.78H356.6" style="fill: none; vector-effect: non-scaling-stroke; stroke-width: 2; stroke-dasharray: 4px, 2px; stroke: rgb(93, 105, 177); stroke-opacity: 1;"/></g><g class="trace boxes" style="opacity: 1;"><path class="box" d="M103.64,150.45H136.34M103.64,224.02H136.34V55.62H103.64ZM119.99,224.02V240.4M119.99,55.62V18M111.82,240.4H128.17M111.82,18H128.17" style="vector-effect: none; stroke-width: 2px; stroke: rgb(229, 134, 6); stroke-opacity: 1; fill: rgb(229, 134, 6); fill-opacity: 0.5;"/><path class="box" d="M237.13,176.04H269.83M237.13,194.78H269.83V109.3H237.13ZM253.48,194.78V209.86M253.48,109.3V46.21M245.3,209.86H261.66M245.3,46.21H261.66" style="vector-effect: none; stroke-width: 2px; stroke: rgb(229, 134, 6); stroke-opacity: 1; fill: rgb(229, 134, 6); fill-opacity: 0.5;"/><path class="box" d="M370.61,213.48H403.32M370.61,237.18H403.32V121.73H370.61ZM386.97,237.18V253.02M386.97,121.73V37.83M378.79,253.02H395.14M378.79,37.83H395.14" style="vector-effect: none; stroke-width: 2px; stroke: rgb(229, 134, 6); stroke-opacity: 1; fill: rgb(229, 134, 6); fill-opacity: 0.5;"/><g class="points"><path class="point" transform="translate(98.01,240.4)" d="M2.5,0A2.5,2.5 0 1,1 0,-2.5A2.5,2.5 0 0,1 2.5,0Z" style="opacity: 0.9; stroke-width: 0px; fill: rgb(229, 134, 6); fill-opacity: 1;"/><path class="point" transform="translate(92.34,207.65)" d="M2.5,0A2.5,2.5 0 1,1 0,-2.5A2.5,2.5 0 0,1 2.5,0Z" style="opacity: 0.9; stroke-width: 0px; fill: rgb(229, 134, 6); fill-opacity: 1;"/><path class="point" transform="translate(99.27,93.24)" d="M2.5,0A2.5,2.5 0 1,1 0,-2.5A2.5,2.5 0 0,1 2.5,0Z" style="opacity: 0.9; stroke-width: 0px; fill: rgb(229, 134, 6); fill-opacity: 1;"/><path class="point" transform="translate(91.32,18)" d="M2.5,0A2.5,2.5 0 1,1 0,-2.5A2.5,2.5 0 0,1 2.5,0Z" style="opacity: 0.9; stroke-width: 0px; fill: rgb(229, 134, 6); fill-opacity: 1;"/></g><g class="points"><path class="point" transform="translate(227.74,209.86)" d="M2.5,0A2.5,2.5 0 1,1 0,-2.5A2.5,2.5 0 0,1 2.5,0Z" style="opacity: 0.9; stroke-width: 0px; fill: rgb(229, 134, 6); fill-opacity: 1;"/><path class="point" transform="translate(231.53,179.69)" d="M2.5,0A2.5,2.5 0 1,1 0,-2.5A2.5,2.5 0 0,1 2.5,0Z" style="opacity: 0.9; stroke-width: 0px; fill: rgb(229, 134, 6); fill-opacity: 1;"/><path class="point" transform="translate(228.77,172.38)" d="M2.5,0A2.5,2.5 0 1,1 0,-2.5A2.5,2.5 0 0,1 2.5,0Z" style="opacity: 0.9; stroke-width: 0px; fill: rgb(229, 134, 6); fill-opacity: 1;"/><path class="point" transform="translate(230.37,46.21)" d="M2.5,0A2.5,2.5 0 1,1 0,-2.5A2.5,2.5 0 0,1 2.5,0Z" style="opacity: 0.9; stroke-width: 0px; fill: rgb(229, 134, 6); fill-opacity: 1;"/></g><g class="points"><path class="point" transform="translate(360.87,253.02)" d="M2.5,0A2.5,2.5 0 1,1 0,-2.5A2.5,2.5 0 0,1 2.5,0Z" style="opacity: 0.9; stroke-width: 0px; fill: rgb(229, 134, 6); fill-opacity: 1;"/><path class="point" transform="translate(358.84,221.34)" d="M2.5,0A2.5,2.5 0 1,1 0,-2.5A2.5,2.5 0 0,1 2.5,0Z" style="opacity: 0.9; stroke-width: 0px; fill: rgb(229, 134, 6); fill-opacity: 1;"/><path class="point" transform="translate(363.75,205.63)" d="M2.5,0A2.5,2.5 0 1,1 0,-2.5A2.5,2.5 0 0,1 2.5,0Z" style="opacity: 0.9; stroke-width: 0px; fill: rgb(229, 134, 6); fill-opacity: 1;"/><path class="point" transform="translate(360.82,37.83)" d="M2.5,0A2.5,2.5 0 1,1 0,-2.5A2.5,2.5 0 0,1 2.5,0Z" style="opacity: 0.9; stroke-width: 0px; fill: rgb(229, 134, 6); fill-opacity: 1;"/></g><path class="mean" d="M103.64,139.82H136.34" style="fill: none; vector-effect: non-scaling-stroke; stroke-width: 2; stroke-dasharray: 4px, 2px; stroke: rgb(229, 134, 6); stroke-opacity: 1;"/><path class="mean" d="M237.13,152.04H269.83" style="fill: none; vector-effect: non-scaling-stroke; stroke-width: 2; stroke-dasharray: 4px, 2px; stroke: rgb(229, 134, 6); stroke-opacity: 1;"/><path class="mean" d="M370.61,179.45H403.32" style="fill: none; vector-effect: non-scaling-stroke; stroke-width: 2; stroke-dasharray: 4px, 2px; stroke: rgb(229, 134, 6); stroke-opacity: 1;"/></g></g></g></g><g class="zerolinelayer-above"/><path class="xlines-above crisp" d="M81,421H536" style="fill: none; stroke-width: 2px; stroke: rgb(0, 0, 0); stroke-opacity: 1;"/><path class="ylines-above crisp" d="M82,60V420" style="fill: none; stroke-width: 2px; stroke: rgb(0, 0, 0); stroke-opacity: 1;"/><g class="overlines-above"/><g class="xaxislayer-above"><path class="xtick ticks crisp" d="M0,422v5" transform="translate(179.63,0)" style="stroke: rgb(68, 68, 68); stroke-opacity: 1; stroke-width: 1px;"/><path class="xtick ticks crisp" d="M0,422v5" transform="translate(313.12,0)" style="stroke: rgb(68, 68, 68); stroke-opacity: 1; stroke-width: 1px;"/><path class="xtick ticks crisp" d="M0,422v5" transform="translate(446.61,0)" style="stroke: rgb(68, 68, 68); stroke-opacity: 1; stroke-width: 1px;"/><g class="xtick"><text text-anchor="middle" x="0" y="451" transform="translate(179.63,0)" style="font-family: Arial; font-size: 20px; fill: rgb(42, 63, 95); fill-opacity: 1; white-space: pre;">P1</text></g><g class="xtick"><text text-anchor="middle" x="0" y="451" transform="translate(313.12,0)" style="font-family: Arial; font-size: 20px; fill: rgb(42, 63, 95); fill-opacity: 1; white-space: pre;">P2</text></g><g class="xtick"><text text-anchor="middle" x="0" y="451" transform="translate(446.61,0)" style="font-family: Arial; font-size: 20px; fill: rgb(42, 63, 95); fill-opacity: 1; white-space: pre;">P3</text></g></g><g class="yaxislayer-above"><path class="ytick ticks crisp" d="M81,0h-5" transform="translate(0,420)" style="stroke: rgb(68, 68, 68); stroke-opacity: 1; stroke-width: 1px;"/><path class="ytick ticks crisp" d="M81,0h-5" transform="translate(0,363.19)" style="stroke: rgb(68, 68, 68); stroke-opacity: 1; stroke-width: 1px;"/><path class="ytick ticks crisp" d="M81,0h-5" transform="translate(0,306.38)" style="stroke: rgb(68, 68, 68); stroke-opacity: 1; stroke-width: 1px;"/><path class="ytick ticks crisp" d="M81,0h-5" transform="translate(0,249.57)" style="stroke: rgb(68, 68, 68); stroke-opacity: 1; stroke-width: 1px;"/><path class="ytick ticks crisp" d="M81,0h-5" transform="translate(0,192.76)" style="stroke: rgb(68, 68, 68); stroke-opacity: 1; stroke-width: 1px;"/><path class="ytick ticks crisp" d="M81,0h-5" transform="translate(0,135.95)" style="stroke: rgb(68, 68, 68); stroke-opacity: 1; stroke-width: 1px;"/><path class="ytick ticks crisp" d="M81,0h-5" transform="translate(0,79.14)" style="stroke: rgb(68, 68, 68); stroke-opacity: 1; stroke-width: 1px;"/><g class="ytick"><text text-anchor="end" x="72" y="7" transform="translate(0,420)" style="font-family: Arial; font-size: 20px; fill: rgb(42, 63, 95); fill-opacity: 1; white-space: pre;">0</text></g><g class="ytick"><text text-anchor="end" x="72" y="7" style="font-family: Arial; font-size: 20px; fill: rgb(42, 63, 95); fill-opacity: 1; white-space: pre;" transform="translate(0,363.19)">0.1</text></g><g class="ytick"><text text-anchor="end" x="72" y="7" style="font-family: Arial; font-size: 20px; fill: rgb(42, 63, 95); fill-opacity: 1; white-space: pre;" transform="translate(0,306.38)">0.2</text></g><g class="ytick"><text text-anchor="end" x="72" y="7" style="font-family: Arial; font-size: 20px; fill: rgb(42, 63, 95); fill-opacity: 1; white-space: pre;" transform="translate(0,249.57)">0.3</text></g><g class="ytick"><text text-anchor="end" x="72" y="7" style="font-family: Arial; font-size: 20px; fill: rgb(42, 63, 95); fill-opacity: 1; white-space: pre;" transform="translate(0,192.76)">0.4</text></g><g class="ytick"><text text-anchor="end" x="72" y="7" style="font-family: Arial; font-size: 20px; fill: rgb(42, 63, 95); fill-opacity: 1; white-space: pre;" transform="translate(0,135.95)">0.5</text></g><g class="ytick"><text text-anchor="end" x="72" y="7" style="font-family: Arial; font-size: 20px; fill: rgb(42, 63, 95); fill-opacity: 1; white-space: pre;" transform="translate(0,79.14)">0.6</text></g></g><g class="overaxes-above"/></g></g><g class="polarlayer"/><g class="smithlayer"/><g class="ternarylayer"/><g class="geolayer"/><g class="funnelarealayer"/><g class="pielayer"/><g class="iciclelayer"/><g class="treemaplayer"/><g class="sunburstlayer"/><g class="glimages"/><defs id="topdefs-622c20"><g class="clips"/><clipPath id="legend622c20"><rect width="143" height="78" x="0" y="0"/></clipPath></defs><g class="layer-above"><g class="imagelayer"/><g class="shapelayer"><g class="shape-group" data-index="0" clip-path="url(#clip622c20y)"><path data-index="0" fill-rule="evenodd" d="M83,356.88L536,356.88" style="opacity: 1; stroke: rgb(128, 128, 128); stroke-opacity: 1; fill: rgb(0, 0, 0); fill-opacity: 0; stroke-dasharray: 9px, 9px; stroke-width: 2px;"/></g></g></g><g class="infolayer"><g class="legend" pointer-events="all" transform="translate(545.06,60)"><rect class="bg" shape-rendering="crispEdges" style="stroke: rgb(68, 68, 68); stroke-opacity: 1; fill: rgb(255, 255, 255); fill-opacity: 1; stroke-width: 0px;" width="143" height="78" x="0" y="0"/><g class="scrollbox" transform="" clip-path="url(#legend622c20)"><g class="groups" transform=""><g class="traces" transform="translate(0,19.5)" style="opacity: 1;"><text class="legendtext" text-anchor="start" x="40" y="7.8" style="font-family: Arial; font-size: 20px; fill: rgb(42, 63, 95); fill-opacity: 1; white-space: pre;">Manual</text><g class="layers" style="opacity: 1;"><g class="legendfill"/><g class="legendlines"/><g class="legendsymbols"><g class="legendpoints"><path class="legendbox" d="M6,6H-6V-6H6Z" transform="translate(20,0)" style="stroke-width: 2px; fill: rgb(93, 105, 177); fill-opacity: 0.5; stroke: rgb(93, 105, 177); stroke-opacity: 1;"/></g></g></g><rect class="legendtoggle" x="0" y="-14.5" width="137.734375" height="29" style="fill: rgb(0, 0, 0); fill-opacity: 0;"/></g></g><g class="groups" transform="translate(0,10)"><g class="traces" transform="translate(0,48.5)" style="opacity: 1;"><text class="legendtext" text-anchor="start" x="40" y="7.8" style="font-family: Arial; font-size: 20px; fill: rgb(42, 63, 95); fill-opacity: 1; white-space: pre;">Automated</text><g class="layers" style="opacity: 1;"><g class="legendfill"/><g class="legendlines"/><g class="legendsymbols"><g class="legendpoints"><path class="legendbox" d="M6,6H-6V-6H6Z" transform="translate(20,0)" style="stroke-width: 2px; fill: rgb(229, 134, 6); fill-opacity: 0.5; stroke: rgb(229, 134, 6); stroke-opacity: 1;"/></g></g></g><rect class="legendtoggle" x="0" y="-14.5" width="137.734375" height="29" style="fill: rgb(0, 0, 0); fill-opacity: 0;"/></g></g></g><rect class="scrollbar" rx="20" ry="3" width="0" height="0" style="fill: rgb(128, 139, 164); fill-opacity: 1;" x="0" y="0"/></g><g class="g-gtitle"/><g class="g-xtitle"><text class="xtitle" x="309.5" y="485.8" text-anchor="middle" style="opacity: 1; font-family: Arial; font-size: 24px; fill: rgb(42, 63, 95); fill-opacity: 1; white-space: pre;">Position</text></g><g class="g-ytitle" transform="translate(0.212890625,0)"><text class="ytitle" transform="rotate(-90,21.7875,240)" x="21.7875" y="240" text-anchor="middle" style="opacity: 1; font-family: Arial; font-size: 24px; fill: rgb(42, 63, 95); fill-opacity: 1; white-space: pre;">Accuracy</text></g><g class="annotation" data-index="0" style="opacity: 1;"><g class="annotation-text-g" transform="rotate(0,499.5,369.88)"><g class="cursor-pointer" transform="translate(463,357)"><rect class="bg" x="0.5" y="0.5" width="72" height="25" style="stroke-width: 1px; stroke: rgb(0, 0, 0); stroke-opacity: 0; fill: rgb(0, 0, 0); fill-opacity: 0;"/><text class="annotation-text" text-anchor="middle" x="36.46875" y="20" style="font-family: Arial; font-size: 20px; fill: rgb(42, 63, 95); fill-opacity: 1; white-space: pre;">Chance</text></g></g></g></g></svg>