<svg class="main-svg" xmlns="http://www.w3.org/2000/svg" xmlns:xlink="http://www.w3.org/1999/xlink" width="60mm" height="70mm" style="" viewBox="0 0 227 265"><rect x="0" y="0" width="60mm" height="70mm" style="fill: rgb(255, 255, 255); fill-opacity: 1;"/><defs id="defs-de5e09"><g class="clips"><clipPath id="clipde5e09xyplot" class="plotclip"><rect width="96" height="207"/></clipPath><clipPath class="axesclip" id="clipde5e09x"><rect x="45" y="0" width="96" height="70mm"/></clipPath><clipPath class="axesclip" id="clipde5e09y"><rect x="0" y="15" width="60mm" height="207"/></clipPath><clipPath class="axesclip" id="clipde5e09xy"><rect x="45" y="15" width="96" height="207"/></clipPath></g><g class="gradients"/><g class="patterns"/></defs><g class="bglayer"/><g class="layer-below"><g class="imagelayer"/><g class="shapelayer"/></g><g class="cartesianlayer"><g class="subplot xy"><g class="layer-subplot"><g class="shapelayer"/><g class="imagelayer"/></g><g class="minor-gridlayer"><g class="x"/><g class="y"/></g><g class="gridlayer"><g class="x"/><g class="y"><path class="ygrid crisp" transform="translate(0,156.67)" d="M45,0h96" style="stroke: rgb(255, 255, 255); stroke-opacity: 1; stroke-width: 1px;"/><path class="ygrid crisp" transform="translate(0,91.34)" d="M45,0h96" style="stroke: rgb(255, 255, 255); stroke-opacity: 1; stroke-width: 1px;"/><path class="ygrid crisp" transform="translate(0,26.009999999999998)" d="M45,0h96" style="stroke: rgb(255, 255, 255); stroke-opacity: 1; stroke-width: 1px;"/></g></g><g class="zerolinelayer"/><g class="layer-between"><g class="shapelayer"/><g class="imagelayer"/></g><path class="xlines-below"/><path class="ylines-below"/><g class="overlines-below"/><g class="xaxislayer-below"/><g class="yaxislayer-below"/><g class="overaxes-below"/><g class="overplot"><g class="xy" transform="translate(45,15)" clip-path="url(#clipde5e09xyplot)"><g class="boxlayer mlayer"><g class="trace boxes" style="opacity: 1;"><path class="box" d="M13.88,84.83H20.65M13.88,136.15H20.65V30.87H13.88ZM17.26,136.15V152.7M17.26,30.87V11.67M15.57,152.7H18.96M15.57,11.67H18.96" style="vector-effect: none; stroke-width: 2px; stroke: rgb(93, 105, 177); stroke-opacity: 1; fill: rgb(93, 105, 177); fill-opacity: 0.5;"/><path class="box" d="M41.52,106.19H48.29M41.52,113.28H48.29V62.51H41.52ZM44.9,113.28V115.39M44.9,62.51V23.81M43.21,115.39H46.6M43.21,23.81H46.6" style="vector-effect: none; stroke-width: 2px; stroke: rgb(93, 105, 177); stroke-opacity: 1; fill: rgb(93, 105, 177); fill-opacity: 0.5;"/><path class="box" d="M69.16,120.1H75.93M69.16,142.1H75.93V73.85H69.16ZM72.54,142.1V154.43M72.54,73.85V37.27M70.85,154.43H74.24M70.85,37.27H74.24" style="vector-effect: none; stroke-width: 2px; stroke: rgb(93, 105, 177); stroke-opacity: 1; fill: rgb(93, 105, 177); fill-opacity: 0.5;"/><g class="points"><path class="point" transform="translate(12.71,152.7)" d="M2.5,0A2.5,2.5 0 1,1 0,-2.5A2.5,2.5 0 0,1 2.5,0Z" style="opacity: 0.9; stroke-width: 0px; fill: rgb(93, 105, 177); fill-opacity: 1;"/><path class="point" transform="translate(11.54,119.6)" d="M2.5,0A2.5,2.5 0 1,1 0,-2.5A2.5,2.5 0 0,1 2.5,0Z" style="opacity: 0.9; stroke-width: 0px; fill: rgb(93, 105, 177); fill-opacity: 1;"/><path class="point" transform="translate(12.97,50.06)" d="M2.5,0A2.5,2.5 0 1,1 0,-2.5A2.5,2.5 0 0,1 2.5,0Z" style="opacity: 0.9; stroke-width: 0px; fill: rgb(93, 105, 177); fill-opacity: 1;"/><path class="point" transform="translate(11.33,11.67)" d="M2.5,0A2.5,2.5 0 1,1 0,-2.5A2.5,2.5 0 0,1 2.5,0Z" style="opacity: 0.9; stroke-width: 0px; fill: rgb(93, 105, 177); fill-opacity: 1;"/></g><g class="points"><path class="point" transform="translate(39.57,115.39)" d="M2.5,0A2.5,2.5 0 1,1 0,-2.5A2.5,2.5 0 0,1 2.5,0Z" style="opacity: 0.9; stroke-width: 0px; fill: rgb(93, 105, 177); fill-opacity: 1;"/><path class="point" transform="translate(40.36,111.17)" d="M2.5,0A2.5,2.5 0 1,1 0,-2.5A2.5,2.5 0 0,1 2.5,0Z" style="opacity: 0.9; stroke-width: 0px; fill: rgb(93, 105, 177); fill-opacity: 1;"/><path class="point" transform="translate(39.79,101.22)" d="M2.5,0A2.5,2.5 0 1,1 0,-2.5A2.5,2.5 0 0,1 2.5,0Z" style="opacity: 0.9; stroke-width: 0px; fill: rgb(93, 105, 177); fill-opacity: 1;"/><path class="point" transform="translate(40.12,23.81)" d="M2.5,0A2.5,2.5 0 1,1 0,-2.5A2.5,2.5 0 0,1 2.5,0Z" style="opacity: 0.9; stroke-width: 0px; fill: rgb(93, 105, 177); fill-opacity: 1;"/></g><g class="points"><path class="point" transform="translate(67.14,154.43)" d="M2.5,0A2.5,2.5 0 1,1 0,-2.5A2.5,2.5 0 0,1 2.5,0Z" style="opacity: 0.9; stroke-width: 0px; fill: rgb(93, 105, 177); fill-opacity: 1;"/><path class="point" transform="translate(66.72,129.77)" d="M2.5,0A2.5,2.5 0 1,1 0,-2.5A2.5,2.5 0 0,1 2.5,0Z" style="opacity: 0.9; stroke-width: 0px; fill: rgb(93, 105, 177); fill-opacity: 1;"/><path class="point" transform="translate(67.74,110.42)" d="M2.5,0A2.5,2.5 0 1,1 0,-2.5A2.5,2.5 0 0,1 2.5,0Z" style="opacity: 0.9; stroke-width: 0px; fill: rgb(93, 105, 177); fill-opacity: 1;"/><path class="point" transform="translate(67.13,37.27)" d="M2.5,0A2.5,2.5 0 1,1 0,-2.5A2.5,2.5 0 0,1 2.5,0Z" style="opacity: 0.9; stroke-width: 0px; fill: rgb(93, 105, 177); fill-opacity: 1;"/></g><path class="mean" d="M13.88,83.51H20.65" style="fill: none; vector-effect: non-scaling-stroke; stroke-width: 2; stroke-dasharray: 4px, 2px; stroke: rgb(93, 105, 177); stroke-opacity: 1;"/><path class="mean" d="M41.52,87.9H48.29" style="fill: none; vector-effect: non-scaling-stroke; stroke-width: 2; stroke-dasharray: 4px, 2px; stroke: rgb(93, 105, 177); stroke-opacity: 1;"/><path class="mean" d="M69.16,107.98H75.93" style="fill: none; vector-effect: non-scaling-stroke; stroke-width: 2; stroke-dasharray: 4px, 2px; stroke: rgb(93, 105, 177); stroke-opacity: 1;"/></g><g class="trace boxes" style="opacity: 1;"><path class="box" d="M23.55,86.51H30.32M23.55,128.81H30.32V31.98H23.55ZM26.94,128.81V138.23M26.94,31.98V10.35M25.25,138.23H28.63M25.25,10.35H28.63" style="vector-effect: none; stroke-width: 2px; stroke: rgb(229, 134, 6); stroke-opacity: 1; fill: rgb(229, 134, 6); fill-opacity: 0.5;"/><path class="box" d="M51.19,101.22H57.96M51.19,112H57.96V62.85H51.19ZM54.58,112V120.67M54.58,62.85V26.57M52.88,120.67H56.27M52.88,26.57H56.27" style="vector-effect: none; stroke-width: 2px; stroke: rgb(229, 134, 6); stroke-opacity: 1; fill: rgb(229, 134, 6); fill-opacity: 0.5;"/><path class="box" d="M78.83,122.75H85.6M78.83,136.38H85.6V69.99H78.83ZM82.22,136.38V145.49M82.22,69.99V21.75M80.52,145.49H83.91M80.52,21.75H83.91" style="vector-effect: none; stroke-width: 2px; stroke: rgb(229, 134, 6); stroke-opacity: 1; fill: rgb(229, 134, 6); fill-opacity: 0.5;"/><g class="points"><path class="point" transform="translate(22.39,138.23)" d="M2.5,0A2.5,2.5 0 1,1 0,-2.5A2.5,2.5 0 0,1 2.5,0Z" style="opacity: 0.9; stroke-width: 0px; fill: rgb(229, 134, 6); fill-opacity: 1;"/><path class="point" transform="translate(21.21,119.4)" d="M2.5,0A2.5,2.5 0 1,1 0,-2.5A2.5,2.5 0 0,1 2.5,0Z" style="opacity: 0.9; stroke-width: 0px; fill: rgb(229, 134, 6); fill-opacity: 1;"/><path class="point" transform="translate(22.65,53.61)" d="M2.5,0A2.5,2.5 0 1,1 0,-2.5A2.5,2.5 0 0,1 2.5,0Z" style="opacity: 0.9; stroke-width: 0px; fill: rgb(229, 134, 6); fill-opacity: 1;"/><path class="point" transform="translate(21,10.35)" d="M2.5,0A2.5,2.5 0 1,1 0,-2.5A2.5,2.5 0 0,1 2.5,0Z" style="opacity: 0.9; stroke-width: 0px; fill: rgb(229, 134, 6); fill-opacity: 1;"/></g><g class="points"><path class="point" transform="translate(49.25,120.67)" d="M2.5,0A2.5,2.5 0 1,1 0,-2.5A2.5,2.5 0 0,1 2.5,0Z" style="opacity: 0.9; stroke-width: 0px; fill: rgb(229, 134, 6); fill-opacity: 1;"/><path class="point" transform="translate(50.03,103.32)" d="M2.5,0A2.5,2.5 0 1,1 0,-2.5A2.5,2.5 0 0,1 2.5,0Z" style="opacity: 0.9; stroke-width: 0px; fill: rgb(229, 134, 6); fill-opacity: 1;"/><path class="point" transform="translate(49.46,99.12)" d="M2.5,0A2.5,2.5 0 1,1 0,-2.5A2.5,2.5 0 0,1 2.5,0Z" style="opacity: 0.9; stroke-width: 0px; fill: rgb(229, 134, 6); fill-opacity: 1;"/><path class="point" transform="translate(49.79,26.57)" d="M2.5,0A2.5,2.5 0 1,1 0,-2.5A2.5,2.5 0 0,1 2.5,0Z" style="opacity: 0.9; stroke-width: 0px; fill: rgb(229, 134, 6); fill-opacity: 1;"/></g><g class="points"><path class="point" transform="translate(76.81,145.49)" d="M2.5,0A2.5,2.5 0 1,1 0,-2.5A2.5,2.5 0 0,1 2.5,0Z" style="opacity: 0.9; stroke-width: 0px; fill: rgb(229, 134, 6); fill-opacity: 1;"/><path class="point" transform="translate(76.39,127.27)" d="M2.5,0A2.5,2.5 0 1,1 0,-2.5A2.5,2.5 0 0,1 2.5,0Z" style="opacity: 0.9; stroke-width: 0px; fill: rgb(229, 134, 6); fill-opacity: 1;"/><path class="point" transform="translate(77.41,118.24)" d="M2.5,0A2.5,2.5 0 1,1 0,-2.5A2.5,2.5 0 0,1 2.5,0Z" style="opacity: 0.9; stroke-width: 0px; fill: rgb(229, 134, 6); fill-opacity: 1;"/><path class="point" transform="translate(76.8,21.75)" d="M2.5,0A2.5,2.5 0 1,1 0,-2.5A2.5,2.5 0 0,1 2.5,0Z" style="opacity: 0.9; stroke-width: 0px; fill: rgb(229, 134, 6); fill-opacity: 1;"/></g><path class="mean" d="M23.55,80.4H30.32" style="fill: none; vector-effect: non-scaling-stroke; stroke-width: 2; stroke-dasharray: 4px, 2px; stroke: rgb(229, 134, 6); stroke-opacity: 1;"/><path class="mean" d="M51.19,87.42H57.96" style="fill: none; vector-effect: non-scaling-stroke; stroke-width: 2; stroke-dasharray: 4px, 2px; stroke: rgb(229, 134, 6); stroke-opacity: 1;"/><path class="mean" d="M78.83,103.19H85.6" style="fill: none; vector-effect: non-scaling-stroke; stroke-width: 2; stroke-dasharray: 4px, 2px; stroke: rgb(229, 134, 6); stroke-opacity: 1;"/></g></g></g></g><g class="zerolinelayer-above"/><path class="xlines-above crisp" d="M43,223H141" style="fill: none; stroke-width: 2px; stroke: rgb(0, 0, 0); stroke-opacity: 1;"/><path class="ylines-above crisp" d="M44,15V222" style="fill: none; stroke-width: 2px; stroke: rgb(0, 0, 0); stroke-opacity: 1;"/><g class="overlines-above"/><g class="xaxislayer-above"><path class="xtick ticks crisp" d="M0,224v5" transform="translate(67.1,0)" style="stroke: rgb(68, 68, 68); stroke-opacity: 1; stroke-width: 1px;"/><path class="xtick ticks crisp" d="M0,224v5" transform="translate(94.74000000000001,0)" style="stroke: rgb(68, 68, 68); stroke-opacity: 1; stroke-width: 1px;"/><path class="xtick ticks crisp" d="M0,224v5" transform="translate(122.38,0)" style="stroke: rgb(68, 68, 68); stroke-opacity: 1; stroke-width: 1px;"/><g class="xtick"><text text-anchor="middle" x="0" y="236.2" transform="translate(67.1,0)" style="font-family: Arial; font-size: 6px; fill: rgb(42, 63, 95); fill-opacity: 1; white-space: pre;">P1</text></g><g class="xtick"><text text-anchor="middle" x="0" y="236.2" transform="translate(94.74000000000001,0)" style="font-family: Arial; font-size: 6px; fill: rgb(42, 63, 95); fill-opacity: 1; white-space: pre;">P2</text></g><g class="xtick"><text text-anchor="middle" x="0" y="236.2" transform="translate(122.38,0)" style="font-family: Arial; font-size: 6px; fill: rgb(42, 63, 95); fill-opacity: 1; white-space: pre;">P3</text></g></g><g class="yaxislayer-above"><path class="ytick ticks crisp" d="M43,0h-5" transform="translate(0,222)" style="stroke: rgb(68, 68, 68); stroke-opacity: 1; stroke-width: 1px;"/><path class="ytick ticks crisp" d="M43,0h-5" transform="translate(0,156.67)" style="stroke: rgb(68, 68, 68); stroke-opacity: 1; stroke-width: 1px;"/><path class="ytick ticks crisp" d="M43,0h-5" transform="translate(0,91.34)" style="stroke: rgb(68, 68, 68); stroke-opacity: 1; stroke-width: 1px;"/><path class="ytick ticks crisp" d="M43,0h-5" transform="translate(0,26.009999999999998)" style="stroke: rgb(68, 68, 68); stroke-opacity: 1; stroke-width: 1px;"/><g class="ytick"><text text-anchor="end" x="36.8" y="2.0999999999999996" transform="translate(0,222)" style="font-family: Arial; font-size: 6px; fill: rgb(42, 63, 95); fill-opacity: 1; white-space: pre;">0</text></g><g class="ytick"><text text-anchor="end" x="36.8" y="2.0999999999999996" style="font-family: Arial; font-size: 6px; fill: rgb(42, 63, 95); fill-opacity: 1; white-space: pre;" transform="translate(0,156.67)">0.2</text></g><g class="ytick"><text text-anchor="end" x="36.8" y="2.0999999999999996" style="font-family: Arial; font-size: 6px; fill: rgb(42, 63, 95); fill-opacity: 1; white-space: pre;" transform="translate(0,91.34)">0.4</text></g><g class="ytick"><text text-anchor="end" x="36.8" y="2.0999999999999996" style="font-family: Arial; font-size: 6px; fill: rgb(42, 63, 95); fill-opacity: 1; white-space: pre;" transform="translate(0,26.009999999999998)">0.6</text></g></g><g class="overaxes-above"/></g></g><g class="polarlayer"/><g class="smithlayer"/><g class="ternarylayer"/><g class="geolayer"/><g class="funnelarealayer"/><g class="pielayer"/><g class="iciclelayer"/><g class="treemaplayer"/><g class="sunburstlayer"/><g class="glimages"/><defs id="topdefs-de5e09"><g class="clips"/><clipPath id="legendde5e09"><rect width="76" height="58" x="0" y="0"/></clipPath></defs><g class="layer-above"><g class="imagelayer"/><g class="shapelayer"><g class="shape-group" data-index="0" clip-path="url(#clipde5e09y)"><path data-index="0" fill-rule="evenodd" d="M45,185.71L141,185.71" style="opacity: 1; stroke: rgb(128, 128, 128); stroke-opacity: 1; fill: rgb(0, 0, 0); fill-opacity: 0; stroke-dasharray: 9px, 9px; stroke-width: 2px;"/></g></g></g><g class="infolayer"><g class="legend" pointer-events="all" transform="translate(142.92000000000002,15)"><rect class="bg" shape-rendering="crispEdges" style="stroke: rgb(68, 68, 68); stroke-opacity: 1; fill: rgb(255, 255, 255); fill-opacity: 1; stroke-width: 0px;" width="76" height="58" x="0" y="0"/><g class="scrollbox" transform="" clip-path="url(#legendde5e09)"><g class="groups" transform=""><g class="traces" transform="translate(0,14.5)" style="opacity: 1;"><text class="legendtext" text-anchor="start" x="40" y="2.3400000000000003" style="font-family: Arial; font-size: 6px; fill: rgb(42, 63, 95); fill-opacity: 1; white-space: pre;">Manual</text><g class="layers" style="opacity: 1;"><g class="legendfill"/><g class="legendlines"/><g class="legendsymbols"><g class="legendpoints"><path class="legendbox" d="M6,6H-6V-6H6Z" transform="translate(20,0)" style="stroke-width: 2px; fill: rgb(93, 105, 177); fill-opacity: 0.5; stroke: rgb(93, 105, 177); stroke-opacity: 1;"/></g></g></g><rect class="legendtoggle" x="0" y="-9.5" width="70.681640625" height="19" style="fill: rgb(0, 0, 0); fill-opacity: 0;"/></g></g><g class="groups" transform="translate(0,10)"><g class="traces" transform="translate(0,33.5)" style="opacity: 1;"><text class="legendtext" text-anchor="start" x="40" y="2.3400000000000003" style="font-family: Arial; font-size: 6px; fill: rgb(42, 63, 95); fill-opacity: 1; white-space: pre;">Automated</text><g class="layers" style="opacity: 1;"><g class="legendfill"/><g class="legendlines"/><g class="legendsymbols"><g class="legendpoints"><path class="legendbox" d="M6,6H-6V-6H6Z" transform="translate(20,0)" style="stroke-width: 2px; fill: rgb(229, 134, 6); fill-opacity: 0.5; stroke: rgb(229, 134, 6); stroke-opacity: 1;"/></g></g></g><rect class="legendtoggle" x="0" y="-9.5" width="70.681640625" height="19" style="fill: rgb(0, 0, 0); fill-opacity: 0;"/></g></g></g><rect class="scrollbar" rx="20" ry="3" width="0" height="0" style="fill: rgb(128, 139, 164); fill-opacity: 1;" x="0" y="0"/></g><g class="g-gtitle"/><g class="g-xtitle"><text class="xtitle" x="93" y="256.1001953125" text-anchor="middle" style="opacity: 1; font-family: Arial; font-size: 7px; fill: rgb(42, 63, 95); fill-opacity: 1; white-space: pre;">Position</text></g><g class="g-ytitle"><text class="ytitle" transform="rotate(-90,11.006054687499997,118.5)" x="11.006054687499997" y="118.5" text-anchor="middle" style="opacity: 1; font-family: Arial; font-size: 7px; fill: rgb(42, 63, 95); fill-opacity: 1; white-space: pre;">Accuracy</text></g><g class="annotation" data-index="0" style="opacity: 1;"><g class="annotation-text-g" transform="rotate(0,128.5,190.71)"><g class="cursor-pointer" transform="translate(116,186)"><rect class="bg" x="0.5" y="0.5" width="24" height="9" style="stroke-width: 1px; stroke: rgb(0, 0, 0); stroke-opacity: 0; fill: rgb(0, 0, 0); fill-opacity: 0;"/><text class="annotation-text" text-anchor="middle" x="12.34375" y="7" style="font-family: Arial; font-size: 6px; fill: rgb(42, 63, 95); fill-opacity: 1; white-space: pre;">Chance</text></g></g></g></g></svg>