<svg class="main-svg" xmlns="http://www.w3.org/2000/svg" xmlns:xlink="http://www.w3.org/1999/xlink" width="700" height="500" style="" viewBox="0 0 700 500"><rect x="0" y="0" width="700" height="500" style="fill: rgb(255, 255, 255); fill-opacity: 1;"/><defs id="defs-57f618"><g class="clips"><clipPath id="clip57f618xyplot" class="plotclip"><rect width="537" height="360"/></clipPath><clipPath class="axesclip" id="clip57f618x"><rect x="83" y="0" width="537" height="500"/></clipPath><clipPath class="axesclip" id="clip57f618y"><rect x="0" y="60" width="700" height="360"/></clipPath><clipPath class="axesclip" id="clip57f618xy"><rect x="83" y="60" width="537" height="360"/></clipPath></g><g class="gradients"/><g class="patterns"/></defs><g class="bglayer"/><g class="layer-below"><g class="imagelayer"/><g class="shapelayer"/></g><g class="cartesianlayer"><g class="subplot xy"><g class="layer-subplot"><g class="shapelayer"/><g class="imagelayer"/></g><g class="minor-gridlayer"><g class="x"/><g class="y"/></g><g class="gridlayer"><g class="x"/><g class="y"><path class="ygrid crisp" transform="translate(0,361.87)" d="M83,0h537" style="stroke: rgb(255, 255, 255); stroke-opacity: 1; stroke-width: 1px;"/><path class="ygrid crisp" transform="translate(0,303.75)" d="M83,0h537" style="stroke: rgb(255, 255, 255); stroke-opacity: 1; stroke-width: 1px;"/><path class="ygrid crisp" transform="translate(0,245.62)" d="M83,0h537" style="stroke: rgb(255, 255, 255); stroke-opacity: 1; stroke-width: 1px;"/><path class="ygrid crisp" transform="translate(0,187.49)" d="M83,0h537" style="stroke: rgb(255, 255, 255); stroke-opacity: 1; stroke-width: 1px;"/><path class="ygrid crisp" transform="translate(0,129.37)" d="M83,0h537" style="stroke: rgb(255, 255, 255); stroke-opacity: 1; stroke-width: 1px;"/><path class="ygrid crisp" transform="translate(0,71.24)" d="M83,0h537" style="stroke: rgb(255, 255, 255); stroke-opacity: 1; stroke-width: 1px;"/></g></g><g class="zerolinelayer"/><g class="layer-between"><g class="shapelayer"/><g class="imagelayer"/></g><path class="xlines-below"/><path class="ylines-below"/><g class="overlines-below"/><g class="xaxislayer-below"/><g class="yaxislayer-below"/><g class="overaxes-below"/><g class="overplot"><g class="xy" transform="translate(83,60)" clip-path="url(#clip57f618xyplot)"><g class="boxlayer mlayer"><g class="trace boxes" style="opacity: 1;"><path class="box" d="M58.18,34.02H87.34M58.18,37.95H87.34V30.09H58.18ZM72.76,37.95V41.87M72.76,30.09V30.09M65.47,41.87H80.05M65.47,30.09H80.05" style="vector-effect: none; stroke-width: 2px; stroke: rgb(93, 105, 177); stroke-opacity: 1; fill: rgb(93, 105, 177); fill-opacity: 0.5;"/><path class="box" d="M177.2,206.02H206.35M177.2,209.87H206.35V203.45H177.2ZM191.77,209.87V213.72M191.77,203.45V194.47M184.49,213.72H199.06M184.49,194.47H199.06" style="vector-effect: none; stroke-width: 2px; stroke: rgb(93, 105, 177); stroke-opacity: 1; fill: rgb(93, 105, 177); fill-opacity: 0.5;"/><path class="box" d="M296.21,157.82H325.37M296.21,170.46H325.37V136.76H296.21ZM310.79,170.46V187.3M310.79,136.76V119.91M303.5,187.3H318.08M303.5,119.91H318.08" style="vector-effect: none; stroke-width: 2px; stroke: rgb(93, 105, 177); stroke-opacity: 1; fill: rgb(93, 105, 177); fill-opacity: 0.5;"/><path class="box" d="M415.23,232.97H444.39M415.23,239.38H444.39V231.68H415.23ZM429.81,239.38V240.67M429.81,231.68V225.27M422.52,240.67H437.1M422.52,225.27H437.1" style="vector-effect: none; stroke-width: 2px; stroke: rgb(93, 105, 177); stroke-opacity: 1; fill: rgb(93, 105, 177); fill-opacity: 0.5;"/><g class="points"><path class="point" transform="translate(52.49,41.87)" d="M3,0A3,3 0 1,1 0,-3A3,3 0 0,1 3,0Z" style="opacity: 1; stroke-width: 0px; fill: rgb(93, 105, 177); fill-opacity: 1;"/><path class="point" transform="translate(48.89,40.56)" d="M3,0A3,3 0 1,1 0,-3A3,3 0 0,1 3,0Z" style="opacity: 1; stroke-width: 0px; fill: rgb(93, 105, 177); fill-opacity: 1;"/><path class="point" transform="translate(53.2,37.95)" d="M3,0A3,3 0 1,1 0,-3A3,3 0 0,1 3,0Z" style="opacity: 1; stroke-width: 0px; fill: rgb(93, 105, 177); fill-opacity: 1;"/><path class="point" transform="translate(48.18,36.64)" d="M3,0A3,3 0 1,1 0,-3A3,3 0 0,1 3,0Z" style="opacity: 1; stroke-width: 0px; fill: rgb(93, 105, 177); fill-opacity: 1;"/><path class="point" transform="translate(50.05,34.02)" d="M3,0A3,3 0 1,1 0,-3A3,3 0 0,1 3,0Z" style="opacity: 1; stroke-width: 0px; fill: rgb(93, 105, 177); fill-opacity: 1;"/><path class="point" transform="translate(52.67,34.02)" d="M3,0A3,3 0 1,1 0,-3A3,3 0 0,1 3,0Z" style="opacity: 1; stroke-width: 0px; fill: rgb(93, 105, 177); fill-opacity: 1;"/><path class="point" transform="translate(50.76,32.71)" d="M3,0A3,3 0 1,1 0,-3A3,3 0 0,1 3,0Z" style="opacity: 1; stroke-width: 0px; fill: rgb(93, 105, 177); fill-opacity: 1;"/><path class="point" transform="translate(51.95,30.09)" d="M3,0A3,3 0 1,1 0,-3A3,3 0 0,1 3,0Z" style="opacity: 1; stroke-width: 0px; fill: rgb(93, 105, 177); fill-opacity: 1;"/><path class="point" transform="translate(49.7,30.09)" d="M3,0A3,3 0 1,1 0,-3A3,3 0 0,1 3,0Z" style="opacity: 1; stroke-width: 0px; fill: rgb(93, 105, 177); fill-opacity: 1;"/><path class="point" transform="translate(47.68,30.09)" d="M3,0A3,3 0 1,1 0,-3A3,3 0 0,1 3,0Z" style="opacity: 1; stroke-width: 0px; fill: rgb(93, 105, 177); fill-opacity: 1;"/></g><g class="points"><path class="point" transform="translate(170.96,213.72)" d="M3,0A3,3 0 1,1 0,-3A3,3 0 0,1 3,0Z" style="opacity: 1; stroke-width: 0px; fill: rgb(93, 105, 177); fill-opacity: 1;"/><path class="point" transform="translate(168.57,213.72)" d="M3,0A3,3 0 1,1 0,-3A3,3 0 0,1 3,0Z" style="opacity: 1; stroke-width: 0px; fill: rgb(93, 105, 177); fill-opacity: 1;"/><path class="point" transform="translate(172.68,209.87)" d="M3,0A3,3 0 1,1 0,-3A3,3 0 0,1 3,0Z" style="opacity: 1; stroke-width: 0px; fill: rgb(93, 105, 177); fill-opacity: 1;"/><path class="point" transform="translate(166.46,208.59)" d="M3,0A3,3 0 1,1 0,-3A3,3 0 0,1 3,0Z" style="opacity: 1; stroke-width: 0px; fill: rgb(93, 105, 177); fill-opacity: 1;"/><path class="point" transform="translate(167.81,207.3)" d="M3,0A3,3 0 1,1 0,-3A3,3 0 0,1 3,0Z" style="opacity: 1; stroke-width: 0px; fill: rgb(93, 105, 177); fill-opacity: 1;"/><path class="point" transform="translate(173.11,204.74)" d="M3,0A3,3 0 1,1 0,-3A3,3 0 0,1 3,0Z" style="opacity: 1; stroke-width: 0px; fill: rgb(93, 105, 177); fill-opacity: 1;"/><path class="point" transform="translate(169.05,203.45)" d="M3,0A3,3 0 1,1 0,-3A3,3 0 0,1 3,0Z" style="opacity: 1; stroke-width: 0px; fill: rgb(93, 105, 177); fill-opacity: 1;"/><path class="point" transform="translate(166.84,203.45)" d="M3,0A3,3 0 1,1 0,-3A3,3 0 0,1 3,0Z" style="opacity: 1; stroke-width: 0px; fill: rgb(93, 105, 177); fill-opacity: 1;"/><path class="point" transform="translate(168.76,195.76)" d="M3,0A3,3 0 1,1 0,-3A3,3 0 0,1 3,0Z" style="opacity: 1; stroke-width: 0px; fill: rgb(93, 105, 177); fill-opacity: 1;"/><path class="point" transform="translate(169.83,194.47)" d="M3,0A3,3 0 1,1 0,-3A3,3 0 0,1 3,0Z" style="opacity: 1; stroke-width: 0px; fill: rgb(93, 105, 177); fill-opacity: 1;"/></g><g class="points"><path class="point" transform="translate(290.72,187.3)" d="M3,0A3,3 0 1,1 0,-3A3,3 0 0,1 3,0Z" style="opacity: 1; stroke-width: 0px; fill: rgb(93, 105, 177); fill-opacity: 1;"/><path class="point" transform="translate(289.41,178.88)" d="M3,0A3,3 0 1,1 0,-3A3,3 0 0,1 3,0Z" style="opacity: 1; stroke-width: 0px; fill: rgb(93, 105, 177); fill-opacity: 1;"/><path class="point" transform="translate(287.77,170.46)" d="M3,0A3,3 0 1,1 0,-3A3,3 0 0,1 3,0Z" style="opacity: 1; stroke-width: 0px; fill: rgb(93, 105, 177); fill-opacity: 1;"/><path class="point" transform="translate(285.54,166.24)" d="M3,0A3,3 0 1,1 0,-3A3,3 0 0,1 3,0Z" style="opacity: 1; stroke-width: 0px; fill: rgb(93, 105, 177); fill-opacity: 1;"/><path class="point" transform="translate(288.91,166.24)" d="M3,0A3,3 0 1,1 0,-3A3,3 0 0,1 3,0Z" style="opacity: 1; stroke-width: 0px; fill: rgb(93, 105, 177); fill-opacity: 1;"/><path class="point" transform="translate(287.75,149.39)" d="M3,0A3,3 0 1,1 0,-3A3,3 0 0,1 3,0Z" style="opacity: 1; stroke-width: 0px; fill: rgb(93, 105, 177); fill-opacity: 1;"/><path class="point" transform="translate(290.81,149.39)" d="M3,0A3,3 0 1,1 0,-3A3,3 0 0,1 3,0Z" style="opacity: 1; stroke-width: 0px; fill: rgb(93, 105, 177); fill-opacity: 1;"/><path class="point" transform="translate(288.56,136.76)" d="M3,0A3,3 0 1,1 0,-3A3,3 0 0,1 3,0Z" style="opacity: 1; stroke-width: 0px; fill: rgb(93, 105, 177); fill-opacity: 1;"/><path class="point" transform="translate(286.34,128.33)" d="M3,0A3,3 0 1,1 0,-3A3,3 0 0,1 3,0Z" style="opacity: 1; stroke-width: 0px; fill: rgb(93, 105, 177); fill-opacity: 1;"/><path class="point" transform="translate(285.55,119.91)" d="M3,0A3,3 0 1,1 0,-3A3,3 0 0,1 3,0Z" style="opacity: 1; stroke-width: 0px; fill: rgb(93, 105, 177); fill-opacity: 1;"/></g><g class="points"><path class="point" transform="translate(410.03,240.67)" d="M3,0A3,3 0 1,1 0,-3A3,3 0 0,1 3,0Z" style="opacity: 1; stroke-width: 0px; fill: rgb(93, 105, 177); fill-opacity: 1;"/><path class="point" transform="translate(404.48,239.38)" d="M3,0A3,3 0 1,1 0,-3A3,3 0 0,1 3,0Z" style="opacity: 1; stroke-width: 0px; fill: rgb(93, 105, 177); fill-opacity: 1;"/><path class="point" transform="translate(410.54,239.38)" d="M3,0A3,3 0 1,1 0,-3A3,3 0 0,1 3,0Z" style="opacity: 1; stroke-width: 0px; fill: rgb(93, 105, 177); fill-opacity: 1;"/><path class="point" transform="translate(408.9,234.25)" d="M3,0A3,3 0 1,1 0,-3A3,3 0 0,1 3,0Z" style="opacity: 1; stroke-width: 0px; fill: rgb(93, 105, 177); fill-opacity: 1;"/><path class="point" transform="translate(406.81,234.25)" d="M3,0A3,3 0 1,1 0,-3A3,3 0 0,1 3,0Z" style="opacity: 1; stroke-width: 0px; fill: rgb(93, 105, 177); fill-opacity: 1;"/><path class="point" transform="translate(405.7,231.68)" d="M3,0A3,3 0 1,1 0,-3A3,3 0 0,1 3,0Z" style="opacity: 1; stroke-width: 0px; fill: rgb(93, 105, 177); fill-opacity: 1;"/><path class="point" transform="translate(409.63,231.68)" d="M3,0A3,3 0 1,1 0,-3A3,3 0 0,1 3,0Z" style="opacity: 1; stroke-width: 0px; fill: rgb(93, 105, 177); fill-opacity: 1;"/><path class="point" transform="translate(407.57,231.68)" d="M3,0A3,3 0 1,1 0,-3A3,3 0 0,1 3,0Z" style="opacity: 1; stroke-width: 0px; fill: rgb(93, 105, 177); fill-opacity: 1;"/><path class="point" transform="translate(410.72,230.4)" d="M3,0A3,3 0 1,1 0,-3A3,3 0 0,1 3,0Z" style="opacity: 1; stroke-width: 0px; fill: rgb(93, 105, 177); fill-opacity: 1;"/><path class="point" transform="translate(404.83,225.27)" d="M3,0A3,3 0 1,1 0,-3A3,3 0 0,1 3,0Z" style="opacity: 1; stroke-width: 0px; fill: rgb(93, 105, 177); fill-opacity: 1;"/></g></g><g class="trace boxes" style="opacity: 1;"><path class="box" d="M99.83,27.75H128.99M99.83,29.7H128.99V24.5H99.83ZM114.41,29.7V32.3M114.41,24.5V18M107.12,32.3H121.7M107.12,18H121.7" style="vector-effect: none; stroke-width: 2px; stroke: rgb(229, 134, 6); stroke-opacity: 1; fill: rgb(229, 134, 6); fill-opacity: 0.5;"/><path class="box" d="M218.85,219.09H248.01M218.85,220.34H248.01V217.83H218.85ZM233.43,220.34V220.34M233.43,217.83V216.57M226.14,220.34H240.72M226.14,216.57H240.72" style="vector-effect: none; stroke-width: 2px; stroke: rgb(229, 134, 6); stroke-opacity: 1; fill: rgb(229, 134, 6); fill-opacity: 0.5;"/><path class="box" d="M337.87,153.61H367.03M337.87,162.03H367.03V149.39H337.87ZM352.45,162.03V170.46M352.45,149.39V132.55M345.16,170.46H359.74M345.16,132.55H359.74" style="vector-effect: none; stroke-width: 2px; stroke: rgb(229, 134, 6); stroke-opacity: 1; fill: rgb(229, 134, 6); fill-opacity: 0.5;"/><path class="box" d="M456.89,208.31H486.05M456.89,210.86H486.05V204.48H456.89ZM471.47,210.86V217.23M471.47,204.48V198.11M464.18,217.23H478.76M464.18,198.11H478.76" style="vector-effect: none; stroke-width: 2px; stroke: rgb(229, 134, 6); stroke-opacity: 1; fill: rgb(229, 134, 6); fill-opacity: 0.5;"/><g class="points"><path class="point" transform="translate(94.81,32.3)" d="M3,0A3,3 0 1,1 0,-3A3,3 0 0,1 3,0Z" style="opacity: 1; stroke-width: 0px; fill: rgb(229, 134, 6); fill-opacity: 1;"/><path class="point" transform="translate(90.05,29.7)" d="M3,0A3,3 0 1,1 0,-3A3,3 0 0,1 3,0Z" style="opacity: 1; stroke-width: 0px; fill: rgb(229, 134, 6); fill-opacity: 1;"/><path class="point" transform="translate(95.82,29.7)" d="M3,0A3,3 0 1,1 0,-3A3,3 0 0,1 3,0Z" style="opacity: 1; stroke-width: 0px; fill: rgb(229, 134, 6); fill-opacity: 1;"/><path class="point" transform="translate(89.42,29.7)" d="M3,0A3,3 0 1,1 0,-3A3,3 0 0,1 3,0Z" style="opacity: 1; stroke-width: 0px; fill: rgb(229, 134, 6); fill-opacity: 1;"/><path class="point" transform="translate(91.67,28.4)" d="M3,0A3,3 0 1,1 0,-3A3,3 0 0,1 3,0Z" style="opacity: 1; stroke-width: 0px; fill: rgb(229, 134, 6); fill-opacity: 1;"/><path class="point" transform="translate(94.4,27.1)" d="M3,0A3,3 0 1,1 0,-3A3,3 0 0,1 3,0Z" style="opacity: 1; stroke-width: 0px; fill: rgb(229, 134, 6); fill-opacity: 1;"/><path class="point" transform="translate(92.41,24.5)" d="M3,0A3,3 0 1,1 0,-3A3,3 0 0,1 3,0Z" style="opacity: 1; stroke-width: 0px; fill: rgb(229, 134, 6); fill-opacity: 1;"/><path class="point" transform="translate(93.54,24.5)" d="M3,0A3,3 0 1,1 0,-3A3,3 0 0,1 3,0Z" style="opacity: 1; stroke-width: 0px; fill: rgb(229, 134, 6); fill-opacity: 1;"/><path class="point" transform="translate(91.52,20.6)" d="M3,0A3,3 0 1,1 0,-3A3,3 0 0,1 3,0Z" style="opacity: 1; stroke-width: 0px; fill: rgb(229, 134, 6); fill-opacity: 1;"/><path class="point" transform="translate(90.28,18)" d="M3,0A3,3 0 1,1 0,-3A3,3 0 0,1 3,0Z" style="opacity: 1; stroke-width: 0px; fill: rgb(229, 134, 6); fill-opacity: 1;"/></g><g class="points"><path class="point" transform="translate(212.37,230.41)" d="M3,0A3,3 0 1,1 0,-3A3,3 0 0,1 3,0Z" style="opacity: 1; stroke-width: 0px; fill: rgb(229, 134, 6); fill-opacity: 1;"/><path class="point" transform="translate(210.47,227.89)" d="M3,0A3,3 0 1,1 0,-3A3,3 0 0,1 3,0Z" style="opacity: 1; stroke-width: 0px; fill: rgb(229, 134, 6); fill-opacity: 1;"/><path class="point" transform="translate(213.71,220.34)" d="M3,0A3,3 0 1,1 0,-3A3,3 0 0,1 3,0Z" style="opacity: 1; stroke-width: 0px; fill: rgb(229, 134, 6); fill-opacity: 1;"/><path class="point" transform="translate(208.2,220.34)" d="M3,0A3,3 0 1,1 0,-3A3,3 0 0,1 3,0Z" style="opacity: 1; stroke-width: 0px; fill: rgb(229, 134, 6); fill-opacity: 1;"/><path class="point" transform="translate(209.68,219.09)" d="M3,0A3,3 0 1,1 0,-3A3,3 0 0,1 3,0Z" style="opacity: 1; stroke-width: 0px; fill: rgb(229, 134, 6); fill-opacity: 1;"/><path class="point" transform="translate(214.43,219.09)" d="M3,0A3,3 0 1,1 0,-3A3,3 0 0,1 3,0Z" style="opacity: 1; stroke-width: 0px; fill: rgb(229, 134, 6); fill-opacity: 1;"/><path class="point" transform="translate(210.73,219.09)" d="M3,0A3,3 0 1,1 0,-3A3,3 0 0,1 3,0Z" style="opacity: 1; stroke-width: 0px; fill: rgb(229, 134, 6); fill-opacity: 1;"/><path class="point" transform="translate(207.81,217.83)" d="M3,0A3,3 0 1,1 0,-3A3,3 0 0,1 3,0Z" style="opacity: 1; stroke-width: 0px; fill: rgb(229, 134, 6); fill-opacity: 1;"/><path class="point" transform="translate(210.22,216.57)" d="M3,0A3,3 0 1,1 0,-3A3,3 0 0,1 3,0Z" style="opacity: 1; stroke-width: 0px; fill: rgb(229, 134, 6); fill-opacity: 1;"/><path class="point" transform="translate(211.48,212.8)" d="M3,0A3,3 0 1,1 0,-3A3,3 0 0,1 3,0Z" style="opacity: 1; stroke-width: 0px; fill: rgb(229, 134, 6); fill-opacity: 1;"/></g><g class="points"><path class="point" transform="translate(332.32,170.46)" d="M3,0A3,3 0 1,1 0,-3A3,3 0 0,1 3,0Z" style="opacity: 1; stroke-width: 0px; fill: rgb(229, 134, 6); fill-opacity: 1;"/><path class="point" transform="translate(331.05,166.24)" d="M3,0A3,3 0 1,1 0,-3A3,3 0 0,1 3,0Z" style="opacity: 1; stroke-width: 0px; fill: rgb(229, 134, 6); fill-opacity: 1;"/><path class="point" transform="translate(329.43,162.03)" d="M3,0A3,3 0 1,1 0,-3A3,3 0 0,1 3,0Z" style="opacity: 1; stroke-width: 0px; fill: rgb(229, 134, 6); fill-opacity: 1;"/><path class="point" transform="translate(326.92,157.82)" d="M3,0A3,3 0 1,1 0,-3A3,3 0 0,1 3,0Z" style="opacity: 1; stroke-width: 0px; fill: rgb(229, 134, 6); fill-opacity: 1;"/><path class="point" transform="translate(330.57,153.61)" d="M3,0A3,3 0 1,1 0,-3A3,3 0 0,1 3,0Z" style="opacity: 1; stroke-width: 0px; fill: rgb(229, 134, 6); fill-opacity: 1;"/><path class="point" transform="translate(329.57,153.61)" d="M3,0A3,3 0 1,1 0,-3A3,3 0 0,1 3,0Z" style="opacity: 1; stroke-width: 0px; fill: rgb(229, 134, 6); fill-opacity: 1;"/><path class="point" transform="translate(332.19,153.61)" d="M3,0A3,3 0 1,1 0,-3A3,3 0 0,1 3,0Z" style="opacity: 1; stroke-width: 0px; fill: rgb(229, 134, 6); fill-opacity: 1;"/><path class="point" transform="translate(330.27,149.39)" d="M3,0A3,3 0 1,1 0,-3A3,3 0 0,1 3,0Z" style="opacity: 1; stroke-width: 0px; fill: rgb(229, 134, 6); fill-opacity: 1;"/><path class="point" transform="translate(328.32,149.39)" d="M3,0A3,3 0 1,1 0,-3A3,3 0 0,1 3,0Z" style="opacity: 1; stroke-width: 0px; fill: rgb(229, 134, 6); fill-opacity: 1;"/><path class="point" transform="translate(327.35,132.55)" d="M3,0A3,3 0 1,1 0,-3A3,3 0 0,1 3,0Z" style="opacity: 1; stroke-width: 0px; fill: rgb(229, 134, 6); fill-opacity: 1;"/></g><g class="points"><path class="point" transform="translate(451.66,217.23)" d="M3,0A3,3 0 1,1 0,-3A3,3 0 0,1 3,0Z" style="opacity: 1; stroke-width: 0px; fill: rgb(229, 134, 6); fill-opacity: 1;"/><path class="point" transform="translate(446.19,210.86)" d="M3,0A3,3 0 1,1 0,-3A3,3 0 0,1 3,0Z" style="opacity: 1; stroke-width: 0px; fill: rgb(229, 134, 6); fill-opacity: 1;"/><path class="point" transform="translate(452.03,210.86)" d="M3,0A3,3 0 1,1 0,-3A3,3 0 0,1 3,0Z" style="opacity: 1; stroke-width: 0px; fill: rgb(229, 134, 6); fill-opacity: 1;"/><path class="point" transform="translate(450.55,210.86)" d="M3,0A3,3 0 1,1 0,-3A3,3 0 0,1 3,0Z" style="opacity: 1; stroke-width: 0px; fill: rgb(229, 134, 6); fill-opacity: 1;"/><path class="point" transform="translate(448.47,210.86)" d="M3,0A3,3 0 1,1 0,-3A3,3 0 0,1 3,0Z" style="opacity: 1; stroke-width: 0px; fill: rgb(229, 134, 6); fill-opacity: 1;"/><path class="point" transform="translate(447.36,205.76)" d="M3,0A3,3 0 1,1 0,-3A3,3 0 0,1 3,0Z" style="opacity: 1; stroke-width: 0px; fill: rgb(229, 134, 6); fill-opacity: 1;"/><path class="point" transform="translate(451.57,205.76)" d="M3,0A3,3 0 1,1 0,-3A3,3 0 0,1 3,0Z" style="opacity: 1; stroke-width: 0px; fill: rgb(229, 134, 6); fill-opacity: 1;"/><path class="point" transform="translate(449.16,204.48)" d="M3,0A3,3 0 1,1 0,-3A3,3 0 0,1 3,0Z" style="opacity: 1; stroke-width: 0px; fill: rgb(229, 134, 6); fill-opacity: 1;"/><path class="point" transform="translate(452.2,204.48)" d="M3,0A3,3 0 1,1 0,-3A3,3 0 0,1 3,0Z" style="opacity: 1; stroke-width: 0px; fill: rgb(229, 134, 6); fill-opacity: 1;"/><path class="point" transform="translate(446.69,198.11)" d="M3,0A3,3 0 1,1 0,-3A3,3 0 0,1 3,0Z" style="opacity: 1; stroke-width: 0px; fill: rgb(229, 134, 6); fill-opacity: 1;"/></g></g></g></g></g><g class="zerolinelayer-above"/><path class="xlines-above crisp" d="M81,421H620" style="fill: none; stroke-width: 2px; stroke: rgb(0, 0, 0); stroke-opacity: 1;"/><path class="ylines-above crisp" d="M82,60V420" style="fill: none; stroke-width: 2px; stroke: rgb(0, 0, 0); stroke-opacity: 1;"/><g class="overlines-above"/><g class="xaxislayer-above"><path class="xtick ticks crisp" d="M0,422v5" transform="translate(176.57999999999998,0)" style="stroke: rgb(68, 68, 68); stroke-opacity: 1; stroke-width: 1px;"/><path class="xtick ticks crisp" d="M0,422v5" transform="translate(295.6,0)" style="stroke: rgb(68, 68, 68); stroke-opacity: 1; stroke-width: 1px;"/><path class="xtick ticks crisp" d="M0,422v5" transform="translate(414.62,0)" style="stroke: rgb(68, 68, 68); stroke-opacity: 1; stroke-width: 1px;"/><path class="xtick ticks crisp" d="M0,422v5" transform="translate(533.64,0)" style="stroke: rgb(68, 68, 68); stroke-opacity: 1; stroke-width: 1px;"/><g class="xtick"><text text-anchor="middle" x="0" y="451" transform="translate(176.57999999999998,0)" style="font-family: Arial; font-size: 20px; fill: rgb(42, 63, 95); fill-opacity: 1; white-space: pre;">S1</text></g><g class="xtick"><text text-anchor="middle" x="0" y="451" transform="translate(295.6,0)" style="font-family: Arial; font-size: 20px; fill: rgb(42, 63, 95); fill-opacity: 1; white-space: pre;">S2</text></g><g class="xtick"><text text-anchor="middle" x="0" y="451" transform="translate(414.62,0)" style="font-family: Arial; font-size: 20px; fill: rgb(42, 63, 95); fill-opacity: 1; white-space: pre;">S3</text></g><g class="xtick"><text text-anchor="middle" x="0" y="451" transform="translate(533.64,0)" style="font-family: Arial; font-size: 20px; fill: rgb(42, 63, 95); fill-opacity: 1; white-space: pre;">S4</text></g></g><g class="yaxislayer-above"><path class="ytick ticks crisp" d="M81,0h-5" transform="translate(0,420)" style="stroke: rgb(68, 68, 68); stroke-opacity: 1; stroke-width: 1px;"/><path class="ytick ticks crisp" d="M81,0h-5" transform="translate(0,361.87)" style="stroke: rgb(68, 68, 68); stroke-opacity: 1; stroke-width: 1px;"/><path class="ytick ticks crisp" d="M81,0h-5" transform="translate(0,303.75)" style="stroke: rgb(68, 68, 68); stroke-opacity: 1; stroke-width: 1px;"/><path class="ytick ticks crisp" d="M81,0h-5" transform="translate(0,245.62)" style="stroke: rgb(68, 68, 68); stroke-opacity: 1; stroke-width: 1px;"/><path class="ytick ticks crisp" d="M81,0h-5" transform="translate(0,187.49)" style="stroke: rgb(68, 68, 68); stroke-opacity: 1; stroke-width: 1px;"/><path class="ytick ticks crisp" d="M81,0h-5" transform="translate(0,129.37)" style="stroke: rgb(68, 68, 68); stroke-opacity: 1; stroke-width: 1px;"/><path class="ytick ticks crisp" d="M81,0h-5" transform="translate(0,71.24)" style="stroke: rgb(68, 68, 68); stroke-opacity: 1; stroke-width: 1px;"/><g class="ytick"><text text-anchor="end" x="72" y="7" transform="translate(0,420)" style="font-family: Arial; font-size: 20px; fill: rgb(42, 63, 95); fill-opacity: 1; white-space: pre;">0</text></g><g class="ytick"><text text-anchor="end" x="72" y="7" style="font-family: Arial; font-size: 20px; fill: rgb(42, 63, 95); fill-opacity: 1; white-space: pre;" transform="translate(0,361.87)">0.1</text></g><g class="ytick"><text text-anchor="end" x="72" y="7" style="font-family: Arial; font-size: 20px; fill: rgb(42, 63, 95); fill-opacity: 1; white-space: pre;" transform="translate(0,303.75)">0.2</text></g><g class="ytick"><text text-anchor="end" x="72" y="7" style="font-family: Arial; font-size: 20px; fill: rgb(42, 63, 95); fill-opacity: 1; white-space: pre;" transform="translate(0,245.62)">0.3</text></g><g class="ytick"><text text-anchor="end" x="72" y="7" style="font-family: Arial; font-size: 20px; fill: rgb(42, 63, 95); fill-opacity: 1; white-space: pre;" transform="translate(0,187.49)">0.4</text></g><g class="ytick"><text text-anchor="end" x="72" y="7" style="font-family: Arial; font-size: 20px; fill: rgb(42, 63, 95); fill-opacity: 1; white-space: pre;" transform="translate(0,129.37)">0.5</text></g><g class="ytick"><text text-anchor="end" x="72" y="7" style="font-family: Arial; font-size: 20px; fill: rgb(42, 63, 95); fill-opacity: 1; white-space: pre;" transform="translate(0,71.24)">0.6</text></g></g><g class="overaxes-above"/></g></g><g class="polarlayer"/><g class="smithlayer"/><g class="ternarylayer"/><g class="geolayer"/><g class="funnelarealayer"/><g class="pielayer"/><g class="iciclelayer"/><g class="treemaplayer"/><g class="sunburstlayer"/><g class="glimages"/><defs id="topdefs-57f618"><g class="clips"/><clipPath id="legend57f618"><rect width="254" height="39" x="0" y="0"/></clipPath></defs><g class="layer-above"><g class="imagelayer"/><g class="shapelayer"><g class="shape-group" data-index="0" clip-path="url(#clip57f618y)"><path data-index="0" fill-rule="evenodd" d="M83,355.41L620,355.41" style="opacity: 1; stroke: rgb(128, 128, 128); stroke-opacity: 1; fill: rgb(0, 0, 0); fill-opacity: 0; stroke-dasharray: 9px, 9px; stroke-width: 2px;"/></g></g></g><g class="infolayer"><g class="legend" pointer-events="all" transform="translate(88.37,373.8)"><rect class="bg" shape-rendering="crispEdges" style="stroke: rgb(68, 68, 68); stroke-opacity: 1; fill: rgb(255, 255, 255); fill-opacity: 1; stroke-width: 0px;" width="254" height="39" x="0" y="0"/><g class="scrollbox" transform="" clip-path="url(#legend57f618)"><g class="groups" transform=""><g class="traces" transform="translate(0,19.5)" style="opacity: 1;"><text class="legendtext" text-anchor="start" x="40" y="7.8" style="font-family: Arial; font-size: 20px; fill: rgb(42, 63, 95); fill-opacity: 1; white-space: pre;">Manual</text><g class="layers" style="opacity: 1;"><g class="legendfill"/><g class="legendlines"/><g class="legendsymbols"><g class="legendpoints"><path class="legendbox" d="M6,6H-6V-6H6Z" transform="translate(20,0)" style="stroke-width: 2px; fill: rgb(93, 105, 177); fill-opacity: 0.5; stroke: rgb(93, 105, 177); stroke-opacity: 1;"/></g></g></g><rect class="legendtoggle" x="0" y="-14.5" width="108.109375" height="29" style="fill: rgb(0, 0, 0); fill-opacity: 0;"/></g></g><g class="groups" transform="translate(110.609375,0)"><g class="traces" transform="translate(0,19.5)" style="opacity: 1;"><text class="legendtext" text-anchor="start" x="40" y="7.8" style="font-family: Arial; font-size: 20px; fill: rgb(42, 63, 95); fill-opacity: 1; white-space: pre;">Automated</text><g class="layers" style="opacity: 1;"><g class="legendfill"/><g class="legendlines"/><g class="legendsymbols"><g class="legendpoints"><path class="legendbox" d="M6,6H-6V-6H6Z" transform="translate(20,0)" style="stroke-width: 2px; fill: rgb(229, 134, 6); fill-opacity: 0.5; stroke: rgb(229, 134, 6); stroke-opacity: 1;"/></g></g></g><rect class="legendtoggle" x="0" y="-14.5" width="140.234375" height="29" style="fill: rgb(0, 0, 0); fill-opacity: 0;"/></g></g></g><rect class="scrollbar" rx="20" ry="3" width="0" height="0" style="fill: rgb(128, 139, 164); fill-opacity: 1;" x="0" y="0"/></g><g class="g-gtitle"/><g class="g-xtitle"><text class="xtitle" x="351.5" y="485.8" text-anchor="middle" style="opacity: 1; font-family: Arial; font-size: 24px; fill: rgb(42, 63, 95); fill-opacity: 1; white-space: pre;">Patient</text></g><g class="g-ytitle" transform="translate(0.212890625,0)"><text class="ytitle" transform="rotate(-90,21.7875,240)" x="21.7875" y="240" text-anchor="middle" style="opacity: 1; font-family: Arial; font-size: 24px; fill: rgb(42, 63, 95); fill-opacity: 1; white-space: pre;">Accuracy</text></g><g class="annotation" data-index="0" style="opacity: 1;"><g class="annotation-text-g" transform="rotate(0,583.5,368.41)"><g class="cursor-pointer" transform="translate(547,355)"><rect class="bg" x="0.5" y="0.5" width="72" height="25" style="stroke-width: 1px; stroke: rgb(0, 0, 0); stroke-opacity: 0; fill: rgb(0, 0, 0); fill-opacity: 0;"/><text class="annotation-text" text-anchor="middle" x="36.46875" y="20" style="font-family: Arial; font-size: 20px; fill: rgb(42, 63, 95); fill-opacity: 1; white-space: pre;">Chance</text></g></g></g></g></svg>