<svg class="main-svg" xmlns="http://www.w3.org/2000/svg" xmlns:xlink="http://www.w3.org/1999/xlink" width="2400" height="1200" style="" viewBox="0 0 800 400"><rect x="0" y="0" width="800" height="400" style="fill: rgb(255, 255, 255); fill-opacity: 1;"/><defs id="defs-2d1d44"><g class="clips"><clipPath id="clip2d1d44xyplot" class="plotclip"><rect width="601" height="220"/></clipPath><clipPath class="axesclip" id="clip2d1d44x"><rect x="80" y="0" width="601" height="400"/></clipPath><clipPath class="axesclip" id="clip2d1d44y"><rect x="0" y="100" width="800" height="220"/></clipPath><clipPath class="axesclip" id="clip2d1d44xy"><rect x="80" y="100" width="601" height="220"/></clipPath></g><g class="gradients"/><g class="patterns"/></defs><g class="bglayer"/><g class="layer-below"><g class="imagelayer"/><g class="shapelayer"/></g><g class="cartesianlayer"><g class="subplot xy"><g class="layer-subplot"><g class="shapelayer"/><g class="imagelayer"/></g><g class="minor-gridlayer"><g class="x"/><g class="y"/></g><g class="gridlayer"><g class="x"><path class="xgrid crisp" transform="translate(140.4,0)" d="M0,100v220" style="stroke: rgb(235, 240, 248); stroke-opacity: 1; stroke-width: 1px;"/><path class="xgrid crisp" transform="translate(261.21000000000004,0)" d="M0,100v220" style="stroke: rgb(235, 240, 248); stroke-opacity: 1; stroke-width: 1px;"/><path class="xgrid crisp" transform="translate(502.81,0)" d="M0,100v220" style="stroke: rgb(235, 240, 248); stroke-opacity: 1; stroke-width: 1px;"/><path class="xgrid crisp" transform="translate(623.62,0)" d="M0,100v220" style="stroke: rgb(235, 240, 248); stroke-opacity: 1; stroke-width: 1px;"/></g><g class="y"><path class="ygrid crisp" transform="translate(0,256.23)" d="M80,0h601" style="stroke: rgb(235, 240, 248); stroke-opacity: 1; stroke-width: 1px;"/><path class="ygrid crisp" transform="translate(0,220.20999999999998)" d="M80,0h601" style="stroke: rgb(235, 240, 248); stroke-opacity: 1; stroke-width: 1px;"/><path class="ygrid crisp" transform="translate(0,184.19)" d="M80,0h601" style="stroke: rgb(235, 240, 248); stroke-opacity: 1; stroke-width: 1px;"/><path class="ygrid crisp" transform="translate(0,148.17000000000002)" d="M80,0h601" style="stroke: rgb(235, 240, 248); stroke-opacity: 1; stroke-width: 1px;"/><path class="ygrid crisp" transform="translate(0,112.15)" d="M80,0h601" style="stroke: rgb(235, 240, 248); stroke-opacity: 1; stroke-width: 1px;"/></g></g><g class="zerolinelayer"><path class="xzl zl crisp" transform="translate(382.01,0)" d="M0,100v220" style="stroke: rgb(235, 240, 248); stroke-opacity: 1; stroke-width: 2px;"/><path class="yzl zl crisp" transform="translate(0,292.25)" d="M80,0h601" style="stroke: rgb(235, 240, 248); stroke-opacity: 1; stroke-width: 2px;"/></g><g class="layer-between"><g class="shapelayer"/><g class="imagelayer"/></g><path class="xlines-below"/><path class="ylines-below"/><g class="overlines-below"/><g class="xaxislayer-below"/><g class="yaxislayer-below"/><g class="overaxes-below"/><g class="overplot"><g class="xy" transform="translate(80,100)" clip-path="url(#clip2d1d44xyplot)"><g class="scatterlayer mlayer"><g class="trace scatter traceabef1b" style="stroke-miterlimit: 2; opacity: 1;"><g class="fills"/><g class="errorbars"/><g class="lines"><path class="js-line" d="M0,128.67L3.02,122.75L6.04,119.81L9.06,119.69L12.08,122.17L18.12,132.01L21.14,137.91L24.16,142.72L27.18,145.87L45.3,159.18L48.32,158.08L60.4,142.63L63.42,138.47L66.44,134.97L69.46,132.73L72.48,132.4L75.5,134.6L78.52,139.76L81.54,147.89L87.58,171.25L90.6,184.55L93.62,196.4L96.64,204.38L99.66,207.96L102.68,209L105.7,205L108.72,196.89L120.8,163.21L123.82,157.76L126.84,154.63L129.86,153.77L138.92,156.49L141.94,155.93L147.98,151.04L151.01,147.75L157.05,139.28L160.07,133.67L172.15,109.54L175.17,105.9L181.21,101.76L184.23,98.2L187.25,90.52L190.27,78.85L196.31,53.9L199.33,44.94L202.35,39.87L205.37,37.6L211.41,33.14L214.43,31.25L223.49,15.88L226.51,15L229.53,18.15L232.55,24.78L238.59,41.87L241.61,48.21L247.65,55.65L250.67,58.95L256.71,64.99L259.73,67.27L265.77,72.25L268.79,75.34L274.83,82.91L277.85,89.31L280.87,98.53L283.89,110.52L302.01,181.75L305.03,192.59L308.05,200L311.07,203.97L314.09,205.07L317.11,203.94L323.15,198.38L326.17,194.34L329.19,189.33L332.21,178.89L344.29,117.01L347.31,105.9L350.33,97.77L353.35,92.53L356.37,89.77L359.39,88.46L362.41,87.74L365.43,88.26L368.45,91.39L371.47,97.77L374.49,107.44L377.51,120.04L389.59,178.86L392.61,188.15L395.63,194.35L398.65,198.32L404.69,203.62L407.71,205.22L410.73,205.41L413.75,203.02L419.79,191.61L422.81,185.33L428.85,176.6L431.87,174.3L437.91,172.41L440.93,171.83L443.95,170.8L446.97,168.95L456.04,160.34L459.06,159.55L462.08,160.94L465.1,164.38L474.16,179.14L477.18,180.22L489.26,174.22L492.28,174.13L495.3,175.15L498.32,177.24L507.38,186.93L510.4,187.73L513.42,185.64L516.44,181.2L519.46,174.1L522.48,163.89L534.56,115.73L537.58,106.33L540.6,99.45L543.62,95.86L546.64,96.07L549.66,100.3L552.68,108.2L555.7,119.16L561.74,145.84L564.76,154.1L570.8,162.26L573.82,161.07L576.84,151.97L579.86,139.65L585.9,119.07L588.92,113.4L591.94,111.71L594.96,114.18L597.98,120.48L601,129.89" style="vector-effect: none; fill: none; stroke: rgb(93, 105, 177); stroke-opacity: 0.5; stroke-width: 2px; opacity: 1;"/></g><g class="points"/><g class="text"/></g><g class="trace scatter traceae17ad" style="stroke-miterlimit: 2; opacity: 1;"><g class="fills"/><g class="errorbars"/><g class="lines"><path class="js-line" d="M0,126.95L9.06,143.05L12.08,146.07L30.2,159.17L33.22,157.74L51.34,134.62L54.36,132.55L57.38,132.44L60.4,134.93L63.42,140.39L66.44,148.81L72.48,172.52L75.5,185.79L78.52,197.35L81.54,204.86L84.56,208.12L87.58,208.84L90.6,204.23L93.62,196L105.7,162.51L108.72,157.29L111.74,154.4L114.76,153.73L123.82,156.45L126.84,155.74L132.88,150.67L135.9,147.35L141.94,138.7L144.96,133.02L157.05,109.05L160.07,105.56L166.11,101.47L169.13,97.6L172.15,89.45L175.17,77.51L181.21,52.8L184.23,44.19L187.25,39.52L190.27,37.31L193.29,34.62L196.31,32.97L199.33,30.85L202.35,25.69L205.37,19.65L208.39,15.56L211.41,15.08L214.43,18.62L220.47,34.25L223.49,42.57L226.51,48.65L229.53,52.65L241.61,65.19L244.63,67.44L250.67,72.49L253.69,75.61L259.73,83.39L262.75,90.04L265.77,99.58L268.79,111.72L286.91,182.88L289.93,193.45L292.95,200.48L295.97,204.15L298.99,204.98L302.01,203.68L308.05,197.98L311.07,193.84L314.09,188.59L317.11,177.35L326.17,129.05L329.19,115.73L332.21,104.89L335.23,97.07L338.25,92.1L341.27,89.54L347.31,87.66L350.33,88.38L353.35,91.83L356.37,98.54L359.39,108.53L362.41,121.38L374.49,179.88L377.51,188.84L380.53,194.77L383.55,198.59L389.59,203.77L392.61,205.27L395.63,205.25L398.65,202.57L404.69,190.89L407.71,184.7L410.73,179.76L413.75,176.26L416.77,174.08L419.79,172.91L428.85,170.61L431.87,168.65L440.93,160.12L443.95,159.53L446.97,161.14L449.99,164.76L459.06,179.37L462.08,180.09L474.16,174.11L477.18,174.13L480.2,175.26L483.22,177.45L492.28,187.09L495.3,187.59L498.32,185.25L501.34,180.57L504.36,173.17L507.38,162.67L519.46,114.65L522.48,105.46L525.5,98.88L528.52,95.65L531.54,96.26L534.56,100.87L537.58,109.13L540.6,120.3L546.64,146.93L549.66,154.58L552.68,159.21L555.7,162.38L558.72,160.45L561.74,150.71L567.78,127.11L570.8,118.29L573.82,112.99L576.84,111.72L579.86,114.59L582.88,121.24L588.92,142.57L591.94,154.98L597.98,176.84L601,184.48" style="vector-effect: none; fill: none; stroke: rgb(229, 134, 6); stroke-opacity: 0.5; stroke-width: 2px; opacity: 1;"/></g><g class="points"/><g class="text"/></g></g></g></g><g class="zerolinelayer-above"/><path class="xlines-above crisp" d="M79,320.5H681" style="fill: none; stroke-width: 1px; stroke: rgb(0, 0, 0); stroke-opacity: 1;"/><path class="ylines-above crisp" d="M79.5,100V320" style="fill: none; stroke-width: 1px; stroke: rgb(0, 0, 0); stroke-opacity: 1;"/><g class="overlines-above"/><g class="xaxislayer-above"><path class="xtick ticks crisp" d="M0,321v5" transform="translate(140.4,0)" style="stroke: rgb(68, 68, 68); stroke-opacity: 1; stroke-width: 1px;"/><path class="xtick ticks crisp" d="M0,321v5" transform="translate(261.21000000000004,0)" style="stroke: rgb(68, 68, 68); stroke-opacity: 1; stroke-width: 1px;"/><path class="xtick ticks crisp" d="M0,321v5" transform="translate(382.01,0)" style="stroke: rgb(68, 68, 68); stroke-opacity: 1; stroke-width: 1px;"/><path class="xtick ticks crisp" d="M0,321v5" transform="translate(502.81,0)" style="stroke: rgb(68, 68, 68); stroke-opacity: 1; stroke-width: 1px;"/><path class="xtick ticks crisp" d="M0,321v5" transform="translate(623.62,0)" style="stroke: rgb(68, 68, 68); stroke-opacity: 1; stroke-width: 1px;"/><g class="xtick"><text text-anchor="middle" x="0" y="338" transform="translate(140.4,0)" style="font-family: Arial; font-size: 10px; fill: rgb(42, 63, 95); fill-opacity: 1; white-space: pre;">−0.4</text></g><g class="xtick"><text text-anchor="middle" x="0" y="338" style="font-family: Arial; font-size: 10px; fill: rgb(42, 63, 95); fill-opacity: 1; white-space: pre;" transform="translate(261.21000000000004,0)">−0.2</text></g><g class="xtick"><text text-anchor="middle" x="0" y="338" style="font-family: Arial; font-size: 10px; fill: rgb(42, 63, 95); fill-opacity: 1; white-space: pre;" transform="translate(382.01,0)">0</text></g><g class="xtick"><text text-anchor="middle" x="0" y="338" style="font-family: Arial; font-size: 10px; fill: rgb(42, 63, 95); fill-opacity: 1; white-space: pre;" transform="translate(502.81,0)">0.2</text></g><g class="xtick"><text text-anchor="middle" x="0" y="338" style="font-family: Arial; font-size: 10px; fill: rgb(42, 63, 95); fill-opacity: 1; white-space: pre;" transform="translate(623.62,0)">0.4</text></g></g><g class="yaxislayer-above"><path class="ytick ticks crisp" d="M79,0h-5" transform="translate(0,292.25)" style="stroke: rgb(68, 68, 68); stroke-opacity: 1; stroke-width: 1px;"/><path class="ytick ticks crisp" d="M79,0h-5" transform="translate(0,256.23)" style="stroke: rgb(68, 68, 68); stroke-opacity: 1; stroke-width: 1px;"/><path class="ytick ticks crisp" d="M79,0h-5" transform="translate(0,220.20999999999998)" style="stroke: rgb(68, 68, 68); stroke-opacity: 1; stroke-width: 1px;"/><path class="ytick ticks crisp" d="M79,0h-5" transform="translate(0,184.19)" style="stroke: rgb(68, 68, 68); stroke-opacity: 1; stroke-width: 1px;"/><path class="ytick ticks crisp" d="M79,0h-5" transform="translate(0,148.17000000000002)" style="stroke: rgb(68, 68, 68); stroke-opacity: 1; stroke-width: 1px;"/><path class="ytick ticks crisp" d="M79,0h-5" transform="translate(0,112.15)" style="stroke: rgb(68, 68, 68); stroke-opacity: 1; stroke-width: 1px;"/><g class="ytick"><text text-anchor="end" x="72" y="3.5" transform="translate(0,292.25)" style="font-family: Arial; font-size: 10px; fill: rgb(42, 63, 95); fill-opacity: 1; white-space: pre;">0</text></g><g class="ytick"><text text-anchor="end" x="72" y="3.5" style="font-family: Arial; font-size: 10px; fill: rgb(42, 63, 95); fill-opacity: 1; white-space: pre;" transform="translate(0,256.23)">0.5</text></g><g class="ytick"><text text-anchor="end" x="72" y="3.5" style="font-family: Arial; font-size: 10px; fill: rgb(42, 63, 95); fill-opacity: 1; white-space: pre;" transform="translate(0,220.20999999999998)">1</text></g><g class="ytick"><text text-anchor="end" x="72" y="3.5" style="font-family: Arial; font-size: 10px; fill: rgb(42, 63, 95); fill-opacity: 1; white-space: pre;" transform="translate(0,184.19)">1.5</text></g><g class="ytick"><text text-anchor="end" x="72" y="3.5" style="font-family: Arial; font-size: 10px; fill: rgb(42, 63, 95); fill-opacity: 1; white-space: pre;" transform="translate(0,148.17000000000002)">2</text></g><g class="ytick"><text text-anchor="end" x="72" y="3.5" style="font-family: Arial; font-size: 10px; fill: rgb(42, 63, 95); fill-opacity: 1; white-space: pre;" transform="translate(0,112.15)">2.5</text></g></g><g class="overaxes-above"/></g></g><g class="polarlayer"/><g class="smithlayer"/><g class="ternarylayer"/><g class="geolayer"/><g class="funnelarealayer"/><g class="pielayer"/><g class="iciclelayer"/><g class="treemaplayer"/><g class="sunburstlayer"/><g class="glimages"/><defs id="topdefs-2d1d44"><g class="clips"/><clipPath id="legend2d1d44"><rect width="95" height="48" x="0" y="0"/></clipPath></defs><g class="layer-above"><g class="imagelayer"/><g class="shapelayer"><g class="shape-group" data-index="0" clip-path="url(#clip2d1d44x)"><path data-index="0" fill-rule="evenodd" d="M382.01,320L382.01,100" style="opacity: 1; stroke: rgb(0, 0, 0); stroke-opacity: 1; fill: rgb(0, 0, 0); fill-opacity: 0; stroke-dasharray: 9px, 9px; stroke-width: 2px;"/></g></g></g><g class="infolayer"><g class="legend" pointer-events="all" transform="translate(693.02,100)"><rect class="bg" shape-rendering="crispEdges" style="stroke: rgb(68, 68, 68); stroke-opacity: 1; fill: rgb(255, 255, 255); fill-opacity: 1; stroke-width: 0px;" width="95" height="48" x="0" y="0"/><g class="scrollbox" transform="" clip-path="url(#legend2d1d44)"><g class="groups"><g class="traces" transform="translate(0,14.5)" style="opacity: 1;"><text class="legendtext" text-anchor="start" x="40" y="3.9" style="font-family: Arial; font-size: 10px; fill: rgb(42, 63, 95); fill-opacity: 1; white-space: pre;">Manual</text><g class="layers" style="opacity: 1;"><g class="legendfill"/><g class="legendlines"><path class="js-line" d="M5,0h30" style="fill: none; stroke: rgb(93, 105, 177); stroke-opacity: 0.5; stroke-width: 2px;"/></g><g class="legendsymbols"><g class="legendpoints"/></g></g><rect class="legendtoggle" x="0" y="-9.5" width="89.802734375" height="19" style="fill: rgb(0, 0, 0); fill-opacity: 0;"/></g><g class="traces" transform="translate(0,33.5)" style="opacity: 1;"><text class="legendtext" text-anchor="start" x="40" y="3.9" style="font-family: Arial; font-size: 10px; fill: rgb(42, 63, 95); fill-opacity: 1; white-space: pre;">Automated</text><g class="layers" style="opacity: 1;"><g class="legendfill"/><g class="legendlines"><path class="js-line" d="M5,0h30" style="fill: none; stroke: rgb(229, 134, 6); stroke-opacity: 0.5; stroke-width: 2px;"/></g><g class="legendsymbols"><g class="legendpoints"/></g></g><rect class="legendtoggle" x="0" y="-9.5" width="89.802734375" height="19" style="fill: rgb(0, 0, 0); fill-opacity: 0;"/></g></g></g><rect class="scrollbar" rx="20" ry="3" width="0" height="0" style="fill: rgb(128, 139, 164); fill-opacity: 1;" x="0" y="0"/></g><g class="g-gtitle"><text class="gtitle" x="40" y="50" text-anchor="start" dy="0em" style="opacity: 1; font-family: Arial; font-size: 14px; fill: rgb(42, 63, 95); fill-opacity: 1; white-space: pre;">Trial: 59 | Phoneme: g | Channel: 97</text></g><g class="g-xtitle"><text class="xtitle" x="380.5" y="362.9" text-anchor="middle" style="opacity: 1; font-family: Arial; font-size: 12px; fill: rgb(42, 63, 95); fill-opacity: 1; white-space: pre;">Time [ms]</text></g><g class="g-ytitle"><text class="ytitle" transform="rotate(-90,39.39375,210)" x="39.39375" y="210" text-anchor="middle" style="opacity: 1; font-family: Arial; font-size: 12px; fill: rgb(42, 63, 95); fill-opacity: 1; white-space: pre;">HG Power</text></g><g class="annotation" data-index="0" style="opacity: 1;"><g class="annotation-text-g" transform="rotate(0,382.01,107.5)"><g class="cursor-pointer" transform="translate(344,100)"><rect class="bg" x="0.5" y="0.5" width="75" height="14" style="stroke-width: 1px; stroke: rgb(0, 0, 0); stroke-opacity: 0; fill: rgb(0, 0, 0); fill-opacity: 0;"/><text class="annotation-text" text-anchor="middle" x="38.1328125" y="11" style="font-family: Arial; font-size: 10px; fill: rgb(42, 63, 95); fill-opacity: 1; white-space: pre;">Phoneme Onset</text></g></g></g></g></svg>