<svg class="main-svg" xmlns="http://www.w3.org/2000/svg" xmlns:xlink="http://www.w3.org/1999/xlink" width="80mm" height="30mm" style="" viewBox="0 0 302 113"><rect x="0" y="0" width="80mm" height="30mm" style="fill: rgb(255, 255, 255); fill-opacity: 1;"/><defs id="defs-67b3ed"><g class="clips"><clipPath id="clip67b3edxyplot" class="plotclip"><rect width="113" height="2"/></clipPath><clipPath class="axesclip" id="clip67b3edx"><rect x="80" y="0" width="113" height="30mm"/></clipPath><clipPath class="axesclip" id="clip67b3edy"><rect x="0" y="59" width="80mm" height="2"/></clipPath><clipPath class="axesclip" id="clip67b3edxy"><rect x="80" y="59" width="113" height="2"/></clipPath></g><g class="gradients"/><g class="patterns"/></defs><g class="bglayer"/><g class="layer-below"><g class="imagelayer"/><g class="shapelayer"/></g><g class="cartesianlayer"><g class="subplot xy"><g class="layer-subplot"><g class="shapelayer"/><g class="imagelayer"/></g><g class="minor-gridlayer"><g class="x"/><g class="y"/></g><g class="gridlayer"><g class="x"><path class="xgrid crisp" transform="translate(91.36,0)" d="M0,59v2" style="stroke: rgb(235, 240, 248); stroke-opacity: 1; stroke-width: 1px;"/><path class="xgrid crisp" transform="translate(114.07,0)" d="M0,59v2" style="stroke: rgb(235, 240, 248); stroke-opacity: 1; stroke-width: 1px;"/><path class="xgrid crisp" transform="translate(159.5,0)" d="M0,59v2" style="stroke: rgb(235, 240, 248); stroke-opacity: 1; stroke-width: 1px;"/><path class="xgrid crisp" transform="translate(182.20999999999998,0)" d="M0,59v2" style="stroke: rgb(235, 240, 248); stroke-opacity: 1; stroke-width: 1px;"/></g><g class="y"/></g><g class="zerolinelayer"><path class="xzl zl crisp" transform="translate(136.78,0)" d="M0,59v2" style="stroke: rgb(235, 240, 248); stroke-opacity: 1; stroke-width: 2px;"/></g><g class="layer-between"><g class="shapelayer"/><g class="imagelayer"/></g><path class="xlines-below"/><path class="ylines-below"/><g class="overlines-below"/><g class="xaxislayer-below"/><g class="yaxislayer-below"/><g class="overaxes-below"/><g class="overplot"><g class="xy" transform="translate(80,59)" clip-path="url(#clip67b3edxyplot)"><g class="scatterlayer mlayer"><g class="trace scatter tracee175e8" style="stroke-miterlimit: 2; opacity: 1;"><g class="fills"/><g class="errorbars"/><g class="lines"><path class="js-line" d="M0,1.15L6.25,1.35L6.81,1.37L22.71,1.48L23.28,1.42L41.45,0.15L42.02,0.11L51.11,0.69L51.67,0.73L62.46,1.62L63.03,1.47L68.14,0.77L68.71,0.78L84.04,1.53L84.61,1.5L94.83,1.67L95.4,1.7L101.08,0.95L101.64,0.88L106.19,1.39L106.75,1.43L111.3,1L111.86,1.02L113,1.17" style="vector-effect: none; fill: none; stroke: rgb(93, 105, 177); stroke-opacity: 0.5; stroke-width: 2px; opacity: 1;"/></g><g class="points"/><g class="text"/></g><g class="trace scatter trace882cb1" style="stroke-miterlimit: 2; opacity: 1;"><g class="fills"/><g class="errorbars"/><g class="lines"><path class="js-line" d="M0,1.14L9.09,1.24L9.65,1.21L14.2,1.68L14.76,1.79L18.74,1.61L19.31,1.54L30.1,0.94L30.66,0.92L45.99,0.59L46.56,0.61L53.38,1.55L53.94,1.66L58.49,1.76L59.06,1.71L66.44,0.81L67.01,0.88L75.52,1.79L76.09,1.73L84.61,1.49L85.18,1.54L94.26,1.64L94.83,1.57L101.64,1.08L102.21,1.2L105.62,1.36L106.19,1.24L110.16,1.18L110.73,1.28L113,1.67" style="vector-effect: none; fill: none; stroke: rgb(229, 134, 6); stroke-opacity: 0.5; stroke-width: 2px; opacity: 1;"/></g><g class="points"/><g class="text"/></g></g></g></g><g class="zerolinelayer-above"/><path class="xlines-above crisp" d="M79,61.5H193" style="fill: none; stroke-width: 1px; stroke: rgb(0, 0, 0); stroke-opacity: 1;"/><path class="ylines-above crisp" d="M79.5,59V61" style="fill: none; stroke-width: 1px; stroke: rgb(0, 0, 0); stroke-opacity: 1;"/><g class="overlines-above"/><g class="xaxislayer-above"><path class="xtick ticks crisp" d="M0,62v5" transform="translate(91.36,0)" style="stroke: rgb(68, 68, 68); stroke-opacity: 1; stroke-width: 1px;"/><path class="xtick ticks crisp" d="M0,62v5" transform="translate(114.07,0)" style="stroke: rgb(68, 68, 68); stroke-opacity: 1; stroke-width: 1px;"/><path class="xtick ticks crisp" d="M0,62v5" transform="translate(136.78,0)" style="stroke: rgb(68, 68, 68); stroke-opacity: 1; stroke-width: 1px;"/><path class="xtick ticks crisp" d="M0,62v5" transform="translate(159.5,0)" style="stroke: rgb(68, 68, 68); stroke-opacity: 1; stroke-width: 1px;"/><path class="xtick ticks crisp" d="M0,62v5" transform="translate(182.20999999999998,0)" style="stroke: rgb(68, 68, 68); stroke-opacity: 1; stroke-width: 1px;"/><g class="xtick"><text text-anchor="middle" x="0" y="79" transform="translate(91.36,0)" style="font-family: Arial; font-size: 10px; fill: rgb(42, 63, 95); fill-opacity: 1; white-space: pre;">−0.4</text></g><g class="xtick"><text text-anchor="middle" x="0" y="79" style="font-family: Arial; font-size: 10px; fill: rgb(42, 63, 95); fill-opacity: 1; white-space: pre;" transform="translate(114.07,0)">−0.2</text></g><g class="xtick"><text text-anchor="middle" x="0" y="79" style="font-family: Arial; font-size: 10px; fill: rgb(42, 63, 95); fill-opacity: 1; white-space: pre;" transform="translate(136.78,0)">0</text></g><g class="xtick"><text text-anchor="middle" x="0" y="79" style="font-family: Arial; font-size: 10px; fill: rgb(42, 63, 95); fill-opacity: 1; white-space: pre;" transform="translate(159.5,0)">0.2</text></g><g class="xtick"><text text-anchor="middle" x="0" y="79" style="font-family: Arial; font-size: 10px; fill: rgb(42, 63, 95); fill-opacity: 1; white-space: pre;" transform="translate(182.20999999999998,0)">0.4</text></g></g><g class="yaxislayer-above"><path class="ytick ticks crisp" d="M79,0h-5" transform="translate(0,60.74)" style="stroke: rgb(68, 68, 68); stroke-opacity: 1; stroke-width: 1px;"/><path class="ytick ticks crisp" d="M79,0h-5" transform="translate(0,60.08)" style="stroke: rgb(68, 68, 68); stroke-opacity: 1; stroke-width: 1px;"/><path class="ytick ticks crisp" d="M79,0h-5" transform="translate(0,59.41)" style="stroke: rgb(68, 68, 68); stroke-opacity: 1; stroke-width: 1px;"/><g class="ytick"><text text-anchor="end" x="72" y="3.5" transform="translate(0,60.74)" style="font-family: Arial; font-size: 10px; fill: rgb(42, 63, 95); fill-opacity: 1; white-space: pre;">0</text></g><g class="ytick"><text text-anchor="end" x="72" y="3.5" style="font-family: Arial; font-size: 10px; fill: rgb(42, 63, 95); fill-opacity: 1; white-space: pre;" transform="translate(0,60.08)">1</text></g><g class="ytick"><text text-anchor="end" x="72" y="3.5" style="font-family: Arial; font-size: 10px; fill: rgb(42, 63, 95); fill-opacity: 1; white-space: pre;" transform="translate(0,59.41)">2</text></g></g><g class="overaxes-above"/></g></g><g class="polarlayer"/><g class="smithlayer"/><g class="ternarylayer"/><g class="geolayer"/><g class="funnelarealayer"/><g class="pielayer"/><g class="iciclelayer"/><g class="treemaplayer"/><g class="sunburstlayer"/><g class="glimages"/><defs id="topdefs-67b3ed"><g class="clips"/><clipPath id="legend67b3ed"><rect width="95" height="30" x="0" y="0"/></clipPath></defs><g class="layer-above"><g class="imagelayer"/><g class="shapelayer"><g class="shape-group" data-index="0" clip-path="url(#clip67b3edx)"><path data-index="0" fill-rule="evenodd" d="M136.78,61L136.78,59" style="opacity: 1; stroke: rgb(0, 0, 0); stroke-opacity: 1; fill: rgb(0, 0, 0); fill-opacity: 0; stroke-dasharray: 9px, 9px; stroke-width: 2px;"/></g></g></g><g class="infolayer"><g class="legend" pointer-events="all" transform="translate(195.26,59)"><rect class="bg" shape-rendering="crispEdges" style="stroke: rgb(68, 68, 68); stroke-opacity: 1; fill: rgb(255, 255, 255); fill-opacity: 1; stroke-width: 0px;" width="95" height="30" x="0" y="0"/><g class="scrollbox" transform="" clip-path="url(#legend67b3ed)"><g class="groups"><g class="traces" transform="translate(0,14.5)" style="opacity: 1;"><text class="legendtext" text-anchor="start" x="40" y="3.9" style="font-family: Arial; font-size: 10px; fill: rgb(42, 63, 95); fill-opacity: 1; white-space: pre;">Manual</text><g class="layers" style="opacity: 1;"><g class="legendfill"/><g class="legendlines"><path class="js-line" d="M5,0h30" style="fill: none; stroke: rgb(93, 105, 177); stroke-opacity: 0.5; stroke-width: 2px;"/></g><g class="legendsymbols"><g class="legendpoints"/></g></g><rect class="legendtoggle" x="0" y="-9.5" width="89.802734375" height="19" style="fill: rgb(0, 0, 0); fill-opacity: 0;"/></g><g class="traces" transform="translate(0,33.5)" style="opacity: 1;"><text class="legendtext" text-anchor="start" x="40" y="3.9" style="font-family: Arial; font-size: 10px; fill: rgb(42, 63, 95); fill-opacity: 1; white-space: pre;">Automated</text><g class="layers" style="opacity: 1;"><g class="legendfill"/><g class="legendlines"><path class="js-line" d="M5,0h30" style="fill: none; stroke: rgb(229, 134, 6); stroke-opacity: 0.5; stroke-width: 2px;"/></g><g class="legendsymbols"><g class="legendpoints"/></g></g><rect class="legendtoggle" x="0" y="-9.5" width="89.802734375" height="19" style="fill: rgb(0, 0, 0); fill-opacity: 0;"/></g></g></g><rect class="scrollbar" rx="20" ry="3" width="0" height="0" style="fill: rgb(128, 139, 164); fill-opacity: 1;" x="0" y="0"/></g><g class="g-gtitle"><text class="gtitle" x="15.100000000000001" y="29.5" text-anchor="start" dy="0em" style="opacity: 1; font-family: Arial; font-size: 14px; fill: rgb(42, 63, 95); fill-opacity: 1; white-space: pre;">Trial: 59 | Phoneme: g | Channel: 97</text></g><g class="g-xtitle"><text class="xtitle" x="136.5" y="103.9" text-anchor="middle" style="opacity: 1; font-family: Arial; font-size: 12px; fill: rgb(42, 63, 95); fill-opacity: 1; white-space: pre;">Time [ms]</text></g><g class="g-ytitle"><text class="ytitle" transform="rotate(-90,47.7375,60)" x="47.7375" y="60" text-anchor="middle" style="opacity: 1; font-family: Arial; font-size: 12px; fill: rgb(42, 63, 95); fill-opacity: 1; white-space: pre;">HG Power</text></g><g class="annotation" data-index="0" style="opacity: 1;"><g class="annotation-text-g" transform="rotate(0,136.78,51.6)"><g class="cursor-pointer" transform="translate(99,44)"><rect class="bg" x="0.5" y="0.5" width="75" height="14" style="stroke-width: 1px; stroke: rgb(0, 0, 0); stroke-opacity: 0; fill: rgb(0, 0, 0); fill-opacity: 0;"/><text class="annotation-text" text-anchor="middle" x="38.1328125" y="11" style="font-family: Arial; font-size: 10px; fill: rgb(42, 63, 95); fill-opacity: 1; white-space: pre;">Phoneme Onset</text></g></g></g></g></svg>