<svg class="main-svg" xmlns="http://www.w3.org/2000/svg" xmlns:xlink="http://www.w3.org/1999/xlink" width="2100" height="1500" style="" viewBox="0 0 700 500"><rect x="0" y="0" width="700" height="500" style="fill: rgb(255, 255, 255); fill-opacity: 1;"/><defs id="defs-ceffa0"><g class="clips"><clipPath id="clipceffa0xyplot" class="plotclip"><rect width="528" height="360"/></clipPath><clipPath class="axesclip" id="clipceffa0x"><rect x="80" y="0" width="528" height="500"/></clipPath><clipPath class="axesclip" id="clipceffa0y"><rect x="0" y="60" width="700" height="360"/></clipPath><clipPath class="axesclip" id="clipceffa0xy"><rect x="80" y="60" width="528" height="360"/></clipPath></g><g class="gradients"/><g class="patterns"/></defs><g class="bglayer"/><g class="layer-below"><g class="imagelayer"/><g class="shapelayer"/></g><g class="cartesianlayer"><g class="subplot xy"><g class="layer-subplot"><g class="shapelayer"/><g class="imagelayer"/></g><g class="minor-gridlayer"><g class="x"/><g class="y"/></g><g class="gridlayer"><g class="x"><path class="xgrid crisp" transform="translate(128.41,0)" d="M0,60v360" style="stroke: rgb(238, 238, 238); stroke-opacity: 1; stroke-width: 1px;"/><path class="xgrid crisp" transform="translate(203.28,0)" d="M0,60v360" style="stroke: rgb(238, 238, 238); stroke-opacity: 1; stroke-width: 1px;"/><path class="xgrid crisp" transform="translate(278.15999999999997,0)" d="M0,60v360" style="stroke: rgb(238, 238, 238); stroke-opacity: 1; stroke-width: 1px;"/><path class="xgrid crisp" transform="translate(427.9,0)" d="M0,60v360" style="stroke: rgb(238, 238, 238); stroke-opacity: 1; stroke-width: 1px;"/><path class="xgrid crisp" transform="translate(502.78,0)" d="M0,60v360" style="stroke: rgb(238, 238, 238); stroke-opacity: 1; stroke-width: 1px;"/><path class="xgrid crisp" transform="translate(577.65,0)" d="M0,60v360" style="stroke: rgb(238, 238, 238); stroke-opacity: 1; stroke-width: 1px;"/></g><g class="y"><path class="ygrid crisp" transform="translate(0,372.45)" d="M80,0h528" style="stroke: rgb(238, 238, 238); stroke-opacity: 1; stroke-width: 1px;"/><path class="ygrid crisp" transform="translate(0,325)" d="M80,0h528" style="stroke: rgb(238, 238, 238); stroke-opacity: 1; stroke-width: 1px;"/><path class="ygrid crisp" transform="translate(0,277.55)" d="M80,0h528" style="stroke: rgb(238, 238, 238); stroke-opacity: 1; stroke-width: 1px;"/><path class="ygrid crisp" transform="translate(0,182.65)" d="M80,0h528" style="stroke: rgb(238, 238, 238); stroke-opacity: 1; stroke-width: 1px;"/><path class="ygrid crisp" transform="translate(0,135.2)" d="M80,0h528" style="stroke: rgb(238, 238, 238); stroke-opacity: 1; stroke-width: 1px;"/><path class="ygrid crisp" transform="translate(0,87.75)" d="M80,0h528" style="stroke: rgb(238, 238, 238); stroke-opacity: 1; stroke-width: 1px;"/></g></g><g class="zerolinelayer"><path class="xzl zl crisp" transform="translate(353.03,0)" d="M0,60v360" style="stroke: rgb(68, 68, 68); stroke-opacity: 1; stroke-width: 1px;"/><path class="yzl zl crisp" transform="translate(0,230.1)" d="M80,0h528" style="stroke: rgb(68, 68, 68); stroke-opacity: 1; stroke-width: 1px;"/></g><g class="layer-between"><g class="shapelayer"/><g class="imagelayer"/></g><path class="xlines-below"/><path class="ylines-below"/><g class="overlines-below"/><g class="xaxislayer-below"/><g class="yaxislayer-below"/><g class="overaxes-below"/><g class="overplot"><g class="xy" transform="translate(80,60)" clip-path="url(#clipceffa0xyplot)"><g class="scatterlayer mlayer"><g class="trace scatter trace15ad93" style="stroke-miterlimit: 2; opacity: 1;"><g class="fills"/><g class="errorbars"/><g class="lines"/><g class="points"><path class="point" transform="translate(231.56,154.39)" d="M3,0A3,3 0 1,1 0,-3A3,3 0 0,1 3,0Z" style="opacity: 0.7; stroke-width: 0px; fill: rgb(135, 38, 38); fill-opacity: 1;"/><path class="point" transform="translate(101.6,117.02)" d="M3,0A3,3 0 1,1 0,-3A3,3 0 0,1 3,0Z" style="opacity: 0.7; stroke-width: 0px; fill: rgb(135, 38, 38); fill-opacity: 1;"/><path class="point" transform="translate(150.08,139.58)" d="M3,0A3,3 0 1,1 0,-3A3,3 0 0,1 3,0Z" style="opacity: 0.7; stroke-width: 0px; fill: rgb(135, 38, 38); fill-opacity: 1;"/><path class="point" transform="translate(213.71,131.05)" d="M3,0A3,3 0 1,1 0,-3A3,3 0 0,1 3,0Z" style="opacity: 0.7; stroke-width: 0px; fill: rgb(135, 38, 38); fill-opacity: 1;"/><path class="point" transform="translate(183.82,111.16)" d="M3,0A3,3 0 1,1 0,-3A3,3 0 0,1 3,0Z" style="opacity: 0.7; stroke-width: 0px; fill: rgb(135, 38, 38); fill-opacity: 1;"/><path class="point" transform="translate(347.22,50.59)" d="M3,0A3,3 0 1,1 0,-3A3,3 0 0,1 3,0Z" style="opacity: 0.7; stroke-width: 0px; fill: rgb(135, 38, 38); fill-opacity: 1;"/><path class="point" transform="translate(330.19,76.66)" d="M3,0A3,3 0 1,1 0,-3A3,3 0 0,1 3,0Z" style="opacity: 0.7; stroke-width: 0px; fill: rgb(135, 38, 38); fill-opacity: 1;"/><path class="point" transform="translate(173.29,125.51)" d="M3,0A3,3 0 1,1 0,-3A3,3 0 0,1 3,0Z" style="opacity: 0.7; stroke-width: 0px; fill: rgb(135, 38, 38); fill-opacity: 1;"/><path class="point" transform="translate(147.57,81.37)" d="M3,0A3,3 0 1,1 0,-3A3,3 0 0,1 3,0Z" style="opacity: 0.7; stroke-width: 0px; fill: rgb(135, 38, 38); fill-opacity: 1;"/><path class="point" transform="translate(184.93,135.02)" d="M3,0A3,3 0 1,1 0,-3A3,3 0 0,1 3,0Z" style="opacity: 0.7; stroke-width: 0px; fill: rgb(135, 38, 38); fill-opacity: 1;"/><path class="point" transform="translate(111.06,92.29)" d="M3,0A3,3 0 1,1 0,-3A3,3 0 0,1 3,0Z" style="opacity: 0.7; stroke-width: 0px; fill: rgb(135, 38, 38); fill-opacity: 1;"/><path class="point" transform="translate(237.18,148.85)" d="M3,0A3,3 0 1,1 0,-3A3,3 0 0,1 3,0Z" style="opacity: 0.7; stroke-width: 0px; fill: rgb(135, 38, 38); fill-opacity: 1;"/><path class="point" transform="translate(163.14,104.55)" d="M3,0A3,3 0 1,1 0,-3A3,3 0 0,1 3,0Z" style="opacity: 0.7; stroke-width: 0px; fill: rgb(135, 38, 38); fill-opacity: 1;"/><path class="point" transform="translate(109.68,82.42)" d="M3,0A3,3 0 1,1 0,-3A3,3 0 0,1 3,0Z" style="opacity: 0.7; stroke-width: 0px; fill: rgb(135, 38, 38); fill-opacity: 1;"/><path class="point" transform="translate(130.71,141.77)" d="M3,0A3,3 0 1,1 0,-3A3,3 0 0,1 3,0Z" style="opacity: 0.7; stroke-width: 0px; fill: rgb(135, 38, 38); fill-opacity: 1;"/><path class="point" transform="translate(225.32,144.63)" d="M3,0A3,3 0 1,1 0,-3A3,3 0 0,1 3,0Z" style="opacity: 0.7; stroke-width: 0px; fill: rgb(135, 38, 38); fill-opacity: 1;"/><path class="point" transform="translate(231.76,140.59)" d="M3,0A3,3 0 1,1 0,-3A3,3 0 0,1 3,0Z" style="opacity: 0.7; stroke-width: 0px; fill: rgb(135, 38, 38); fill-opacity: 1;"/></g><g class="text"/></g><g class="trace scatter trace14e54d" style="stroke-miterlimit: 2; opacity: 1;"><g class="fills"/><g class="errorbars"/><g class="lines"/><g class="points"><path class="point" transform="translate(476.94,226.53)" d="M3,0A3,3 0 1,1 0,-3A3,3 0 0,1 3,0Z" style="opacity: 0.7; stroke-width: 0px; fill: rgb(172, 55, 55); fill-opacity: 1;"/><path class="point" transform="translate(470.61,194.13)" d="M3,0A3,3 0 1,1 0,-3A3,3 0 0,1 3,0Z" style="opacity: 0.7; stroke-width: 0px; fill: rgb(172, 55, 55); fill-opacity: 1;"/><path class="point" transform="translate(467.99,180.58)" d="M3,0A3,3 0 1,1 0,-3A3,3 0 0,1 3,0Z" style="opacity: 0.7; stroke-width: 0px; fill: rgb(172, 55, 55); fill-opacity: 1;"/><path class="point" transform="translate(103.45,115.07)" d="M3,0A3,3 0 1,1 0,-3A3,3 0 0,1 3,0Z" style="opacity: 0.7; stroke-width: 0px; fill: rgb(172, 55, 55); fill-opacity: 1;"/><path class="point" transform="translate(218.43,49.44)" d="M3,0A3,3 0 1,1 0,-3A3,3 0 0,1 3,0Z" style="opacity: 0.7; stroke-width: 0px; fill: rgb(172, 55, 55); fill-opacity: 1;"/><path class="point" transform="translate(270.2,177.14)" d="M3,0A3,3 0 1,1 0,-3A3,3 0 0,1 3,0Z" style="opacity: 0.7; stroke-width: 0px; fill: rgb(172, 55, 55); fill-opacity: 1;"/><path class="point" transform="translate(292.08,157.24)" d="M3,0A3,3 0 1,1 0,-3A3,3 0 0,1 3,0Z" style="opacity: 0.7; stroke-width: 0px; fill: rgb(172, 55, 55); fill-opacity: 1;"/><path class="point" transform="translate(212.4,81.28)" d="M3,0A3,3 0 1,1 0,-3A3,3 0 0,1 3,0Z" style="opacity: 0.7; stroke-width: 0px; fill: rgb(172, 55, 55); fill-opacity: 1;"/><path class="point" transform="translate(240.56,21.75)" d="M3,0A3,3 0 1,1 0,-3A3,3 0 0,1 3,0Z" style="opacity: 0.7; stroke-width: 0px; fill: rgb(172, 55, 55); fill-opacity: 1;"/><path class="point" transform="translate(328.75,84.26)" d="M3,0A3,3 0 1,1 0,-3A3,3 0 0,1 3,0Z" style="opacity: 0.7; stroke-width: 0px; fill: rgb(172, 55, 55); fill-opacity: 1;"/><path class="point" transform="translate(266.46,53.69)" d="M3,0A3,3 0 1,1 0,-3A3,3 0 0,1 3,0Z" style="opacity: 0.7; stroke-width: 0px; fill: rgb(172, 55, 55); fill-opacity: 1;"/><path class="point" transform="translate(497.85,140.42)" d="M3,0A3,3 0 1,1 0,-3A3,3 0 0,1 3,0Z" style="opacity: 0.7; stroke-width: 0px; fill: rgb(172, 55, 55); fill-opacity: 1;"/><path class="point" transform="translate(279.37,159.13)" d="M3,0A3,3 0 1,1 0,-3A3,3 0 0,1 3,0Z" style="opacity: 0.7; stroke-width: 0px; fill: rgb(172, 55, 55); fill-opacity: 1;"/><path class="point" transform="translate(372.28,160.94)" d="M3,0A3,3 0 1,1 0,-3A3,3 0 0,1 3,0Z" style="opacity: 0.7; stroke-width: 0px; fill: rgb(172, 55, 55); fill-opacity: 1;"/><path class="point" transform="translate(175.56,69.19)" d="M3,0A3,3 0 1,1 0,-3A3,3 0 0,1 3,0Z" style="opacity: 0.7; stroke-width: 0px; fill: rgb(172, 55, 55); fill-opacity: 1;"/><path class="point" transform="translate(258.26,167.08)" d="M3,0A3,3 0 1,1 0,-3A3,3 0 0,1 3,0Z" style="opacity: 0.7; stroke-width: 0px; fill: rgb(172, 55, 55); fill-opacity: 1;"/><path class="point" transform="translate(450.43,160.39)" d="M3,0A3,3 0 1,1 0,-3A3,3 0 0,1 3,0Z" style="opacity: 0.7; stroke-width: 0px; fill: rgb(172, 55, 55); fill-opacity: 1;"/><path class="point" transform="translate(336.12,205.94)" d="M3,0A3,3 0 1,1 0,-3A3,3 0 0,1 3,0Z" style="opacity: 0.7; stroke-width: 0px; fill: rgb(172, 55, 55); fill-opacity: 1;"/><path class="point" transform="translate(183.6,53.16)" d="M3,0A3,3 0 1,1 0,-3A3,3 0 0,1 3,0Z" style="opacity: 0.7; stroke-width: 0px; fill: rgb(172, 55, 55); fill-opacity: 1;"/><path class="point" transform="translate(172.41,67.05)" d="M3,0A3,3 0 1,1 0,-3A3,3 0 0,1 3,0Z" style="opacity: 0.7; stroke-width: 0px; fill: rgb(172, 55, 55); fill-opacity: 1;"/><path class="point" transform="translate(345.54,211.55)" d="M3,0A3,3 0 1,1 0,-3A3,3 0 0,1 3,0Z" style="opacity: 0.7; stroke-width: 0px; fill: rgb(172, 55, 55); fill-opacity: 1;"/><path class="point" transform="translate(30.15,158.05)" d="M3,0A3,3 0 1,1 0,-3A3,3 0 0,1 3,0Z" style="opacity: 0.7; stroke-width: 0px; fill: rgb(172, 55, 55); fill-opacity: 1;"/><path class="point" transform="translate(119.03,45.9)" d="M3,0A3,3 0 1,1 0,-3A3,3 0 0,1 3,0Z" style="opacity: 0.7; stroke-width: 0px; fill: rgb(172, 55, 55); fill-opacity: 1;"/></g><g class="text"/></g><g class="trace scatter trace94faed" style="stroke-miterlimit: 2; opacity: 1;"><g class="fills"/><g class="errorbars"/><g class="lines"/><g class="points"><path class="point" transform="translate(436.21,278.59)" d="M3,0A3,3 0 1,1 0,-3A3,3 0 0,1 3,0Z" style="opacity: 0.7; stroke-width: 0px; fill: rgb(197, 123, 34); fill-opacity: 1;"/><path class="point" transform="translate(324.69,282.97)" d="M3,0A3,3 0 1,1 0,-3A3,3 0 0,1 3,0Z" style="opacity: 0.7; stroke-width: 0px; fill: rgb(197, 123, 34); fill-opacity: 1;"/><path class="point" transform="translate(440.2,249.69)" d="M3,0A3,3 0 1,1 0,-3A3,3 0 0,1 3,0Z" style="opacity: 0.7; stroke-width: 0px; fill: rgb(197, 123, 34); fill-opacity: 1;"/><path class="point" transform="translate(394.89,227)" d="M3,0A3,3 0 1,1 0,-3A3,3 0 0,1 3,0Z" style="opacity: 0.7; stroke-width: 0px; fill: rgb(197, 123, 34); fill-opacity: 1;"/><path class="point" transform="translate(207.16,106.2)" d="M3,0A3,3 0 1,1 0,-3A3,3 0 0,1 3,0Z" style="opacity: 0.7; stroke-width: 0px; fill: rgb(197, 123, 34); fill-opacity: 1;"/><path class="point" transform="translate(253.07,90.88)" d="M3,0A3,3 0 1,1 0,-3A3,3 0 0,1 3,0Z" style="opacity: 0.7; stroke-width: 0px; fill: rgb(197, 123, 34); fill-opacity: 1;"/><path class="point" transform="translate(316.72,85.38)" d="M3,0A3,3 0 1,1 0,-3A3,3 0 0,1 3,0Z" style="opacity: 0.7; stroke-width: 0px; fill: rgb(197, 123, 34); fill-opacity: 1;"/><path class="point" transform="translate(324.09,78.85)" d="M3,0A3,3 0 1,1 0,-3A3,3 0 0,1 3,0Z" style="opacity: 0.7; stroke-width: 0px; fill: rgb(197, 123, 34); fill-opacity: 1;"/><path class="point" transform="translate(277.32,97.69)" d="M3,0A3,3 0 1,1 0,-3A3,3 0 0,1 3,0Z" style="opacity: 0.7; stroke-width: 0px; fill: rgb(197, 123, 34); fill-opacity: 1;"/><path class="point" transform="translate(255.85,76.68)" d="M3,0A3,3 0 1,1 0,-3A3,3 0 0,1 3,0Z" style="opacity: 0.7; stroke-width: 0px; fill: rgb(197, 123, 34); fill-opacity: 1;"/><path class="point" transform="translate(312.32,108.15)" d="M3,0A3,3 0 1,1 0,-3A3,3 0 0,1 3,0Z" style="opacity: 0.7; stroke-width: 0px; fill: rgb(197, 123, 34); fill-opacity: 1;"/><path class="point" transform="translate(384.01,199.24)" d="M3,0A3,3 0 1,1 0,-3A3,3 0 0,1 3,0Z" style="opacity: 0.7; stroke-width: 0px; fill: rgb(197, 123, 34); fill-opacity: 1;"/><path class="point" transform="translate(374.73,226.81)" d="M3,0A3,3 0 1,1 0,-3A3,3 0 0,1 3,0Z" style="opacity: 0.7; stroke-width: 0px; fill: rgb(197, 123, 34); fill-opacity: 1;"/><path class="point" transform="translate(365.72,196.91)" d="M3,0A3,3 0 1,1 0,-3A3,3 0 0,1 3,0Z" style="opacity: 0.7; stroke-width: 0px; fill: rgb(197, 123, 34); fill-opacity: 1;"/><path class="point" transform="translate(416.19,282.73)" d="M3,0A3,3 0 1,1 0,-3A3,3 0 0,1 3,0Z" style="opacity: 0.7; stroke-width: 0px; fill: rgb(197, 123, 34); fill-opacity: 1;"/><path class="point" transform="translate(332.55,250.15)" d="M3,0A3,3 0 1,1 0,-3A3,3 0 0,1 3,0Z" style="opacity: 0.7; stroke-width: 0px; fill: rgb(197, 123, 34); fill-opacity: 1;"/><path class="point" transform="translate(357.25,211.16)" d="M3,0A3,3 0 1,1 0,-3A3,3 0 0,1 3,0Z" style="opacity: 0.7; stroke-width: 0px; fill: rgb(197, 123, 34); fill-opacity: 1;"/><path class="point" transform="translate(326.27,266.26)" d="M3,0A3,3 0 1,1 0,-3A3,3 0 0,1 3,0Z" style="opacity: 0.7; stroke-width: 0px; fill: rgb(197, 123, 34); fill-opacity: 1;"/></g><g class="text"/></g><g class="trace scatter tracea833f2" style="stroke-miterlimit: 2; opacity: 1;"><g class="fills"/><g class="errorbars"/><g class="lines"/><g class="points"><path class="point" transform="translate(203.1,224.76)" d="M3,0A3,3 0 1,1 0,-3A3,3 0 0,1 3,0Z" style="opacity: 0.7; stroke-width: 0px; fill: rgb(226, 161, 71); fill-opacity: 1;"/><path class="point" transform="translate(195.61,138.04)" d="M3,0A3,3 0 1,1 0,-3A3,3 0 0,1 3,0Z" style="opacity: 0.7; stroke-width: 0px; fill: rgb(226, 161, 71); fill-opacity: 1;"/><path class="point" transform="translate(327.78,203.71)" d="M3,0A3,3 0 1,1 0,-3A3,3 0 0,1 3,0Z" style="opacity: 0.7; stroke-width: 0px; fill: rgb(226, 161, 71); fill-opacity: 1;"/><path class="point" transform="translate(199.65,66.02)" d="M3,0A3,3 0 1,1 0,-3A3,3 0 0,1 3,0Z" style="opacity: 0.7; stroke-width: 0px; fill: rgb(226, 161, 71); fill-opacity: 1;"/><path class="point" transform="translate(246.28,121.67)" d="M3,0A3,3 0 1,1 0,-3A3,3 0 0,1 3,0Z" style="opacity: 0.7; stroke-width: 0px; fill: rgb(226, 161, 71); fill-opacity: 1;"/><path class="point" transform="translate(247.05,107.04)" d="M3,0A3,3 0 1,1 0,-3A3,3 0 0,1 3,0Z" style="opacity: 0.7; stroke-width: 0px; fill: rgb(226, 161, 71); fill-opacity: 1;"/><path class="point" transform="translate(321.35,36.4)" d="M3,0A3,3 0 1,1 0,-3A3,3 0 0,1 3,0Z" style="opacity: 0.7; stroke-width: 0px; fill: rgb(226, 161, 71); fill-opacity: 1;"/><path class="point" transform="translate(319.59,95.98)" d="M3,0A3,3 0 1,1 0,-3A3,3 0 0,1 3,0Z" style="opacity: 0.7; stroke-width: 0px; fill: rgb(226, 161, 71); fill-opacity: 1;"/><path class="point" transform="translate(304.76,79.8)" d="M3,0A3,3 0 1,1 0,-3A3,3 0 0,1 3,0Z" style="opacity: 0.7; stroke-width: 0px; fill: rgb(226, 161, 71); fill-opacity: 1;"/><path class="point" transform="translate(295.76,87.36)" d="M3,0A3,3 0 1,1 0,-3A3,3 0 0,1 3,0Z" style="opacity: 0.7; stroke-width: 0px; fill: rgb(226, 161, 71); fill-opacity: 1;"/><path class="point" transform="translate(267.79,57.36)" d="M3,0A3,3 0 1,1 0,-3A3,3 0 0,1 3,0Z" style="opacity: 0.7; stroke-width: 0px; fill: rgb(226, 161, 71); fill-opacity: 1;"/><path class="point" transform="translate(410.82,208.66)" d="M3,0A3,3 0 1,1 0,-3A3,3 0 0,1 3,0Z" style="opacity: 0.7; stroke-width: 0px; fill: rgb(226, 161, 71); fill-opacity: 1;"/><path class="point" transform="translate(326.44,137.08)" d="M3,0A3,3 0 1,1 0,-3A3,3 0 0,1 3,0Z" style="opacity: 0.7; stroke-width: 0px; fill: rgb(226, 161, 71); fill-opacity: 1;"/><path class="point" transform="translate(292.14,176.72)" d="M3,0A3,3 0 1,1 0,-3A3,3 0 0,1 3,0Z" style="opacity: 0.7; stroke-width: 0px; fill: rgb(226, 161, 71); fill-opacity: 1;"/><path class="point" transform="translate(140.17,117.47)" d="M3,0A3,3 0 1,1 0,-3A3,3 0 0,1 3,0Z" style="opacity: 0.7; stroke-width: 0px; fill: rgb(226, 161, 71); fill-opacity: 1;"/><path class="point" transform="translate(349.64,232.48)" d="M3,0A3,3 0 1,1 0,-3A3,3 0 0,1 3,0Z" style="opacity: 0.7; stroke-width: 0px; fill: rgb(226, 161, 71); fill-opacity: 1;"/><path class="point" transform="translate(399.21,264.23)" d="M3,0A3,3 0 1,1 0,-3A3,3 0 0,1 3,0Z" style="opacity: 0.7; stroke-width: 0px; fill: rgb(226, 161, 71); fill-opacity: 1;"/><path class="point" transform="translate(309.94,254.99)" d="M3,0A3,3 0 1,1 0,-3A3,3 0 0,1 3,0Z" style="opacity: 0.7; stroke-width: 0px; fill: rgb(226, 161, 71); fill-opacity: 1;"/></g><g class="text"/></g><g class="trace scatter tracea7503b" style="stroke-miterlimit: 2; opacity: 1;"><g class="fills"/><g class="errorbars"/><g class="lines"/><g class="points"><path class="point" transform="translate(148.6,239.63)" d="M3,0A3,3 0 1,1 0,-3A3,3 0 0,1 3,0Z" style="opacity: 0.7; stroke-width: 0px; fill: rgb(34, 76, 133); fill-opacity: 1;"/><path class="point" transform="translate(168.07,212.33)" d="M3,0A3,3 0 1,1 0,-3A3,3 0 0,1 3,0Z" style="opacity: 0.7; stroke-width: 0px; fill: rgb(34, 76, 133); fill-opacity: 1;"/><path class="point" transform="translate(454.22,96.94)" d="M3,0A3,3 0 1,1 0,-3A3,3 0 0,1 3,0Z" style="opacity: 0.7; stroke-width: 0px; fill: rgb(34, 76, 133); fill-opacity: 1;"/><path class="point" transform="translate(238.93,251.29)" d="M3,0A3,3 0 1,1 0,-3A3,3 0 0,1 3,0Z" style="opacity: 0.7; stroke-width: 0px; fill: rgb(34, 76, 133); fill-opacity: 1;"/><path class="point" transform="translate(107.44,268.6)" d="M3,0A3,3 0 1,1 0,-3A3,3 0 0,1 3,0Z" style="opacity: 0.7; stroke-width: 0px; fill: rgb(34, 76, 133); fill-opacity: 1;"/><path class="point" transform="translate(384.39,162.76)" d="M3,0A3,3 0 1,1 0,-3A3,3 0 0,1 3,0Z" style="opacity: 0.7; stroke-width: 0px; fill: rgb(34, 76, 133); fill-opacity: 1;"/><path class="point" transform="translate(85.41,186.02)" d="M3,0A3,3 0 1,1 0,-3A3,3 0 0,1 3,0Z" style="opacity: 0.7; stroke-width: 0px; fill: rgb(34, 76, 133); fill-opacity: 1;"/><path class="point" transform="translate(211.27,198.02)" d="M3,0A3,3 0 1,1 0,-3A3,3 0 0,1 3,0Z" style="opacity: 0.7; stroke-width: 0px; fill: rgb(34, 76, 133); fill-opacity: 1;"/><path class="point" transform="translate(53.19,167.21)" d="M3,0A3,3 0 1,1 0,-3A3,3 0 0,1 3,0Z" style="opacity: 0.7; stroke-width: 0px; fill: rgb(34, 76, 133); fill-opacity: 1;"/><path class="point" transform="translate(170.08,204.79)" d="M3,0A3,3 0 1,1 0,-3A3,3 0 0,1 3,0Z" style="opacity: 0.7; stroke-width: 0px; fill: rgb(34, 76, 133); fill-opacity: 1;"/><path class="point" transform="translate(217.15,206.83)" d="M3,0A3,3 0 1,1 0,-3A3,3 0 0,1 3,0Z" style="opacity: 0.7; stroke-width: 0px; fill: rgb(34, 76, 133); fill-opacity: 1;"/><path class="point" transform="translate(257.67,196.88)" d="M3,0A3,3 0 1,1 0,-3A3,3 0 0,1 3,0Z" style="opacity: 0.7; stroke-width: 0px; fill: rgb(34, 76, 133); fill-opacity: 1;"/><path class="point" transform="translate(313.84,165.37)" d="M3,0A3,3 0 1,1 0,-3A3,3 0 0,1 3,0Z" style="opacity: 0.7; stroke-width: 0px; fill: rgb(34, 76, 133); fill-opacity: 1;"/><path class="point" transform="translate(204.92,214.75)" d="M3,0A3,3 0 1,1 0,-3A3,3 0 0,1 3,0Z" style="opacity: 0.7; stroke-width: 0px; fill: rgb(34, 76, 133); fill-opacity: 1;"/><path class="point" transform="translate(246.48,208.86)" d="M3,0A3,3 0 1,1 0,-3A3,3 0 0,1 3,0Z" style="opacity: 0.7; stroke-width: 0px; fill: rgb(34, 76, 133); fill-opacity: 1;"/><path class="point" transform="translate(249.86,211.54)" d="M3,0A3,3 0 1,1 0,-3A3,3 0 0,1 3,0Z" style="opacity: 0.7; stroke-width: 0px; fill: rgb(34, 76, 133); fill-opacity: 1;"/><path class="point" transform="translate(94.08,218.21)" d="M3,0A3,3 0 1,1 0,-3A3,3 0 0,1 3,0Z" style="opacity: 0.7; stroke-width: 0px; fill: rgb(34, 76, 133); fill-opacity: 1;"/><path class="point" transform="translate(175.46,239.93)" d="M3,0A3,3 0 1,1 0,-3A3,3 0 0,1 3,0Z" style="opacity: 0.7; stroke-width: 0px; fill: rgb(34, 76, 133); fill-opacity: 1;"/><path class="point" transform="translate(139.92,203.06)" d="M3,0A3,3 0 1,1 0,-3A3,3 0 0,1 3,0Z" style="opacity: 0.7; stroke-width: 0px; fill: rgb(34, 76, 133); fill-opacity: 1;"/><path class="point" transform="translate(142.43,228.11)" d="M3,0A3,3 0 1,1 0,-3A3,3 0 0,1 3,0Z" style="opacity: 0.7; stroke-width: 0px; fill: rgb(34, 76, 133); fill-opacity: 1;"/><path class="point" transform="translate(293.25,263.83)" d="M3,0A3,3 0 1,1 0,-3A3,3 0 0,1 3,0Z" style="opacity: 0.7; stroke-width: 0px; fill: rgb(34, 76, 133); fill-opacity: 1;"/><path class="point" transform="translate(123.69,255.88)" d="M3,0A3,3 0 1,1 0,-3A3,3 0 0,1 3,0Z" style="opacity: 0.7; stroke-width: 0px; fill: rgb(34, 76, 133); fill-opacity: 1;"/><path class="point" transform="translate(181.82,285.56)" d="M3,0A3,3 0 1,1 0,-3A3,3 0 0,1 3,0Z" style="opacity: 0.7; stroke-width: 0px; fill: rgb(34, 76, 133); fill-opacity: 1;"/></g><g class="text"/></g><g class="trace scatter tracec2da77" style="stroke-miterlimit: 2; opacity: 1;"><g class="fills"/><g class="errorbars"/><g class="lines"/><g class="points"><path class="point" transform="translate(356.87,324.63)" d="M3,0A3,3 0 1,1 0,-3A3,3 0 0,1 3,0Z" style="opacity: 0.7; stroke-width: 0px; fill: rgb(60, 110, 185); fill-opacity: 1;"/><path class="point" transform="translate(335.67,121.51)" d="M3,0A3,3 0 1,1 0,-3A3,3 0 0,1 3,0Z" style="opacity: 0.7; stroke-width: 0px; fill: rgb(60, 110, 185); fill-opacity: 1;"/><path class="point" transform="translate(361.19,97.69)" d="M3,0A3,3 0 1,1 0,-3A3,3 0 0,1 3,0Z" style="opacity: 0.7; stroke-width: 0px; fill: rgb(60, 110, 185); fill-opacity: 1;"/><path class="point" transform="translate(317.12,123.57)" d="M3,0A3,3 0 1,1 0,-3A3,3 0 0,1 3,0Z" style="opacity: 0.7; stroke-width: 0px; fill: rgb(60, 110, 185); fill-opacity: 1;"/><path class="point" transform="translate(318.12,92.66)" d="M3,0A3,3 0 1,1 0,-3A3,3 0 0,1 3,0Z" style="opacity: 0.7; stroke-width: 0px; fill: rgb(60, 110, 185); fill-opacity: 1;"/><path class="point" transform="translate(429.46,140.52)" d="M3,0A3,3 0 1,1 0,-3A3,3 0 0,1 3,0Z" style="opacity: 0.7; stroke-width: 0px; fill: rgb(60, 110, 185); fill-opacity: 1;"/><path class="point" transform="translate(394.06,157.34)" d="M3,0A3,3 0 1,1 0,-3A3,3 0 0,1 3,0Z" style="opacity: 0.7; stroke-width: 0px; fill: rgb(60, 110, 185); fill-opacity: 1;"/><path class="point" transform="translate(121.03,230.37)" d="M3,0A3,3 0 1,1 0,-3A3,3 0 0,1 3,0Z" style="opacity: 0.7; stroke-width: 0px; fill: rgb(60, 110, 185); fill-opacity: 1;"/><path class="point" transform="translate(360.31,312.56)" d="M3,0A3,3 0 1,1 0,-3A3,3 0 0,1 3,0Z" style="opacity: 0.7; stroke-width: 0px; fill: rgb(60, 110, 185); fill-opacity: 1;"/><path class="point" transform="translate(190.07,253.38)" d="M3,0A3,3 0 1,1 0,-3A3,3 0 0,1 3,0Z" style="opacity: 0.7; stroke-width: 0px; fill: rgb(60, 110, 185); fill-opacity: 1;"/></g><g class="text"/></g><g class="trace scatter trace49cb82" style="stroke-miterlimit: 2; opacity: 1;"><g class="fills"/><g class="errorbars"/><g class="lines"/><g class="points"><path class="point" transform="translate(229.03,269.29)" d="M3,0A3,3 0 1,1 0,-3A3,3 0 0,1 3,0Z" style="opacity: 0.7; stroke-width: 0px; fill: rgb(93, 60, 136); fill-opacity: 1;"/><path class="point" transform="translate(437.91,194.14)" d="M3,0A3,3 0 1,1 0,-3A3,3 0 0,1 3,0Z" style="opacity: 0.7; stroke-width: 0px; fill: rgb(93, 60, 136); fill-opacity: 1;"/><path class="point" transform="translate(346.43,118.84)" d="M3,0A3,3 0 1,1 0,-3A3,3 0 0,1 3,0Z" style="opacity: 0.7; stroke-width: 0px; fill: rgb(93, 60, 136); fill-opacity: 1;"/><path class="point" transform="translate(406.73,99.07)" d="M3,0A3,3 0 1,1 0,-3A3,3 0 0,1 3,0Z" style="opacity: 0.7; stroke-width: 0px; fill: rgb(93, 60, 136); fill-opacity: 1;"/><path class="point" transform="translate(308.1,127.64)" d="M3,0A3,3 0 1,1 0,-3A3,3 0 0,1 3,0Z" style="opacity: 0.7; stroke-width: 0px; fill: rgb(93, 60, 136); fill-opacity: 1;"/><path class="point" transform="translate(417.45,76.35)" d="M3,0A3,3 0 1,1 0,-3A3,3 0 0,1 3,0Z" style="opacity: 0.7; stroke-width: 0px; fill: rgb(93, 60, 136); fill-opacity: 1;"/><path class="point" transform="translate(353.69,142.06)" d="M3,0A3,3 0 1,1 0,-3A3,3 0 0,1 3,0Z" style="opacity: 0.7; stroke-width: 0px; fill: rgb(93, 60, 136); fill-opacity: 1;"/><path class="point" transform="translate(379.14,229.11)" d="M3,0A3,3 0 1,1 0,-3A3,3 0 0,1 3,0Z" style="opacity: 0.7; stroke-width: 0px; fill: rgb(93, 60, 136); fill-opacity: 1;"/><path class="point" transform="translate(365.51,275.91)" d="M3,0A3,3 0 1,1 0,-3A3,3 0 0,1 3,0Z" style="opacity: 0.7; stroke-width: 0px; fill: rgb(93, 60, 136); fill-opacity: 1;"/><path class="point" transform="translate(203.74,296.01)" d="M3,0A3,3 0 1,1 0,-3A3,3 0 0,1 3,0Z" style="opacity: 0.7; stroke-width: 0px; fill: rgb(93, 60, 136); fill-opacity: 1;"/><path class="point" transform="translate(304.29,202.31)" d="M3,0A3,3 0 1,1 0,-3A3,3 0 0,1 3,0Z" style="opacity: 0.7; stroke-width: 0px; fill: rgb(93, 60, 136); fill-opacity: 1;"/></g><g class="text"/></g><g class="trace scatter tracee965f0" style="stroke-miterlimit: 2; opacity: 1;"><g class="fills"/><g class="errorbars"/><g class="lines"/><g class="points"><path class="point" transform="translate(412.06,121.99)" d="M3,0A3,3 0 1,1 0,-3A3,3 0 0,1 3,0Z" style="opacity: 0.7; stroke-width: 0px; fill: rgb(124, 87, 173); fill-opacity: 1;"/><path class="point" transform="translate(364.01,112.82)" d="M3,0A3,3 0 1,1 0,-3A3,3 0 0,1 3,0Z" style="opacity: 0.7; stroke-width: 0px; fill: rgb(124, 87, 173); fill-opacity: 1;"/><path class="point" transform="translate(311.09,182.64)" d="M3,0A3,3 0 1,1 0,-3A3,3 0 0,1 3,0Z" style="opacity: 0.7; stroke-width: 0px; fill: rgb(124, 87, 173); fill-opacity: 1;"/><path class="point" transform="translate(406.96,109.76)" d="M3,0A3,3 0 1,1 0,-3A3,3 0 0,1 3,0Z" style="opacity: 0.7; stroke-width: 0px; fill: rgb(124, 87, 173); fill-opacity: 1;"/><path class="point" transform="translate(358,143.78)" d="M3,0A3,3 0 1,1 0,-3A3,3 0 0,1 3,0Z" style="opacity: 0.7; stroke-width: 0px; fill: rgb(124, 87, 173); fill-opacity: 1;"/><path class="point" transform="translate(152.13,169.66)" d="M3,0A3,3 0 1,1 0,-3A3,3 0 0,1 3,0Z" style="opacity: 0.7; stroke-width: 0px; fill: rgb(124, 87, 173); fill-opacity: 1;"/><path class="point" transform="translate(324.43,73.56)" d="M3,0A3,3 0 1,1 0,-3A3,3 0 0,1 3,0Z" style="opacity: 0.7; stroke-width: 0px; fill: rgb(124, 87, 173); fill-opacity: 1;"/><path class="point" transform="translate(397.54,81.11)" d="M3,0A3,3 0 1,1 0,-3A3,3 0 0,1 3,0Z" style="opacity: 0.7; stroke-width: 0px; fill: rgb(124, 87, 173); fill-opacity: 1;"/><path class="point" transform="translate(358.1,177.91)" d="M3,0A3,3 0 1,1 0,-3A3,3 0 0,1 3,0Z" style="opacity: 0.7; stroke-width: 0px; fill: rgb(124, 87, 173); fill-opacity: 1;"/><path class="point" transform="translate(244.01,191.34)" d="M3,0A3,3 0 1,1 0,-3A3,3 0 0,1 3,0Z" style="opacity: 0.7; stroke-width: 0px; fill: rgb(124, 87, 173); fill-opacity: 1;"/><path class="point" transform="translate(257.46,243.93)" d="M3,0A3,3 0 1,1 0,-3A3,3 0 0,1 3,0Z" style="opacity: 0.7; stroke-width: 0px; fill: rgb(124, 87, 173); fill-opacity: 1;"/><path class="point" transform="translate(369.38,279.33)" d="M3,0A3,3 0 1,1 0,-3A3,3 0 0,1 3,0Z" style="opacity: 0.7; stroke-width: 0px; fill: rgb(124, 87, 173); fill-opacity: 1;"/><path class="point" transform="translate(305.44,183.33)" d="M3,0A3,3 0 1,1 0,-3A3,3 0 0,1 3,0Z" style="opacity: 0.7; stroke-width: 0px; fill: rgb(124, 87, 173); fill-opacity: 1;"/><path class="point" transform="translate(366.32,155.01)" d="M3,0A3,3 0 1,1 0,-3A3,3 0 0,1 3,0Z" style="opacity: 0.7; stroke-width: 0px; fill: rgb(124, 87, 173); fill-opacity: 1;"/><path class="point" transform="translate(380.32,165.98)" d="M3,0A3,3 0 1,1 0,-3A3,3 0 0,1 3,0Z" style="opacity: 0.7; stroke-width: 0px; fill: rgb(124, 87, 173); fill-opacity: 1;"/></g><g class="text"/></g><g class="trace scatter tracead4254" style="stroke-miterlimit: 2; opacity: 1;"><g class="fills"/><g class="errorbars"/><g class="lines"/><g class="points"><path class="point" transform="translate(271.61,292.57)" d="M3,0A3,3 0 1,1 0,-3A3,3 0 0,1 3,0Z" style="opacity: 0.7; stroke-width: 0px; fill: rgb(156, 120, 197); fill-opacity: 1;"/><path class="point" transform="translate(282.19,338.25)" d="M3,0A3,3 0 1,1 0,-3A3,3 0 0,1 3,0Z" style="opacity: 0.7; stroke-width: 0px; fill: rgb(156, 120, 197); fill-opacity: 1;"/><path class="point" transform="translate(250.04,270.81)" d="M3,0A3,3 0 1,1 0,-3A3,3 0 0,1 3,0Z" style="opacity: 0.7; stroke-width: 0px; fill: rgb(156, 120, 197); fill-opacity: 1;"/><path class="point" transform="translate(310.48,150.61)" d="M3,0A3,3 0 1,1 0,-3A3,3 0 0,1 3,0Z" style="opacity: 0.7; stroke-width: 0px; fill: rgb(156, 120, 197); fill-opacity: 1;"/><path class="point" transform="translate(187.86,144.88)" d="M3,0A3,3 0 1,1 0,-3A3,3 0 0,1 3,0Z" style="opacity: 0.7; stroke-width: 0px; fill: rgb(156, 120, 197); fill-opacity: 1;"/><path class="point" transform="translate(320.75,106.47)" d="M3,0A3,3 0 1,1 0,-3A3,3 0 0,1 3,0Z" style="opacity: 0.7; stroke-width: 0px; fill: rgb(156, 120, 197); fill-opacity: 1;"/><path class="point" transform="translate(101.79,161.78)" d="M3,0A3,3 0 1,1 0,-3A3,3 0 0,1 3,0Z" style="opacity: 0.7; stroke-width: 0px; fill: rgb(156, 120, 197); fill-opacity: 1;"/><path class="point" transform="translate(316.74,128.16)" d="M3,0A3,3 0 1,1 0,-3A3,3 0 0,1 3,0Z" style="opacity: 0.7; stroke-width: 0px; fill: rgb(156, 120, 197); fill-opacity: 1;"/><path class="point" transform="translate(167.81,164.86)" d="M3,0A3,3 0 1,1 0,-3A3,3 0 0,1 3,0Z" style="opacity: 0.7; stroke-width: 0px; fill: rgb(156, 120, 197); fill-opacity: 1;"/><path class="point" transform="translate(283.62,181.69)" d="M3,0A3,3 0 1,1 0,-3A3,3 0 0,1 3,0Z" style="opacity: 0.7; stroke-width: 0px; fill: rgb(156, 120, 197); fill-opacity: 1;"/><path class="point" transform="translate(256.86,249.08)" d="M3,0A3,3 0 1,1 0,-3A3,3 0 0,1 3,0Z" style="opacity: 0.7; stroke-width: 0px; fill: rgb(156, 120, 197); fill-opacity: 1;"/><path class="point" transform="translate(416.41,191.28)" d="M3,0A3,3 0 1,1 0,-3A3,3 0 0,1 3,0Z" style="opacity: 0.7; stroke-width: 0px; fill: rgb(156, 120, 197); fill-opacity: 1;"/><path class="point" transform="translate(281.1,334.24)" d="M3,0A3,3 0 1,1 0,-3A3,3 0 0,1 3,0Z" style="opacity: 0.7; stroke-width: 0px; fill: rgb(156, 120, 197); fill-opacity: 1;"/></g><g class="text"/></g></g></g></g><g class="zerolinelayer-above"/><path class="xlines-above crisp" d="M79,420.5H608" style="fill: none; stroke-width: 1px; stroke: rgb(0, 0, 0); stroke-opacity: 1;"/><path class="ylines-above crisp" d="M79.5,60V420" style="fill: none; stroke-width: 1px; stroke: rgb(0, 0, 0); stroke-opacity: 1;"/><g class="overlines-above"/><g class="xaxislayer-above"/><g class="yaxislayer-above"/><g class="overaxes-above"/></g></g><g class="polarlayer"/><g class="smithlayer"/><g class="ternarylayer"/><g class="geolayer"/><g class="funnelarealayer"/><g class="pielayer"/><g class="iciclelayer"/><g class="treemaplayer"/><g class="sunburstlayer"/><g class="glimages"/><defs id="topdefs-ceffa0"><g class="clips"/><clipPath id="legendceffa0"><rect width="69" height="200" x="0" y="0"/></clipPath></defs><g class="layer-above"><g class="imagelayer"/><g class="shapelayer"/></g><g class="infolayer"><g class="legend" pointer-events="all" transform="translate(618.5600000000001,60)"><rect class="bg" shape-rendering="crispEdges" style="stroke: rgb(68, 68, 68); stroke-opacity: 1; fill: rgb(255, 255, 255); fill-opacity: 1; stroke-width: 0px;" width="69" height="200" x="0" y="0"/><g class="scrollbox" transform="" clip-path="url(#legendceffa0)"><text class="legendtitletext" text-anchor="start" x="2" y="18.2" style="font-family: 'Open Sans', verdana, arial, sans-serif; font-size: 14px; fill: rgb(68, 68, 68); fill-opacity: 1; white-space: pre;">Phoneme</text><g class="groups" transform=""><g class="traces" transform="translate(0,32.7)" style="opacity: 1;"><text class="legendtext" text-anchor="start" x="40" y="4.680000000000001" style="font-family: 'Open Sans', verdana, arial, sans-serif; font-size: 12px; fill: rgb(68, 68, 68); fill-opacity: 1; white-space: pre;">i</text><g class="layers" style="opacity: 1;"><g class="legendfill"/><g class="legendlines"/><g class="legendsymbols"><g class="legendpoints"><path class="scatterpts" transform="translate(20,0)" d="M3,0A3,3 0 1,1 0,-3A3,3 0 0,1 3,0Z" style="opacity: 0.7; stroke-width: 0px; fill: rgb(135, 38, 38); fill-opacity: 1;"/></g></g></g><rect class="legendtoggle" x="0" y="-9.5" width="54.359375" height="19" style="fill: rgb(0, 0, 0); fill-opacity: 0;"/></g></g><g class="groups" transform=""><g class="traces" transform="translate(0,51.7)" style="opacity: 1;"><text class="legendtext" text-anchor="start" x="40" y="4.680000000000001" style="font-family: 'Open Sans', verdana, arial, sans-serif; font-size: 12px; fill: rgb(68, 68, 68); fill-opacity: 1; white-space: pre;">u</text><g class="layers" style="opacity: 1;"><g class="legendfill"/><g class="legendlines"/><g class="legendsymbols"><g class="legendpoints"><path class="scatterpts" transform="translate(20,0)" d="M3,0A3,3 0 1,1 0,-3A3,3 0 0,1 3,0Z" style="opacity: 0.7; stroke-width: 0px; fill: rgb(172, 55, 55); fill-opacity: 1;"/></g></g></g><rect class="legendtoggle" x="0" y="-9.5" width="54.359375" height="19" style="fill: rgb(0, 0, 0); fill-opacity: 0;"/></g></g><g class="groups" transform=""><g class="traces" transform="translate(0,70.7)" style="opacity: 1;"><text class="legendtext" text-anchor="start" x="40" y="4.680000000000001" style="font-family: 'Open Sans', verdana, arial, sans-serif; font-size: 12px; fill: rgb(68, 68, 68); fill-opacity: 1; white-space: pre;">a</text><g class="layers" style="opacity: 1;"><g class="legendfill"/><g class="legendlines"/><g class="legendsymbols"><g class="legendpoints"><path class="scatterpts" transform="translate(20,0)" d="M3,0A3,3 0 1,1 0,-3A3,3 0 0,1 3,0Z" style="opacity: 0.7; stroke-width: 0px; fill: rgb(197, 123, 34); fill-opacity: 1;"/></g></g></g><rect class="legendtoggle" x="0" y="-9.5" width="54.359375" height="19" style="fill: rgb(0, 0, 0); fill-opacity: 0;"/></g></g><g class="groups" transform=""><g class="traces" transform="translate(0,89.7)" style="opacity: 1;"><text class="legendtext" text-anchor="start" x="40" y="4.680000000000001" style="font-family: 'Open Sans', verdana, arial, sans-serif; font-size: 12px; fill: rgb(68, 68, 68); fill-opacity: 1; white-space: pre;">ae</text><g class="layers" style="opacity: 1;"><g class="legendfill"/><g class="legendlines"/><g class="legendsymbols"><g class="legendpoints"><path class="scatterpts" transform="translate(20,0)" d="M3,0A3,3 0 1,1 0,-3A3,3 0 0,1 3,0Z" style="opacity: 0.7; stroke-width: 0px; fill: rgb(226, 161, 71); fill-opacity: 1;"/></g></g></g><rect class="legendtoggle" x="0" y="-9.5" width="54.359375" height="19" style="fill: rgb(0, 0, 0); fill-opacity: 0;"/></g></g><g class="groups" transform=""><g class="traces" transform="translate(0,108.7)" style="opacity: 1;"><text class="legendtext" text-anchor="start" x="40" y="4.680000000000001" style="font-family: 'Open Sans', verdana, arial, sans-serif; font-size: 12px; fill: rgb(68, 68, 68); fill-opacity: 1; white-space: pre;">g</text><g class="layers" style="opacity: 1;"><g class="legendfill"/><g class="legendlines"/><g class="legendsymbols"><g class="legendpoints"><path class="scatterpts" transform="translate(20,0)" d="M3,0A3,3 0 1,1 0,-3A3,3 0 0,1 3,0Z" style="opacity: 0.7; stroke-width: 0px; fill: rgb(34, 76, 133); fill-opacity: 1;"/></g></g></g><rect class="legendtoggle" x="0" y="-9.5" width="54.359375" height="19" style="fill: rgb(0, 0, 0); fill-opacity: 0;"/></g></g><g class="groups" transform=""><g class="traces" transform="translate(0,127.7)" style="opacity: 1;"><text class="legendtext" text-anchor="start" x="40" y="4.680000000000001" style="font-family: 'Open Sans', verdana, arial, sans-serif; font-size: 12px; fill: rgb(68, 68, 68); fill-opacity: 1; white-space: pre;">k</text><g class="layers" style="opacity: 1;"><g class="legendfill"/><g class="legendlines"/><g class="legendsymbols"><g class="legendpoints"><path class="scatterpts" transform="translate(20,0)" d="M3,0A3,3 0 1,1 0,-3A3,3 0 0,1 3,0Z" style="opacity: 0.7; stroke-width: 0px; fill: rgb(60, 110, 185); fill-opacity: 1;"/></g></g></g><rect class="legendtoggle" x="0" y="-9.5" width="54.359375" height="19" style="fill: rgb(0, 0, 0); fill-opacity: 0;"/></g></g><g class="groups" transform=""><g class="traces" transform="translate(0,146.7)" style="opacity: 1;"><text class="legendtext" text-anchor="start" x="40" y="4.680000000000001" style="font-family: 'Open Sans', verdana, arial, sans-serif; font-size: 12px; fill: rgb(68, 68, 68); fill-opacity: 1; white-space: pre;">b</text><g class="layers" style="opacity: 1;"><g class="legendfill"/><g class="legendlines"/><g class="legendsymbols"><g class="legendpoints"><path class="scatterpts" transform="translate(20,0)" d="M3,0A3,3 0 1,1 0,-3A3,3 0 0,1 3,0Z" style="opacity: 0.7; stroke-width: 0px; fill: rgb(93, 60, 136); fill-opacity: 1;"/></g></g></g><rect class="legendtoggle" x="0" y="-9.5" width="54.359375" height="19" style="fill: rgb(0, 0, 0); fill-opacity: 0;"/></g></g><g class="groups" transform=""><g class="traces" transform="translate(0,165.7)" style="opacity: 1;"><text class="legendtext" text-anchor="start" x="40" y="4.680000000000001" style="font-family: 'Open Sans', verdana, arial, sans-serif; font-size: 12px; fill: rgb(68, 68, 68); fill-opacity: 1; white-space: pre;">p</text><g class="layers" style="opacity: 1;"><g class="legendfill"/><g class="legendlines"/><g class="legendsymbols"><g class="legendpoints"><path class="scatterpts" transform="translate(20,0)" d="M3,0A3,3 0 1,1 0,-3A3,3 0 0,1 3,0Z" style="opacity: 0.7; stroke-width: 0px; fill: rgb(124, 87, 173); fill-opacity: 1;"/></g></g></g><rect class="legendtoggle" x="0" y="-9.5" width="54.359375" height="19" style="fill: rgb(0, 0, 0); fill-opacity: 0;"/></g></g><g class="groups" transform=""><g class="traces" transform="translate(0,184.7)" style="opacity: 1;"><text class="legendtext" text-anchor="start" x="40" y="4.680000000000001" style="font-family: 'Open Sans', verdana, arial, sans-serif; font-size: 12px; fill: rgb(68, 68, 68); fill-opacity: 1; white-space: pre;">v</text><g class="layers" style="opacity: 1;"><g class="legendfill"/><g class="legendlines"/><g class="legendsymbols"><g class="legendpoints"><path class="scatterpts" transform="translate(20,0)" d="M3,0A3,3 0 1,1 0,-3A3,3 0 0,1 3,0Z" style="opacity: 0.7; stroke-width: 0px; fill: rgb(156, 120, 197); fill-opacity: 1;"/></g></g></g><rect class="legendtoggle" x="0" y="-9.5" width="54.359375" height="19" style="fill: rgb(0, 0, 0); fill-opacity: 0;"/></g></g></g><rect class="scrollbar" rx="20" ry="3" width="0" height="0" style="fill: rgb(128, 139, 164); fill-opacity: 1;" x="0" y="0"/></g><g class="g-gtitle"><text class="gtitle" x="350" y="30" text-anchor="middle" dy="0em" style="opacity: 1; font-family: 'Open Sans', verdana, arial, sans-serif; font-size: 17px; fill: rgb(68, 68, 68); fill-opacity: 1; white-space: pre;">TSNE Colored on: Phoneme - Silhouette Score: 0.266 - Patient: S26 - Method: Kumar #Run: 22</text></g><g class="g-xtitle"><text class="xtitle" x="344" y="458" text-anchor="middle" style="opacity: 1; font-family: 'Open Sans', verdana, arial, sans-serif; font-size: 14px; fill: rgb(68, 68, 68); fill-opacity: 1; white-space: pre;">tsne-1</text></g><g class="g-ytitle"><text class="ytitle" transform="rotate(-90,49,240)" x="49" y="240" text-anchor="middle" style="opacity: 1; font-family: 'Open Sans', verdana, arial, sans-serif; font-size: 14px; fill: rgb(68, 68, 68); fill-opacity: 1; white-space: pre;">y</text></g></g></svg>