<svg class="main-svg" xmlns="http://www.w3.org/2000/svg" xmlns:xlink="http://www.w3.org/1999/xlink" width="2100" height="1500" style="" viewBox="0 0 700 500"><rect x="0" y="0" width="700" height="500" style="fill: rgb(255, 255, 255); fill-opacity: 1;"/><defs id="defs-42dac1"><g class="clips"><clipPath id="clip42dac1xyplot" class="plotclip"><rect width="528" height="360"/></clipPath><clipPath class="axesclip" id="clip42dac1x"><rect x="80" y="0" width="528" height="500"/></clipPath><clipPath class="axesclip" id="clip42dac1y"><rect x="0" y="60" width="700" height="360"/></clipPath><clipPath class="axesclip" id="clip42dac1xy"><rect x="80" y="60" width="528" height="360"/></clipPath></g><g class="gradients"/><g class="patterns"/></defs><g class="bglayer"/><g class="layer-below"><g class="imagelayer"/><g class="shapelayer"/></g><g class="cartesianlayer"><g class="subplot xy"><g class="layer-subplot"><g class="shapelayer"/><g class="imagelayer"/></g><g class="minor-gridlayer"><g class="x"/><g class="y"/></g><g class="gridlayer"><g class="x"><path class="xgrid crisp" transform="translate(148.26999999999998,0)" d="M0,60v360" style="stroke: rgb(238, 238, 238); stroke-opacity: 1; stroke-width: 1px;"/><path class="xgrid crisp" transform="translate(221.37,0)" d="M0,60v360" style="stroke: rgb(238, 238, 238); stroke-opacity: 1; stroke-width: 1px;"/><path class="xgrid crisp" transform="translate(294.47,0)" d="M0,60v360" style="stroke: rgb(238, 238, 238); stroke-opacity: 1; stroke-width: 1px;"/><path class="xgrid crisp" transform="translate(440.67,0)" d="M0,60v360" style="stroke: rgb(238, 238, 238); stroke-opacity: 1; stroke-width: 1px;"/><path class="xgrid crisp" transform="translate(513.77,0)" d="M0,60v360" style="stroke: rgb(238, 238, 238); stroke-opacity: 1; stroke-width: 1px;"/><path class="xgrid crisp" transform="translate(586.87,0)" d="M0,60v360" style="stroke: rgb(238, 238, 238); stroke-opacity: 1; stroke-width: 1px;"/></g><g class="y"><path class="ygrid crisp" transform="translate(0,405.1)" d="M80,0h528" style="stroke: rgb(238, 238, 238); stroke-opacity: 1; stroke-width: 1px;"/><path class="ygrid crisp" transform="translate(0,354.58)" d="M80,0h528" style="stroke: rgb(238, 238, 238); stroke-opacity: 1; stroke-width: 1px;"/><path class="ygrid crisp" transform="translate(0,304.06)" d="M80,0h528" style="stroke: rgb(238, 238, 238); stroke-opacity: 1; stroke-width: 1px;"/><path class="ygrid crisp" transform="translate(0,253.54)" d="M80,0h528" style="stroke: rgb(238, 238, 238); stroke-opacity: 1; stroke-width: 1px;"/><path class="ygrid crisp" transform="translate(0,203.02)" d="M80,0h528" style="stroke: rgb(238, 238, 238); stroke-opacity: 1; stroke-width: 1px;"/><path class="ygrid crisp" transform="translate(0,152.5)" d="M80,0h528" style="stroke: rgb(238, 238, 238); stroke-opacity: 1; stroke-width: 1px;"/><path class="ygrid crisp" transform="translate(0,101.97999999999999)" d="M80,0h528" style="stroke: rgb(238, 238, 238); stroke-opacity: 1; stroke-width: 1px;"/></g></g><g class="zerolinelayer"><path class="xzl zl crisp" transform="translate(367.57,0)" d="M0,60v360" style="stroke: rgb(68, 68, 68); stroke-opacity: 1; stroke-width: 1px;"/></g><g class="layer-between"><g class="shapelayer"/><g class="imagelayer"/></g><path class="xlines-below"/><path class="ylines-below"/><g class="overlines-below"/><g class="xaxislayer-below"/><g class="yaxislayer-below"/><g class="overaxes-below"/><g class="overplot"><g class="xy" transform="translate(80,60)" clip-path="url(#clip42dac1xyplot)"><g class="scatterlayer mlayer"><g class="trace scatter traceea37a7" style="stroke-miterlimit: 2; opacity: 1;"><g class="fills"/><g class="errorbars"/><g class="lines"/><g class="points"><path class="point" transform="translate(322.03,145.54)" d="M3,0A3,3 0 1,1 0,-3A3,3 0 0,1 3,0Z" style="opacity: 0.7; stroke-width: 0px; fill: rgb(135, 38, 38); fill-opacity: 1;"/><path class="point" transform="translate(441.43,98.74)" d="M3,0A3,3 0 1,1 0,-3A3,3 0 0,1 3,0Z" style="opacity: 0.7; stroke-width: 0px; fill: rgb(135, 38, 38); fill-opacity: 1;"/><path class="point" transform="translate(372.02,83.39)" d="M3,0A3,3 0 1,1 0,-3A3,3 0 0,1 3,0Z" style="opacity: 0.7; stroke-width: 0px; fill: rgb(135, 38, 38); fill-opacity: 1;"/><path class="point" transform="translate(327.63,111.87)" d="M3,0A3,3 0 1,1 0,-3A3,3 0 0,1 3,0Z" style="opacity: 0.7; stroke-width: 0px; fill: rgb(135, 38, 38); fill-opacity: 1;"/><path class="point" transform="translate(357.3,87.15)" d="M3,0A3,3 0 1,1 0,-3A3,3 0 0,1 3,0Z" style="opacity: 0.7; stroke-width: 0px; fill: rgb(135, 38, 38); fill-opacity: 1;"/><path class="point" transform="translate(185.55,68.5)" d="M3,0A3,3 0 1,1 0,-3A3,3 0 0,1 3,0Z" style="opacity: 0.7; stroke-width: 0px; fill: rgb(135, 38, 38); fill-opacity: 1;"/><path class="point" transform="translate(219.29,90.05)" d="M3,0A3,3 0 1,1 0,-3A3,3 0 0,1 3,0Z" style="opacity: 0.7; stroke-width: 0px; fill: rgb(135, 38, 38); fill-opacity: 1;"/><path class="point" transform="translate(362.13,98.4)" d="M3,0A3,3 0 1,1 0,-3A3,3 0 0,1 3,0Z" style="opacity: 0.7; stroke-width: 0px; fill: rgb(135, 38, 38); fill-opacity: 1;"/><path class="point" transform="translate(394.85,49.57)" d="M3,0A3,3 0 1,1 0,-3A3,3 0 0,1 3,0Z" style="opacity: 0.7; stroke-width: 0px; fill: rgb(135, 38, 38); fill-opacity: 1;"/><path class="point" transform="translate(346.17,97.74)" d="M3,0A3,3 0 1,1 0,-3A3,3 0 0,1 3,0Z" style="opacity: 0.7; stroke-width: 0px; fill: rgb(135, 38, 38); fill-opacity: 1;"/><path class="point" transform="translate(450.63,108.95)" d="M3,0A3,3 0 1,1 0,-3A3,3 0 0,1 3,0Z" style="opacity: 0.7; stroke-width: 0px; fill: rgb(135, 38, 38); fill-opacity: 1;"/><path class="point" transform="translate(316.74,133.57)" d="M3,0A3,3 0 1,1 0,-3A3,3 0 0,1 3,0Z" style="opacity: 0.7; stroke-width: 0px; fill: rgb(135, 38, 38); fill-opacity: 1;"/><path class="point" transform="translate(386.07,68.4)" d="M3,0A3,3 0 1,1 0,-3A3,3 0 0,1 3,0Z" style="opacity: 0.7; stroke-width: 0px; fill: rgb(135, 38, 38); fill-opacity: 1;"/><path class="point" transform="translate(458.98,115.98)" d="M3,0A3,3 0 1,1 0,-3A3,3 0 0,1 3,0Z" style="opacity: 0.7; stroke-width: 0px; fill: rgb(135, 38, 38); fill-opacity: 1;"/><path class="point" transform="translate(404.89,114.96)" d="M3,0A3,3 0 1,1 0,-3A3,3 0 0,1 3,0Z" style="opacity: 0.7; stroke-width: 0px; fill: rgb(135, 38, 38); fill-opacity: 1;"/><path class="point" transform="translate(342.77,134.1)" d="M3,0A3,3 0 1,1 0,-3A3,3 0 0,1 3,0Z" style="opacity: 0.7; stroke-width: 0px; fill: rgb(135, 38, 38); fill-opacity: 1;"/><path class="point" transform="translate(327.83,131.89)" d="M3,0A3,3 0 1,1 0,-3A3,3 0 0,1 3,0Z" style="opacity: 0.7; stroke-width: 0px; fill: rgb(135, 38, 38); fill-opacity: 1;"/></g><g class="text"/></g><g class="trace scatter trace1a2acf" style="stroke-miterlimit: 2; opacity: 1;"><g class="fills"/><g class="errorbars"/><g class="lines"/><g class="points"><path class="point" transform="translate(420.59,232.42)" d="M3,0A3,3 0 1,1 0,-3A3,3 0 0,1 3,0Z" style="opacity: 0.7; stroke-width: 0px; fill: rgb(172, 55, 55); fill-opacity: 1;"/><path class="point" transform="translate(474.05,172.4)" d="M3,0A3,3 0 1,1 0,-3A3,3 0 0,1 3,0Z" style="opacity: 0.7; stroke-width: 0px; fill: rgb(172, 55, 55); fill-opacity: 1;"/><path class="point" transform="translate(438.17,182.81)" d="M3,0A3,3 0 1,1 0,-3A3,3 0 0,1 3,0Z" style="opacity: 0.7; stroke-width: 0px; fill: rgb(172, 55, 55); fill-opacity: 1;"/><path class="point" transform="translate(399.74,158.01)" d="M3,0A3,3 0 1,1 0,-3A3,3 0 0,1 3,0Z" style="opacity: 0.7; stroke-width: 0px; fill: rgb(172, 55, 55); fill-opacity: 1;"/><path class="point" transform="translate(451.39,157.45)" d="M3,0A3,3 0 1,1 0,-3A3,3 0 0,1 3,0Z" style="opacity: 0.7; stroke-width: 0px; fill: rgb(172, 55, 55); fill-opacity: 1;"/><path class="point" transform="translate(395.55,194.45)" d="M3,0A3,3 0 1,1 0,-3A3,3 0 0,1 3,0Z" style="opacity: 0.7; stroke-width: 0px; fill: rgb(172, 55, 55); fill-opacity: 1;"/><path class="point" transform="translate(331.45,186.08)" d="M3,0A3,3 0 1,1 0,-3A3,3 0 0,1 3,0Z" style="opacity: 0.7; stroke-width: 0px; fill: rgb(172, 55, 55); fill-opacity: 1;"/><path class="point" transform="translate(429.09,173.12)" d="M3,0A3,3 0 1,1 0,-3A3,3 0 0,1 3,0Z" style="opacity: 0.7; stroke-width: 0px; fill: rgb(172, 55, 55); fill-opacity: 1;"/><path class="point" transform="translate(281.26,21.75)" d="M3,0A3,3 0 1,1 0,-3A3,3 0 0,1 3,0Z" style="opacity: 0.7; stroke-width: 0px; fill: rgb(172, 55, 55); fill-opacity: 1;"/><path class="point" transform="translate(219.22,103.03)" d="M3,0A3,3 0 1,1 0,-3A3,3 0 0,1 3,0Z" style="opacity: 0.7; stroke-width: 0px; fill: rgb(172, 55, 55); fill-opacity: 1;"/><path class="point" transform="translate(280.05,53.55)" d="M3,0A3,3 0 1,1 0,-3A3,3 0 0,1 3,0Z" style="opacity: 0.7; stroke-width: 0px; fill: rgb(172, 55, 55); fill-opacity: 1;"/><path class="point" transform="translate(465.13,218.44)" d="M3,0A3,3 0 1,1 0,-3A3,3 0 0,1 3,0Z" style="opacity: 0.7; stroke-width: 0px; fill: rgb(172, 55, 55); fill-opacity: 1;"/><path class="point" transform="translate(356.83,196.01)" d="M3,0A3,3 0 1,1 0,-3A3,3 0 0,1 3,0Z" style="opacity: 0.7; stroke-width: 0px; fill: rgb(172, 55, 55); fill-opacity: 1;"/><path class="point" transform="translate(277.77,165.82)" d="M3,0A3,3 0 1,1 0,-3A3,3 0 0,1 3,0Z" style="opacity: 0.7; stroke-width: 0px; fill: rgb(172, 55, 55); fill-opacity: 1;"/><path class="point" transform="translate(430.63,131.56)" d="M3,0A3,3 0 1,1 0,-3A3,3 0 0,1 3,0Z" style="opacity: 0.7; stroke-width: 0px; fill: rgb(172, 55, 55); fill-opacity: 1;"/><path class="point" transform="translate(392.41,221.02)" d="M3,0A3,3 0 1,1 0,-3A3,3 0 0,1 3,0Z" style="opacity: 0.7; stroke-width: 0px; fill: rgb(172, 55, 55); fill-opacity: 1;"/><path class="point" transform="translate(381.86,206.92)" d="M3,0A3,3 0 1,1 0,-3A3,3 0 0,1 3,0Z" style="opacity: 0.7; stroke-width: 0px; fill: rgb(172, 55, 55); fill-opacity: 1;"/><path class="point" transform="translate(373.94,182.14)" d="M3,0A3,3 0 1,1 0,-3A3,3 0 0,1 3,0Z" style="opacity: 0.7; stroke-width: 0px; fill: rgb(172, 55, 55); fill-opacity: 1;"/><path class="point" transform="translate(473.38,165.02)" d="M3,0A3,3 0 1,1 0,-3A3,3 0 0,1 3,0Z" style="opacity: 0.7; stroke-width: 0px; fill: rgb(172, 55, 55); fill-opacity: 1;"/><path class="point" transform="translate(434.79,136.64)" d="M3,0A3,3 0 1,1 0,-3A3,3 0 0,1 3,0Z" style="opacity: 0.7; stroke-width: 0px; fill: rgb(172, 55, 55); fill-opacity: 1;"/><path class="point" transform="translate(357.11,193.61)" d="M3,0A3,3 0 1,1 0,-3A3,3 0 0,1 3,0Z" style="opacity: 0.7; stroke-width: 0px; fill: rgb(172, 55, 55); fill-opacity: 1;"/><path class="point" transform="translate(475.24,250.56)" d="M3,0A3,3 0 1,1 0,-3A3,3 0 0,1 3,0Z" style="opacity: 0.7; stroke-width: 0px; fill: rgb(172, 55, 55); fill-opacity: 1;"/><path class="point" transform="translate(497.85,123.56)" d="M3,0A3,3 0 1,1 0,-3A3,3 0 0,1 3,0Z" style="opacity: 0.7; stroke-width: 0px; fill: rgb(172, 55, 55); fill-opacity: 1;"/></g><g class="text"/></g><g class="trace scatter trace2f9c46" style="stroke-miterlimit: 2; opacity: 1;"><g class="fills"/><g class="errorbars"/><g class="lines"/><g class="points"><path class="point" transform="translate(44.29,284.91)" d="M3,0A3,3 0 1,1 0,-3A3,3 0 0,1 3,0Z" style="opacity: 0.7; stroke-width: 0px; fill: rgb(197, 123, 34); fill-opacity: 1;"/><path class="point" transform="translate(81.83,268.29)" d="M3,0A3,3 0 1,1 0,-3A3,3 0 0,1 3,0Z" style="opacity: 0.7; stroke-width: 0px; fill: rgb(197, 123, 34); fill-opacity: 1;"/><path class="point" transform="translate(329.04,267.64)" d="M3,0A3,3 0 1,1 0,-3A3,3 0 0,1 3,0Z" style="opacity: 0.7; stroke-width: 0px; fill: rgb(197, 123, 34); fill-opacity: 1;"/><path class="point" transform="translate(308.02,220.55)" d="M3,0A3,3 0 1,1 0,-3A3,3 0 0,1 3,0Z" style="opacity: 0.7; stroke-width: 0px; fill: rgb(197, 123, 34); fill-opacity: 1;"/><path class="point" transform="translate(309.26,74.43)" d="M3,0A3,3 0 1,1 0,-3A3,3 0 0,1 3,0Z" style="opacity: 0.7; stroke-width: 0px; fill: rgb(197, 123, 34); fill-opacity: 1;"/><path class="point" transform="translate(295.91,101.12)" d="M3,0A3,3 0 1,1 0,-3A3,3 0 0,1 3,0Z" style="opacity: 0.7; stroke-width: 0px; fill: rgb(197, 123, 34); fill-opacity: 1;"/><path class="point" transform="translate(226.29,101.29)" d="M3,0A3,3 0 1,1 0,-3A3,3 0 0,1 3,0Z" style="opacity: 0.7; stroke-width: 0px; fill: rgb(197, 123, 34); fill-opacity: 1;"/><path class="point" transform="translate(212.11,99.59)" d="M3,0A3,3 0 1,1 0,-3A3,3 0 0,1 3,0Z" style="opacity: 0.7; stroke-width: 0px; fill: rgb(197, 123, 34); fill-opacity: 1;"/><path class="point" transform="translate(261.2,101.71)" d="M3,0A3,3 0 1,1 0,-3A3,3 0 0,1 3,0Z" style="opacity: 0.7; stroke-width: 0px; fill: rgb(197, 123, 34); fill-opacity: 1;"/><path class="point" transform="translate(280.28,72.81)" d="M3,0A3,3 0 1,1 0,-3A3,3 0 0,1 3,0Z" style="opacity: 0.7; stroke-width: 0px; fill: rgb(197, 123, 34); fill-opacity: 1;"/><path class="point" transform="translate(241.34,119.8)" d="M3,0A3,3 0 1,1 0,-3A3,3 0 0,1 3,0Z" style="opacity: 0.7; stroke-width: 0px; fill: rgb(197, 123, 34); fill-opacity: 1;"/><path class="point" transform="translate(296.77,204.59)" d="M3,0A3,3 0 1,1 0,-3A3,3 0 0,1 3,0Z" style="opacity: 0.7; stroke-width: 0px; fill: rgb(197, 123, 34); fill-opacity: 1;"/><path class="point" transform="translate(304.66,196.55)" d="M3,0A3,3 0 1,1 0,-3A3,3 0 0,1 3,0Z" style="opacity: 0.7; stroke-width: 0px; fill: rgb(197, 123, 34); fill-opacity: 1;"/><path class="point" transform="translate(312.44,180.79)" d="M3,0A3,3 0 1,1 0,-3A3,3 0 0,1 3,0Z" style="opacity: 0.7; stroke-width: 0px; fill: rgb(197, 123, 34); fill-opacity: 1;"/><path class="point" transform="translate(30.15,194.13)" d="M3,0A3,3 0 1,1 0,-3A3,3 0 0,1 3,0Z" style="opacity: 0.7; stroke-width: 0px; fill: rgb(197, 123, 34); fill-opacity: 1;"/><path class="point" transform="translate(133.53,204.41)" d="M3,0A3,3 0 1,1 0,-3A3,3 0 0,1 3,0Z" style="opacity: 0.7; stroke-width: 0px; fill: rgb(197, 123, 34); fill-opacity: 1;"/><path class="point" transform="translate(319.77,189.45)" d="M3,0A3,3 0 1,1 0,-3A3,3 0 0,1 3,0Z" style="opacity: 0.7; stroke-width: 0px; fill: rgb(197, 123, 34); fill-opacity: 1;"/><path class="point" transform="translate(115.76,215.2)" d="M3,0A3,3 0 1,1 0,-3A3,3 0 0,1 3,0Z" style="opacity: 0.7; stroke-width: 0px; fill: rgb(197, 123, 34); fill-opacity: 1;"/></g><g class="text"/></g><g class="trace scatter tracee49473" style="stroke-miterlimit: 2; opacity: 1;"><g class="fills"/><g class="errorbars"/><g class="lines"/><g class="points"><path class="point" transform="translate(223.34,265.61)" d="M3,0A3,3 0 1,1 0,-3A3,3 0 0,1 3,0Z" style="opacity: 0.7; stroke-width: 0px; fill: rgb(226, 161, 71); fill-opacity: 1;"/><path class="point" transform="translate(352.34,134.35)" d="M3,0A3,3 0 1,1 0,-3A3,3 0 0,1 3,0Z" style="opacity: 0.7; stroke-width: 0px; fill: rgb(226, 161, 71); fill-opacity: 1;"/><path class="point" transform="translate(372.49,181.56)" d="M3,0A3,3 0 1,1 0,-3A3,3 0 0,1 3,0Z" style="opacity: 0.7; stroke-width: 0px; fill: rgb(226, 161, 71); fill-opacity: 1;"/><path class="point" transform="translate(423.05,142.29)" d="M3,0A3,3 0 1,1 0,-3A3,3 0 0,1 3,0Z" style="opacity: 0.7; stroke-width: 0px; fill: rgb(226, 161, 71); fill-opacity: 1;"/><path class="point" transform="translate(299.5,114.46)" d="M3,0A3,3 0 1,1 0,-3A3,3 0 0,1 3,0Z" style="opacity: 0.7; stroke-width: 0px; fill: rgb(226, 161, 71); fill-opacity: 1;"/><path class="point" transform="translate(283.14,81.98)" d="M3,0A3,3 0 1,1 0,-3A3,3 0 0,1 3,0Z" style="opacity: 0.7; stroke-width: 0px; fill: rgb(226, 161, 71); fill-opacity: 1;"/><path class="point" transform="translate(194.17,52.93)" d="M3,0A3,3 0 1,1 0,-3A3,3 0 0,1 3,0Z" style="opacity: 0.7; stroke-width: 0px; fill: rgb(226, 161, 71); fill-opacity: 1;"/><path class="point" transform="translate(226,111.26)" d="M3,0A3,3 0 1,1 0,-3A3,3 0 0,1 3,0Z" style="opacity: 0.7; stroke-width: 0px; fill: rgb(226, 161, 71); fill-opacity: 1;"/><path class="point" transform="translate(227.83,96.78)" d="M3,0A3,3 0 1,1 0,-3A3,3 0 0,1 3,0Z" style="opacity: 0.7; stroke-width: 0px; fill: rgb(226, 161, 71); fill-opacity: 1;"/><path class="point" transform="translate(235.73,100.64)" d="M3,0A3,3 0 1,1 0,-3A3,3 0 0,1 3,0Z" style="opacity: 0.7; stroke-width: 0px; fill: rgb(226, 161, 71); fill-opacity: 1;"/><path class="point" transform="translate(253.49,61.04)" d="M3,0A3,3 0 1,1 0,-3A3,3 0 0,1 3,0Z" style="opacity: 0.7; stroke-width: 0px; fill: rgb(226, 161, 71); fill-opacity: 1;"/><path class="point" transform="translate(319.17,222.07)" d="M3,0A3,3 0 1,1 0,-3A3,3 0 0,1 3,0Z" style="opacity: 0.7; stroke-width: 0px; fill: rgb(226, 161, 71); fill-opacity: 1;"/><path class="point" transform="translate(257.6,149.41)" d="M3,0A3,3 0 1,1 0,-3A3,3 0 0,1 3,0Z" style="opacity: 0.7; stroke-width: 0px; fill: rgb(226, 161, 71); fill-opacity: 1;"/><path class="point" transform="translate(350.2,189.09)" d="M3,0A3,3 0 1,1 0,-3A3,3 0 0,1 3,0Z" style="opacity: 0.7; stroke-width: 0px; fill: rgb(226, 161, 71); fill-opacity: 1;"/><path class="point" transform="translate(400.47,120.84)" d="M3,0A3,3 0 1,1 0,-3A3,3 0 0,1 3,0Z" style="opacity: 0.7; stroke-width: 0px; fill: rgb(226, 161, 71); fill-opacity: 1;"/><path class="point" transform="translate(313.93,167.5)" d="M3,0A3,3 0 1,1 0,-3A3,3 0 0,1 3,0Z" style="opacity: 0.7; stroke-width: 0px; fill: rgb(226, 161, 71); fill-opacity: 1;"/><path class="point" transform="translate(54.4,177.41)" d="M3,0A3,3 0 1,1 0,-3A3,3 0 0,1 3,0Z" style="opacity: 0.7; stroke-width: 0px; fill: rgb(226, 161, 71); fill-opacity: 1;"/><path class="point" transform="translate(372.37,140.27)" d="M3,0A3,3 0 1,1 0,-3A3,3 0 0,1 3,0Z" style="opacity: 0.7; stroke-width: 0px; fill: rgb(226, 161, 71); fill-opacity: 1;"/></g><g class="text"/></g><g class="trace scatter trace6dd0d8" style="stroke-miterlimit: 2; opacity: 1;"><g class="fills"/><g class="errorbars"/><g class="lines"/><g class="points"><path class="point" transform="translate(209.4,294.79)" d="M3,0A3,3 0 1,1 0,-3A3,3 0 0,1 3,0Z" style="opacity: 0.7; stroke-width: 0px; fill: rgb(34, 76, 133); fill-opacity: 1;"/><path class="point" transform="translate(291.76,283.67)" d="M3,0A3,3 0 1,1 0,-3A3,3 0 0,1 3,0Z" style="opacity: 0.7; stroke-width: 0px; fill: rgb(34, 76, 133); fill-opacity: 1;"/><path class="point" transform="translate(291.77,290.87)" d="M3,0A3,3 0 1,1 0,-3A3,3 0 0,1 3,0Z" style="opacity: 0.7; stroke-width: 0px; fill: rgb(34, 76, 133); fill-opacity: 1;"/><path class="point" transform="translate(161.58,258.33)" d="M3,0A3,3 0 1,1 0,-3A3,3 0 0,1 3,0Z" style="opacity: 0.7; stroke-width: 0px; fill: rgb(34, 76, 133); fill-opacity: 1;"/><path class="point" transform="translate(214.04,337.22)" d="M3,0A3,3 0 1,1 0,-3A3,3 0 0,1 3,0Z" style="opacity: 0.7; stroke-width: 0px; fill: rgb(34, 76, 133); fill-opacity: 1;"/><path class="point" transform="translate(225.11,207.03)" d="M3,0A3,3 0 1,1 0,-3A3,3 0 0,1 3,0Z" style="opacity: 0.7; stroke-width: 0px; fill: rgb(34, 76, 133); fill-opacity: 1;"/><path class="point" transform="translate(382.22,290.23)" d="M3,0A3,3 0 1,1 0,-3A3,3 0 0,1 3,0Z" style="opacity: 0.7; stroke-width: 0px; fill: rgb(34, 76, 133); fill-opacity: 1;"/><path class="point" transform="translate(98.4,113.12)" d="M3,0A3,3 0 1,1 0,-3A3,3 0 0,1 3,0Z" style="opacity: 0.7; stroke-width: 0px; fill: rgb(34, 76, 133); fill-opacity: 1;"/><path class="point" transform="translate(457.54,278)" d="M3,0A3,3 0 1,1 0,-3A3,3 0 0,1 3,0Z" style="opacity: 0.7; stroke-width: 0px; fill: rgb(34, 76, 133); fill-opacity: 1;"/><path class="point" transform="translate(162.58,222.9)" d="M3,0A3,3 0 1,1 0,-3A3,3 0 0,1 3,0Z" style="opacity: 0.7; stroke-width: 0px; fill: rgb(34, 76, 133); fill-opacity: 1;"/><path class="point" transform="translate(196.54,237.61)" d="M3,0A3,3 0 1,1 0,-3A3,3 0 0,1 3,0Z" style="opacity: 0.7; stroke-width: 0px; fill: rgb(34, 76, 133); fill-opacity: 1;"/><path class="point" transform="translate(212.54,219.03)" d="M3,0A3,3 0 1,1 0,-3A3,3 0 0,1 3,0Z" style="opacity: 0.7; stroke-width: 0px; fill: rgb(34, 76, 133); fill-opacity: 1;"/><path class="point" transform="translate(285.32,217.56)" d="M3,0A3,3 0 1,1 0,-3A3,3 0 0,1 3,0Z" style="opacity: 0.7; stroke-width: 0px; fill: rgb(34, 76, 133); fill-opacity: 1;"/><path class="point" transform="translate(200.65,242.91)" d="M3,0A3,3 0 1,1 0,-3A3,3 0 0,1 3,0Z" style="opacity: 0.7; stroke-width: 0px; fill: rgb(34, 76, 133); fill-opacity: 1;"/><path class="point" transform="translate(215.86,232.88)" d="M3,0A3,3 0 1,1 0,-3A3,3 0 0,1 3,0Z" style="opacity: 0.7; stroke-width: 0px; fill: rgb(34, 76, 133); fill-opacity: 1;"/><path class="point" transform="translate(287.08,257.13)" d="M3,0A3,3 0 1,1 0,-3A3,3 0 0,1 3,0Z" style="opacity: 0.7; stroke-width: 0px; fill: rgb(34, 76, 133); fill-opacity: 1;"/><path class="point" transform="translate(180.83,329.17)" d="M3,0A3,3 0 1,1 0,-3A3,3 0 0,1 3,0Z" style="opacity: 0.7; stroke-width: 0px; fill: rgb(34, 76, 133); fill-opacity: 1;"/><path class="point" transform="translate(200.69,283.88)" d="M3,0A3,3 0 1,1 0,-3A3,3 0 0,1 3,0Z" style="opacity: 0.7; stroke-width: 0px; fill: rgb(34, 76, 133); fill-opacity: 1;"/><path class="point" transform="translate(316.55,291.85)" d="M3,0A3,3 0 1,1 0,-3A3,3 0 0,1 3,0Z" style="opacity: 0.7; stroke-width: 0px; fill: rgb(34, 76, 133); fill-opacity: 1;"/><path class="point" transform="translate(222.82,291.29)" d="M3,0A3,3 0 1,1 0,-3A3,3 0 0,1 3,0Z" style="opacity: 0.7; stroke-width: 0px; fill: rgb(34, 76, 133); fill-opacity: 1;"/><path class="point" transform="translate(135.26,238.8)" d="M3,0A3,3 0 1,1 0,-3A3,3 0 0,1 3,0Z" style="opacity: 0.7; stroke-width: 0px; fill: rgb(34, 76, 133); fill-opacity: 1;"/><path class="point" transform="translate(222.5,319.3)" d="M3,0A3,3 0 1,1 0,-3A3,3 0 0,1 3,0Z" style="opacity: 0.7; stroke-width: 0px; fill: rgb(34, 76, 133); fill-opacity: 1;"/><path class="point" transform="translate(248.21,289.69)" d="M3,0A3,3 0 1,1 0,-3A3,3 0 0,1 3,0Z" style="opacity: 0.7; stroke-width: 0px; fill: rgb(34, 76, 133); fill-opacity: 1;"/></g><g class="text"/></g><g class="trace scatter tracebfc261" style="stroke-miterlimit: 2; opacity: 1;"><g class="fills"/><g class="errorbars"/><g class="lines"/><g class="points"><path class="point" transform="translate(37.88,235.79)" d="M3,0A3,3 0 1,1 0,-3A3,3 0 0,1 3,0Z" style="opacity: 0.7; stroke-width: 0px; fill: rgb(60, 110, 185); fill-opacity: 1;"/><path class="point" transform="translate(220.72,144.51)" d="M3,0A3,3 0 1,1 0,-3A3,3 0 0,1 3,0Z" style="opacity: 0.7; stroke-width: 0px; fill: rgb(60, 110, 185); fill-opacity: 1;"/><path class="point" transform="translate(199.31,126.8)" d="M3,0A3,3 0 1,1 0,-3A3,3 0 0,1 3,0Z" style="opacity: 0.7; stroke-width: 0px; fill: rgb(60, 110, 185); fill-opacity: 1;"/><path class="point" transform="translate(213.95,148.53)" d="M3,0A3,3 0 1,1 0,-3A3,3 0 0,1 3,0Z" style="opacity: 0.7; stroke-width: 0px; fill: rgb(60, 110, 185); fill-opacity: 1;"/><path class="point" transform="translate(215.7,110.27)" d="M3,0A3,3 0 1,1 0,-3A3,3 0 0,1 3,0Z" style="opacity: 0.7; stroke-width: 0px; fill: rgb(60, 110, 185); fill-opacity: 1;"/><path class="point" transform="translate(191.74,180.77)" d="M3,0A3,3 0 1,1 0,-3A3,3 0 0,1 3,0Z" style="opacity: 0.7; stroke-width: 0px; fill: rgb(60, 110, 185); fill-opacity: 1;"/><path class="point" transform="translate(239.59,196.79)" d="M3,0A3,3 0 1,1 0,-3A3,3 0 0,1 3,0Z" style="opacity: 0.7; stroke-width: 0px; fill: rgb(60, 110, 185); fill-opacity: 1;"/><path class="point" transform="translate(250.18,312.04)" d="M3,0A3,3 0 1,1 0,-3A3,3 0 0,1 3,0Z" style="opacity: 0.7; stroke-width: 0px; fill: rgb(60, 110, 185); fill-opacity: 1;"/><path class="point" transform="translate(54.26,233.62)" d="M3,0A3,3 0 1,1 0,-3A3,3 0 0,1 3,0Z" style="opacity: 0.7; stroke-width: 0px; fill: rgb(60, 110, 185); fill-opacity: 1;"/><path class="point" transform="translate(195.02,279.77)" d="M3,0A3,3 0 1,1 0,-3A3,3 0 0,1 3,0Z" style="opacity: 0.7; stroke-width: 0px; fill: rgb(60, 110, 185); fill-opacity: 1;"/></g><g class="text"/></g><g class="trace scatter trace240d26" style="stroke-miterlimit: 2; opacity: 1;"><g class="fills"/><g class="errorbars"/><g class="lines"/><g class="points"><path class="point" transform="translate(146.45,279.65)" d="M3,0A3,3 0 1,1 0,-3A3,3 0 0,1 3,0Z" style="opacity: 0.7; stroke-width: 0px; fill: rgb(93, 60, 136); fill-opacity: 1;"/><path class="point" transform="translate(262.21,246.04)" d="M3,0A3,3 0 1,1 0,-3A3,3 0 0,1 3,0Z" style="opacity: 0.7; stroke-width: 0px; fill: rgb(93, 60, 136); fill-opacity: 1;"/><path class="point" transform="translate(192.18,150.3)" d="M3,0A3,3 0 1,1 0,-3A3,3 0 0,1 3,0Z" style="opacity: 0.7; stroke-width: 0px; fill: rgb(93, 60, 136); fill-opacity: 1;"/><path class="point" transform="translate(158.21,131.75)" d="M3,0A3,3 0 1,1 0,-3A3,3 0 0,1 3,0Z" style="opacity: 0.7; stroke-width: 0px; fill: rgb(93, 60, 136); fill-opacity: 1;"/><path class="point" transform="translate(242.67,141.95)" d="M3,0A3,3 0 1,1 0,-3A3,3 0 0,1 3,0Z" style="opacity: 0.7; stroke-width: 0px; fill: rgb(93, 60, 136); fill-opacity: 1;"/><path class="point" transform="translate(124.8,138.99)" d="M3,0A3,3 0 1,1 0,-3A3,3 0 0,1 3,0Z" style="opacity: 0.7; stroke-width: 0px; fill: rgb(93, 60, 136); fill-opacity: 1;"/><path class="point" transform="translate(231.22,166.5)" d="M3,0A3,3 0 1,1 0,-3A3,3 0 0,1 3,0Z" style="opacity: 0.7; stroke-width: 0px; fill: rgb(93, 60, 136); fill-opacity: 1;"/><path class="point" transform="translate(311.4,225.59)" d="M3,0A3,3 0 1,1 0,-3A3,3 0 0,1 3,0Z" style="opacity: 0.7; stroke-width: 0px; fill: rgb(93, 60, 136); fill-opacity: 1;"/><path class="point" transform="translate(88.31,225.16)" d="M3,0A3,3 0 1,1 0,-3A3,3 0 0,1 3,0Z" style="opacity: 0.7; stroke-width: 0px; fill: rgb(93, 60, 136); fill-opacity: 1;"/><path class="point" transform="translate(140.61,308.47)" d="M3,0A3,3 0 1,1 0,-3A3,3 0 0,1 3,0Z" style="opacity: 0.7; stroke-width: 0px; fill: rgb(93, 60, 136); fill-opacity: 1;"/><path class="point" transform="translate(232.7,218.47)" d="M3,0A3,3 0 1,1 0,-3A3,3 0 0,1 3,0Z" style="opacity: 0.7; stroke-width: 0px; fill: rgb(93, 60, 136); fill-opacity: 1;"/></g><g class="text"/></g><g class="trace scatter trace508510" style="stroke-miterlimit: 2; opacity: 1;"><g class="fills"/><g class="errorbars"/><g class="lines"/><g class="points"><path class="point" transform="translate(179.04,202.01)" d="M3,0A3,3 0 1,1 0,-3A3,3 0 0,1 3,0Z" style="opacity: 0.7; stroke-width: 0px; fill: rgb(124, 87, 173); fill-opacity: 1;"/><path class="point" transform="translate(204.53,143.18)" d="M3,0A3,3 0 1,1 0,-3A3,3 0 0,1 3,0Z" style="opacity: 0.7; stroke-width: 0px; fill: rgb(124, 87, 173); fill-opacity: 1;"/><path class="point" transform="translate(245.39,193.65)" d="M3,0A3,3 0 1,1 0,-3A3,3 0 0,1 3,0Z" style="opacity: 0.7; stroke-width: 0px; fill: rgb(124, 87, 173); fill-opacity: 1;"/><path class="point" transform="translate(164.01,165.12)" d="M3,0A3,3 0 1,1 0,-3A3,3 0 0,1 3,0Z" style="opacity: 0.7; stroke-width: 0px; fill: rgb(124, 87, 173); fill-opacity: 1;"/><path class="point" transform="translate(227.88,172.25)" d="M3,0A3,3 0 1,1 0,-3A3,3 0 0,1 3,0Z" style="opacity: 0.7; stroke-width: 0px; fill: rgb(124, 87, 173); fill-opacity: 1;"/><path class="point" transform="translate(131.31,161.89)" d="M3,0A3,3 0 1,1 0,-3A3,3 0 0,1 3,0Z" style="opacity: 0.7; stroke-width: 0px; fill: rgb(124, 87, 173); fill-opacity: 1;"/><path class="point" transform="translate(208.83,90.1)" d="M3,0A3,3 0 1,1 0,-3A3,3 0 0,1 3,0Z" style="opacity: 0.7; stroke-width: 0px; fill: rgb(124, 87, 173); fill-opacity: 1;"/><path class="point" transform="translate(142.65,126.57)" d="M3,0A3,3 0 1,1 0,-3A3,3 0 0,1 3,0Z" style="opacity: 0.7; stroke-width: 0px; fill: rgb(124, 87, 173); fill-opacity: 1;"/><path class="point" transform="translate(261.14,214.8)" d="M3,0A3,3 0 1,1 0,-3A3,3 0 0,1 3,0Z" style="opacity: 0.7; stroke-width: 0px; fill: rgb(124, 87, 173); fill-opacity: 1;"/><path class="point" transform="translate(213.57,214.48)" d="M3,0A3,3 0 1,1 0,-3A3,3 0 0,1 3,0Z" style="opacity: 0.7; stroke-width: 0px; fill: rgb(124, 87, 173); fill-opacity: 1;"/><path class="point" transform="translate(157.42,250.15)" d="M3,0A3,3 0 1,1 0,-3A3,3 0 0,1 3,0Z" style="opacity: 0.7; stroke-width: 0px; fill: rgb(124, 87, 173); fill-opacity: 1;"/><path class="point" transform="translate(68.48,208.07)" d="M3,0A3,3 0 1,1 0,-3A3,3 0 0,1 3,0Z" style="opacity: 0.7; stroke-width: 0px; fill: rgb(124, 87, 173); fill-opacity: 1;"/><path class="point" transform="translate(303.5,154.17)" d="M3,0A3,3 0 1,1 0,-3A3,3 0 0,1 3,0Z" style="opacity: 0.7; stroke-width: 0px; fill: rgb(124, 87, 173); fill-opacity: 1;"/><path class="point" transform="translate(233.7,184.65)" d="M3,0A3,3 0 1,1 0,-3A3,3 0 0,1 3,0Z" style="opacity: 0.7; stroke-width: 0px; fill: rgb(124, 87, 173); fill-opacity: 1;"/><path class="point" transform="translate(242.71,198.21)" d="M3,0A3,3 0 1,1 0,-3A3,3 0 0,1 3,0Z" style="opacity: 0.7; stroke-width: 0px; fill: rgb(124, 87, 173); fill-opacity: 1;"/></g><g class="text"/></g><g class="trace scatter trace2a2e1c" style="stroke-miterlimit: 2; opacity: 1;"><g class="fills"/><g class="errorbars"/><g class="lines"/><g class="points"><path class="point" transform="translate(102.83,305.29)" d="M3,0A3,3 0 1,1 0,-3A3,3 0 0,1 3,0Z" style="opacity: 0.7; stroke-width: 0px; fill: rgb(156, 120, 197); fill-opacity: 1;"/><path class="point" transform="translate(359.25,338.25)" d="M3,0A3,3 0 1,1 0,-3A3,3 0 0,1 3,0Z" style="opacity: 0.7; stroke-width: 0px; fill: rgb(156, 120, 197); fill-opacity: 1;"/><path class="point" transform="translate(112.65,247.98)" d="M3,0A3,3 0 1,1 0,-3A3,3 0 0,1 3,0Z" style="opacity: 0.7; stroke-width: 0px; fill: rgb(156, 120, 197); fill-opacity: 1;"/><path class="point" transform="translate(182.55,183.51)" d="M3,0A3,3 0 1,1 0,-3A3,3 0 0,1 3,0Z" style="opacity: 0.7; stroke-width: 0px; fill: rgb(156, 120, 197); fill-opacity: 1;"/><path class="point" transform="translate(293.78,89.95)" d="M3,0A3,3 0 1,1 0,-3A3,3 0 0,1 3,0Z" style="opacity: 0.7; stroke-width: 0px; fill: rgb(156, 120, 197); fill-opacity: 1;"/><path class="point" transform="translate(194.87,129.8)" d="M3,0A3,3 0 1,1 0,-3A3,3 0 0,1 3,0Z" style="opacity: 0.7; stroke-width: 0px; fill: rgb(156, 120, 197); fill-opacity: 1;"/><path class="point" transform="translate(430.73,253.9)" d="M3,0A3,3 0 1,1 0,-3A3,3 0 0,1 3,0Z" style="opacity: 0.7; stroke-width: 0px; fill: rgb(156, 120, 197); fill-opacity: 1;"/><path class="point" transform="translate(229.91,149.58)" d="M3,0A3,3 0 1,1 0,-3A3,3 0 0,1 3,0Z" style="opacity: 0.7; stroke-width: 0px; fill: rgb(156, 120, 197); fill-opacity: 1;"/><path class="point" transform="translate(333.35,69.44)" d="M3,0A3,3 0 1,1 0,-3A3,3 0 0,1 3,0Z" style="opacity: 0.7; stroke-width: 0px; fill: rgb(156, 120, 197); fill-opacity: 1;"/><path class="point" transform="translate(274.06,203.66)" d="M3,0A3,3 0 1,1 0,-3A3,3 0 0,1 3,0Z" style="opacity: 0.7; stroke-width: 0px; fill: rgb(156, 120, 197); fill-opacity: 1;"/><path class="point" transform="translate(166.82,262.31)" d="M3,0A3,3 0 1,1 0,-3A3,3 0 0,1 3,0Z" style="opacity: 0.7; stroke-width: 0px; fill: rgb(156, 120, 197); fill-opacity: 1;"/><path class="point" transform="translate(329.33,240.91)" d="M3,0A3,3 0 1,1 0,-3A3,3 0 0,1 3,0Z" style="opacity: 0.7; stroke-width: 0px; fill: rgb(156, 120, 197); fill-opacity: 1;"/><path class="point" transform="translate(354.29,335.45)" d="M3,0A3,3 0 1,1 0,-3A3,3 0 0,1 3,0Z" style="opacity: 0.7; stroke-width: 0px; fill: rgb(156, 120, 197); fill-opacity: 1;"/></g><g class="text"/></g></g></g></g><g class="zerolinelayer-above"/><path class="xlines-above crisp" d="M79,420.5H608" style="fill: none; stroke-width: 1px; stroke: rgb(0, 0, 0); stroke-opacity: 1;"/><path class="ylines-above crisp" d="M79.5,60V420" style="fill: none; stroke-width: 1px; stroke: rgb(0, 0, 0); stroke-opacity: 1;"/><g class="overlines-above"/><g class="xaxislayer-above"/><g class="yaxislayer-above"/><g class="overaxes-above"/></g></g><g class="polarlayer"/><g class="smithlayer"/><g class="ternarylayer"/><g class="geolayer"/><g class="funnelarealayer"/><g class="pielayer"/><g class="iciclelayer"/><g class="treemaplayer"/><g class="sunburstlayer"/><g class="glimages"/><defs id="topdefs-42dac1"><g class="clips"/><clipPath id="legend42dac1"><rect width="69" height="200" x="0" y="0"/></clipPath></defs><g class="layer-above"><g class="imagelayer"/><g class="shapelayer"/></g><g class="infolayer"><g class="legend" pointer-events="all" transform="translate(618.5600000000001,60)"><rect class="bg" shape-rendering="crispEdges" style="stroke: rgb(68, 68, 68); stroke-opacity: 1; fill: rgb(255, 255, 255); fill-opacity: 1; stroke-width: 0px;" width="69" height="200" x="0" y="0"/><g class="scrollbox" transform="" clip-path="url(#legend42dac1)"><text class="legendtitletext" text-anchor="start" x="2" y="18.2" style="font-family: 'Open Sans', verdana, arial, sans-serif; font-size: 14px; fill: rgb(68, 68, 68); fill-opacity: 1; white-space: pre;">Phoneme</text><g class="groups" transform=""><g class="traces" transform="translate(0,32.7)" style="opacity: 1;"><text class="legendtext" text-anchor="start" x="40" y="4.680000000000001" style="font-family: 'Open Sans', verdana, arial, sans-serif; font-size: 12px; fill: rgb(68, 68, 68); fill-opacity: 1; white-space: pre;">i</text><g class="layers" style="opacity: 1;"><g class="legendfill"/><g class="legendlines"/><g class="legendsymbols"><g class="legendpoints"><path class="scatterpts" transform="translate(20,0)" d="M3,0A3,3 0 1,1 0,-3A3,3 0 0,1 3,0Z" style="opacity: 0.7; stroke-width: 0px; fill: rgb(135, 38, 38); fill-opacity: 1;"/></g></g></g><rect class="legendtoggle" x="0" y="-9.5" width="54.359375" height="19" style="fill: rgb(0, 0, 0); fill-opacity: 0;"/></g></g><g class="groups" transform=""><g class="traces" transform="translate(0,51.7)" style="opacity: 1;"><text class="legendtext" text-anchor="start" x="40" y="4.680000000000001" style="font-family: 'Open Sans', verdana, arial, sans-serif; font-size: 12px; fill: rgb(68, 68, 68); fill-opacity: 1; white-space: pre;">u</text><g class="layers" style="opacity: 1;"><g class="legendfill"/><g class="legendlines"/><g class="legendsymbols"><g class="legendpoints"><path class="scatterpts" transform="translate(20,0)" d="M3,0A3,3 0 1,1 0,-3A3,3 0 0,1 3,0Z" style="opacity: 0.7; stroke-width: 0px; fill: rgb(172, 55, 55); fill-opacity: 1;"/></g></g></g><rect class="legendtoggle" x="0" y="-9.5" width="54.359375" height="19" style="fill: rgb(0, 0, 0); fill-opacity: 0;"/></g></g><g class="groups" transform=""><g class="traces" transform="translate(0,70.7)" style="opacity: 1;"><text class="legendtext" text-anchor="start" x="40" y="4.680000000000001" style="font-family: 'Open Sans', verdana, arial, sans-serif; font-size: 12px; fill: rgb(68, 68, 68); fill-opacity: 1; white-space: pre;">a</text><g class="layers" style="opacity: 1;"><g class="legendfill"/><g class="legendlines"/><g class="legendsymbols"><g class="legendpoints"><path class="scatterpts" transform="translate(20,0)" d="M3,0A3,3 0 1,1 0,-3A3,3 0 0,1 3,0Z" style="opacity: 0.7; stroke-width: 0px; fill: rgb(197, 123, 34); fill-opacity: 1;"/></g></g></g><rect class="legendtoggle" x="0" y="-9.5" width="54.359375" height="19" style="fill: rgb(0, 0, 0); fill-opacity: 0;"/></g></g><g class="groups" transform=""><g class="traces" transform="translate(0,89.7)" style="opacity: 1;"><text class="legendtext" text-anchor="start" x="40" y="4.680000000000001" style="font-family: 'Open Sans', verdana, arial, sans-serif; font-size: 12px; fill: rgb(68, 68, 68); fill-opacity: 1; white-space: pre;">ae</text><g class="layers" style="opacity: 1;"><g class="legendfill"/><g class="legendlines"/><g class="legendsymbols"><g class="legendpoints"><path class="scatterpts" transform="translate(20,0)" d="M3,0A3,3 0 1,1 0,-3A3,3 0 0,1 3,0Z" style="opacity: 0.7; stroke-width: 0px; fill: rgb(226, 161, 71); fill-opacity: 1;"/></g></g></g><rect class="legendtoggle" x="0" y="-9.5" width="54.359375" height="19" style="fill: rgb(0, 0, 0); fill-opacity: 0;"/></g></g><g class="groups" transform=""><g class="traces" transform="translate(0,108.7)" style="opacity: 1;"><text class="legendtext" text-anchor="start" x="40" y="4.680000000000001" style="font-family: 'Open Sans', verdana, arial, sans-serif; font-size: 12px; fill: rgb(68, 68, 68); fill-opacity: 1; white-space: pre;">g</text><g class="layers" style="opacity: 1;"><g class="legendfill"/><g class="legendlines"/><g class="legendsymbols"><g class="legendpoints"><path class="scatterpts" transform="translate(20,0)" d="M3,0A3,3 0 1,1 0,-3A3,3 0 0,1 3,0Z" style="opacity: 0.7; stroke-width: 0px; fill: rgb(34, 76, 133); fill-opacity: 1;"/></g></g></g><rect class="legendtoggle" x="0" y="-9.5" width="54.359375" height="19" style="fill: rgb(0, 0, 0); fill-opacity: 0;"/></g></g><g class="groups" transform=""><g class="traces" transform="translate(0,127.7)" style="opacity: 1;"><text class="legendtext" text-anchor="start" x="40" y="4.680000000000001" style="font-family: 'Open Sans', verdana, arial, sans-serif; font-size: 12px; fill: rgb(68, 68, 68); fill-opacity: 1; white-space: pre;">k</text><g class="layers" style="opacity: 1;"><g class="legendfill"/><g class="legendlines"/><g class="legendsymbols"><g class="legendpoints"><path class="scatterpts" transform="translate(20,0)" d="M3,0A3,3 0 1,1 0,-3A3,3 0 0,1 3,0Z" style="opacity: 0.7; stroke-width: 0px; fill: rgb(60, 110, 185); fill-opacity: 1;"/></g></g></g><rect class="legendtoggle" x="0" y="-9.5" width="54.359375" height="19" style="fill: rgb(0, 0, 0); fill-opacity: 0;"/></g></g><g class="groups" transform=""><g class="traces" transform="translate(0,146.7)" style="opacity: 1;"><text class="legendtext" text-anchor="start" x="40" y="4.680000000000001" style="font-family: 'Open Sans', verdana, arial, sans-serif; font-size: 12px; fill: rgb(68, 68, 68); fill-opacity: 1; white-space: pre;">b</text><g class="layers" style="opacity: 1;"><g class="legendfill"/><g class="legendlines"/><g class="legendsymbols"><g class="legendpoints"><path class="scatterpts" transform="translate(20,0)" d="M3,0A3,3 0 1,1 0,-3A3,3 0 0,1 3,0Z" style="opacity: 0.7; stroke-width: 0px; fill: rgb(93, 60, 136); fill-opacity: 1;"/></g></g></g><rect class="legendtoggle" x="0" y="-9.5" width="54.359375" height="19" style="fill: rgb(0, 0, 0); fill-opacity: 0;"/></g></g><g class="groups" transform=""><g class="traces" transform="translate(0,165.7)" style="opacity: 1;"><text class="legendtext" text-anchor="start" x="40" y="4.680000000000001" style="font-family: 'Open Sans', verdana, arial, sans-serif; font-size: 12px; fill: rgb(68, 68, 68); fill-opacity: 1; white-space: pre;">p</text><g class="layers" style="opacity: 1;"><g class="legendfill"/><g class="legendlines"/><g class="legendsymbols"><g class="legendpoints"><path class="scatterpts" transform="translate(20,0)" d="M3,0A3,3 0 1,1 0,-3A3,3 0 0,1 3,0Z" style="opacity: 0.7; stroke-width: 0px; fill: rgb(124, 87, 173); fill-opacity: 1;"/></g></g></g><rect class="legendtoggle" x="0" y="-9.5" width="54.359375" height="19" style="fill: rgb(0, 0, 0); fill-opacity: 0;"/></g></g><g class="groups" transform=""><g class="traces" transform="translate(0,184.7)" style="opacity: 1;"><text class="legendtext" text-anchor="start" x="40" y="4.680000000000001" style="font-family: 'Open Sans', verdana, arial, sans-serif; font-size: 12px; fill: rgb(68, 68, 68); fill-opacity: 1; white-space: pre;">v</text><g class="layers" style="opacity: 1;"><g class="legendfill"/><g class="legendlines"/><g class="legendsymbols"><g class="legendpoints"><path class="scatterpts" transform="translate(20,0)" d="M3,0A3,3 0 1,1 0,-3A3,3 0 0,1 3,0Z" style="opacity: 0.7; stroke-width: 0px; fill: rgb(156, 120, 197); fill-opacity: 1;"/></g></g></g><rect class="legendtoggle" x="0" y="-9.5" width="54.359375" height="19" style="fill: rgb(0, 0, 0); fill-opacity: 0;"/></g></g></g><rect class="scrollbar" rx="20" ry="3" width="0" height="0" style="fill: rgb(128, 139, 164); fill-opacity: 1;" x="0" y="0"/></g><g class="g-gtitle"><text class="gtitle" x="350" y="30" text-anchor="middle" dy="0em" style="opacity: 1; font-family: 'Open Sans', verdana, arial, sans-serif; font-size: 17px; fill: rgb(68, 68, 68); fill-opacity: 1; white-space: pre;">TSNE Colored on: Phoneme - Silhouette Score: 0.251 - Patient: S26 - Method: Kumar #Run: 40</text></g><g class="g-xtitle"><text class="xtitle" x="344" y="458" text-anchor="middle" style="opacity: 1; font-family: 'Open Sans', verdana, arial, sans-serif; font-size: 14px; fill: rgb(68, 68, 68); fill-opacity: 1; white-space: pre;">tsne-1</text></g><g class="g-ytitle"><text class="ytitle" transform="rotate(-90,49,240)" x="49" y="240" text-anchor="middle" style="opacity: 1; font-family: 'Open Sans', verdana, arial, sans-serif; font-size: 14px; fill: rgb(68, 68, 68); fill-opacity: 1; white-space: pre;">y</text></g></g></svg>