<svg class="main-svg" xmlns="http://www.w3.org/2000/svg" xmlns:xlink="http://www.w3.org/1999/xlink" width="2100" height="1500" style="" viewBox="0 0 700 500"><rect x="0" y="0" width="700" height="500" style="fill: rgb(255, 255, 255); fill-opacity: 1;"/><defs id="defs-9c4baa"><g class="clips"><clipPath id="clip9c4baaxyplot" class="plotclip"><rect width="528" height="360"/></clipPath><clipPath class="axesclip" id="clip9c4baax"><rect x="80" y="0" width="528" height="500"/></clipPath><clipPath class="axesclip" id="clip9c4baay"><rect x="0" y="60" width="700" height="360"/></clipPath><clipPath class="axesclip" id="clip9c4baaxy"><rect x="80" y="60" width="528" height="360"/></clipPath></g><g class="gradients"/><g class="patterns"/></defs><g class="bglayer"/><g class="layer-below"><g class="imagelayer"/><g class="shapelayer"/></g><g class="cartesianlayer"><g class="subplot xy"><g class="layer-subplot"><g class="shapelayer"/><g class="imagelayer"/></g><g class="minor-gridlayer"><g class="x"/><g class="y"/></g><g class="gridlayer"><g class="x"><path class="xgrid crisp" transform="translate(148.61,0)" d="M0,60v360" style="stroke: rgb(238, 238, 238); stroke-opacity: 1; stroke-width: 1px;"/><path class="xgrid crisp" transform="translate(223.19,0)" d="M0,60v360" style="stroke: rgb(238, 238, 238); stroke-opacity: 1; stroke-width: 1px;"/><path class="xgrid crisp" transform="translate(372.35,0)" d="M0,60v360" style="stroke: rgb(238, 238, 238); stroke-opacity: 1; stroke-width: 1px;"/><path class="xgrid crisp" transform="translate(446.93,0)" d="M0,60v360" style="stroke: rgb(238, 238, 238); stroke-opacity: 1; stroke-width: 1px;"/><path class="xgrid crisp" transform="translate(521.51,0)" d="M0,60v360" style="stroke: rgb(238, 238, 238); stroke-opacity: 1; stroke-width: 1px;"/><path class="xgrid crisp" transform="translate(596.09,0)" d="M0,60v360" style="stroke: rgb(238, 238, 238); stroke-opacity: 1; stroke-width: 1px;"/></g><g class="y"><path class="ygrid crisp" transform="translate(0,416.46)" d="M80,0h528" style="stroke: rgb(238, 238, 238); stroke-opacity: 1; stroke-width: 1px;"/><path class="ygrid crisp" transform="translate(0,366.04)" d="M80,0h528" style="stroke: rgb(238, 238, 238); stroke-opacity: 1; stroke-width: 1px;"/><path class="ygrid crisp" transform="translate(0,315.63)" d="M80,0h528" style="stroke: rgb(238, 238, 238); stroke-opacity: 1; stroke-width: 1px;"/><path class="ygrid crisp" transform="translate(0,265.22)" d="M80,0h528" style="stroke: rgb(238, 238, 238); stroke-opacity: 1; stroke-width: 1px;"/><path class="ygrid crisp" transform="translate(0,214.81)" d="M80,0h528" style="stroke: rgb(238, 238, 238); stroke-opacity: 1; stroke-width: 1px;"/><path class="ygrid crisp" transform="translate(0,113.99000000000001)" d="M80,0h528" style="stroke: rgb(238, 238, 238); stroke-opacity: 1; stroke-width: 1px;"/><path class="ygrid crisp" transform="translate(0,63.57)" d="M80,0h528" style="stroke: rgb(238, 238, 238); stroke-opacity: 1; stroke-width: 1px;"/></g></g><g class="zerolinelayer"><path class="xzl zl crisp" transform="translate(297.77,0)" d="M0,60v360" style="stroke: rgb(68, 68, 68); stroke-opacity: 1; stroke-width: 1px;"/><path class="yzl zl crisp" transform="translate(0,164.4)" d="M80,0h528" style="stroke: rgb(68, 68, 68); stroke-opacity: 1; stroke-width: 1px;"/></g><g class="layer-between"><g class="shapelayer"/><g class="imagelayer"/></g><path class="xlines-below"/><path class="ylines-below"/><g class="overlines-below"/><g class="xaxislayer-below"/><g class="yaxislayer-below"/><g class="overaxes-below"/><g class="overplot"><g class="xy" transform="translate(80,60)" clip-path="url(#clip9c4baaxyplot)"><g class="scatterlayer mlayer"><g class="trace scatter traceeb79af" style="stroke-miterlimit: 2; opacity: 1;"><g class="fills"/><g class="errorbars"/><g class="lines"/><g class="points"><path class="point" transform="translate(301.02,132.35)" d="M3,0A3,3 0 1,1 0,-3A3,3 0 0,1 3,0Z" style="opacity: 0.7; stroke-width: 0px; fill: rgb(135, 38, 38); fill-opacity: 1;"/><path class="point" transform="translate(271.61,44.25)" d="M3,0A3,3 0 1,1 0,-3A3,3 0 0,1 3,0Z" style="opacity: 0.7; stroke-width: 0px; fill: rgb(135, 38, 38); fill-opacity: 1;"/><path class="point" transform="translate(356.61,85.87)" d="M3,0A3,3 0 1,1 0,-3A3,3 0 0,1 3,0Z" style="opacity: 0.7; stroke-width: 0px; fill: rgb(135, 38, 38); fill-opacity: 1;"/><path class="point" transform="translate(312.21,121.55)" d="M3,0A3,3 0 1,1 0,-3A3,3 0 0,1 3,0Z" style="opacity: 0.7; stroke-width: 0px; fill: rgb(135, 38, 38); fill-opacity: 1;"/><path class="point" transform="translate(313.8,87.71)" d="M3,0A3,3 0 1,1 0,-3A3,3 0 0,1 3,0Z" style="opacity: 0.7; stroke-width: 0px; fill: rgb(135, 38, 38); fill-opacity: 1;"/><path class="point" transform="translate(215.39,162.39)" d="M3,0A3,3 0 1,1 0,-3A3,3 0 0,1 3,0Z" style="opacity: 0.7; stroke-width: 0px; fill: rgb(135, 38, 38); fill-opacity: 1;"/><path class="point" transform="translate(253.39,162.06)" d="M3,0A3,3 0 1,1 0,-3A3,3 0 0,1 3,0Z" style="opacity: 0.7; stroke-width: 0px; fill: rgb(135, 38, 38); fill-opacity: 1;"/><path class="point" transform="translate(317.93,96.02)" d="M3,0A3,3 0 1,1 0,-3A3,3 0 0,1 3,0Z" style="opacity: 0.7; stroke-width: 0px; fill: rgb(135, 38, 38); fill-opacity: 1;"/><path class="point" transform="translate(350.03,52.67)" d="M3,0A3,3 0 1,1 0,-3A3,3 0 0,1 3,0Z" style="opacity: 0.7; stroke-width: 0px; fill: rgb(135, 38, 38); fill-opacity: 1;"/><path class="point" transform="translate(328.74,103.36)" d="M3,0A3,3 0 1,1 0,-3A3,3 0 0,1 3,0Z" style="opacity: 0.7; stroke-width: 0px; fill: rgb(135, 38, 38); fill-opacity: 1;"/><path class="point" transform="translate(237.1,44.84)" d="M3,0A3,3 0 1,1 0,-3A3,3 0 0,1 3,0Z" style="opacity: 0.7; stroke-width: 0px; fill: rgb(135, 38, 38); fill-opacity: 1;"/><path class="point" transform="translate(313.78,129.97)" d="M3,0A3,3 0 1,1 0,-3A3,3 0 0,1 3,0Z" style="opacity: 0.7; stroke-width: 0px; fill: rgb(135, 38, 38); fill-opacity: 1;"/><path class="point" transform="translate(328.02,65.98)" d="M3,0A3,3 0 1,1 0,-3A3,3 0 0,1 3,0Z" style="opacity: 0.7; stroke-width: 0px; fill: rgb(135, 38, 38); fill-opacity: 1;"/><path class="point" transform="translate(221.02,30.54)" d="M3,0A3,3 0 1,1 0,-3A3,3 0 0,1 3,0Z" style="opacity: 0.7; stroke-width: 0px; fill: rgb(135, 38, 38); fill-opacity: 1;"/><path class="point" transform="translate(276.24,64.43)" d="M3,0A3,3 0 1,1 0,-3A3,3 0 0,1 3,0Z" style="opacity: 0.7; stroke-width: 0px; fill: rgb(135, 38, 38); fill-opacity: 1;"/><path class="point" transform="translate(292.01,111.97)" d="M3,0A3,3 0 1,1 0,-3A3,3 0 0,1 3,0Z" style="opacity: 0.7; stroke-width: 0px; fill: rgb(135, 38, 38); fill-opacity: 1;"/><path class="point" transform="translate(296.33,122.19)" d="M3,0A3,3 0 1,1 0,-3A3,3 0 0,1 3,0Z" style="opacity: 0.7; stroke-width: 0px; fill: rgb(135, 38, 38); fill-opacity: 1;"/></g><g class="text"/></g><g class="trace scatter trace8e521f" style="stroke-miterlimit: 2; opacity: 1;"><g class="fills"/><g class="errorbars"/><g class="lines"/><g class="points"><path class="point" transform="translate(422.33,88.56)" d="M3,0A3,3 0 1,1 0,-3A3,3 0 0,1 3,0Z" style="opacity: 0.7; stroke-width: 0px; fill: rgb(172, 55, 55); fill-opacity: 1;"/><path class="point" transform="translate(129.26,77.12)" d="M3,0A3,3 0 1,1 0,-3A3,3 0 0,1 3,0Z" style="opacity: 0.7; stroke-width: 0px; fill: rgb(172, 55, 55); fill-opacity: 1;"/><path class="point" transform="translate(127.95,109.92)" d="M3,0A3,3 0 1,1 0,-3A3,3 0 0,1 3,0Z" style="opacity: 0.7; stroke-width: 0px; fill: rgb(172, 55, 55); fill-opacity: 1;"/><path class="point" transform="translate(285.44,51.33)" d="M3,0A3,3 0 1,1 0,-3A3,3 0 0,1 3,0Z" style="opacity: 0.7; stroke-width: 0px; fill: rgb(172, 55, 55); fill-opacity: 1;"/><path class="point" transform="translate(162.48,92.81)" d="M3,0A3,3 0 1,1 0,-3A3,3 0 0,1 3,0Z" style="opacity: 0.7; stroke-width: 0px; fill: rgb(172, 55, 55); fill-opacity: 1;"/><path class="point" transform="translate(150.6,142.77)" d="M3,0A3,3 0 1,1 0,-3A3,3 0 0,1 3,0Z" style="opacity: 0.7; stroke-width: 0px; fill: rgb(172, 55, 55); fill-opacity: 1;"/><path class="point" transform="translate(193.17,183.03)" d="M3,0A3,3 0 1,1 0,-3A3,3 0 0,1 3,0Z" style="opacity: 0.7; stroke-width: 0px; fill: rgb(172, 55, 55); fill-opacity: 1;"/><path class="point" transform="translate(147.24,110.46)" d="M3,0A3,3 0 1,1 0,-3A3,3 0 0,1 3,0Z" style="opacity: 0.7; stroke-width: 0px; fill: rgb(172, 55, 55); fill-opacity: 1;"/><path class="point" transform="translate(97.97,89.66)" d="M3,0A3,3 0 1,1 0,-3A3,3 0 0,1 3,0Z" style="opacity: 0.7; stroke-width: 0px; fill: rgb(172, 55, 55); fill-opacity: 1;"/><path class="point" transform="translate(234.52,167.19)" d="M3,0A3,3 0 1,1 0,-3A3,3 0 0,1 3,0Z" style="opacity: 0.7; stroke-width: 0px; fill: rgb(172, 55, 55); fill-opacity: 1;"/><path class="point" transform="translate(231.85,112.69)" d="M3,0A3,3 0 1,1 0,-3A3,3 0 0,1 3,0Z" style="opacity: 0.7; stroke-width: 0px; fill: rgb(172, 55, 55); fill-opacity: 1;"/><path class="point" transform="translate(75.76,128.54)" d="M3,0A3,3 0 1,1 0,-3A3,3 0 0,1 3,0Z" style="opacity: 0.7; stroke-width: 0px; fill: rgb(172, 55, 55); fill-opacity: 1;"/><path class="point" transform="translate(173.89,174.02)" d="M3,0A3,3 0 1,1 0,-3A3,3 0 0,1 3,0Z" style="opacity: 0.7; stroke-width: 0px; fill: rgb(172, 55, 55); fill-opacity: 1;"/><path class="point" transform="translate(163.43,215.84)" d="M3,0A3,3 0 1,1 0,-3A3,3 0 0,1 3,0Z" style="opacity: 0.7; stroke-width: 0px; fill: rgb(172, 55, 55); fill-opacity: 1;"/><path class="point" transform="translate(202.39,74.78)" d="M3,0A3,3 0 1,1 0,-3A3,3 0 0,1 3,0Z" style="opacity: 0.7; stroke-width: 0px; fill: rgb(172, 55, 55); fill-opacity: 1;"/><path class="point" transform="translate(137.42,167.48)" d="M3,0A3,3 0 1,1 0,-3A3,3 0 0,1 3,0Z" style="opacity: 0.7; stroke-width: 0px; fill: rgb(172, 55, 55); fill-opacity: 1;"/><path class="point" transform="translate(110.2,181.99)" d="M3,0A3,3 0 1,1 0,-3A3,3 0 0,1 3,0Z" style="opacity: 0.7; stroke-width: 0px; fill: rgb(172, 55, 55); fill-opacity: 1;"/><path class="point" transform="translate(144.44,135.39)" d="M3,0A3,3 0 1,1 0,-3A3,3 0 0,1 3,0Z" style="opacity: 0.7; stroke-width: 0px; fill: rgb(172, 55, 55); fill-opacity: 1;"/><path class="point" transform="translate(140.41,72.09)" d="M3,0A3,3 0 1,1 0,-3A3,3 0 0,1 3,0Z" style="opacity: 0.7; stroke-width: 0px; fill: rgb(172, 55, 55); fill-opacity: 1;"/><path class="point" transform="translate(191.08,74.34)" d="M3,0A3,3 0 1,1 0,-3A3,3 0 0,1 3,0Z" style="opacity: 0.7; stroke-width: 0px; fill: rgb(172, 55, 55); fill-opacity: 1;"/><path class="point" transform="translate(131.58,162.81)" d="M3,0A3,3 0 1,1 0,-3A3,3 0 0,1 3,0Z" style="opacity: 0.7; stroke-width: 0px; fill: rgb(172, 55, 55); fill-opacity: 1;"/><path class="point" transform="translate(30.15,126.15)" d="M3,0A3,3 0 1,1 0,-3A3,3 0 0,1 3,0Z" style="opacity: 0.7; stroke-width: 0px; fill: rgb(172, 55, 55); fill-opacity: 1;"/><path class="point" transform="translate(172.7,38.01)" d="M3,0A3,3 0 1,1 0,-3A3,3 0 0,1 3,0Z" style="opacity: 0.7; stroke-width: 0px; fill: rgb(172, 55, 55); fill-opacity: 1;"/></g><g class="text"/></g><g class="trace scatter trace671784" style="stroke-miterlimit: 2; opacity: 1;"><g class="fills"/><g class="errorbars"/><g class="lines"/><g class="points"><path class="point" transform="translate(490.96,134.35)" d="M3,0A3,3 0 1,1 0,-3A3,3 0 0,1 3,0Z" style="opacity: 0.7; stroke-width: 0px; fill: rgb(197, 123, 34); fill-opacity: 1;"/><path class="point" transform="translate(73.47,240.6)" d="M3,0A3,3 0 1,1 0,-3A3,3 0 0,1 3,0Z" style="opacity: 0.7; stroke-width: 0px; fill: rgb(197, 123, 34); fill-opacity: 1;"/><path class="point" transform="translate(460.48,155.15)" d="M3,0A3,3 0 1,1 0,-3A3,3 0 0,1 3,0Z" style="opacity: 0.7; stroke-width: 0px; fill: rgb(197, 123, 34); fill-opacity: 1;"/><path class="point" transform="translate(386.15,161.2)" d="M3,0A3,3 0 1,1 0,-3A3,3 0 0,1 3,0Z" style="opacity: 0.7; stroke-width: 0px; fill: rgb(197, 123, 34); fill-opacity: 1;"/><path class="point" transform="translate(331.02,120.23)" d="M3,0A3,3 0 1,1 0,-3A3,3 0 0,1 3,0Z" style="opacity: 0.7; stroke-width: 0px; fill: rgb(197, 123, 34); fill-opacity: 1;"/><path class="point" transform="translate(254.49,119.08)" d="M3,0A3,3 0 1,1 0,-3A3,3 0 0,1 3,0Z" style="opacity: 0.7; stroke-width: 0px; fill: rgb(197, 123, 34); fill-opacity: 1;"/><path class="point" transform="translate(256.52,160.7)" d="M3,0A3,3 0 1,1 0,-3A3,3 0 0,1 3,0Z" style="opacity: 0.7; stroke-width: 0px; fill: rgb(197, 123, 34); fill-opacity: 1;"/><path class="point" transform="translate(254.95,161.05)" d="M3,0A3,3 0 1,1 0,-3A3,3 0 0,1 3,0Z" style="opacity: 0.7; stroke-width: 0px; fill: rgb(197, 123, 34); fill-opacity: 1;"/><path class="point" transform="translate(271.23,146.2)" d="M3,0A3,3 0 1,1 0,-3A3,3 0 0,1 3,0Z" style="opacity: 0.7; stroke-width: 0px; fill: rgb(197, 123, 34); fill-opacity: 1;"/><path class="point" transform="translate(242.75,115.94)" d="M3,0A3,3 0 1,1 0,-3A3,3 0 0,1 3,0Z" style="opacity: 0.7; stroke-width: 0px; fill: rgb(197, 123, 34); fill-opacity: 1;"/><path class="point" transform="translate(265.73,171.82)" d="M3,0A3,3 0 1,1 0,-3A3,3 0 0,1 3,0Z" style="opacity: 0.7; stroke-width: 0px; fill: rgb(197, 123, 34); fill-opacity: 1;"/><path class="point" transform="translate(345.78,163.4)" d="M3,0A3,3 0 1,1 0,-3A3,3 0 0,1 3,0Z" style="opacity: 0.7; stroke-width: 0px; fill: rgb(197, 123, 34); fill-opacity: 1;"/><path class="point" transform="translate(360.7,160.27)" d="M3,0A3,3 0 1,1 0,-3A3,3 0 0,1 3,0Z" style="opacity: 0.7; stroke-width: 0px; fill: rgb(197, 123, 34); fill-opacity: 1;"/><path class="point" transform="translate(158.82,192.2)" d="M3,0A3,3 0 1,1 0,-3A3,3 0 0,1 3,0Z" style="opacity: 0.7; stroke-width: 0px; fill: rgb(197, 123, 34); fill-opacity: 1;"/><path class="point" transform="translate(163.61,34.89)" d="M3,0A3,3 0 1,1 0,-3A3,3 0 0,1 3,0Z" style="opacity: 0.7; stroke-width: 0px; fill: rgb(197, 123, 34); fill-opacity: 1;"/><path class="point" transform="translate(123.22,208.71)" d="M3,0A3,3 0 1,1 0,-3A3,3 0 0,1 3,0Z" style="opacity: 0.7; stroke-width: 0px; fill: rgb(197, 123, 34); fill-opacity: 1;"/><path class="point" transform="translate(141.17,199.95)" d="M3,0A3,3 0 1,1 0,-3A3,3 0 0,1 3,0Z" style="opacity: 0.7; stroke-width: 0px; fill: rgb(197, 123, 34); fill-opacity: 1;"/><path class="point" transform="translate(100.36,218.96)" d="M3,0A3,3 0 1,1 0,-3A3,3 0 0,1 3,0Z" style="opacity: 0.7; stroke-width: 0px; fill: rgb(197, 123, 34); fill-opacity: 1;"/></g><g class="text"/></g><g class="trace scatter traced03b92" style="stroke-miterlimit: 2; opacity: 1;"><g class="fills"/><g class="errorbars"/><g class="lines"/><g class="points"><path class="point" transform="translate(324.36,296.67)" d="M3,0A3,3 0 1,1 0,-3A3,3 0 0,1 3,0Z" style="opacity: 0.7; stroke-width: 0px; fill: rgb(226, 161, 71); fill-opacity: 1;"/><path class="point" transform="translate(279.82,107.86)" d="M3,0A3,3 0 1,1 0,-3A3,3 0 0,1 3,0Z" style="opacity: 0.7; stroke-width: 0px; fill: rgb(226, 161, 71); fill-opacity: 1;"/><path class="point" transform="translate(143.39,133.67)" d="M3,0A3,3 0 1,1 0,-3A3,3 0 0,1 3,0Z" style="opacity: 0.7; stroke-width: 0px; fill: rgb(226, 161, 71); fill-opacity: 1;"/><path class="point" transform="translate(191.64,87.2)" d="M3,0A3,3 0 1,1 0,-3A3,3 0 0,1 3,0Z" style="opacity: 0.7; stroke-width: 0px; fill: rgb(226, 161, 71); fill-opacity: 1;"/><path class="point" transform="translate(319.97,142.39)" d="M3,0A3,3 0 1,1 0,-3A3,3 0 0,1 3,0Z" style="opacity: 0.7; stroke-width: 0px; fill: rgb(226, 161, 71); fill-opacity: 1;"/><path class="point" transform="translate(313.73,144.51)" d="M3,0A3,3 0 1,1 0,-3A3,3 0 0,1 3,0Z" style="opacity: 0.7; stroke-width: 0px; fill: rgb(226, 161, 71); fill-opacity: 1;"/><path class="point" transform="translate(189.29,137.9)" d="M3,0A3,3 0 1,1 0,-3A3,3 0 0,1 3,0Z" style="opacity: 0.7; stroke-width: 0px; fill: rgb(226, 161, 71); fill-opacity: 1;"/><path class="point" transform="translate(232.94,169.08)" d="M3,0A3,3 0 1,1 0,-3A3,3 0 0,1 3,0Z" style="opacity: 0.7; stroke-width: 0px; fill: rgb(226, 161, 71); fill-opacity: 1;"/><path class="point" transform="translate(233.6,155.61)" d="M3,0A3,3 0 1,1 0,-3A3,3 0 0,1 3,0Z" style="opacity: 0.7; stroke-width: 0px; fill: rgb(226, 161, 71); fill-opacity: 1;"/><path class="point" transform="translate(234.97,155.79)" d="M3,0A3,3 0 1,1 0,-3A3,3 0 0,1 3,0Z" style="opacity: 0.7; stroke-width: 0px; fill: rgb(226, 161, 71); fill-opacity: 1;"/><path class="point" transform="translate(204.49,121.25)" d="M3,0A3,3 0 1,1 0,-3A3,3 0 0,1 3,0Z" style="opacity: 0.7; stroke-width: 0px; fill: rgb(226, 161, 71); fill-opacity: 1;"/><path class="point" transform="translate(373.69,159.85)" d="M3,0A3,3 0 1,1 0,-3A3,3 0 0,1 3,0Z" style="opacity: 0.7; stroke-width: 0px; fill: rgb(226, 161, 71); fill-opacity: 1;"/><path class="point" transform="translate(248.48,177.24)" d="M3,0A3,3 0 1,1 0,-3A3,3 0 0,1 3,0Z" style="opacity: 0.7; stroke-width: 0px; fill: rgb(226, 161, 71); fill-opacity: 1;"/><path class="point" transform="translate(175.32,159.99)" d="M3,0A3,3 0 1,1 0,-3A3,3 0 0,1 3,0Z" style="opacity: 0.7; stroke-width: 0px; fill: rgb(226, 161, 71); fill-opacity: 1;"/><path class="point" transform="translate(259.47,69.63)" d="M3,0A3,3 0 1,1 0,-3A3,3 0 0,1 3,0Z" style="opacity: 0.7; stroke-width: 0px; fill: rgb(226, 161, 71); fill-opacity: 1;"/><path class="point" transform="translate(383.97,143.62)" d="M3,0A3,3 0 1,1 0,-3A3,3 0 0,1 3,0Z" style="opacity: 0.7; stroke-width: 0px; fill: rgb(226, 161, 71); fill-opacity: 1;"/><path class="point" transform="translate(433.94,150.34)" d="M3,0A3,3 0 1,1 0,-3A3,3 0 0,1 3,0Z" style="opacity: 0.7; stroke-width: 0px; fill: rgb(226, 161, 71); fill-opacity: 1;"/><path class="point" transform="translate(234.49,79.58)" d="M3,0A3,3 0 1,1 0,-3A3,3 0 0,1 3,0Z" style="opacity: 0.7; stroke-width: 0px; fill: rgb(226, 161, 71); fill-opacity: 1;"/></g><g class="text"/></g><g class="trace scatter traced8a096" style="stroke-miterlimit: 2; opacity: 1;"><g class="fills"/><g class="errorbars"/><g class="lines"/><g class="points"><path class="point" transform="translate(362.73,306.87)" d="M3,0A3,3 0 1,1 0,-3A3,3 0 0,1 3,0Z" style="opacity: 0.7; stroke-width: 0px; fill: rgb(34, 76, 133); fill-opacity: 1;"/><path class="point" transform="translate(258.81,308.27)" d="M3,0A3,3 0 1,1 0,-3A3,3 0 0,1 3,0Z" style="opacity: 0.7; stroke-width: 0px; fill: rgb(34, 76, 133); fill-opacity: 1;"/><path class="point" transform="translate(255.59,305.55)" d="M3,0A3,3 0 1,1 0,-3A3,3 0 0,1 3,0Z" style="opacity: 0.7; stroke-width: 0px; fill: rgb(34, 76, 133); fill-opacity: 1;"/><path class="point" transform="translate(412.92,252.67)" d="M3,0A3,3 0 1,1 0,-3A3,3 0 0,1 3,0Z" style="opacity: 0.7; stroke-width: 0px; fill: rgb(34, 76, 133); fill-opacity: 1;"/><path class="point" transform="translate(390.56,335.59)" d="M3,0A3,3 0 1,1 0,-3A3,3 0 0,1 3,0Z" style="opacity: 0.7; stroke-width: 0px; fill: rgb(34, 76, 133); fill-opacity: 1;"/><path class="point" transform="translate(285.57,252.49)" d="M3,0A3,3 0 1,1 0,-3A3,3 0 0,1 3,0Z" style="opacity: 0.7; stroke-width: 0px; fill: rgb(34, 76, 133); fill-opacity: 1;"/><path class="point" transform="translate(259.12,338.25)" d="M3,0A3,3 0 1,1 0,-3A3,3 0 0,1 3,0Z" style="opacity: 0.7; stroke-width: 0px; fill: rgb(34, 76, 133); fill-opacity: 1;"/><path class="point" transform="translate(319.08,275.25)" d="M3,0A3,3 0 1,1 0,-3A3,3 0 0,1 3,0Z" style="opacity: 0.7; stroke-width: 0px; fill: rgb(34, 76, 133); fill-opacity: 1;"/><path class="point" transform="translate(106.05,297.68)" d="M3,0A3,3 0 1,1 0,-3A3,3 0 0,1 3,0Z" style="opacity: 0.7; stroke-width: 0px; fill: rgb(34, 76, 133); fill-opacity: 1;"/><path class="point" transform="translate(368.14,248.78)" d="M3,0A3,3 0 1,1 0,-3A3,3 0 0,1 3,0Z" style="opacity: 0.7; stroke-width: 0px; fill: rgb(34, 76, 133); fill-opacity: 1;"/><path class="point" transform="translate(341.01,253.4)" d="M3,0A3,3 0 1,1 0,-3A3,3 0 0,1 3,0Z" style="opacity: 0.7; stroke-width: 0px; fill: rgb(34, 76, 133); fill-opacity: 1;"/><path class="point" transform="translate(299.61,256.88)" d="M3,0A3,3 0 1,1 0,-3A3,3 0 0,1 3,0Z" style="opacity: 0.7; stroke-width: 0px; fill: rgb(34, 76, 133); fill-opacity: 1;"/><path class="point" transform="translate(224.86,234.13)" d="M3,0A3,3 0 1,1 0,-3A3,3 0 0,1 3,0Z" style="opacity: 0.7; stroke-width: 0px; fill: rgb(34, 76, 133); fill-opacity: 1;"/><path class="point" transform="translate(345.19,266.77)" d="M3,0A3,3 0 1,1 0,-3A3,3 0 0,1 3,0Z" style="opacity: 0.7; stroke-width: 0px; fill: rgb(34, 76, 133); fill-opacity: 1;"/><path class="point" transform="translate(333.56,249.57)" d="M3,0A3,3 0 1,1 0,-3A3,3 0 0,1 3,0Z" style="opacity: 0.7; stroke-width: 0px; fill: rgb(34, 76, 133); fill-opacity: 1;"/><path class="point" transform="translate(247.51,286.69)" d="M3,0A3,3 0 1,1 0,-3A3,3 0 0,1 3,0Z" style="opacity: 0.7; stroke-width: 0px; fill: rgb(34, 76, 133); fill-opacity: 1;"/><path class="point" transform="translate(432.72,307.15)" d="M3,0A3,3 0 1,1 0,-3A3,3 0 0,1 3,0Z" style="opacity: 0.7; stroke-width: 0px; fill: rgb(34, 76, 133); fill-opacity: 1;"/><path class="point" transform="translate(374.94,291.05)" d="M3,0A3,3 0 1,1 0,-3A3,3 0 0,1 3,0Z" style="opacity: 0.7; stroke-width: 0px; fill: rgb(34, 76, 133); fill-opacity: 1;"/><path class="point" transform="translate(250.04,321.76)" d="M3,0A3,3 0 1,1 0,-3A3,3 0 0,1 3,0Z" style="opacity: 0.7; stroke-width: 0px; fill: rgb(34, 76, 133); fill-opacity: 1;"/><path class="point" transform="translate(355.34,302.71)" d="M3,0A3,3 0 1,1 0,-3A3,3 0 0,1 3,0Z" style="opacity: 0.7; stroke-width: 0px; fill: rgb(34, 76, 133); fill-opacity: 1;"/><path class="point" transform="translate(404.11,223.23)" d="M3,0A3,3 0 1,1 0,-3A3,3 0 0,1 3,0Z" style="opacity: 0.7; stroke-width: 0px; fill: rgb(34, 76, 133); fill-opacity: 1;"/><path class="point" transform="translate(375.79,325.21)" d="M3,0A3,3 0 1,1 0,-3A3,3 0 0,1 3,0Z" style="opacity: 0.7; stroke-width: 0px; fill: rgb(34, 76, 133); fill-opacity: 1;"/><path class="point" transform="translate(309.65,337.9)" d="M3,0A3,3 0 1,1 0,-3A3,3 0 0,1 3,0Z" style="opacity: 0.7; stroke-width: 0px; fill: rgb(34, 76, 133); fill-opacity: 1;"/></g><g class="text"/></g><g class="trace scatter trace8fcc5a" style="stroke-miterlimit: 2; opacity: 1;"><g class="fills"/><g class="errorbars"/><g class="lines"/><g class="points"><path class="point" transform="translate(497.85,213.14)" d="M3,0A3,3 0 1,1 0,-3A3,3 0 0,1 3,0Z" style="opacity: 0.7; stroke-width: 0px; fill: rgb(60, 110, 185); fill-opacity: 1;"/><path class="point" transform="translate(238.32,207.43)" d="M3,0A3,3 0 1,1 0,-3A3,3 0 0,1 3,0Z" style="opacity: 0.7; stroke-width: 0px; fill: rgb(60, 110, 185); fill-opacity: 1;"/><path class="point" transform="translate(236.23,201.03)" d="M3,0A3,3 0 1,1 0,-3A3,3 0 0,1 3,0Z" style="opacity: 0.7; stroke-width: 0px; fill: rgb(60, 110, 185); fill-opacity: 1;"/><path class="point" transform="translate(282.36,197.02)" d="M3,0A3,3 0 1,1 0,-3A3,3 0 0,1 3,0Z" style="opacity: 0.7; stroke-width: 0px; fill: rgb(60, 110, 185); fill-opacity: 1;"/><path class="point" transform="translate(251.88,174.99)" d="M3,0A3,3 0 1,1 0,-3A3,3 0 0,1 3,0Z" style="opacity: 0.7; stroke-width: 0px; fill: rgb(60, 110, 185); fill-opacity: 1;"/><path class="point" transform="translate(334.92,209.53)" d="M3,0A3,3 0 1,1 0,-3A3,3 0 0,1 3,0Z" style="opacity: 0.7; stroke-width: 0px; fill: rgb(60, 110, 185); fill-opacity: 1;"/><path class="point" transform="translate(247.22,250.63)" d="M3,0A3,3 0 1,1 0,-3A3,3 0 0,1 3,0Z" style="opacity: 0.7; stroke-width: 0px; fill: rgb(60, 110, 185); fill-opacity: 1;"/><path class="point" transform="translate(337.47,329.5)" d="M3,0A3,3 0 1,1 0,-3A3,3 0 0,1 3,0Z" style="opacity: 0.7; stroke-width: 0px; fill: rgb(60, 110, 185); fill-opacity: 1;"/><path class="point" transform="translate(484.48,207.6)" d="M3,0A3,3 0 1,1 0,-3A3,3 0 0,1 3,0Z" style="opacity: 0.7; stroke-width: 0px; fill: rgb(60, 110, 185); fill-opacity: 1;"/><path class="point" transform="translate(374.86,288.16)" d="M3,0A3,3 0 1,1 0,-3A3,3 0 0,1 3,0Z" style="opacity: 0.7; stroke-width: 0px; fill: rgb(60, 110, 185); fill-opacity: 1;"/></g><g class="text"/></g><g class="trace scatter trace1c93a2" style="stroke-miterlimit: 2; opacity: 1;"><g class="fills"/><g class="errorbars"/><g class="lines"/><g class="points"><path class="point" transform="translate(431.65,277.56)" d="M3,0A3,3 0 1,1 0,-3A3,3 0 0,1 3,0Z" style="opacity: 0.7; stroke-width: 0px; fill: rgb(93, 60, 136); fill-opacity: 1;"/><path class="point" transform="translate(194.32,280.58)" d="M3,0A3,3 0 1,1 0,-3A3,3 0 0,1 3,0Z" style="opacity: 0.7; stroke-width: 0px; fill: rgb(93, 60, 136); fill-opacity: 1;"/><path class="point" transform="translate(274.3,215.23)" d="M3,0A3,3 0 1,1 0,-3A3,3 0 0,1 3,0Z" style="opacity: 0.7; stroke-width: 0px; fill: rgb(93, 60, 136); fill-opacity: 1;"/><path class="point" transform="translate(212.58,221.31)" d="M3,0A3,3 0 1,1 0,-3A3,3 0 0,1 3,0Z" style="opacity: 0.7; stroke-width: 0px; fill: rgb(93, 60, 136); fill-opacity: 1;"/><path class="point" transform="translate(255.43,193.74)" d="M3,0A3,3 0 1,1 0,-3A3,3 0 0,1 3,0Z" style="opacity: 0.7; stroke-width: 0px; fill: rgb(93, 60, 136); fill-opacity: 1;"/><path class="point" transform="translate(345.54,225.86)" d="M3,0A3,3 0 1,1 0,-3A3,3 0 0,1 3,0Z" style="opacity: 0.7; stroke-width: 0px; fill: rgb(93, 60, 136); fill-opacity: 1;"/><path class="point" transform="translate(241.29,219.78)" d="M3,0A3,3 0 1,1 0,-3A3,3 0 0,1 3,0Z" style="opacity: 0.7; stroke-width: 0px; fill: rgb(93, 60, 136); fill-opacity: 1;"/><path class="point" transform="translate(187.88,241.47)" d="M3,0A3,3 0 1,1 0,-3A3,3 0 0,1 3,0Z" style="opacity: 0.7; stroke-width: 0px; fill: rgb(93, 60, 136); fill-opacity: 1;"/><path class="point" transform="translate(440.83,192.39)" d="M3,0A3,3 0 1,1 0,-3A3,3 0 0,1 3,0Z" style="opacity: 0.7; stroke-width: 0px; fill: rgb(93, 60, 136); fill-opacity: 1;"/><path class="point" transform="translate(460.82,270.98)" d="M3,0A3,3 0 1,1 0,-3A3,3 0 0,1 3,0Z" style="opacity: 0.7; stroke-width: 0px; fill: rgb(93, 60, 136); fill-opacity: 1;"/><path class="point" transform="translate(253.98,246.88)" d="M3,0A3,3 0 1,1 0,-3A3,3 0 0,1 3,0Z" style="opacity: 0.7; stroke-width: 0px; fill: rgb(93, 60, 136); fill-opacity: 1;"/></g><g class="text"/></g><g class="trace scatter trace91ae7b" style="stroke-miterlimit: 2; opacity: 1;"><g class="fills"/><g class="errorbars"/><g class="lines"/><g class="points"><path class="point" transform="translate(296.01,260.39)" d="M3,0A3,3 0 1,1 0,-3A3,3 0 0,1 3,0Z" style="opacity: 0.7; stroke-width: 0px; fill: rgb(124, 87, 173); fill-opacity: 1;"/><path class="point" transform="translate(237.15,212.56)" d="M3,0A3,3 0 1,1 0,-3A3,3 0 0,1 3,0Z" style="opacity: 0.7; stroke-width: 0px; fill: rgb(124, 87, 173); fill-opacity: 1;"/><path class="point" transform="translate(299.48,221.69)" d="M3,0A3,3 0 1,1 0,-3A3,3 0 0,1 3,0Z" style="opacity: 0.7; stroke-width: 0px; fill: rgb(124, 87, 173); fill-opacity: 1;"/><path class="point" transform="translate(289.66,244.3)" d="M3,0A3,3 0 1,1 0,-3A3,3 0 0,1 3,0Z" style="opacity: 0.7; stroke-width: 0px; fill: rgb(124, 87, 173); fill-opacity: 1;"/><path class="point" transform="translate(242.3,229.79)" d="M3,0A3,3 0 1,1 0,-3A3,3 0 0,1 3,0Z" style="opacity: 0.7; stroke-width: 0px; fill: rgb(124, 87, 173); fill-opacity: 1;"/><path class="point" transform="translate(368.23,218.15)" d="M3,0A3,3 0 1,1 0,-3A3,3 0 0,1 3,0Z" style="opacity: 0.7; stroke-width: 0px; fill: rgb(124, 87, 173); fill-opacity: 1;"/><path class="point" transform="translate(236.58,160.35)" d="M3,0A3,3 0 1,1 0,-3A3,3 0 0,1 3,0Z" style="opacity: 0.7; stroke-width: 0px; fill: rgb(124, 87, 173); fill-opacity: 1;"/><path class="point" transform="translate(310.41,222)" d="M3,0A3,3 0 1,1 0,-3A3,3 0 0,1 3,0Z" style="opacity: 0.7; stroke-width: 0px; fill: rgb(124, 87, 173); fill-opacity: 1;"/><path class="point" transform="translate(238.58,250.52)" d="M3,0A3,3 0 1,1 0,-3A3,3 0 0,1 3,0Z" style="opacity: 0.7; stroke-width: 0px; fill: rgb(124, 87, 173); fill-opacity: 1;"/><path class="point" transform="translate(314.68,237.06)" d="M3,0A3,3 0 1,1 0,-3A3,3 0 0,1 3,0Z" style="opacity: 0.7; stroke-width: 0px; fill: rgb(124, 87, 173); fill-opacity: 1;"/><path class="point" transform="translate(387.76,254.56)" d="M3,0A3,3 0 1,1 0,-3A3,3 0 0,1 3,0Z" style="opacity: 0.7; stroke-width: 0px; fill: rgb(124, 87, 173); fill-opacity: 1;"/><path class="point" transform="translate(203.69,21.75)" d="M3,0A3,3 0 1,1 0,-3A3,3 0 0,1 3,0Z" style="opacity: 0.7; stroke-width: 0px; fill: rgb(124, 87, 173); fill-opacity: 1;"/><path class="point" transform="translate(311.91,154.31)" d="M3,0A3,3 0 1,1 0,-3A3,3 0 0,1 3,0Z" style="opacity: 0.7; stroke-width: 0px; fill: rgb(124, 87, 173); fill-opacity: 1;"/><path class="point" transform="translate(215.85,239.08)" d="M3,0A3,3 0 1,1 0,-3A3,3 0 0,1 3,0Z" style="opacity: 0.7; stroke-width: 0px; fill: rgb(124, 87, 173); fill-opacity: 1;"/><path class="point" transform="translate(224.18,250.48)" d="M3,0A3,3 0 1,1 0,-3A3,3 0 0,1 3,0Z" style="opacity: 0.7; stroke-width: 0px; fill: rgb(124, 87, 173); fill-opacity: 1;"/></g><g class="text"/></g><g class="trace scatter tracebb5b49" style="stroke-miterlimit: 2; opacity: 1;"><g class="fills"/><g class="errorbars"/><g class="lines"/><g class="points"><path class="point" transform="translate(53.53,260.81)" d="M3,0A3,3 0 1,1 0,-3A3,3 0 0,1 3,0Z" style="opacity: 0.7; stroke-width: 0px; fill: rgb(156, 120, 197); fill-opacity: 1;"/><path class="point" transform="translate(150.17,324.23)" d="M3,0A3,3 0 1,1 0,-3A3,3 0 0,1 3,0Z" style="opacity: 0.7; stroke-width: 0px; fill: rgb(156, 120, 197); fill-opacity: 1;"/><path class="point" transform="translate(439.9,224.56)" d="M3,0A3,3 0 1,1 0,-3A3,3 0 0,1 3,0Z" style="opacity: 0.7; stroke-width: 0px; fill: rgb(156, 120, 197); fill-opacity: 1;"/><path class="point" transform="translate(316.72,209.89)" d="M3,0A3,3 0 1,1 0,-3A3,3 0 0,1 3,0Z" style="opacity: 0.7; stroke-width: 0px; fill: rgb(156, 120, 197); fill-opacity: 1;"/><path class="point" transform="translate(344.37,186.27)" d="M3,0A3,3 0 1,1 0,-3A3,3 0 0,1 3,0Z" style="opacity: 0.7; stroke-width: 0px; fill: rgb(156, 120, 197); fill-opacity: 1;"/><path class="point" transform="translate(285.5,195.9)" d="M3,0A3,3 0 1,1 0,-3A3,3 0 0,1 3,0Z" style="opacity: 0.7; stroke-width: 0px; fill: rgb(156, 120, 197); fill-opacity: 1;"/><path class="point" transform="translate(371.43,192.94)" d="M3,0A3,3 0 1,1 0,-3A3,3 0 0,1 3,0Z" style="opacity: 0.7; stroke-width: 0px; fill: rgb(156, 120, 197); fill-opacity: 1;"/><path class="point" transform="translate(253.07,190.05)" d="M3,0A3,3 0 1,1 0,-3A3,3 0 0,1 3,0Z" style="opacity: 0.7; stroke-width: 0px; fill: rgb(156, 120, 197); fill-opacity: 1;"/><path class="point" transform="translate(363.94,116.48)" d="M3,0A3,3 0 1,1 0,-3A3,3 0 0,1 3,0Z" style="opacity: 0.7; stroke-width: 0px; fill: rgb(156, 120, 197); fill-opacity: 1;"/><path class="point" transform="translate(279.14,210.27)" d="M3,0A3,3 0 1,1 0,-3A3,3 0 0,1 3,0Z" style="opacity: 0.7; stroke-width: 0px; fill: rgb(156, 120, 197); fill-opacity: 1;"/><path class="point" transform="translate(379.11,255.89)" d="M3,0A3,3 0 1,1 0,-3A3,3 0 0,1 3,0Z" style="opacity: 0.7; stroke-width: 0px; fill: rgb(156, 120, 197); fill-opacity: 1;"/><path class="point" transform="translate(162.55,258.24)" d="M3,0A3,3 0 1,1 0,-3A3,3 0 0,1 3,0Z" style="opacity: 0.7; stroke-width: 0px; fill: rgb(156, 120, 197); fill-opacity: 1;"/><path class="point" transform="translate(154.27,322.58)" d="M3,0A3,3 0 1,1 0,-3A3,3 0 0,1 3,0Z" style="opacity: 0.7; stroke-width: 0px; fill: rgb(156, 120, 197); fill-opacity: 1;"/></g><g class="text"/></g></g></g></g><g class="zerolinelayer-above"/><path class="xlines-above crisp" d="M79,420.5H608" style="fill: none; stroke-width: 1px; stroke: rgb(0, 0, 0); stroke-opacity: 1;"/><path class="ylines-above crisp" d="M79.5,60V420" style="fill: none; stroke-width: 1px; stroke: rgb(0, 0, 0); stroke-opacity: 1;"/><g class="overlines-above"/><g class="xaxislayer-above"/><g class="yaxislayer-above"/><g class="overaxes-above"/></g></g><g class="polarlayer"/><g class="smithlayer"/><g class="ternarylayer"/><g class="geolayer"/><g class="funnelarealayer"/><g class="pielayer"/><g class="iciclelayer"/><g class="treemaplayer"/><g class="sunburstlayer"/><g class="glimages"/><defs id="topdefs-9c4baa"><g class="clips"/><clipPath id="legend9c4baa"><rect width="69" height="200" x="0" y="0"/></clipPath></defs><g class="layer-above"><g class="imagelayer"/><g class="shapelayer"/></g><g class="infolayer"><g class="legend" pointer-events="all" transform="translate(618.5600000000001,60)"><rect class="bg" shape-rendering="crispEdges" style="stroke: rgb(68, 68, 68); stroke-opacity: 1; fill: rgb(255, 255, 255); fill-opacity: 1; stroke-width: 0px;" width="69" height="200" x="0" y="0"/><g class="scrollbox" transform="" clip-path="url(#legend9c4baa)"><text class="legendtitletext" text-anchor="start" x="2" y="18.2" style="font-family: 'Open Sans', verdana, arial, sans-serif; font-size: 14px; fill: rgb(68, 68, 68); fill-opacity: 1; white-space: pre;">Phoneme</text><g class="groups" transform=""><g class="traces" transform="translate(0,32.7)" style="opacity: 1;"><text class="legendtext" text-anchor="start" x="40" y="4.680000000000001" style="font-family: 'Open Sans', verdana, arial, sans-serif; font-size: 12px; fill: rgb(68, 68, 68); fill-opacity: 1; white-space: pre;">i</text><g class="layers" style="opacity: 1;"><g class="legendfill"/><g class="legendlines"/><g class="legendsymbols"><g class="legendpoints"><path class="scatterpts" transform="translate(20,0)" d="M3,0A3,3 0 1,1 0,-3A3,3 0 0,1 3,0Z" style="opacity: 0.7; stroke-width: 0px; fill: rgb(135, 38, 38); fill-opacity: 1;"/></g></g></g><rect class="legendtoggle" x="0" y="-9.5" width="54.359375" height="19" style="fill: rgb(0, 0, 0); fill-opacity: 0;"/></g></g><g class="groups" transform=""><g class="traces" transform="translate(0,51.7)" style="opacity: 1;"><text class="legendtext" text-anchor="start" x="40" y="4.680000000000001" style="font-family: 'Open Sans', verdana, arial, sans-serif; font-size: 12px; fill: rgb(68, 68, 68); fill-opacity: 1; white-space: pre;">u</text><g class="layers" style="opacity: 1;"><g class="legendfill"/><g class="legendlines"/><g class="legendsymbols"><g class="legendpoints"><path class="scatterpts" transform="translate(20,0)" d="M3,0A3,3 0 1,1 0,-3A3,3 0 0,1 3,0Z" style="opacity: 0.7; stroke-width: 0px; fill: rgb(172, 55, 55); fill-opacity: 1;"/></g></g></g><rect class="legendtoggle" x="0" y="-9.5" width="54.359375" height="19" style="fill: rgb(0, 0, 0); fill-opacity: 0;"/></g></g><g class="groups" transform=""><g class="traces" transform="translate(0,70.7)" style="opacity: 1;"><text class="legendtext" text-anchor="start" x="40" y="4.680000000000001" style="font-family: 'Open Sans', verdana, arial, sans-serif; font-size: 12px; fill: rgb(68, 68, 68); fill-opacity: 1; white-space: pre;">a</text><g class="layers" style="opacity: 1;"><g class="legendfill"/><g class="legendlines"/><g class="legendsymbols"><g class="legendpoints"><path class="scatterpts" transform="translate(20,0)" d="M3,0A3,3 0 1,1 0,-3A3,3 0 0,1 3,0Z" style="opacity: 0.7; stroke-width: 0px; fill: rgb(197, 123, 34); fill-opacity: 1;"/></g></g></g><rect class="legendtoggle" x="0" y="-9.5" width="54.359375" height="19" style="fill: rgb(0, 0, 0); fill-opacity: 0;"/></g></g><g class="groups" transform=""><g class="traces" transform="translate(0,89.7)" style="opacity: 1;"><text class="legendtext" text-anchor="start" x="40" y="4.680000000000001" style="font-family: 'Open Sans', verdana, arial, sans-serif; font-size: 12px; fill: rgb(68, 68, 68); fill-opacity: 1; white-space: pre;">ae</text><g class="layers" style="opacity: 1;"><g class="legendfill"/><g class="legendlines"/><g class="legendsymbols"><g class="legendpoints"><path class="scatterpts" transform="translate(20,0)" d="M3,0A3,3 0 1,1 0,-3A3,3 0 0,1 3,0Z" style="opacity: 0.7; stroke-width: 0px; fill: rgb(226, 161, 71); fill-opacity: 1;"/></g></g></g><rect class="legendtoggle" x="0" y="-9.5" width="54.359375" height="19" style="fill: rgb(0, 0, 0); fill-opacity: 0;"/></g></g><g class="groups" transform=""><g class="traces" transform="translate(0,108.7)" style="opacity: 1;"><text class="legendtext" text-anchor="start" x="40" y="4.680000000000001" style="font-family: 'Open Sans', verdana, arial, sans-serif; font-size: 12px; fill: rgb(68, 68, 68); fill-opacity: 1; white-space: pre;">g</text><g class="layers" style="opacity: 1;"><g class="legendfill"/><g class="legendlines"/><g class="legendsymbols"><g class="legendpoints"><path class="scatterpts" transform="translate(20,0)" d="M3,0A3,3 0 1,1 0,-3A3,3 0 0,1 3,0Z" style="opacity: 0.7; stroke-width: 0px; fill: rgb(34, 76, 133); fill-opacity: 1;"/></g></g></g><rect class="legendtoggle" x="0" y="-9.5" width="54.359375" height="19" style="fill: rgb(0, 0, 0); fill-opacity: 0;"/></g></g><g class="groups" transform=""><g class="traces" transform="translate(0,127.7)" style="opacity: 1;"><text class="legendtext" text-anchor="start" x="40" y="4.680000000000001" style="font-family: 'Open Sans', verdana, arial, sans-serif; font-size: 12px; fill: rgb(68, 68, 68); fill-opacity: 1; white-space: pre;">k</text><g class="layers" style="opacity: 1;"><g class="legendfill"/><g class="legendlines"/><g class="legendsymbols"><g class="legendpoints"><path class="scatterpts" transform="translate(20,0)" d="M3,0A3,3 0 1,1 0,-3A3,3 0 0,1 3,0Z" style="opacity: 0.7; stroke-width: 0px; fill: rgb(60, 110, 185); fill-opacity: 1;"/></g></g></g><rect class="legendtoggle" x="0" y="-9.5" width="54.359375" height="19" style="fill: rgb(0, 0, 0); fill-opacity: 0;"/></g></g><g class="groups" transform=""><g class="traces" transform="translate(0,146.7)" style="opacity: 1;"><text class="legendtext" text-anchor="start" x="40" y="4.680000000000001" style="font-family: 'Open Sans', verdana, arial, sans-serif; font-size: 12px; fill: rgb(68, 68, 68); fill-opacity: 1; white-space: pre;">b</text><g class="layers" style="opacity: 1;"><g class="legendfill"/><g class="legendlines"/><g class="legendsymbols"><g class="legendpoints"><path class="scatterpts" transform="translate(20,0)" d="M3,0A3,3 0 1,1 0,-3A3,3 0 0,1 3,0Z" style="opacity: 0.7; stroke-width: 0px; fill: rgb(93, 60, 136); fill-opacity: 1;"/></g></g></g><rect class="legendtoggle" x="0" y="-9.5" width="54.359375" height="19" style="fill: rgb(0, 0, 0); fill-opacity: 0;"/></g></g><g class="groups" transform=""><g class="traces" transform="translate(0,165.7)" style="opacity: 1;"><text class="legendtext" text-anchor="start" x="40" y="4.680000000000001" style="font-family: 'Open Sans', verdana, arial, sans-serif; font-size: 12px; fill: rgb(68, 68, 68); fill-opacity: 1; white-space: pre;">p</text><g class="layers" style="opacity: 1;"><g class="legendfill"/><g class="legendlines"/><g class="legendsymbols"><g class="legendpoints"><path class="scatterpts" transform="translate(20,0)" d="M3,0A3,3 0 1,1 0,-3A3,3 0 0,1 3,0Z" style="opacity: 0.7; stroke-width: 0px; fill: rgb(124, 87, 173); fill-opacity: 1;"/></g></g></g><rect class="legendtoggle" x="0" y="-9.5" width="54.359375" height="19" style="fill: rgb(0, 0, 0); fill-opacity: 0;"/></g></g><g class="groups" transform=""><g class="traces" transform="translate(0,184.7)" style="opacity: 1;"><text class="legendtext" text-anchor="start" x="40" y="4.680000000000001" style="font-family: 'Open Sans', verdana, arial, sans-serif; font-size: 12px; fill: rgb(68, 68, 68); fill-opacity: 1; white-space: pre;">v</text><g class="layers" style="opacity: 1;"><g class="legendfill"/><g class="legendlines"/><g class="legendsymbols"><g class="legendpoints"><path class="scatterpts" transform="translate(20,0)" d="M3,0A3,3 0 1,1 0,-3A3,3 0 0,1 3,0Z" style="opacity: 0.7; stroke-width: 0px; fill: rgb(156, 120, 197); fill-opacity: 1;"/></g></g></g><rect class="legendtoggle" x="0" y="-9.5" width="54.359375" height="19" style="fill: rgb(0, 0, 0); fill-opacity: 0;"/></g></g></g><rect class="scrollbar" rx="20" ry="3" width="0" height="0" style="fill: rgb(128, 139, 164); fill-opacity: 1;" x="0" y="0"/></g><g class="g-gtitle"><text class="gtitle" x="350" y="30" text-anchor="middle" dy="0em" style="opacity: 1; font-family: 'Open Sans', verdana, arial, sans-serif; font-size: 17px; fill: rgb(68, 68, 68); fill-opacity: 1; white-space: pre;">TSNE Colored on: Phoneme - Silhouette Score: 0.251 - Patient: S26 - Method: Kumar #Run: 49</text></g><g class="g-xtitle"><text class="xtitle" x="344" y="458" text-anchor="middle" style="opacity: 1; font-family: 'Open Sans', verdana, arial, sans-serif; font-size: 14px; fill: rgb(68, 68, 68); fill-opacity: 1; white-space: pre;">tsne-1</text></g><g class="g-ytitle"><text class="ytitle" transform="rotate(-90,49,240)" x="49" y="240" text-anchor="middle" style="opacity: 1; font-family: 'Open Sans', verdana, arial, sans-serif; font-size: 14px; fill: rgb(68, 68, 68); fill-opacity: 1; white-space: pre;">y</text></g></g></svg>