<svg class="main-svg" xmlns="http://www.w3.org/2000/svg" xmlns:xlink="http://www.w3.org/1999/xlink" width="80mm" height="80mm" style="" viewBox="0 0 302 302"><rect x="0" y="0" width="80mm" height="80mm" style="fill: rgb(255, 255, 255); fill-opacity: 1;"/><defs id="defs-c87305"><g class="clips"><clipPath id="clipc87305xyplot" class="plotclip"><rect width="138" height="162"/></clipPath><clipPath class="axesclip" id="clipc87305x"><rect x="80" y="0" width="138" height="80mm"/></clipPath><clipPath class="axesclip" id="clipc87305y"><rect x="0" y="60" width="80mm" height="162"/></clipPath><clipPath class="axesclip" id="clipc87305xy"><rect x="80" y="60" width="138" height="162"/></clipPath></g><g class="gradients"/><g class="patterns"/></defs><g class="bglayer"/><g class="layer-below"><g class="imagelayer"/><g class="shapelayer"/></g><g class="cartesianlayer"><g class="subplot xy"><g class="layer-subplot"><g class="shapelayer"/><g class="imagelayer"/></g><g class="minor-gridlayer"><g class="x"/><g class="y"/></g><g class="gridlayer"><g class="x"><path class="xgrid crisp" transform="translate(109.42,0)" d="M0,60v162" style="stroke: rgb(238, 238, 238); stroke-opacity: 1; stroke-width: 1px;"/><path class="xgrid crisp" transform="translate(188.82999999999998,0)" d="M0,60v162" style="stroke: rgb(238, 238, 238); stroke-opacity: 1; stroke-width: 1px;"/></g><g class="y"><path class="ygrid crisp" transform="translate(0,180.35)" d="M80,0h138" style="stroke: rgb(238, 238, 238); stroke-opacity: 1; stroke-width: 1px;"/><path class="ygrid crisp" transform="translate(0,87.73)" d="M80,0h138" style="stroke: rgb(238, 238, 238); stroke-opacity: 1; stroke-width: 1px;"/></g></g><g class="zerolinelayer"><path class="xzl zl crisp" transform="translate(149.12,0)" d="M0,60v162" style="stroke: rgb(68, 68, 68); stroke-opacity: 1; stroke-width: 1px;"/><path class="yzl zl crisp" transform="translate(0,134.04000000000002)" d="M80,0h138" style="stroke: rgb(68, 68, 68); stroke-opacity: 1; stroke-width: 1px;"/></g><g class="layer-between"><g class="shapelayer"/><g class="imagelayer"/></g><path class="xlines-below"/><path class="ylines-below"/><g class="overlines-below"/><g class="xaxislayer-below"/><g class="yaxislayer-below"/><g class="overaxes-below"/><g class="overplot"><g class="xy" transform="translate(80,60)" clip-path="url(#clipc87305xyplot)"><g class="scatterlayer mlayer"><g class="trace scatter trace2b5015" style="stroke-miterlimit: 2; opacity: 1;"><g class="fills"/><g class="errorbars"/><g class="lines"/><g class="points"><path class="point" transform="translate(62.05,79.58)" d="M3,0A3,3 0 1,1 0,-3A3,3 0 0,1 3,0Z" style="opacity: 0.7; stroke-width: 0px; fill: rgb(135, 38, 38); fill-opacity: 1;"/><path class="point" transform="translate(50.24,135.16)" d="M3,0A3,3 0 1,1 0,-3A3,3 0 0,1 3,0Z" style="opacity: 0.7; stroke-width: 0px; fill: rgb(135, 38, 38); fill-opacity: 1;"/><path class="point" transform="translate(68.71,62.55)" d="M3,0A3,3 0 1,1 0,-3A3,3 0 0,1 3,0Z" style="opacity: 0.7; stroke-width: 0px; fill: rgb(135, 38, 38); fill-opacity: 1;"/><path class="point" transform="translate(58.22,68.89)" d="M3,0A3,3 0 1,1 0,-3A3,3 0 0,1 3,0Z" style="opacity: 0.7; stroke-width: 0px; fill: rgb(135, 38, 38); fill-opacity: 1;"/><path class="point" transform="translate(56.23,58.13)" d="M3,0A3,3 0 1,1 0,-3A3,3 0 0,1 3,0Z" style="opacity: 0.7; stroke-width: 0px; fill: rgb(135, 38, 38); fill-opacity: 1;"/><path class="point" transform="translate(32.13,43.91)" d="M3,0A3,3 0 1,1 0,-3A3,3 0 0,1 3,0Z" style="opacity: 0.7; stroke-width: 0px; fill: rgb(135, 38, 38); fill-opacity: 1;"/><path class="point" transform="translate(31.68,48.27)" d="M3,0A3,3 0 1,1 0,-3A3,3 0 0,1 3,0Z" style="opacity: 0.7; stroke-width: 0px; fill: rgb(135, 38, 38); fill-opacity: 1;"/><path class="point" transform="translate(65.09,55.32)" d="M3,0A3,3 0 1,1 0,-3A3,3 0 0,1 3,0Z" style="opacity: 0.7; stroke-width: 0px; fill: rgb(135, 38, 38); fill-opacity: 1;"/><path class="point" transform="translate(62.12,11.85)" d="M3,0A3,3 0 1,1 0,-3A3,3 0 0,1 3,0Z" style="opacity: 0.7; stroke-width: 0px; fill: rgb(135, 38, 38); fill-opacity: 1;"/><path class="point" transform="translate(61.8,56.01)" d="M3,0A3,3 0 1,1 0,-3A3,3 0 0,1 3,0Z" style="opacity: 0.7; stroke-width: 0px; fill: rgb(135, 38, 38); fill-opacity: 1;"/><path class="point" transform="translate(50.99,131.41)" d="M3,0A3,3 0 1,1 0,-3A3,3 0 0,1 3,0Z" style="opacity: 0.7; stroke-width: 0px; fill: rgb(135, 38, 38); fill-opacity: 1;"/><path class="point" transform="translate(55.25,87.34)" d="M3,0A3,3 0 1,1 0,-3A3,3 0 0,1 3,0Z" style="opacity: 0.7; stroke-width: 0px; fill: rgb(135, 38, 38); fill-opacity: 1;"/><path class="point" transform="translate(62.01,57.01)" d="M3,0A3,3 0 1,1 0,-3A3,3 0 0,1 3,0Z" style="opacity: 0.7; stroke-width: 0px; fill: rgb(135, 38, 38); fill-opacity: 1;"/><path class="point" transform="translate(58.85,142.75)" d="M3,0A3,3 0 1,1 0,-3A3,3 0 0,1 3,0Z" style="opacity: 0.7; stroke-width: 0px; fill: rgb(135, 38, 38); fill-opacity: 1;"/><path class="point" transform="translate(69.78,102.93)" d="M3,0A3,3 0 1,1 0,-3A3,3 0 0,1 3,0Z" style="opacity: 0.7; stroke-width: 0px; fill: rgb(135, 38, 38); fill-opacity: 1;"/><path class="point" transform="translate(61.63,84.93)" d="M3,0A3,3 0 1,1 0,-3A3,3 0 0,1 3,0Z" style="opacity: 0.7; stroke-width: 0px; fill: rgb(135, 38, 38); fill-opacity: 1;"/><path class="point" transform="translate(57.13,83.63)" d="M3,0A3,3 0 1,1 0,-3A3,3 0 0,1 3,0Z" style="opacity: 0.7; stroke-width: 0px; fill: rgb(135, 38, 38); fill-opacity: 1;"/></g><g class="text"/></g><g class="trace scatter trace88fb63" style="stroke-miterlimit: 2; opacity: 1;"><g class="fills"/><g class="errorbars"/><g class="lines"/><g class="points"><path class="point" transform="translate(61.98,114.78)" d="M3,0A3,3 0 1,1 0,-3A3,3 0 0,1 3,0Z" style="opacity: 0.7; stroke-width: 0px; fill: rgb(172, 55, 55); fill-opacity: 1;"/><path class="point" transform="translate(71.44,115.22)" d="M3,0A3,3 0 1,1 0,-3A3,3 0 0,1 3,0Z" style="opacity: 0.7; stroke-width: 0px; fill: rgb(172, 55, 55); fill-opacity: 1;"/><path class="point" transform="translate(56.89,108.23)" d="M3,0A3,3 0 1,1 0,-3A3,3 0 0,1 3,0Z" style="opacity: 0.7; stroke-width: 0px; fill: rgb(172, 55, 55); fill-opacity: 1;"/><path class="point" transform="translate(65.2,123.24)" d="M3,0A3,3 0 1,1 0,-3A3,3 0 0,1 3,0Z" style="opacity: 0.7; stroke-width: 0px; fill: rgb(172, 55, 55); fill-opacity: 1;"/><path class="point" transform="translate(57.27,105.47)" d="M3,0A3,3 0 1,1 0,-3A3,3 0 0,1 3,0Z" style="opacity: 0.7; stroke-width: 0px; fill: rgb(172, 55, 55); fill-opacity: 1;"/><path class="point" transform="translate(70.39,92.33)" d="M3,0A3,3 0 1,1 0,-3A3,3 0 0,1 3,0Z" style="opacity: 0.7; stroke-width: 0px; fill: rgb(172, 55, 55); fill-opacity: 1;"/><path class="point" transform="translate(66.56,79.07)" d="M3,0A3,3 0 1,1 0,-3A3,3 0 0,1 3,0Z" style="opacity: 0.7; stroke-width: 0px; fill: rgb(172, 55, 55); fill-opacity: 1;"/><path class="point" transform="translate(46.92,99.37)" d="M3,0A3,3 0 1,1 0,-3A3,3 0 0,1 3,0Z" style="opacity: 0.7; stroke-width: 0px; fill: rgb(172, 55, 55); fill-opacity: 1;"/><path class="point" transform="translate(42.8,82.99)" d="M3,0A3,3 0 1,1 0,-3A3,3 0 0,1 3,0Z" style="opacity: 0.7; stroke-width: 0px; fill: rgb(172, 55, 55); fill-opacity: 1;"/><path class="point" transform="translate(37.44,97.39)" d="M3,0A3,3 0 1,1 0,-3A3,3 0 0,1 3,0Z" style="opacity: 0.7; stroke-width: 0px; fill: rgb(172, 55, 55); fill-opacity: 1;"/><path class="point" transform="translate(29.82,56.7)" d="M3,0A3,3 0 1,1 0,-3A3,3 0 0,1 3,0Z" style="opacity: 0.7; stroke-width: 0px; fill: rgb(172, 55, 55); fill-opacity: 1;"/><path class="point" transform="translate(43.38,63.92)" d="M3,0A3,3 0 1,1 0,-3A3,3 0 0,1 3,0Z" style="opacity: 0.7; stroke-width: 0px; fill: rgb(172, 55, 55); fill-opacity: 1;"/><path class="point" transform="translate(36.12,113.03)" d="M3,0A3,3 0 1,1 0,-3A3,3 0 0,1 3,0Z" style="opacity: 0.7; stroke-width: 0px; fill: rgb(172, 55, 55); fill-opacity: 1;"/><path class="point" transform="translate(66.46,79.88)" d="M3,0A3,3 0 1,1 0,-3A3,3 0 0,1 3,0Z" style="opacity: 0.7; stroke-width: 0px; fill: rgb(172, 55, 55); fill-opacity: 1;"/><path class="point" transform="translate(53.85,76.66)" d="M3,0A3,3 0 1,1 0,-3A3,3 0 0,1 3,0Z" style="opacity: 0.7; stroke-width: 0px; fill: rgb(172, 55, 55); fill-opacity: 1;"/><path class="point" transform="translate(60.03,107.74)" d="M3,0A3,3 0 1,1 0,-3A3,3 0 0,1 3,0Z" style="opacity: 0.7; stroke-width: 0px; fill: rgb(172, 55, 55); fill-opacity: 1;"/><path class="point" transform="translate(68.64,87.44)" d="M3,0A3,3 0 1,1 0,-3A3,3 0 0,1 3,0Z" style="opacity: 0.7; stroke-width: 0px; fill: rgb(172, 55, 55); fill-opacity: 1;"/><path class="point" transform="translate(66.17,106.68)" d="M3,0A3,3 0 1,1 0,-3A3,3 0 0,1 3,0Z" style="opacity: 0.7; stroke-width: 0px; fill: rgb(172, 55, 55); fill-opacity: 1;"/><path class="point" transform="translate(71.82,104.16)" d="M3,0A3,3 0 1,1 0,-3A3,3 0 0,1 3,0Z" style="opacity: 0.7; stroke-width: 0px; fill: rgb(172, 55, 55); fill-opacity: 1;"/><path class="point" transform="translate(70.66,111.35)" d="M3,0A3,3 0 1,1 0,-3A3,3 0 0,1 3,0Z" style="opacity: 0.7; stroke-width: 0px; fill: rgb(172, 55, 55); fill-opacity: 1;"/><path class="point" transform="translate(56.32,121.87)" d="M3,0A3,3 0 1,1 0,-3A3,3 0 0,1 3,0Z" style="opacity: 0.7; stroke-width: 0px; fill: rgb(172, 55, 55); fill-opacity: 1;"/><path class="point" transform="translate(76.67,104.61)" d="M3,0A3,3 0 1,1 0,-3A3,3 0 0,1 3,0Z" style="opacity: 0.7; stroke-width: 0px; fill: rgb(172, 55, 55); fill-opacity: 1;"/><path class="point" transform="translate(37.85,140.42)" d="M3,0A3,3 0 1,1 0,-3A3,3 0 0,1 3,0Z" style="opacity: 0.7; stroke-width: 0px; fill: rgb(172, 55, 55); fill-opacity: 1;"/><path class="point" transform="translate(59.08,138.07)" d="M3,0A3,3 0 1,1 0,-3A3,3 0 0,1 3,0Z" style="opacity: 0.7; stroke-width: 0px; fill: rgb(172, 55, 55); fill-opacity: 1;"/></g><g class="text"/></g><g class="trace scatter trace533137" style="stroke-miterlimit: 2; opacity: 1;"><g class="fills"/><g class="errorbars"/><g class="lines"/><g class="points"><path class="point" transform="translate(107.53,127.5)" d="M3,0A3,3 0 1,1 0,-3A3,3 0 0,1 3,0Z" style="opacity: 0.7; stroke-width: 0px; fill: rgb(197, 123, 34); fill-opacity: 1;"/><path class="point" transform="translate(107.2,114.96)" d="M3,0A3,3 0 1,1 0,-3A3,3 0 0,1 3,0Z" style="opacity: 0.7; stroke-width: 0px; fill: rgb(197, 123, 34); fill-opacity: 1;"/><path class="point" transform="translate(110.04,108.21)" d="M3,0A3,3 0 1,1 0,-3A3,3 0 0,1 3,0Z" style="opacity: 0.7; stroke-width: 0px; fill: rgb(197, 123, 34); fill-opacity: 1;"/><path class="point" transform="translate(83.17,96.86)" d="M3,0A3,3 0 1,1 0,-3A3,3 0 0,1 3,0Z" style="opacity: 0.7; stroke-width: 0px; fill: rgb(197, 123, 34); fill-opacity: 1;"/><path class="point" transform="translate(52.12,54.75)" d="M3,0A3,3 0 1,1 0,-3A3,3 0 0,1 3,0Z" style="opacity: 0.7; stroke-width: 0px; fill: rgb(197, 123, 34); fill-opacity: 1;"/><path class="point" transform="translate(42.28,80.87)" d="M3,0A3,3 0 1,1 0,-3A3,3 0 0,1 3,0Z" style="opacity: 0.7; stroke-width: 0px; fill: rgb(197, 123, 34); fill-opacity: 1;"/><path class="point" transform="translate(38.22,69.69)" d="M3,0A3,3 0 1,1 0,-3A3,3 0 0,1 3,0Z" style="opacity: 0.7; stroke-width: 0px; fill: rgb(197, 123, 34); fill-opacity: 1;"/><path class="point" transform="translate(40.18,68.89)" d="M3,0A3,3 0 1,1 0,-3A3,3 0 0,1 3,0Z" style="opacity: 0.7; stroke-width: 0px; fill: rgb(197, 123, 34); fill-opacity: 1;"/><path class="point" transform="translate(30.9,77.61)" d="M3,0A3,3 0 1,1 0,-3A3,3 0 0,1 3,0Z" style="opacity: 0.7; stroke-width: 0px; fill: rgb(197, 123, 34); fill-opacity: 1;"/><path class="point" transform="translate(42.28,80.94)" d="M3,0A3,3 0 1,1 0,-3A3,3 0 0,1 3,0Z" style="opacity: 0.7; stroke-width: 0px; fill: rgb(197, 123, 34); fill-opacity: 1;"/><path class="point" transform="translate(23.98,67.85)" d="M3,0A3,3 0 1,1 0,-3A3,3 0 0,1 3,0Z" style="opacity: 0.7; stroke-width: 0px; fill: rgb(197, 123, 34); fill-opacity: 1;"/><path class="point" transform="translate(50.24,99.45)" d="M3,0A3,3 0 1,1 0,-3A3,3 0 0,1 3,0Z" style="opacity: 0.7; stroke-width: 0px; fill: rgb(197, 123, 34); fill-opacity: 1;"/><path class="point" transform="translate(81.18,111.57)" d="M3,0A3,3 0 1,1 0,-3A3,3 0 0,1 3,0Z" style="opacity: 0.7; stroke-width: 0px; fill: rgb(197, 123, 34); fill-opacity: 1;"/><path class="point" transform="translate(80.08,113.37)" d="M3,0A3,3 0 1,1 0,-3A3,3 0 0,1 3,0Z" style="opacity: 0.7; stroke-width: 0px; fill: rgb(197, 123, 34); fill-opacity: 1;"/><path class="point" transform="translate(69.83,141.77)" d="M3,0A3,3 0 1,1 0,-3A3,3 0 0,1 3,0Z" style="opacity: 0.7; stroke-width: 0px; fill: rgb(197, 123, 34); fill-opacity: 1;"/><path class="point" transform="translate(89.05,114.08)" d="M3,0A3,3 0 1,1 0,-3A3,3 0 0,1 3,0Z" style="opacity: 0.7; stroke-width: 0px; fill: rgb(197, 123, 34); fill-opacity: 1;"/><path class="point" transform="translate(85.73,117.11)" d="M3,0A3,3 0 1,1 0,-3A3,3 0 0,1 3,0Z" style="opacity: 0.7; stroke-width: 0px; fill: rgb(197, 123, 34); fill-opacity: 1;"/><path class="point" transform="translate(97.95,116.73)" d="M3,0A3,3 0 1,1 0,-3A3,3 0 0,1 3,0Z" style="opacity: 0.7; stroke-width: 0px; fill: rgb(197, 123, 34); fill-opacity: 1;"/></g><g class="text"/></g><g class="trace scatter trace283c58" style="stroke-miterlimit: 2; opacity: 1;"><g class="fills"/><g class="errorbars"/><g class="lines"/><g class="points"><path class="point" transform="translate(97.64,101.08)" d="M3,0A3,3 0 1,1 0,-3A3,3 0 0,1 3,0Z" style="opacity: 0.7; stroke-width: 0px; fill: rgb(226, 161, 71); fill-opacity: 1;"/><path class="point" transform="translate(60.67,83.16)" d="M3,0A3,3 0 1,1 0,-3A3,3 0 0,1 3,0Z" style="opacity: 0.7; stroke-width: 0px; fill: rgb(226, 161, 71); fill-opacity: 1;"/><path class="point" transform="translate(69.71,97.17)" d="M3,0A3,3 0 1,1 0,-3A3,3 0 0,1 3,0Z" style="opacity: 0.7; stroke-width: 0px; fill: rgb(226, 161, 71); fill-opacity: 1;"/><path class="point" transform="translate(58.28,114.41)" d="M3,0A3,3 0 1,1 0,-3A3,3 0 0,1 3,0Z" style="opacity: 0.7; stroke-width: 0px; fill: rgb(226, 161, 71); fill-opacity: 1;"/><path class="point" transform="translate(54.07,67.91)" d="M3,0A3,3 0 1,1 0,-3A3,3 0 0,1 3,0Z" style="opacity: 0.7; stroke-width: 0px; fill: rgb(226, 161, 71); fill-opacity: 1;"/><path class="point" transform="translate(49.01,69.88)" d="M3,0A3,3 0 1,1 0,-3A3,3 0 0,1 3,0Z" style="opacity: 0.7; stroke-width: 0px; fill: rgb(226, 161, 71); fill-opacity: 1;"/><path class="point" transform="translate(43.49,49.47)" d="M3,0A3,3 0 1,1 0,-3A3,3 0 0,1 3,0Z" style="opacity: 0.7; stroke-width: 0px; fill: rgb(226, 161, 71); fill-opacity: 1;"/><path class="point" transform="translate(35.7,59.45)" d="M3,0A3,3 0 1,1 0,-3A3,3 0 0,1 3,0Z" style="opacity: 0.7; stroke-width: 0px; fill: rgb(226, 161, 71); fill-opacity: 1;"/><path class="point" transform="translate(35.98,62.82)" d="M3,0A3,3 0 1,1 0,-3A3,3 0 0,1 3,0Z" style="opacity: 0.7; stroke-width: 0px; fill: rgb(226, 161, 71); fill-opacity: 1;"/><path class="point" transform="translate(38.6,58.85)" d="M3,0A3,3 0 1,1 0,-3A3,3 0 0,1 3,0Z" style="opacity: 0.7; stroke-width: 0px; fill: rgb(226, 161, 71); fill-opacity: 1;"/><path class="point" transform="translate(34.97,87.15)" d="M3,0A3,3 0 1,1 0,-3A3,3 0 0,1 3,0Z" style="opacity: 0.7; stroke-width: 0px; fill: rgb(226, 161, 71); fill-opacity: 1;"/><path class="point" transform="translate(58.57,103.7)" d="M3,0A3,3 0 1,1 0,-3A3,3 0 0,1 3,0Z" style="opacity: 0.7; stroke-width: 0px; fill: rgb(226, 161, 71); fill-opacity: 1;"/><path class="point" transform="translate(39.44,77.1)" d="M3,0A3,3 0 1,1 0,-3A3,3 0 0,1 3,0Z" style="opacity: 0.7; stroke-width: 0px; fill: rgb(226, 161, 71); fill-opacity: 1;"/><path class="point" transform="translate(69.07,92.86)" d="M3,0A3,3 0 1,1 0,-3A3,3 0 0,1 3,0Z" style="opacity: 0.7; stroke-width: 0px; fill: rgb(226, 161, 71); fill-opacity: 1;"/><path class="point" transform="translate(49.96,121.41)" d="M3,0A3,3 0 1,1 0,-3A3,3 0 0,1 3,0Z" style="opacity: 0.7; stroke-width: 0px; fill: rgb(226, 161, 71); fill-opacity: 1;"/><path class="point" transform="translate(84.13,113.97)" d="M3,0A3,3 0 1,1 0,-3A3,3 0 0,1 3,0Z" style="opacity: 0.7; stroke-width: 0px; fill: rgb(226, 161, 71); fill-opacity: 1;"/><path class="point" transform="translate(87.12,133.57)" d="M3,0A3,3 0 1,1 0,-3A3,3 0 0,1 3,0Z" style="opacity: 0.7; stroke-width: 0px; fill: rgb(226, 161, 71); fill-opacity: 1;"/><path class="point" transform="translate(73.26,122.95)" d="M3,0A3,3 0 1,1 0,-3A3,3 0 0,1 3,0Z" style="opacity: 0.7; stroke-width: 0px; fill: rgb(226, 161, 71); fill-opacity: 1;"/></g><g class="text"/></g><g class="trace scatter trace7b4ba8" style="stroke-miterlimit: 2; opacity: 1;"><g class="fills"/><g class="errorbars"/><g class="lines"/><g class="points"><path class="point" transform="translate(103.48,50.61)" d="M3,0A3,3 0 1,1 0,-3A3,3 0 0,1 3,0Z" style="opacity: 0.7; stroke-width: 0px; fill: rgb(34, 76, 133); fill-opacity: 1;"/><path class="point" transform="translate(96.33,77.82)" d="M3,0A3,3 0 1,1 0,-3A3,3 0 0,1 3,0Z" style="opacity: 0.7; stroke-width: 0px; fill: rgb(34, 76, 133); fill-opacity: 1;"/><path class="point" transform="translate(90.21,26.19)" d="M3,0A3,3 0 1,1 0,-3A3,3 0 0,1 3,0Z" style="opacity: 0.7; stroke-width: 0px; fill: rgb(34, 76, 133); fill-opacity: 1;"/><path class="point" transform="translate(106.84,71.31)" d="M3,0A3,3 0 1,1 0,-3A3,3 0 0,1 3,0Z" style="opacity: 0.7; stroke-width: 0px; fill: rgb(34, 76, 133); fill-opacity: 1;"/><path class="point" transform="translate(114.79,37.64)" d="M3,0A3,3 0 1,1 0,-3A3,3 0 0,1 3,0Z" style="opacity: 0.7; stroke-width: 0px; fill: rgb(34, 76, 133); fill-opacity: 1;"/><path class="point" transform="translate(57.62,41.18)" d="M3,0A3,3 0 1,1 0,-3A3,3 0 0,1 3,0Z" style="opacity: 0.7; stroke-width: 0px; fill: rgb(34, 76, 133); fill-opacity: 1;"/><path class="point" transform="translate(79.63,31.34)" d="M3,0A3,3 0 1,1 0,-3A3,3 0 0,1 3,0Z" style="opacity: 0.7; stroke-width: 0px; fill: rgb(34, 76, 133); fill-opacity: 1;"/><path class="point" transform="translate(43.76,14.4)" d="M3,0A3,3 0 1,1 0,-3A3,3 0 0,1 3,0Z" style="opacity: 0.7; stroke-width: 0px; fill: rgb(34, 76, 133); fill-opacity: 1;"/><path class="point" transform="translate(77.63,13.95)" d="M3,0A3,3 0 1,1 0,-3A3,3 0 0,1 3,0Z" style="opacity: 0.7; stroke-width: 0px; fill: rgb(34, 76, 133); fill-opacity: 1;"/><path class="point" transform="translate(85.71,38.96)" d="M3,0A3,3 0 1,1 0,-3A3,3 0 0,1 3,0Z" style="opacity: 0.7; stroke-width: 0px; fill: rgb(34, 76, 133); fill-opacity: 1;"/><path class="point" transform="translate(88.12,62.69)" d="M3,0A3,3 0 1,1 0,-3A3,3 0 0,1 3,0Z" style="opacity: 0.7; stroke-width: 0px; fill: rgb(34, 76, 133); fill-opacity: 1;"/><path class="point" transform="translate(88.08,54.23)" d="M3,0A3,3 0 1,1 0,-3A3,3 0 0,1 3,0Z" style="opacity: 0.7; stroke-width: 0px; fill: rgb(34, 76, 133); fill-opacity: 1;"/><path class="point" transform="translate(78.63,71.57)" d="M3,0A3,3 0 1,1 0,-3A3,3 0 0,1 3,0Z" style="opacity: 0.7; stroke-width: 0px; fill: rgb(34, 76, 133); fill-opacity: 1;"/><path class="point" transform="translate(89.62,46.44)" d="M3,0A3,3 0 1,1 0,-3A3,3 0 0,1 3,0Z" style="opacity: 0.7; stroke-width: 0px; fill: rgb(34, 76, 133); fill-opacity: 1;"/><path class="point" transform="translate(90.74,66.06)" d="M3,0A3,3 0 1,1 0,-3A3,3 0 0,1 3,0Z" style="opacity: 0.7; stroke-width: 0px; fill: rgb(34, 76, 133); fill-opacity: 1;"/><path class="point" transform="translate(90.22,84.58)" d="M3,0A3,3 0 1,1 0,-3A3,3 0 0,1 3,0Z" style="opacity: 0.7; stroke-width: 0px; fill: rgb(34, 76, 133); fill-opacity: 1;"/><path class="point" transform="translate(122.57,78.55)" d="M3,0A3,3 0 1,1 0,-3A3,3 0 0,1 3,0Z" style="opacity: 0.7; stroke-width: 0px; fill: rgb(34, 76, 133); fill-opacity: 1;"/><path class="point" transform="translate(112.04,62.6)" d="M3,0A3,3 0 1,1 0,-3A3,3 0 0,1 3,0Z" style="opacity: 0.7; stroke-width: 0px; fill: rgb(34, 76, 133); fill-opacity: 1;"/><path class="point" transform="translate(93.86,76.4)" d="M3,0A3,3 0 1,1 0,-3A3,3 0 0,1 3,0Z" style="opacity: 0.7; stroke-width: 0px; fill: rgb(34, 76, 133); fill-opacity: 1;"/><path class="point" transform="translate(97.73,56.79)" d="M3,0A3,3 0 1,1 0,-3A3,3 0 0,1 3,0Z" style="opacity: 0.7; stroke-width: 0px; fill: rgb(34, 76, 133); fill-opacity: 1;"/><path class="point" transform="translate(102.66,106.4)" d="M3,0A3,3 0 1,1 0,-3A3,3 0 0,1 3,0Z" style="opacity: 0.7; stroke-width: 0px; fill: rgb(34, 76, 133); fill-opacity: 1;"/><path class="point" transform="translate(108.97,47.16)" d="M3,0A3,3 0 1,1 0,-3A3,3 0 0,1 3,0Z" style="opacity: 0.7; stroke-width: 0px; fill: rgb(34, 76, 133); fill-opacity: 1;"/><path class="point" transform="translate(122.01,54.86)" d="M3,0A3,3 0 1,1 0,-3A3,3 0 0,1 3,0Z" style="opacity: 0.7; stroke-width: 0px; fill: rgb(34, 76, 133); fill-opacity: 1;"/></g><g class="text"/></g><g class="trace scatter tracedc76bf" style="stroke-miterlimit: 2; opacity: 1;"><g class="fills"/><g class="errorbars"/><g class="lines"/><g class="points"><path class="point" transform="translate(127.35,107.82)" d="M3,0A3,3 0 1,1 0,-3A3,3 0 0,1 3,0Z" style="opacity: 0.7; stroke-width: 0px; fill: rgb(60, 110, 185); fill-opacity: 1;"/><path class="point" transform="translate(19.49,57.16)" d="M3,0A3,3 0 1,1 0,-3A3,3 0 0,1 3,0Z" style="opacity: 0.7; stroke-width: 0px; fill: rgb(60, 110, 185); fill-opacity: 1;"/><path class="point" transform="translate(22.25,48.24)" d="M3,0A3,3 0 1,1 0,-3A3,3 0 0,1 3,0Z" style="opacity: 0.7; stroke-width: 0px; fill: rgb(60, 110, 185); fill-opacity: 1;"/><path class="point" transform="translate(41.81,54.61)" d="M3,0A3,3 0 1,1 0,-3A3,3 0 0,1 3,0Z" style="opacity: 0.7; stroke-width: 0px; fill: rgb(60, 110, 185); fill-opacity: 1;"/><path class="point" transform="translate(37.26,54.87)" d="M3,0A3,3 0 1,1 0,-3A3,3 0 0,1 3,0Z" style="opacity: 0.7; stroke-width: 0px; fill: rgb(60, 110, 185); fill-opacity: 1;"/><path class="point" transform="translate(65.34,24.81)" d="M3,0A3,3 0 1,1 0,-3A3,3 0 0,1 3,0Z" style="opacity: 0.7; stroke-width: 0px; fill: rgb(60, 110, 185); fill-opacity: 1;"/><path class="point" transform="translate(21.05,93.58)" d="M3,0A3,3 0 1,1 0,-3A3,3 0 0,1 3,0Z" style="opacity: 0.7; stroke-width: 0px; fill: rgb(60, 110, 185); fill-opacity: 1;"/><path class="point" transform="translate(100.47,53.45)" d="M3,0A3,3 0 1,1 0,-3A3,3 0 0,1 3,0Z" style="opacity: 0.7; stroke-width: 0px; fill: rgb(60, 110, 185); fill-opacity: 1;"/><path class="point" transform="translate(120.15,121.36)" d="M3,0A3,3 0 1,1 0,-3A3,3 0 0,1 3,0Z" style="opacity: 0.7; stroke-width: 0px; fill: rgb(60, 110, 185); fill-opacity: 1;"/><path class="point" transform="translate(106.35,59.21)" d="M3,0A3,3 0 1,1 0,-3A3,3 0 0,1 3,0Z" style="opacity: 0.7; stroke-width: 0px; fill: rgb(60, 110, 185); fill-opacity: 1;"/></g><g class="text"/></g><g class="trace scatter trace5e70ff" style="stroke-miterlimit: 2; opacity: 1;"><g class="fills"/><g class="errorbars"/><g class="lines"/><g class="points"><path class="point" transform="translate(109.14,84.82)" d="M3,0A3,3 0 1,1 0,-3A3,3 0 0,1 3,0Z" style="opacity: 0.7; stroke-width: 0px; fill: rgb(93, 60, 136); fill-opacity: 1;"/><path class="point" transform="translate(16.68,119.17)" d="M3,0A3,3 0 1,1 0,-3A3,3 0 0,1 3,0Z" style="opacity: 0.7; stroke-width: 0px; fill: rgb(93, 60, 136); fill-opacity: 1;"/><path class="point" transform="translate(18.26,54.13)" d="M3,0A3,3 0 1,1 0,-3A3,3 0 0,1 3,0Z" style="opacity: 0.7; stroke-width: 0px; fill: rgb(93, 60, 136); fill-opacity: 1;"/><path class="point" transform="translate(10.65,47.63)" d="M3,0A3,3 0 1,1 0,-3A3,3 0 0,1 3,0Z" style="opacity: 0.7; stroke-width: 0px; fill: rgb(93, 60, 136); fill-opacity: 1;"/><path class="point" transform="translate(33.52,67.17)" d="M3,0A3,3 0 1,1 0,-3A3,3 0 0,1 3,0Z" style="opacity: 0.7; stroke-width: 0px; fill: rgb(93, 60, 136); fill-opacity: 1;"/><path class="point" transform="translate(32.07,21.83)" d="M3,0A3,3 0 1,1 0,-3A3,3 0 0,1 3,0Z" style="opacity: 0.7; stroke-width: 0px; fill: rgb(93, 60, 136); fill-opacity: 1;"/><path class="point" transform="translate(19.55,72.75)" d="M3,0A3,3 0 1,1 0,-3A3,3 0 0,1 3,0Z" style="opacity: 0.7; stroke-width: 0px; fill: rgb(93, 60, 136); fill-opacity: 1;"/><path class="point" transform="translate(85.03,94.41)" d="M3,0A3,3 0 1,1 0,-3A3,3 0 0,1 3,0Z" style="opacity: 0.7; stroke-width: 0px; fill: rgb(93, 60, 136); fill-opacity: 1;"/><path class="point" transform="translate(93.14,129.74)" d="M3,0A3,3 0 1,1 0,-3A3,3 0 0,1 3,0Z" style="opacity: 0.7; stroke-width: 0px; fill: rgb(93, 60, 136); fill-opacity: 1;"/><path class="point" transform="translate(120.71,87.55)" d="M3,0A3,3 0 1,1 0,-3A3,3 0 0,1 3,0Z" style="opacity: 0.7; stroke-width: 0px; fill: rgb(93, 60, 136); fill-opacity: 1;"/><path class="point" transform="translate(89.42,88.47)" d="M3,0A3,3 0 1,1 0,-3A3,3 0 0,1 3,0Z" style="opacity: 0.7; stroke-width: 0px; fill: rgb(93, 60, 136); fill-opacity: 1;"/></g><g class="text"/></g><g class="trace scatter tracea31440" style="stroke-miterlimit: 2; opacity: 1;"><g class="fills"/><g class="errorbars"/><g class="lines"/><g class="points"><path class="point" transform="translate(82.56,48.57)" d="M3,0A3,3 0 1,1 0,-3A3,3 0 0,1 3,0Z" style="opacity: 0.7; stroke-width: 0px; fill: rgb(124, 87, 173); fill-opacity: 1;"/><path class="point" transform="translate(19.63,53.58)" d="M3,0A3,3 0 1,1 0,-3A3,3 0 0,1 3,0Z" style="opacity: 0.7; stroke-width: 0px; fill: rgb(124, 87, 173); fill-opacity: 1;"/><path class="point" transform="translate(71.92,74.51)" d="M3,0A3,3 0 1,1 0,-3A3,3 0 0,1 3,0Z" style="opacity: 0.7; stroke-width: 0px; fill: rgb(124, 87, 173); fill-opacity: 1;"/><path class="point" transform="translate(50.09,31.32)" d="M3,0A3,3 0 1,1 0,-3A3,3 0 0,1 3,0Z" style="opacity: 0.7; stroke-width: 0px; fill: rgb(124, 87, 173); fill-opacity: 1;"/><path class="point" transform="translate(16.16,72.84)" d="M3,0A3,3 0 1,1 0,-3A3,3 0 0,1 3,0Z" style="opacity: 0.7; stroke-width: 0px; fill: rgb(124, 87, 173); fill-opacity: 1;"/><path class="point" transform="translate(75.44,30.41)" d="M3,0A3,3 0 1,1 0,-3A3,3 0 0,1 3,0Z" style="opacity: 0.7; stroke-width: 0px; fill: rgb(124, 87, 173); fill-opacity: 1;"/><path class="point" transform="translate(26.89,45.76)" d="M3,0A3,3 0 1,1 0,-3A3,3 0 0,1 3,0Z" style="opacity: 0.7; stroke-width: 0px; fill: rgb(124, 87, 173); fill-opacity: 1;"/><path class="point" transform="translate(36.57,27.13)" d="M3,0A3,3 0 1,1 0,-3A3,3 0 0,1 3,0Z" style="opacity: 0.7; stroke-width: 0px; fill: rgb(124, 87, 173); fill-opacity: 1;"/><path class="point" transform="translate(31.69,106.72)" d="M3,0A3,3 0 1,1 0,-3A3,3 0 0,1 3,0Z" style="opacity: 0.7; stroke-width: 0px; fill: rgb(124, 87, 173); fill-opacity: 1;"/><path class="point" transform="translate(77.43,64.31)" d="M3,0A3,3 0 1,1 0,-3A3,3 0 0,1 3,0Z" style="opacity: 0.7; stroke-width: 0px; fill: rgb(124, 87, 173); fill-opacity: 1;"/><path class="point" transform="translate(108.33,79.69)" d="M3,0A3,3 0 1,1 0,-3A3,3 0 0,1 3,0Z" style="opacity: 0.7; stroke-width: 0px; fill: rgb(124, 87, 173); fill-opacity: 1;"/><path class="point" transform="translate(71.23,139.98)" d="M3,0A3,3 0 1,1 0,-3A3,3 0 0,1 3,0Z" style="opacity: 0.7; stroke-width: 0px; fill: rgb(124, 87, 173); fill-opacity: 1;"/><path class="point" transform="translate(76.55,87.49)" d="M3,0A3,3 0 1,1 0,-3A3,3 0 0,1 3,0Z" style="opacity: 0.7; stroke-width: 0px; fill: rgb(124, 87, 173); fill-opacity: 1;"/><path class="point" transform="translate(13.34,82.83)" d="M3,0A3,3 0 1,1 0,-3A3,3 0 0,1 3,0Z" style="opacity: 0.7; stroke-width: 0px; fill: rgb(124, 87, 173); fill-opacity: 1;"/><path class="point" transform="translate(15.63,89.1)" d="M3,0A3,3 0 1,1 0,-3A3,3 0 0,1 3,0Z" style="opacity: 0.7; stroke-width: 0px; fill: rgb(124, 87, 173); fill-opacity: 1;"/></g><g class="text"/></g><g class="trace scatter tracec3a73b" style="stroke-miterlimit: 2; opacity: 1;"><g class="fills"/><g class="errorbars"/><g class="lines"/><g class="points"><path class="point" transform="translate(111.56,101.64)" d="M3,0A3,3 0 1,1 0,-3A3,3 0 0,1 3,0Z" style="opacity: 0.7; stroke-width: 0px; fill: rgb(156, 120, 197); fill-opacity: 1;"/><path class="point" transform="translate(100.55,150.15)" d="M3,0A3,3 0 1,1 0,-3A3,3 0 0,1 3,0Z" style="opacity: 0.7; stroke-width: 0px; fill: rgb(156, 120, 197); fill-opacity: 1;"/><path class="point" transform="translate(83.37,144.44)" d="M3,0A3,3 0 1,1 0,-3A3,3 0 0,1 3,0Z" style="opacity: 0.7; stroke-width: 0px; fill: rgb(156, 120, 197); fill-opacity: 1;"/><path class="point" transform="translate(76.16,57.9)" d="M3,0A3,3 0 1,1 0,-3A3,3 0 0,1 3,0Z" style="opacity: 0.7; stroke-width: 0px; fill: rgb(156, 120, 197); fill-opacity: 1;"/><path class="point" transform="translate(55.53,39.03)" d="M3,0A3,3 0 1,1 0,-3A3,3 0 0,1 3,0Z" style="opacity: 0.7; stroke-width: 0px; fill: rgb(156, 120, 197); fill-opacity: 1;"/><path class="point" transform="translate(35.37,40.63)" d="M3,0A3,3 0 1,1 0,-3A3,3 0 0,1 3,0Z" style="opacity: 0.7; stroke-width: 0px; fill: rgb(156, 120, 197); fill-opacity: 1;"/><path class="point" transform="translate(70.15,36.28)" d="M3,0A3,3 0 1,1 0,-3A3,3 0 0,1 3,0Z" style="opacity: 0.7; stroke-width: 0px; fill: rgb(156, 120, 197); fill-opacity: 1;"/><path class="point" transform="translate(35.15,57.38)" d="M3,0A3,3 0 1,1 0,-3A3,3 0 0,1 3,0Z" style="opacity: 0.7; stroke-width: 0px; fill: rgb(156, 120, 197); fill-opacity: 1;"/><path class="point" transform="translate(84.09,82.52)" d="M3,0A3,3 0 1,1 0,-3A3,3 0 0,1 3,0Z" style="opacity: 0.7; stroke-width: 0px; fill: rgb(156, 120, 197); fill-opacity: 1;"/><path class="point" transform="translate(74.3,79.49)" d="M3,0A3,3 0 1,1 0,-3A3,3 0 0,1 3,0Z" style="opacity: 0.7; stroke-width: 0px; fill: rgb(156, 120, 197); fill-opacity: 1;"/><path class="point" transform="translate(99.71,91.62)" d="M3,0A3,3 0 1,1 0,-3A3,3 0 0,1 3,0Z" style="opacity: 0.7; stroke-width: 0px; fill: rgb(156, 120, 197); fill-opacity: 1;"/><path class="point" transform="translate(28.66,122.28)" d="M3,0A3,3 0 1,1 0,-3A3,3 0 0,1 3,0Z" style="opacity: 0.7; stroke-width: 0px; fill: rgb(156, 120, 197); fill-opacity: 1;"/><path class="point" transform="translate(99.63,146.71)" d="M3,0A3,3 0 1,1 0,-3A3,3 0 0,1 3,0Z" style="opacity: 0.7; stroke-width: 0px; fill: rgb(156, 120, 197); fill-opacity: 1;"/></g><g class="text"/></g></g></g></g><g class="zerolinelayer-above"/><path class="xlines-above crisp" d="M79,222.5H218" style="fill: none; stroke-width: 1px; stroke: rgb(0, 0, 0); stroke-opacity: 1;"/><path class="ylines-above crisp" d="M79.5,60V222" style="fill: none; stroke-width: 1px; stroke: rgb(0, 0, 0); stroke-opacity: 1;"/><g class="overlines-above"/><g class="xaxislayer-above"/><g class="yaxislayer-above"/><g class="overaxes-above"/></g></g><g class="polarlayer"/><g class="smithlayer"/><g class="ternarylayer"/><g class="geolayer"/><g class="funnelarealayer"/><g class="pielayer"/><g class="iciclelayer"/><g class="treemaplayer"/><g class="sunburstlayer"/><g class="glimages"/><defs id="topdefs-c87305"><g class="clips"/><clipPath id="legendc87305"><rect width="69" height="162" x="0" y="0"/></clipPath></defs><g class="layer-above"><g class="imagelayer"/><g class="shapelayer"/></g><g class="infolayer"><g class="legend" pointer-events="all" transform="translate(220.76,60)"><rect class="bg" shape-rendering="crispEdges" style="stroke: rgb(68, 68, 68); stroke-opacity: 1; fill: rgb(255, 255, 255); fill-opacity: 1; stroke-width: 0px;" width="69" height="162" x="0" y="0"/><g class="scrollbox" transform="" clip-path="url(#legendc87305)"><text class="legendtitletext" text-anchor="start" x="2" y="18.2" style="font-family: 'Open Sans', verdana, arial, sans-serif; font-size: 14px; fill: rgb(68, 68, 68); fill-opacity: 1; white-space: pre;">Phoneme</text><g class="groups" transform=""><g class="traces" transform="translate(0,32.7)" style="opacity: 1;"><text class="legendtext" text-anchor="start" x="40" y="4.680000000000001" style="font-family: 'Open Sans', verdana, arial, sans-serif; font-size: 12px; fill: rgb(68, 68, 68); fill-opacity: 1; white-space: pre;">i</text><g class="layers" style="opacity: 1;"><g class="legendfill"/><g class="legendlines"/><g class="legendsymbols"><g class="legendpoints"><path class="scatterpts" transform="translate(20,0)" d="M3,0A3,3 0 1,1 0,-3A3,3 0 0,1 3,0Z" style="opacity: 0.7; stroke-width: 0px; fill: rgb(135, 38, 38); fill-opacity: 1;"/></g></g></g><rect class="legendtoggle" x="0" y="-9.5" width="54.359375" height="19" style="fill: rgb(0, 0, 0); fill-opacity: 0;"/></g></g><g class="groups" transform=""><g class="traces" transform="translate(0,51.7)" style="opacity: 1;"><text class="legendtext" text-anchor="start" x="40" y="4.680000000000001" style="font-family: 'Open Sans', verdana, arial, sans-serif; font-size: 12px; fill: rgb(68, 68, 68); fill-opacity: 1; white-space: pre;">u</text><g class="layers" style="opacity: 1;"><g class="legendfill"/><g class="legendlines"/><g class="legendsymbols"><g class="legendpoints"><path class="scatterpts" transform="translate(20,0)" d="M3,0A3,3 0 1,1 0,-3A3,3 0 0,1 3,0Z" style="opacity: 0.7; stroke-width: 0px; fill: rgb(172, 55, 55); fill-opacity: 1;"/></g></g></g><rect class="legendtoggle" x="0" y="-9.5" width="54.359375" height="19" style="fill: rgb(0, 0, 0); fill-opacity: 0;"/></g></g><g class="groups" transform=""><g class="traces" transform="translate(0,70.7)" style="opacity: 1;"><text class="legendtext" text-anchor="start" x="40" y="4.680000000000001" style="font-family: 'Open Sans', verdana, arial, sans-serif; font-size: 12px; fill: rgb(68, 68, 68); fill-opacity: 1; white-space: pre;">a</text><g class="layers" style="opacity: 1;"><g class="legendfill"/><g class="legendlines"/><g class="legendsymbols"><g class="legendpoints"><path class="scatterpts" transform="translate(20,0)" d="M3,0A3,3 0 1,1 0,-3A3,3 0 0,1 3,0Z" style="opacity: 0.7; stroke-width: 0px; fill: rgb(197, 123, 34); fill-opacity: 1;"/></g></g></g><rect class="legendtoggle" x="0" y="-9.5" width="54.359375" height="19" style="fill: rgb(0, 0, 0); fill-opacity: 0;"/></g></g><g class="groups" transform=""><g class="traces" transform="translate(0,89.7)" style="opacity: 1;"><text class="legendtext" text-anchor="start" x="40" y="4.680000000000001" style="font-family: 'Open Sans', verdana, arial, sans-serif; font-size: 12px; fill: rgb(68, 68, 68); fill-opacity: 1; white-space: pre;">ae</text><g class="layers" style="opacity: 1;"><g class="legendfill"/><g class="legendlines"/><g class="legendsymbols"><g class="legendpoints"><path class="scatterpts" transform="translate(20,0)" d="M3,0A3,3 0 1,1 0,-3A3,3 0 0,1 3,0Z" style="opacity: 0.7; stroke-width: 0px; fill: rgb(226, 161, 71); fill-opacity: 1;"/></g></g></g><rect class="legendtoggle" x="0" y="-9.5" width="54.359375" height="19" style="fill: rgb(0, 0, 0); fill-opacity: 0;"/></g></g><g class="groups" transform=""><g class="traces" transform="translate(0,108.7)" style="opacity: 1;"><text class="legendtext" text-anchor="start" x="40" y="4.680000000000001" style="font-family: 'Open Sans', verdana, arial, sans-serif; font-size: 12px; fill: rgb(68, 68, 68); fill-opacity: 1; white-space: pre;">g</text><g class="layers" style="opacity: 1;"><g class="legendfill"/><g class="legendlines"/><g class="legendsymbols"><g class="legendpoints"><path class="scatterpts" transform="translate(20,0)" d="M3,0A3,3 0 1,1 0,-3A3,3 0 0,1 3,0Z" style="opacity: 0.7; stroke-width: 0px; fill: rgb(34, 76, 133); fill-opacity: 1;"/></g></g></g><rect class="legendtoggle" x="0" y="-9.5" width="54.359375" height="19" style="fill: rgb(0, 0, 0); fill-opacity: 0;"/></g></g><g class="groups" transform=""><g class="traces" transform="translate(0,127.7)" style="opacity: 1;"><text class="legendtext" text-anchor="start" x="40" y="4.680000000000001" style="font-family: 'Open Sans', verdana, arial, sans-serif; font-size: 12px; fill: rgb(68, 68, 68); fill-opacity: 1; white-space: pre;">k</text><g class="layers" style="opacity: 1;"><g class="legendfill"/><g class="legendlines"/><g class="legendsymbols"><g class="legendpoints"><path class="scatterpts" transform="translate(20,0)" d="M3,0A3,3 0 1,1 0,-3A3,3 0 0,1 3,0Z" style="opacity: 0.7; stroke-width: 0px; fill: rgb(60, 110, 185); fill-opacity: 1;"/></g></g></g><rect class="legendtoggle" x="0" y="-9.5" width="54.359375" height="19" style="fill: rgb(0, 0, 0); fill-opacity: 0;"/></g></g><g class="groups" transform=""><g class="traces" transform="translate(0,146.7)" style="opacity: 1;"><text class="legendtext" text-anchor="start" x="40" y="4.680000000000001" style="font-family: 'Open Sans', verdana, arial, sans-serif; font-size: 12px; fill: rgb(68, 68, 68); fill-opacity: 1; white-space: pre;">b</text><g class="layers" style="opacity: 1;"><g class="legendfill"/><g class="legendlines"/><g class="legendsymbols"><g class="legendpoints"><path class="scatterpts" transform="translate(20,0)" d="M3,0A3,3 0 1,1 0,-3A3,3 0 0,1 3,0Z" style="opacity: 0.7; stroke-width: 0px; fill: rgb(93, 60, 136); fill-opacity: 1;"/></g></g></g><rect class="legendtoggle" x="0" y="-9.5" width="54.359375" height="19" style="fill: rgb(0, 0, 0); fill-opacity: 0;"/></g></g><g class="groups" transform=""><g class="traces" transform="translate(0,165.7)" style="opacity: 1;"><text class="legendtext" text-anchor="start" x="40" y="4.680000000000001" style="font-family: 'Open Sans', verdana, arial, sans-serif; font-size: 12px; fill: rgb(68, 68, 68); fill-opacity: 1; white-space: pre;">p</text><g class="layers" style="opacity: 1;"><g class="legendfill"/><g class="legendlines"/><g class="legendsymbols"><g class="legendpoints"><path class="scatterpts" transform="translate(20,0)" d="M3,0A3,3 0 1,1 0,-3A3,3 0 0,1 3,0Z" style="opacity: 0.7; stroke-width: 0px; fill: rgb(124, 87, 173); fill-opacity: 1;"/></g></g></g><rect class="legendtoggle" x="0" y="-9.5" width="54.359375" height="19" style="fill: rgb(0, 0, 0); fill-opacity: 0;"/></g></g><g class="groups" transform=""><g class="traces" transform="translate(0,184.7)" style="opacity: 1;"><text class="legendtext" text-anchor="start" x="40" y="4.680000000000001" style="font-family: 'Open Sans', verdana, arial, sans-serif; font-size: 12px; fill: rgb(68, 68, 68); fill-opacity: 1; white-space: pre;">v</text><g class="layers" style="opacity: 1;"><g class="legendfill"/><g class="legendlines"/><g class="legendsymbols"><g class="legendpoints"><path class="scatterpts" transform="translate(20,0)" d="M3,0A3,3 0 1,1 0,-3A3,3 0 0,1 3,0Z" style="opacity: 0.7; stroke-width: 0px; fill: rgb(156, 120, 197); fill-opacity: 1;"/></g></g></g><rect class="legendtoggle" x="0" y="-9.5" width="54.359375" height="19" style="fill: rgb(0, 0, 0); fill-opacity: 0;"/></g></g></g><rect class="scrollbar" rx="20" ry="3" width="0" height="0" style="fill: rgb(128, 139, 164); fill-opacity: 1;" x="0" y="0"/></g><g class="g-gtitle"><text class="gtitle" x="151" y="30" text-anchor="middle" dy="0em" style="opacity: 1; font-family: 'Open Sans', verdana, arial, sans-serif; font-size: 17px; fill: rgb(68, 68, 68); fill-opacity: 1; white-space: pre;">TSNE Colored on: Phoneme - Silhouette Score: 0.262 - Patient: S26 - Method: MFA #Run: 22</text></g><g class="g-xtitle"><text class="xtitle" x="149" y="260" text-anchor="middle" style="opacity: 1; font-family: 'Open Sans', verdana, arial, sans-serif; font-size: 14px; fill: rgb(68, 68, 68); fill-opacity: 1; white-space: pre;">tsne-1</text></g><g class="g-ytitle"><text class="ytitle" transform="rotate(-90,49,141)" x="49" y="141" text-anchor="middle" style="opacity: 1; font-family: 'Open Sans', verdana, arial, sans-serif; font-size: 14px; fill: rgb(68, 68, 68); fill-opacity: 1; white-space: pre;">y</text></g></g></svg>