<svg class="main-svg" xmlns="http://www.w3.org/2000/svg" xmlns:xlink="http://www.w3.org/1999/xlink" width="80mm" height="30mm" style="" viewBox="0 0 302 113"><rect x="0" y="0" width="80mm" height="30mm" style="fill: rgb(255, 255, 255); fill-opacity: 1;"/><defs id="defs-0e1c17"><g class="clips"><clipPath id="clip0e1c17xyplot" class="plotclip"><rect width="142" height="2"/></clipPath><clipPath class="axesclip" id="clip0e1c17x"><rect x="80" y="0" width="142" height="30mm"/></clipPath><clipPath class="axesclip" id="clip0e1c17y"><rect x="0" y="59" width="80mm" height="2"/></clipPath><clipPath class="axesclip" id="clip0e1c17xy"><rect x="80" y="59" width="142" height="2"/></clipPath></g><g class="gradients"/><g class="patterns"/></defs><g class="bglayer"><rect class="bg" x="80" y="59" width="142" height="2" style="fill: rgb(229, 236, 246); fill-opacity: 1; stroke-width: 0;"/></g><g class="layer-below"><g class="imagelayer"/><g class="shapelayer"/></g><g class="cartesianlayer"><g class="subplot xy"><g class="layer-subplot"><g class="shapelayer"/><g class="imagelayer"/></g><g class="minor-gridlayer"><g class="x"/><g class="y"/></g><g class="gridlayer"><g class="x"><path class="xgrid crisp" transform="translate(114.08,0)" d="M0,59v2" style="stroke: rgb(255, 255, 255); stroke-opacity: 1; stroke-width: 1px;"/></g><g class="y"/></g><g class="zerolinelayer"><path class="xzl zl crisp" transform="translate(170.88,0)" d="M0,59v2" style="stroke: rgb(255, 255, 255); stroke-opacity: 1; stroke-width: 2px;"/></g><g class="layer-between"><g class="shapelayer"/><g class="imagelayer"/></g><path class="xlines-below"/><path class="ylines-below"/><g class="overlines-below"/><g class="xaxislayer-below"/><g class="yaxislayer-below"/><g class="overaxes-below"/><g class="overplot"><g class="xy" transform="translate(80,59)" clip-path="url(#clip0e1c17xyplot)"><g class="scatterlayer mlayer"><g class="trace scatter tracea6303d" style="stroke-miterlimit: 2; opacity: 1;"><g class="fills"/><g class="errorbars"/><g class="lines"><path class="js-line" d="M0,1.02L10.54,1.23L10.8,1.16L14.49,1.21L14.75,1.23L22.39,1.46L22.66,1.44L31.88,1.42L32.14,1.47L37.94,1.67L38.2,1.64L49.53,1.51L49.79,1.51L74.56,1.68L74.82,1.66L86.68,0.61L86.94,0.52L90.63,0.23L90.89,0.33L93.79,0.99L94.05,0.98L123.82,1.7L124.09,1.73L133.31,1.69L133.57,1.66L142,1.44" style="vector-effect: none; fill: none; stroke: rgb(99, 110, 250); stroke-opacity: 1; stroke-width: 2px; opacity: 1;"/></g><g class="points"/><g class="text"/></g></g></g></g><g class="zerolinelayer-above"/><path class="xlines-above crisp" d="M79,61.5H222" style="fill: none; stroke-width: 1px; stroke: rgb(0, 0, 0); stroke-opacity: 1;"/><path class="ylines-above crisp" d="M79.5,59V61" style="fill: none; stroke-width: 1px; stroke: rgb(0, 0, 0); stroke-opacity: 1;"/><g class="overlines-above"/><g class="xaxislayer-above"><path class="xtick ticks crisp" d="M0,62v5" transform="translate(114.08,0)" style="stroke: rgb(68, 68, 68); stroke-opacity: 1; stroke-width: 1px;"/><path class="xtick ticks crisp" d="M0,62v5" transform="translate(170.88,0)" style="stroke: rgb(68, 68, 68); stroke-opacity: 1; stroke-width: 1px;"/><g class="xtick"><text text-anchor="middle" x="0" y="79" transform="translate(114.08,0)" style="font-family: Arial; font-size: 10px; fill: rgb(42, 63, 95); fill-opacity: 1; white-space: pre;">−1</text></g><g class="xtick"><text text-anchor="middle" x="0" y="79" style="font-family: Arial; font-size: 10px; fill: rgb(42, 63, 95); fill-opacity: 1; white-space: pre;" transform="translate(170.88,0)">0</text></g></g><g class="yaxislayer-above"><path class="ytick ticks crisp" d="M79,0h-5" transform="translate(0,60.47)" style="stroke: rgb(68, 68, 68); stroke-opacity: 1; stroke-width: 1px;"/><path class="ytick ticks crisp" d="M79,0h-5" transform="translate(0,59.71)" style="stroke: rgb(68, 68, 68); stroke-opacity: 1; stroke-width: 1px;"/><g class="ytick"><text text-anchor="end" x="72" y="3.5" transform="translate(0,60.47)" style="font-family: Arial; font-size: 10px; fill: rgb(42, 63, 95); fill-opacity: 1; white-space: pre;">0</text></g><g class="ytick"><text text-anchor="end" x="72" y="3.5" style="font-family: Arial; font-size: 10px; fill: rgb(42, 63, 95); fill-opacity: 1; white-space: pre;" transform="translate(0,59.71)">2</text></g></g><g class="overaxes-above"/></g></g><g class="polarlayer"/><g class="smithlayer"/><g class="ternarylayer"/><g class="geolayer"/><g class="funnelarealayer"/><g class="pielayer"/><g class="iciclelayer"/><g class="treemaplayer"/><g class="sunburstlayer"/><g class="glimages"/><defs id="topdefs-0e1c17"><g class="clips"/></defs><g class="layer-above"><g class="imagelayer"/><g class="shapelayer"/></g><g class="infolayer"><g class="g-gtitle"><text class="gtitle" x="15.100000000000001" y="29.5" text-anchor="start" dy="0em" style="opacity: 1; font-family: Arial; font-size: 14px; fill: rgb(42, 63, 95); fill-opacity: 1; white-space: pre;">HG Response in trial 39</text></g><g class="g-xtitle"><text class="xtitle" x="151" y="103.9" text-anchor="middle" style="opacity: 1; font-family: Arial; font-size: 12px; fill: rgb(42, 63, 95); fill-opacity: 1; white-space: pre;">Time [ms]</text></g><g class="g-ytitle"><text class="ytitle" transform="rotate(-90,47.7375,60)" x="47.7375" y="60" text-anchor="middle" style="opacity: 1; font-family: Arial; font-size: 12px; fill: rgb(42, 63, 95); fill-opacity: 1; white-space: pre;">HG Power</text></g></g></svg>