<svg class="main-svg" xmlns="http://www.w3.org/2000/svg" xmlns:xlink="http://www.w3.org/1999/xlink" width="2529" height="690" style="" viewBox="0 0 843 230"><rect x="0" y="0" width="843" height="230" style="fill: rgb(255, 255, 255); fill-opacity: 1;"/><defs id="defs-3debd6"><g class="clips"><clipPath id="clip3debd6xyplot" class="plotclip"><rect width="683" height="50"/></clipPath><clipPath class="axesclip" id="clip3debd6x"><rect x="80" y="0" width="683" height="230"/></clipPath><clipPath class="axesclip" id="clip3debd6y"><rect x="0" y="100" width="843" height="50"/></clipPath><clipPath class="axesclip" id="clip3debd6xy"><rect x="80" y="100" width="683" height="50"/></clipPath></g><g class="gradients"/><g class="patterns"/></defs><g class="bglayer"><rect class="bg" x="80" y="100" width="683" height="50" style="fill: rgb(229, 236, 246); fill-opacity: 1; stroke-width: 0;"/></g><g class="layer-below"><g class="imagelayer"/><g class="shapelayer"/></g><g class="cartesianlayer"><g class="subplot xy"><g class="layer-subplot"><g class="shapelayer"/><g class="imagelayer"/></g><g class="minor-gridlayer"><g class="x"/><g class="y"/></g><g class="gridlayer"><g class="x"><path class="xgrid crisp" transform="translate(107.32,0)" d="M0,100v50" style="stroke: rgb(255, 255, 255); stroke-opacity: 1; stroke-width: 1px;"/><path class="xgrid crisp" transform="translate(243.92,0)" d="M0,100v50" style="stroke: rgb(255, 255, 255); stroke-opacity: 1; stroke-width: 1px;"/><path class="xgrid crisp" transform="translate(380.52,0)" d="M0,100v50" style="stroke: rgb(255, 255, 255); stroke-opacity: 1; stroke-width: 1px;"/><path class="xgrid crisp" transform="translate(653.72,0)" d="M0,100v50" style="stroke: rgb(255, 255, 255); stroke-opacity: 1; stroke-width: 1px;"/></g><g class="y"><path class="ygrid crisp" transform="translate(0,117.76)" d="M80,0h683" style="stroke: rgb(255, 255, 255); stroke-opacity: 1; stroke-width: 1px;"/></g></g><g class="zerolinelayer"><path class="xzl zl crisp" transform="translate(517.12,0)" d="M0,100v50" style="stroke: rgb(255, 255, 255); stroke-opacity: 1; stroke-width: 2px;"/><path class="yzl zl crisp" transform="translate(0,136.64)" d="M80,0h683" style="stroke: rgb(255, 255, 255); stroke-opacity: 1; stroke-width: 2px;"/></g><g class="layer-between"><g class="shapelayer"/><g class="imagelayer"/></g><path class="xlines-below"/><path class="ylines-below"/><g class="overlines-below"/><g class="xaxislayer-below"/><g class="yaxislayer-below"/><g class="overaxes-below"/><g class="overplot"><g class="xy" transform="translate(80,100)" clip-path="url(#clip3debd6xyplot)"><g class="scatterlayer mlayer"><g class="trace scatter trace7d3870" style="stroke-miterlimit: 2; opacity: 1;"><g class="fills"/><g class="errorbars"/><g class="lines"><path class="js-line" d="M0,25.5L2.53,26.89L3.8,28.12L10.14,32.53L11.4,32.74L13.94,31.98L15.21,31.15L17.74,30.72L19.01,31.23L24.08,35.74L25.34,36.88L27.88,36.82L29.14,36.36L32.95,35.31L34.21,35.4L38.01,37.24L39.28,38.24L43.08,41.46L44.35,41.48L46.88,37.68L48.15,35.21L51.95,28.95L53.22,27.7L55.76,26.78L57.02,26.98L64.63,29.73L65.89,29.99L70.96,30.77L72.23,31.5L82.37,39.59L83.63,40.12L87.43,40.64L88.7,40.6L101.37,39.86L102.64,39.36L110.24,35.61L111.51,35.34L115.31,35.27L116.58,35.58L121.65,36.45L122.91,35.97L126.72,32.3L127.98,30.96L131.78,28.52L133.05,28.02L136.85,27.2L138.12,27.27L140.65,28.04L141.92,28.87L145.72,31.45L146.99,31.99L155.86,37.78L157.13,39.08L159.66,40.13L160.93,40.38L166,41.45L167.27,41.13L169.8,41.08L171.07,41.47L177.4,44.64L178.67,44.26L186.27,40.35L187.54,40.43L193.88,42.21L195.14,41.58L202.75,34.3L204.01,34.05L212.88,35.18L214.15,35.42L224.29,38.68L225.55,39.18L228.09,39.25L229.36,38.95L235.69,37.4L236.96,37.48L244.56,38.2L245.83,37.64L252.17,32.74L253.43,32.38L259.77,31.33L261.04,30.57L263.57,29.75L264.84,29.93L268.64,32.44L269.91,33.56L273.71,36.43L274.97,36.51L278.78,36.25L280.04,35.53L283.84,33.45L285.11,33.24L287.65,33.96L288.91,34.9L293.98,38.88L295.25,39.28L306.65,44.22L307.92,45.11L311.72,47.27L312.99,47.5L318.06,45.52L319.32,44.83L324.39,43.38L325.66,43.22L332,43.09L333.26,43.44L338.33,44.52L339.6,44.13L343.4,43.34L344.67,43.45L348.47,43.25L349.74,43.43L353.54,42.44L354.81,42.07L362.41,41.31L363.68,41.57L367.48,42.52L368.74,41.91L373.81,39.26L375.08,39.1L378.88,38.88L380.15,37.06L386.48,26.54L387.75,25.25L390.29,24.15L391.55,24.22L395.35,24.76L396.62,24L400.42,22.62L401.69,22.61L405.49,23.56L406.76,24.16L410.56,25.49L411.83,24.76L414.36,20.76L415.63,18.01L419.43,11.34L420.7,10.11L423.23,8.11L424.5,8.47L425.77,8.26L427.03,6.74L430.83,2.82L432.1,2.5L434.64,3.98L435.9,5.81L439.71,14.91L440.97,18.33L443.51,23.51L444.77,24.8L447.31,25.26L448.58,25.08L456.18,24.83L457.45,25.07L463.78,26.69L465.05,27.4L470.12,31.13L471.38,32.21L475.19,33.98L476.45,34.14L480.25,35.31L481.52,35.8L484.06,37.57L485.32,38.84L487.86,40.87L489.12,41.33L492.93,41.88L494.19,41.63L496.73,40.59L497.99,38.77L500.53,35.78L501.8,34.99L504.33,35.19L505.6,36.07L508.13,37.61L509.4,37.26L514.47,33.65L515.73,32.54L524.6,23.77L525.87,23.68L528.41,24.91L529.67,25.97L537.28,32.53L538.54,34.03L542.35,37.57L543.61,37.76L546.15,35.38L547.41,33.98L549.95,32.11L551.22,31.82L553.75,32.41L555.02,33.09L557.55,34.29L558.82,34.06L566.42,30.68L567.69,30.65L572.76,31.76L574.02,32.2L582.89,34.92L584.16,35.27L590.5,37.57L591.76,38.76L596.83,43.3L598.1,43.69L600.63,43.2L601.9,42.16L605.7,40.02L606.97,39.69L614.57,38.25L615.84,37.99L619.64,38.29L620.91,38.73L634.85,44.75L636.12,44.7L639.92,42.88L641.18,42.13L646.25,39.98L647.52,39.73L651.32,38.97L652.59,38.4L657.66,37.09L658.92,37.12L662.73,38.42L663.99,39.2L667.79,41.23L669.06,41.48L671.6,41.09L672.86,40.45L680.47,35.66L681.73,35.74L683,35.93" style="vector-effect: none; fill: none; stroke: rgb(99, 110, 250); stroke-opacity: 1; stroke-width: 2px; opacity: 1;"/></g><g class="points"/><g class="text"/></g></g></g></g><g class="zerolinelayer-above"/><path class="xlines-above crisp" d="M79,150.5H763" style="fill: none; stroke-width: 1px; stroke: rgb(0, 0, 0); stroke-opacity: 1;"/><path class="ylines-above crisp" d="M79.5,100V150" style="fill: none; stroke-width: 1px; stroke: rgb(0, 0, 0); stroke-opacity: 1;"/><g class="overlines-above"/><g class="xaxislayer-above"><path class="xtick ticks crisp" d="M0,151v5" transform="translate(107.32,0)" style="stroke: rgb(68, 68, 68); stroke-opacity: 1; stroke-width: 1px;"/><path class="xtick ticks crisp" d="M0,151v5" transform="translate(243.92,0)" style="stroke: rgb(68, 68, 68); stroke-opacity: 1; stroke-width: 1px;"/><path class="xtick ticks crisp" d="M0,151v5" transform="translate(380.52,0)" style="stroke: rgb(68, 68, 68); stroke-opacity: 1; stroke-width: 1px;"/><path class="xtick ticks crisp" d="M0,151v5" transform="translate(517.12,0)" style="stroke: rgb(68, 68, 68); stroke-opacity: 1; stroke-width: 1px;"/><path class="xtick ticks crisp" d="M0,151v5" transform="translate(653.72,0)" style="stroke: rgb(68, 68, 68); stroke-opacity: 1; stroke-width: 1px;"/><g class="xtick"><text text-anchor="middle" x="0" y="168" transform="translate(107.32,0)" style="font-family: Arial; font-size: 10px; fill: rgb(42, 63, 95); fill-opacity: 1; white-space: pre;">−1.5</text></g><g class="xtick"><text text-anchor="middle" x="0" y="168" style="font-family: Arial; font-size: 10px; fill: rgb(42, 63, 95); fill-opacity: 1; white-space: pre;" transform="translate(243.92,0)">−1</text></g><g class="xtick"><text text-anchor="middle" x="0" y="168" style="font-family: Arial; font-size: 10px; fill: rgb(42, 63, 95); fill-opacity: 1; white-space: pre;" transform="translate(380.52,0)">−0.5</text></g><g class="xtick"><text text-anchor="middle" x="0" y="168" style="font-family: Arial; font-size: 10px; fill: rgb(42, 63, 95); fill-opacity: 1; white-space: pre;" transform="translate(517.12,0)">0</text></g><g class="xtick"><text text-anchor="middle" x="0" y="168" style="font-family: Arial; font-size: 10px; fill: rgb(42, 63, 95); fill-opacity: 1; white-space: pre;" transform="translate(653.72,0)">0.5</text></g></g><g class="yaxislayer-above"><path class="ytick ticks crisp" d="M79,0h-5" transform="translate(0,136.64)" style="stroke: rgb(68, 68, 68); stroke-opacity: 1; stroke-width: 1px;"/><path class="ytick ticks crisp" d="M79,0h-5" transform="translate(0,117.76)" style="stroke: rgb(68, 68, 68); stroke-opacity: 1; stroke-width: 1px;"/><g class="ytick"><text text-anchor="end" x="72" y="3.5" transform="translate(0,136.64)" style="font-family: Arial; font-size: 10px; fill: rgb(42, 63, 95); fill-opacity: 1; white-space: pre;">0</text></g><g class="ytick"><text text-anchor="end" x="72" y="3.5" style="font-family: Arial; font-size: 10px; fill: rgb(42, 63, 95); fill-opacity: 1; white-space: pre;" transform="translate(0,117.76)">2</text></g></g><g class="overaxes-above"/></g></g><g class="polarlayer"/><g class="smithlayer"/><g class="ternarylayer"/><g class="geolayer"/><g class="funnelarealayer"/><g class="pielayer"/><g class="iciclelayer"/><g class="treemaplayer"/><g class="sunburstlayer"/><g class="glimages"/><defs id="topdefs-3debd6"><g class="clips"/></defs><g class="layer-above"><g class="imagelayer"/><g class="shapelayer"/></g><g class="infolayer"><g class="g-gtitle"><text class="gtitle" x="42.150000000000006" y="50" text-anchor="start" dy="0em" style="opacity: 1; font-family: Arial; font-size: 14px; fill: rgb(42, 63, 95); fill-opacity: 1; white-space: pre;">HG Response in trial 39</text></g><g class="g-xtitle"><text class="xtitle" x="421.5" y="192.9" text-anchor="middle" style="opacity: 1; font-family: Arial; font-size: 12px; fill: rgb(42, 63, 95); fill-opacity: 1; white-space: pre;">Time [ms]</text></g><g class="g-ytitle"><text class="ytitle" transform="rotate(-90,47.7375,125)" x="47.7375" y="125" text-anchor="middle" style="opacity: 1; font-family: Arial; font-size: 12px; fill: rgb(42, 63, 95); fill-opacity: 1; white-space: pre;">HG Power</text></g></g></svg>