<svg class="main-svg" xmlns="http://www.w3.org/2000/svg" xmlns:xlink="http://www.w3.org/1999/xlink" width="60mm" height="70mm" style="" viewBox="0 0 227 265"><rect x="0" y="0" width="60mm" height="70mm" style="fill: rgb(255, 255, 255); fill-opacity: 1;"/><defs id="defs-280ae9"><g class="clips"><clipPath id="clip280ae9xyplot" class="plotclip"><rect width="64" height="125"/></clipPath><clipPath class="axesclip" id="clip280ae9x"><rect x="67" y="0" width="64" height="70mm"/></clipPath><clipPath class="axesclip" id="clip280ae9y"><rect x="0" y="60" width="60mm" height="125"/></clipPath><clipPath class="axesclip" id="clip280ae9xy"><rect x="67" y="60" width="64" height="125"/></clipPath></g><g class="gradients"/><g class="patterns"/></defs><g class="bglayer"/><g class="layer-below"><g class="imagelayer"/><g class="shapelayer"/></g><g class="cartesianlayer"><g class="subplot xy"><g class="layer-subplot"><g class="shapelayer"/><g class="imagelayer"/></g><g class="minor-gridlayer"><g class="x"/><g class="y"/></g><g class="gridlayer"><g class="x"/><g class="y"><path class="ygrid crisp" transform="translate(0,145.79000000000002)" d="M67,0h64" style="stroke: rgb(238, 238, 238); stroke-opacity: 1; stroke-width: 1px;"/><path class="ygrid crisp" transform="translate(0,107.87)" d="M67,0h64" style="stroke: rgb(238, 238, 238); stroke-opacity: 1; stroke-width: 1px;"/><path class="ygrid crisp" transform="translate(0,69.96000000000001)" d="M67,0h64" style="stroke: rgb(238, 238, 238); stroke-opacity: 1; stroke-width: 1px;"/></g></g><g class="zerolinelayer"><path class="yzl zl crisp" transform="translate(0,183.70999999999998)" d="M67,0h64" style="stroke: rgb(68, 68, 68); stroke-opacity: 1; stroke-width: 1px;"/></g><g class="layer-between"><g class="shapelayer"/><g class="imagelayer"/></g><path class="xlines-below"/><path class="ylines-below"/><g class="overlines-below"/><g class="xaxislayer-below"/><g class="yaxislayer-below"/><g class="overaxes-below"/><g class="overplot"><g class="xy" transform="translate(67,60)" clip-path="url(#clip280ae9xyplot)"><g class="boxlayer mlayer"><g class="trace boxes" style="opacity: 1;"><path class="box" d="M12.58,55.97H19.16M12.58,58.77H19.16V43.63H12.58ZM15.87,58.77V80.83M15.87,43.63V22.7M14.23,80.83H17.51M14.23,22.7H17.51" style="vector-effect: none; stroke-width: 2px; stroke: rgb(93, 105, 177); stroke-opacity: 1; fill: rgb(93, 105, 177); fill-opacity: 0.5;"/><path class="box" d="M39.41,100.56H45.98M39.41,109.02H45.98V92.34H39.41ZM42.69,109.02V118.75M42.69,92.34V76.98M41.05,118.75H44.34M41.05,76.98H44.34" style="vector-effect: none; stroke-width: 2px; stroke: rgb(93, 105, 177); stroke-opacity: 1; fill: rgb(93, 105, 177); fill-opacity: 0.5;"/><g class="points"><path class="point" transform="translate(11.05,80.83)" d="M3,0A3,3 0 1,1 0,-3A3,3 0 0,1 3,0Z" style="opacity: 1; stroke-width: 0px; fill: rgb(93, 105, 177); fill-opacity: 1;"/><path class="point" transform="translate(10.8,72.53)" d="M3,0A3,3 0 1,1 0,-3A3,3 0 0,1 3,0Z" style="opacity: 1; stroke-width: 0px; fill: rgb(93, 105, 177); fill-opacity: 1;"/><path class="point" transform="translate(11.13,67.17)" d="M3,0A3,3 0 1,1 0,-3A3,3 0 0,1 3,0Z" style="opacity: 1; stroke-width: 0px; fill: rgb(93, 105, 177); fill-opacity: 1;"/><path class="point" transform="translate(10.73,64.96)" d="M3,0A3,3 0 1,1 0,-3A3,3 0 0,1 3,0Z" style="opacity: 1; stroke-width: 0px; fill: rgb(93, 105, 177); fill-opacity: 1;"/><path class="point" transform="translate(10.88,64.33)" d="M3,0A3,3 0 1,1 0,-3A3,3 0 0,1 3,0Z" style="opacity: 1; stroke-width: 0px; fill: rgb(93, 105, 177); fill-opacity: 1;"/><path class="point" transform="translate(11.08,64.01)" d="M3,0A3,3 0 1,1 0,-3A3,3 0 0,1 3,0Z" style="opacity: 1; stroke-width: 0px; fill: rgb(93, 105, 177); fill-opacity: 1;"/><path class="point" transform="translate(10.93,62.6)" d="M3,0A3,3 0 1,1 0,-3A3,3 0 0,1 3,0Z" style="opacity: 1; stroke-width: 0px; fill: rgb(93, 105, 177); fill-opacity: 1;"/><path class="point" transform="translate(11.07,61.75)" d="M3,0A3,3 0 1,1 0,-3A3,3 0 0,1 3,0Z" style="opacity: 1; stroke-width: 0px; fill: rgb(93, 105, 177); fill-opacity: 1;"/><path class="point" transform="translate(10.78,60.53)" d="M3,0A3,3 0 1,1 0,-3A3,3 0 0,1 3,0Z" style="opacity: 1; stroke-width: 0px; fill: rgb(93, 105, 177); fill-opacity: 1;"/><path class="point" transform="translate(10.55,59.57)" d="M3,0A3,3 0 1,1 0,-3A3,3 0 0,1 3,0Z" style="opacity: 1; stroke-width: 0px; fill: rgb(93, 105, 177); fill-opacity: 1;"/><path class="point" transform="translate(11.09,59.36)" d="M3,0A3,3 0 1,1 0,-3A3,3 0 0,1 3,0Z" style="opacity: 1; stroke-width: 0px; fill: rgb(93, 105, 177); fill-opacity: 1;"/><path class="point" transform="translate(10.74,59.3)" d="M3,0A3,3 0 1,1 0,-3A3,3 0 0,1 3,0Z" style="opacity: 1; stroke-width: 0px; fill: rgb(93, 105, 177); fill-opacity: 1;"/><path class="point" transform="translate(11.37,58.77)" d="M3,0A3,3 0 1,1 0,-3A3,3 0 0,1 3,0Z" style="opacity: 1; stroke-width: 0px; fill: rgb(93, 105, 177); fill-opacity: 1;"/><path class="point" transform="translate(10.12,58.73)" d="M3,0A3,3 0 1,1 0,-3A3,3 0 0,1 3,0Z" style="opacity: 1; stroke-width: 0px; fill: rgb(93, 105, 177); fill-opacity: 1;"/><path class="point" transform="translate(10.4,58.73)" d="M3,0A3,3 0 1,1 0,-3A3,3 0 0,1 3,0Z" style="opacity: 1; stroke-width: 0px; fill: rgb(93, 105, 177); fill-opacity: 1;"/><path class="point" transform="translate(11.81,58.65)" d="M3,0A3,3 0 1,1 0,-3A3,3 0 0,1 3,0Z" style="opacity: 1; stroke-width: 0px; fill: rgb(93, 105, 177); fill-opacity: 1;"/><path class="point" transform="translate(10.7,58.39)" d="M3,0A3,3 0 1,1 0,-3A3,3 0 0,1 3,0Z" style="opacity: 1; stroke-width: 0px; fill: rgb(93, 105, 177); fill-opacity: 1;"/><path class="point" transform="translate(10.26,58.37)" d="M3,0A3,3 0 1,1 0,-3A3,3 0 0,1 3,0Z" style="opacity: 1; stroke-width: 0px; fill: rgb(93, 105, 177); fill-opacity: 1;"/><path class="point" transform="translate(10.69,58.31)" d="M3,0A3,3 0 1,1 0,-3A3,3 0 0,1 3,0Z" style="opacity: 1; stroke-width: 0px; fill: rgb(93, 105, 177); fill-opacity: 1;"/><path class="point" transform="translate(10.92,57.78)" d="M3,0A3,3 0 1,1 0,-3A3,3 0 0,1 3,0Z" style="opacity: 1; stroke-width: 0px; fill: rgb(93, 105, 177); fill-opacity: 1;"/><path class="point" transform="translate(11.28,57.74)" d="M3,0A3,3 0 1,1 0,-3A3,3 0 0,1 3,0Z" style="opacity: 1; stroke-width: 0px; fill: rgb(93, 105, 177); fill-opacity: 1;"/><path class="point" transform="translate(11.02,57.62)" d="M3,0A3,3 0 1,1 0,-3A3,3 0 0,1 3,0Z" style="opacity: 1; stroke-width: 0px; fill: rgb(93, 105, 177); fill-opacity: 1;"/><path class="point" transform="translate(10.77,56.28)" d="M3,0A3,3 0 1,1 0,-3A3,3 0 0,1 3,0Z" style="opacity: 1; stroke-width: 0px; fill: rgb(93, 105, 177); fill-opacity: 1;"/><path class="point" transform="translate(10.47,56.07)" d="M3,0A3,3 0 1,1 0,-3A3,3 0 0,1 3,0Z" style="opacity: 1; stroke-width: 0px; fill: rgb(93, 105, 177); fill-opacity: 1;"/><path class="point" transform="translate(10.94,56.05)" d="M3,0A3,3 0 1,1 0,-3A3,3 0 0,1 3,0Z" style="opacity: 1; stroke-width: 0px; fill: rgb(93, 105, 177); fill-opacity: 1;"/><path class="point" transform="translate(10.78,55.89)" d="M3,0A3,3 0 1,1 0,-3A3,3 0 0,1 3,0Z" style="opacity: 1; stroke-width: 0px; fill: rgb(93, 105, 177); fill-opacity: 1;"/><path class="point" transform="translate(11.19,55.1)" d="M3,0A3,3 0 1,1 0,-3A3,3 0 0,1 3,0Z" style="opacity: 1; stroke-width: 0px; fill: rgb(93, 105, 177); fill-opacity: 1;"/><path class="point" transform="translate(10.89,53.97)" d="M3,0A3,3 0 1,1 0,-3A3,3 0 0,1 3,0Z" style="opacity: 1; stroke-width: 0px; fill: rgb(93, 105, 177); fill-opacity: 1;"/><path class="point" transform="translate(10.53,53.33)" d="M3,0A3,3 0 1,1 0,-3A3,3 0 0,1 3,0Z" style="opacity: 1; stroke-width: 0px; fill: rgb(93, 105, 177); fill-opacity: 1;"/><path class="point" transform="translate(10.43,52.7)" d="M3,0A3,3 0 1,1 0,-3A3,3 0 0,1 3,0Z" style="opacity: 1; stroke-width: 0px; fill: rgb(93, 105, 177); fill-opacity: 1;"/><path class="point" transform="translate(11.19,52.56)" d="M3,0A3,3 0 1,1 0,-3A3,3 0 0,1 3,0Z" style="opacity: 1; stroke-width: 0px; fill: rgb(93, 105, 177); fill-opacity: 1;"/><path class="point" transform="translate(10.58,52.18)" d="M3,0A3,3 0 1,1 0,-3A3,3 0 0,1 3,0Z" style="opacity: 1; stroke-width: 0px; fill: rgb(93, 105, 177); fill-opacity: 1;"/><path class="point" transform="translate(11.17,52.02)" d="M3,0A3,3 0 1,1 0,-3A3,3 0 0,1 3,0Z" style="opacity: 1; stroke-width: 0px; fill: rgb(93, 105, 177); fill-opacity: 1;"/><path class="point" transform="translate(11.03,52.02)" d="M3,0A3,3 0 1,1 0,-3A3,3 0 0,1 3,0Z" style="opacity: 1; stroke-width: 0px; fill: rgb(93, 105, 177); fill-opacity: 1;"/><path class="point" transform="translate(10.82,50.78)" d="M3,0A3,3 0 1,1 0,-3A3,3 0 0,1 3,0Z" style="opacity: 1; stroke-width: 0px; fill: rgb(93, 105, 177); fill-opacity: 1;"/><path class="point" transform="translate(10.7,47.78)" d="M3,0A3,3 0 1,1 0,-3A3,3 0 0,1 3,0Z" style="opacity: 1; stroke-width: 0px; fill: rgb(93, 105, 177); fill-opacity: 1;"/><path class="point" transform="translate(11.13,46.06)" d="M3,0A3,3 0 1,1 0,-3A3,3 0 0,1 3,0Z" style="opacity: 1; stroke-width: 0px; fill: rgb(93, 105, 177); fill-opacity: 1;"/><path class="point" transform="translate(10.9,43.63)" d="M3,0A3,3 0 1,1 0,-3A3,3 0 0,1 3,0Z" style="opacity: 1; stroke-width: 0px; fill: rgb(93, 105, 177); fill-opacity: 1;"/><path class="point" transform="translate(11.22,43.44)" d="M3,0A3,3 0 1,1 0,-3A3,3 0 0,1 3,0Z" style="opacity: 1; stroke-width: 0px; fill: rgb(93, 105, 177); fill-opacity: 1;"/><path class="point" transform="translate(10.58,42.93)" d="M3,0A3,3 0 1,1 0,-3A3,3 0 0,1 3,0Z" style="opacity: 1; stroke-width: 0px; fill: rgb(93, 105, 177); fill-opacity: 1;"/><path class="point" transform="translate(11.2,42.91)" d="M3,0A3,3 0 1,1 0,-3A3,3 0 0,1 3,0Z" style="opacity: 1; stroke-width: 0px; fill: rgb(93, 105, 177); fill-opacity: 1;"/><path class="point" transform="translate(10.92,42.89)" d="M3,0A3,3 0 1,1 0,-3A3,3 0 0,1 3,0Z" style="opacity: 1; stroke-width: 0px; fill: rgb(93, 105, 177); fill-opacity: 1;"/><path class="point" transform="translate(10.81,42.69)" d="M3,0A3,3 0 1,1 0,-3A3,3 0 0,1 3,0Z" style="opacity: 1; stroke-width: 0px; fill: rgb(93, 105, 177); fill-opacity: 1;"/><path class="point" transform="translate(10.62,42.45)" d="M3,0A3,3 0 1,1 0,-3A3,3 0 0,1 3,0Z" style="opacity: 1; stroke-width: 0px; fill: rgb(93, 105, 177); fill-opacity: 1;"/><path class="point" transform="translate(10.83,42.18)" d="M3,0A3,3 0 1,1 0,-3A3,3 0 0,1 3,0Z" style="opacity: 1; stroke-width: 0px; fill: rgb(93, 105, 177); fill-opacity: 1;"/><path class="point" transform="translate(11.12,38.45)" d="M3,0A3,3 0 1,1 0,-3A3,3 0 0,1 3,0Z" style="opacity: 1; stroke-width: 0px; fill: rgb(93, 105, 177); fill-opacity: 1;"/><path class="point" transform="translate(10.88,29.18)" d="M3,0A3,3 0 1,1 0,-3A3,3 0 0,1 3,0Z" style="opacity: 1; stroke-width: 0px; fill: rgb(93, 105, 177); fill-opacity: 1;"/><path class="point" transform="translate(10.76,28.42)" d="M3,0A3,3 0 1,1 0,-3A3,3 0 0,1 3,0Z" style="opacity: 1; stroke-width: 0px; fill: rgb(93, 105, 177); fill-opacity: 1;"/><path class="point" transform="translate(11.05,28.39)" d="M3,0A3,3 0 1,1 0,-3A3,3 0 0,1 3,0Z" style="opacity: 1; stroke-width: 0px; fill: rgb(93, 105, 177); fill-opacity: 1;"/><path class="point" transform="translate(10.83,22.7)" d="M3,0A3,3 0 1,1 0,-3A3,3 0 0,1 3,0Z" style="opacity: 1; stroke-width: 0px; fill: rgb(93, 105, 177); fill-opacity: 1;"/></g><g class="points"><path class="point" transform="translate(37.77,118.75)" d="M3,0A3,3 0 1,1 0,-3A3,3 0 0,1 3,0Z" style="opacity: 1; stroke-width: 0px; fill: rgb(93, 105, 177); fill-opacity: 1;"/><path class="point" transform="translate(38,117.69)" d="M3,0A3,3 0 1,1 0,-3A3,3 0 0,1 3,0Z" style="opacity: 1; stroke-width: 0px; fill: rgb(93, 105, 177); fill-opacity: 1;"/><path class="point" transform="translate(37.2,114.77)" d="M3,0A3,3 0 1,1 0,-3A3,3 0 0,1 3,0Z" style="opacity: 1; stroke-width: 0px; fill: rgb(93, 105, 177); fill-opacity: 1;"/><path class="point" transform="translate(38.34,112.31)" d="M3,0A3,3 0 1,1 0,-3A3,3 0 0,1 3,0Z" style="opacity: 1; stroke-width: 0px; fill: rgb(93, 105, 177); fill-opacity: 1;"/><path class="point" transform="translate(38.03,112.17)" d="M3,0A3,3 0 1,1 0,-3A3,3 0 0,1 3,0Z" style="opacity: 1; stroke-width: 0px; fill: rgb(93, 105, 177); fill-opacity: 1;"/><path class="point" transform="translate(37.2,112.1)" d="M3,0A3,3 0 1,1 0,-3A3,3 0 0,1 3,0Z" style="opacity: 1; stroke-width: 0px; fill: rgb(93, 105, 177); fill-opacity: 1;"/><path class="point" transform="translate(38.3,110.93)" d="M3,0A3,3 0 1,1 0,-3A3,3 0 0,1 3,0Z" style="opacity: 1; stroke-width: 0px; fill: rgb(93, 105, 177); fill-opacity: 1;"/><path class="point" transform="translate(37.17,110.79)" d="M3,0A3,3 0 1,1 0,-3A3,3 0 0,1 3,0Z" style="opacity: 1; stroke-width: 0px; fill: rgb(93, 105, 177); fill-opacity: 1;"/><path class="point" transform="translate(37.65,110.53)" d="M3,0A3,3 0 1,1 0,-3A3,3 0 0,1 3,0Z" style="opacity: 1; stroke-width: 0px; fill: rgb(93, 105, 177); fill-opacity: 1;"/><path class="point" transform="translate(37.88,110.14)" d="M3,0A3,3 0 1,1 0,-3A3,3 0 0,1 3,0Z" style="opacity: 1; stroke-width: 0px; fill: rgb(93, 105, 177); fill-opacity: 1;"/><path class="point" transform="translate(37.4,109.49)" d="M3,0A3,3 0 1,1 0,-3A3,3 0 0,1 3,0Z" style="opacity: 1; stroke-width: 0px; fill: rgb(93, 105, 177); fill-opacity: 1;"/><path class="point" transform="translate(38.3,109.37)" d="M3,0A3,3 0 1,1 0,-3A3,3 0 0,1 3,0Z" style="opacity: 1; stroke-width: 0px; fill: rgb(93, 105, 177); fill-opacity: 1;"/><path class="point" transform="translate(37.24,109.02)" d="M3,0A3,3 0 1,1 0,-3A3,3 0 0,1 3,0Z" style="opacity: 1; stroke-width: 0px; fill: rgb(93, 105, 177); fill-opacity: 1;"/><path class="point" transform="translate(38.07,108.39)" d="M3,0A3,3 0 1,1 0,-3A3,3 0 0,1 3,0Z" style="opacity: 1; stroke-width: 0px; fill: rgb(93, 105, 177); fill-opacity: 1;"/><path class="point" transform="translate(38.36,107.51)" d="M3,0A3,3 0 1,1 0,-3A3,3 0 0,1 3,0Z" style="opacity: 1; stroke-width: 0px; fill: rgb(93, 105, 177); fill-opacity: 1;"/><path class="point" transform="translate(36.96,107.26)" d="M3,0A3,3 0 1,1 0,-3A3,3 0 0,1 3,0Z" style="opacity: 1; stroke-width: 0px; fill: rgb(93, 105, 177); fill-opacity: 1;"/><path class="point" transform="translate(37.3,105.52)" d="M3,0A3,3 0 1,1 0,-3A3,3 0 0,1 3,0Z" style="opacity: 1; stroke-width: 0px; fill: rgb(93, 105, 177); fill-opacity: 1;"/><path class="point" transform="translate(38.22,105.32)" d="M3,0A3,3 0 1,1 0,-3A3,3 0 0,1 3,0Z" style="opacity: 1; stroke-width: 0px; fill: rgb(93, 105, 177); fill-opacity: 1;"/><path class="point" transform="translate(37.58,104.78)" d="M3,0A3,3 0 1,1 0,-3A3,3 0 0,1 3,0Z" style="opacity: 1; stroke-width: 0px; fill: rgb(93, 105, 177); fill-opacity: 1;"/><path class="point" transform="translate(37.83,104.44)" d="M3,0A3,3 0 1,1 0,-3A3,3 0 0,1 3,0Z" style="opacity: 1; stroke-width: 0px; fill: rgb(93, 105, 177); fill-opacity: 1;"/><path class="point" transform="translate(38.4,104.33)" d="M3,0A3,3 0 1,1 0,-3A3,3 0 0,1 3,0Z" style="opacity: 1; stroke-width: 0px; fill: rgb(93, 105, 177); fill-opacity: 1;"/><path class="point" transform="translate(37.1,104.08)" d="M3,0A3,3 0 1,1 0,-3A3,3 0 0,1 3,0Z" style="opacity: 1; stroke-width: 0px; fill: rgb(93, 105, 177); fill-opacity: 1;"/><path class="point" transform="translate(38.6,103.72)" d="M3,0A3,3 0 1,1 0,-3A3,3 0 0,1 3,0Z" style="opacity: 1; stroke-width: 0px; fill: rgb(93, 105, 177); fill-opacity: 1;"/><path class="point" transform="translate(37.12,100.79)" d="M3,0A3,3 0 1,1 0,-3A3,3 0 0,1 3,0Z" style="opacity: 1; stroke-width: 0px; fill: rgb(93, 105, 177); fill-opacity: 1;"/><path class="point" transform="translate(38.65,100.69)" d="M3,0A3,3 0 1,1 0,-3A3,3 0 0,1 3,0Z" style="opacity: 1; stroke-width: 0px; fill: rgb(93, 105, 177); fill-opacity: 1;"/><path class="point" transform="translate(37.34,100.43)" d="M3,0A3,3 0 1,1 0,-3A3,3 0 0,1 3,0Z" style="opacity: 1; stroke-width: 0px; fill: rgb(93, 105, 177); fill-opacity: 1;"/><path class="point" transform="translate(38.39,100.33)" d="M3,0A3,3 0 1,1 0,-3A3,3 0 0,1 3,0Z" style="opacity: 1; stroke-width: 0px; fill: rgb(93, 105, 177); fill-opacity: 1;"/><path class="point" transform="translate(37.97,99.96)" d="M3,0A3,3 0 1,1 0,-3A3,3 0 0,1 3,0Z" style="opacity: 1; stroke-width: 0px; fill: rgb(93, 105, 177); fill-opacity: 1;"/><path class="point" transform="translate(37.65,99.73)" d="M3,0A3,3 0 1,1 0,-3A3,3 0 0,1 3,0Z" style="opacity: 1; stroke-width: 0px; fill: rgb(93, 105, 177); fill-opacity: 1;"/><path class="point" transform="translate(37.01,99.67)" d="M3,0A3,3 0 1,1 0,-3A3,3 0 0,1 3,0Z" style="opacity: 1; stroke-width: 0px; fill: rgb(93, 105, 177); fill-opacity: 1;"/><path class="point" transform="translate(37.63,99.48)" d="M3,0A3,3 0 1,1 0,-3A3,3 0 0,1 3,0Z" style="opacity: 1; stroke-width: 0px; fill: rgb(93, 105, 177); fill-opacity: 1;"/><path class="point" transform="translate(37.14,98.53)" d="M3,0A3,3 0 1,1 0,-3A3,3 0 0,1 3,0Z" style="opacity: 1; stroke-width: 0px; fill: rgb(93, 105, 177); fill-opacity: 1;"/><path class="point" transform="translate(37.38,96.4)" d="M3,0A3,3 0 1,1 0,-3A3,3 0 0,1 3,0Z" style="opacity: 1; stroke-width: 0px; fill: rgb(93, 105, 177); fill-opacity: 1;"/><path class="point" transform="translate(37.21,95.48)" d="M3,0A3,3 0 1,1 0,-3A3,3 0 0,1 3,0Z" style="opacity: 1; stroke-width: 0px; fill: rgb(93, 105, 177); fill-opacity: 1;"/><path class="point" transform="translate(37.12,94.77)" d="M3,0A3,3 0 1,1 0,-3A3,3 0 0,1 3,0Z" style="opacity: 1; stroke-width: 0px; fill: rgb(93, 105, 177); fill-opacity: 1;"/><path class="point" transform="translate(37.42,94.71)" d="M3,0A3,3 0 1,1 0,-3A3,3 0 0,1 3,0Z" style="opacity: 1; stroke-width: 0px; fill: rgb(93, 105, 177); fill-opacity: 1;"/><path class="point" transform="translate(37.99,93.46)" d="M3,0A3,3 0 1,1 0,-3A3,3 0 0,1 3,0Z" style="opacity: 1; stroke-width: 0px; fill: rgb(93, 105, 177); fill-opacity: 1;"/><path class="point" transform="translate(37.2,92.34)" d="M3,0A3,3 0 1,1 0,-3A3,3 0 0,1 3,0Z" style="opacity: 1; stroke-width: 0px; fill: rgb(93, 105, 177); fill-opacity: 1;"/><path class="point" transform="translate(37.91,92.05)" d="M3,0A3,3 0 1,1 0,-3A3,3 0 0,1 3,0Z" style="opacity: 1; stroke-width: 0px; fill: rgb(93, 105, 177); fill-opacity: 1;"/><path class="point" transform="translate(38.02,90.56)" d="M3,0A3,3 0 1,1 0,-3A3,3 0 0,1 3,0Z" style="opacity: 1; stroke-width: 0px; fill: rgb(93, 105, 177); fill-opacity: 1;"/><path class="point" transform="translate(37.83,90.25)" d="M3,0A3,3 0 1,1 0,-3A3,3 0 0,1 3,0Z" style="opacity: 1; stroke-width: 0px; fill: rgb(93, 105, 177); fill-opacity: 1;"/><path class="point" transform="translate(37.48,90.07)" d="M3,0A3,3 0 1,1 0,-3A3,3 0 0,1 3,0Z" style="opacity: 1; stroke-width: 0px; fill: rgb(93, 105, 177); fill-opacity: 1;"/><path class="point" transform="translate(37.59,87.68)" d="M3,0A3,3 0 1,1 0,-3A3,3 0 0,1 3,0Z" style="opacity: 1; stroke-width: 0px; fill: rgb(93, 105, 177); fill-opacity: 1;"/><path class="point" transform="translate(38.25,85.97)" d="M3,0A3,3 0 1,1 0,-3A3,3 0 0,1 3,0Z" style="opacity: 1; stroke-width: 0px; fill: rgb(93, 105, 177); fill-opacity: 1;"/><path class="point" transform="translate(37.61,80.42)" d="M3,0A3,3 0 1,1 0,-3A3,3 0 0,1 3,0Z" style="opacity: 1; stroke-width: 0px; fill: rgb(93, 105, 177); fill-opacity: 1;"/><path class="point" transform="translate(37.8,79.79)" d="M3,0A3,3 0 1,1 0,-3A3,3 0 0,1 3,0Z" style="opacity: 1; stroke-width: 0px; fill: rgb(93, 105, 177); fill-opacity: 1;"/><path class="point" transform="translate(37.93,77.51)" d="M3,0A3,3 0 1,1 0,-3A3,3 0 0,1 3,0Z" style="opacity: 1; stroke-width: 0px; fill: rgb(93, 105, 177); fill-opacity: 1;"/><path class="point" transform="translate(37.55,77.3)" d="M3,0A3,3 0 1,1 0,-3A3,3 0 0,1 3,0Z" style="opacity: 1; stroke-width: 0px; fill: rgb(93, 105, 177); fill-opacity: 1;"/><path class="point" transform="translate(37.73,76.98)" d="M3,0A3,3 0 1,1 0,-3A3,3 0 0,1 3,0Z" style="opacity: 1; stroke-width: 0px; fill: rgb(93, 105, 177); fill-opacity: 1;"/><path class="point" transform="translate(37.97,46.5)" d="M3,0A3,3 0 1,1 0,-3A3,3 0 0,1 3,0Z" style="opacity: 1; stroke-width: 0px; fill: rgb(93, 105, 177); fill-opacity: 1;"/></g></g><g class="trace boxes" style="opacity: 1;"><path class="box" d="M21.97,60.71H28.54M21.97,63.98H28.54V51.58H21.97ZM25.26,63.98V78.65M25.26,51.58V40.33M23.62,78.65H26.9M23.62,40.33H26.9" style="vector-effect: none; stroke-width: 2px; stroke: rgb(229, 134, 6); stroke-opacity: 1; fill: rgb(229, 134, 6); fill-opacity: 0.5;"/><path class="box" d="M48.8,96.94H55.37M48.8,103.33H55.37V90.64H48.8ZM52.08,103.33V114.42M52.08,90.64V75M50.44,114.42H53.73M50.44,75H53.73" style="vector-effect: none; stroke-width: 2px; stroke: rgb(229, 134, 6); stroke-opacity: 1; fill: rgb(229, 134, 6); fill-opacity: 0.5;"/><g class="points"><path class="point" transform="translate(20.49,78.65)" d="M3,0A3,3 0 1,1 0,-3A3,3 0 0,1 3,0Z" style="opacity: 1; stroke-width: 0px; fill: rgb(229, 134, 6); fill-opacity: 1;"/><path class="point" transform="translate(20.13,73.39)" d="M3,0A3,3 0 1,1 0,-3A3,3 0 0,1 3,0Z" style="opacity: 1; stroke-width: 0px; fill: rgb(229, 134, 6); fill-opacity: 1;"/><path class="point" transform="translate(20.58,72.08)" d="M3,0A3,3 0 1,1 0,-3A3,3 0 0,1 3,0Z" style="opacity: 1; stroke-width: 0px; fill: rgb(229, 134, 6); fill-opacity: 1;"/><path class="point" transform="translate(20.04,71.57)" d="M3,0A3,3 0 1,1 0,-3A3,3 0 0,1 3,0Z" style="opacity: 1; stroke-width: 0px; fill: rgb(229, 134, 6); fill-opacity: 1;"/><path class="point" transform="translate(20.24,69.22)" d="M3,0A3,3 0 1,1 0,-3A3,3 0 0,1 3,0Z" style="opacity: 1; stroke-width: 0px; fill: rgb(229, 134, 6); fill-opacity: 1;"/><path class="point" transform="translate(20.52,68.94)" d="M3,0A3,3 0 1,1 0,-3A3,3 0 0,1 3,0Z" style="opacity: 1; stroke-width: 0px; fill: rgb(229, 134, 6); fill-opacity: 1;"/><path class="point" transform="translate(20.31,66.22)" d="M3,0A3,3 0 1,1 0,-3A3,3 0 0,1 3,0Z" style="opacity: 1; stroke-width: 0px; fill: rgb(229, 134, 6); fill-opacity: 1;"/><path class="point" transform="translate(20.47,65.6)" d="M3,0A3,3 0 1,1 0,-3A3,3 0 0,1 3,0Z" style="opacity: 1; stroke-width: 0px; fill: rgb(229, 134, 6); fill-opacity: 1;"/><path class="point" transform="translate(20.17,65.32)" d="M3,0A3,3 0 1,1 0,-3A3,3 0 0,1 3,0Z" style="opacity: 1; stroke-width: 0px; fill: rgb(229, 134, 6); fill-opacity: 1;"/><path class="point" transform="translate(19.9,64.68)" d="M3,0A3,3 0 1,1 0,-3A3,3 0 0,1 3,0Z" style="opacity: 1; stroke-width: 0px; fill: rgb(229, 134, 6); fill-opacity: 1;"/><path class="point" transform="translate(20.49,64.22)" d="M3,0A3,3 0 1,1 0,-3A3,3 0 0,1 3,0Z" style="opacity: 1; stroke-width: 0px; fill: rgb(229, 134, 6); fill-opacity: 1;"/><path class="point" transform="translate(20.06,64.17)" d="M3,0A3,3 0 1,1 0,-3A3,3 0 0,1 3,0Z" style="opacity: 1; stroke-width: 0px; fill: rgb(229, 134, 6); fill-opacity: 1;"/><path class="point" transform="translate(20.88,63.98)" d="M3,0A3,3 0 1,1 0,-3A3,3 0 0,1 3,0Z" style="opacity: 1; stroke-width: 0px; fill: rgb(229, 134, 6); fill-opacity: 1;"/><path class="point" transform="translate(19.49,63.55)" d="M3,0A3,3 0 1,1 0,-3A3,3 0 0,1 3,0Z" style="opacity: 1; stroke-width: 0px; fill: rgb(229, 134, 6); fill-opacity: 1;"/><path class="point" transform="translate(19.79,63.43)" d="M3,0A3,3 0 1,1 0,-3A3,3 0 0,1 3,0Z" style="opacity: 1; stroke-width: 0px; fill: rgb(229, 134, 6); fill-opacity: 1;"/><path class="point" transform="translate(21.2,63.31)" d="M3,0A3,3 0 1,1 0,-3A3,3 0 0,1 3,0Z" style="opacity: 1; stroke-width: 0px; fill: rgb(229, 134, 6); fill-opacity: 1;"/><path class="point" transform="translate(20.08,63.26)" d="M3,0A3,3 0 1,1 0,-3A3,3 0 0,1 3,0Z" style="opacity: 1; stroke-width: 0px; fill: rgb(229, 134, 6); fill-opacity: 1;"/><path class="point" transform="translate(19.57,63.01)" d="M3,0A3,3 0 1,1 0,-3A3,3 0 0,1 3,0Z" style="opacity: 1; stroke-width: 0px; fill: rgb(229, 134, 6); fill-opacity: 1;"/><path class="point" transform="translate(20.04,62.68)" d="M3,0A3,3 0 1,1 0,-3A3,3 0 0,1 3,0Z" style="opacity: 1; stroke-width: 0px; fill: rgb(229, 134, 6); fill-opacity: 1;"/><path class="point" transform="translate(20.31,62.43)" d="M3,0A3,3 0 1,1 0,-3A3,3 0 0,1 3,0Z" style="opacity: 1; stroke-width: 0px; fill: rgb(229, 134, 6); fill-opacity: 1;"/><path class="point" transform="translate(20.7,62.17)" d="M3,0A3,3 0 1,1 0,-3A3,3 0 0,1 3,0Z" style="opacity: 1; stroke-width: 0px; fill: rgb(229, 134, 6); fill-opacity: 1;"/><path class="point" transform="translate(20.42,62.15)" d="M3,0A3,3 0 1,1 0,-3A3,3 0 0,1 3,0Z" style="opacity: 1; stroke-width: 0px; fill: rgb(229, 134, 6); fill-opacity: 1;"/><path class="point" transform="translate(20.09,61.48)" d="M3,0A3,3 0 1,1 0,-3A3,3 0 0,1 3,0Z" style="opacity: 1; stroke-width: 0px; fill: rgb(229, 134, 6); fill-opacity: 1;"/><path class="point" transform="translate(19.61,61.06)" d="M3,0A3,3 0 1,1 0,-3A3,3 0 0,1 3,0Z" style="opacity: 1; stroke-width: 0px; fill: rgb(229, 134, 6); fill-opacity: 1;"/><path class="point" transform="translate(20.33,60.95)" d="M3,0A3,3 0 1,1 0,-3A3,3 0 0,1 3,0Z" style="opacity: 1; stroke-width: 0px; fill: rgb(229, 134, 6); fill-opacity: 1;"/><path class="point" transform="translate(20.12,60.47)" d="M3,0A3,3 0 1,1 0,-3A3,3 0 0,1 3,0Z" style="opacity: 1; stroke-width: 0px; fill: rgb(229, 134, 6); fill-opacity: 1;"/><path class="point" transform="translate(20.63,60.29)" d="M3,0A3,3 0 1,1 0,-3A3,3 0 0,1 3,0Z" style="opacity: 1; stroke-width: 0px; fill: rgb(229, 134, 6); fill-opacity: 1;"/><path class="point" transform="translate(20.27,60.22)" d="M3,0A3,3 0 1,1 0,-3A3,3 0 0,1 3,0Z" style="opacity: 1; stroke-width: 0px; fill: rgb(229, 134, 6); fill-opacity: 1;"/><path class="point" transform="translate(19.9,60.03)" d="M3,0A3,3 0 1,1 0,-3A3,3 0 0,1 3,0Z" style="opacity: 1; stroke-width: 0px; fill: rgb(229, 134, 6); fill-opacity: 1;"/><path class="point" transform="translate(19.76,59.34)" d="M3,0A3,3 0 1,1 0,-3A3,3 0 0,1 3,0Z" style="opacity: 1; stroke-width: 0px; fill: rgb(229, 134, 6); fill-opacity: 1;"/><path class="point" transform="translate(20.63,58.32)" d="M3,0A3,3 0 1,1 0,-3A3,3 0 0,1 3,0Z" style="opacity: 1; stroke-width: 0px; fill: rgb(229, 134, 6); fill-opacity: 1;"/><path class="point" transform="translate(19.91,57.39)" d="M3,0A3,3 0 1,1 0,-3A3,3 0 0,1 3,0Z" style="opacity: 1; stroke-width: 0px; fill: rgb(229, 134, 6); fill-opacity: 1;"/><path class="point" transform="translate(20.61,56.85)" d="M3,0A3,3 0 1,1 0,-3A3,3 0 0,1 3,0Z" style="opacity: 1; stroke-width: 0px; fill: rgb(229, 134, 6); fill-opacity: 1;"/><path class="point" transform="translate(20.42,56.57)" d="M3,0A3,3 0 1,1 0,-3A3,3 0 0,1 3,0Z" style="opacity: 1; stroke-width: 0px; fill: rgb(229, 134, 6); fill-opacity: 1;"/><path class="point" transform="translate(20.21,55.73)" d="M3,0A3,3 0 1,1 0,-3A3,3 0 0,1 3,0Z" style="opacity: 1; stroke-width: 0px; fill: rgb(229, 134, 6); fill-opacity: 1;"/><path class="point" transform="translate(20.13,53.33)" d="M3,0A3,3 0 1,1 0,-3A3,3 0 0,1 3,0Z" style="opacity: 1; stroke-width: 0px; fill: rgb(229, 134, 6); fill-opacity: 1;"/><path class="point" transform="translate(20.48,52.02)" d="M3,0A3,3 0 1,1 0,-3A3,3 0 0,1 3,0Z" style="opacity: 1; stroke-width: 0px; fill: rgb(229, 134, 6); fill-opacity: 1;"/><path class="point" transform="translate(20.3,51.58)" d="M3,0A3,3 0 1,1 0,-3A3,3 0 0,1 3,0Z" style="opacity: 1; stroke-width: 0px; fill: rgb(229, 134, 6); fill-opacity: 1;"/><path class="point" transform="translate(20.52,47.29)" d="M3,0A3,3 0 1,1 0,-3A3,3 0 0,1 3,0Z" style="opacity: 1; stroke-width: 0px; fill: rgb(229, 134, 6); fill-opacity: 1;"/><path class="point" transform="translate(20.11,46.97)" d="M3,0A3,3 0 1,1 0,-3A3,3 0 0,1 3,0Z" style="opacity: 1; stroke-width: 0px; fill: rgb(229, 134, 6); fill-opacity: 1;"/><path class="point" transform="translate(20.49,41.34)" d="M3,0A3,3 0 1,1 0,-3A3,3 0 0,1 3,0Z" style="opacity: 1; stroke-width: 0px; fill: rgb(229, 134, 6); fill-opacity: 1;"/><path class="point" transform="translate(20.31,40.33)" d="M3,0A3,3 0 1,1 0,-3A3,3 0 0,1 3,0Z" style="opacity: 1; stroke-width: 0px; fill: rgb(229, 134, 6); fill-opacity: 1;"/><path class="point" transform="translate(20.23,32.68)" d="M3,0A3,3 0 1,1 0,-3A3,3 0 0,1 3,0Z" style="opacity: 1; stroke-width: 0px; fill: rgb(229, 134, 6); fill-opacity: 1;"/><path class="point" transform="translate(20.07,31.99)" d="M3,0A3,3 0 1,1 0,-3A3,3 0 0,1 3,0Z" style="opacity: 1; stroke-width: 0px; fill: rgb(229, 134, 6); fill-opacity: 1;"/><path class="point" transform="translate(20.24,27.86)" d="M3,0A3,3 0 1,1 0,-3A3,3 0 0,1 3,0Z" style="opacity: 1; stroke-width: 0px; fill: rgb(229, 134, 6); fill-opacity: 1;"/><path class="point" transform="translate(20.49,21.33)" d="M3,0A3,3 0 1,1 0,-3A3,3 0 0,1 3,0Z" style="opacity: 1; stroke-width: 0px; fill: rgb(229, 134, 6); fill-opacity: 1;"/><path class="point" transform="translate(20.27,19.88)" d="M3,0A3,3 0 1,1 0,-3A3,3 0 0,1 3,0Z" style="opacity: 1; stroke-width: 0px; fill: rgb(229, 134, 6); fill-opacity: 1;"/><path class="point" transform="translate(20.14,18.88)" d="M3,0A3,3 0 1,1 0,-3A3,3 0 0,1 3,0Z" style="opacity: 1; stroke-width: 0px; fill: rgb(229, 134, 6); fill-opacity: 1;"/><path class="point" transform="translate(20.44,18.69)" d="M3,0A3,3 0 1,1 0,-3A3,3 0 0,1 3,0Z" style="opacity: 1; stroke-width: 0px; fill: rgb(229, 134, 6); fill-opacity: 1;"/><path class="point" transform="translate(20.2,10.04)" d="M3,0A3,3 0 1,1 0,-3A3,3 0 0,1 3,0Z" style="opacity: 1; stroke-width: 0px; fill: rgb(229, 134, 6); fill-opacity: 1;"/></g><g class="points"><path class="point" transform="translate(47.15,114.42)" d="M3,0A3,3 0 1,1 0,-3A3,3 0 0,1 3,0Z" style="opacity: 1; stroke-width: 0px; fill: rgb(229, 134, 6); fill-opacity: 1;"/><path class="point" transform="translate(47.42,112.71)" d="M3,0A3,3 0 1,1 0,-3A3,3 0 0,1 3,0Z" style="opacity: 1; stroke-width: 0px; fill: rgb(229, 134, 6); fill-opacity: 1;"/><path class="point" transform="translate(46.54,111.37)" d="M3,0A3,3 0 1,1 0,-3A3,3 0 0,1 3,0Z" style="opacity: 1; stroke-width: 0px; fill: rgb(229, 134, 6); fill-opacity: 1;"/><path class="point" transform="translate(47.7,111.37)" d="M3,0A3,3 0 1,1 0,-3A3,3 0 0,1 3,0Z" style="opacity: 1; stroke-width: 0px; fill: rgb(229, 134, 6); fill-opacity: 1;"/><path class="point" transform="translate(47.41,110.86)" d="M3,0A3,3 0 1,1 0,-3A3,3 0 0,1 3,0Z" style="opacity: 1; stroke-width: 0px; fill: rgb(229, 134, 6); fill-opacity: 1;"/><path class="point" transform="translate(46.6,109.84)" d="M3,0A3,3 0 1,1 0,-3A3,3 0 0,1 3,0Z" style="opacity: 1; stroke-width: 0px; fill: rgb(229, 134, 6); fill-opacity: 1;"/><path class="point" transform="translate(47.69,108.82)" d="M3,0A3,3 0 1,1 0,-3A3,3 0 0,1 3,0Z" style="opacity: 1; stroke-width: 0px; fill: rgb(229, 134, 6); fill-opacity: 1;"/><path class="point" transform="translate(46.65,107.97)" d="M3,0A3,3 0 1,1 0,-3A3,3 0 0,1 3,0Z" style="opacity: 1; stroke-width: 0px; fill: rgb(229, 134, 6); fill-opacity: 1;"/><path class="point" transform="translate(47.07,105.63)" d="M3,0A3,3 0 1,1 0,-3A3,3 0 0,1 3,0Z" style="opacity: 1; stroke-width: 0px; fill: rgb(229, 134, 6); fill-opacity: 1;"/><path class="point" transform="translate(47.24,105.51)" d="M3,0A3,3 0 1,1 0,-3A3,3 0 0,1 3,0Z" style="opacity: 1; stroke-width: 0px; fill: rgb(229, 134, 6); fill-opacity: 1;"/><path class="point" transform="translate(46.87,104.84)" d="M3,0A3,3 0 1,1 0,-3A3,3 0 0,1 3,0Z" style="opacity: 1; stroke-width: 0px; fill: rgb(229, 134, 6); fill-opacity: 1;"/><path class="point" transform="translate(47.59,104.54)" d="M3,0A3,3 0 1,1 0,-3A3,3 0 0,1 3,0Z" style="opacity: 1; stroke-width: 0px; fill: rgb(229, 134, 6); fill-opacity: 1;"/><path class="point" transform="translate(46.7,103.33)" d="M3,0A3,3 0 1,1 0,-3A3,3 0 0,1 3,0Z" style="opacity: 1; stroke-width: 0px; fill: rgb(229, 134, 6); fill-opacity: 1;"/><path class="point" transform="translate(47.48,103.21)" d="M3,0A3,3 0 1,1 0,-3A3,3 0 0,1 3,0Z" style="opacity: 1; stroke-width: 0px; fill: rgb(229, 134, 6); fill-opacity: 1;"/><path class="point" transform="translate(47.74,102.24)" d="M3,0A3,3 0 1,1 0,-3A3,3 0 0,1 3,0Z" style="opacity: 1; stroke-width: 0px; fill: rgb(229, 134, 6); fill-opacity: 1;"/><path class="point" transform="translate(46.36,101.75)" d="M3,0A3,3 0 1,1 0,-3A3,3 0 0,1 3,0Z" style="opacity: 1; stroke-width: 0px; fill: rgb(229, 134, 6); fill-opacity: 1;"/><path class="point" transform="translate(46.68,100.84)" d="M3,0A3,3 0 1,1 0,-3A3,3 0 0,1 3,0Z" style="opacity: 1; stroke-width: 0px; fill: rgb(229, 134, 6); fill-opacity: 1;"/><path class="point" transform="translate(47.65,100.83)" d="M3,0A3,3 0 1,1 0,-3A3,3 0 0,1 3,0Z" style="opacity: 1; stroke-width: 0px; fill: rgb(229, 134, 6); fill-opacity: 1;"/><path class="point" transform="translate(46.91,100.56)" d="M3,0A3,3 0 1,1 0,-3A3,3 0 0,1 3,0Z" style="opacity: 1; stroke-width: 0px; fill: rgb(229, 134, 6); fill-opacity: 1;"/><path class="point" transform="translate(47.23,99.71)" d="M3,0A3,3 0 1,1 0,-3A3,3 0 0,1 3,0Z" style="opacity: 1; stroke-width: 0px; fill: rgb(229, 134, 6); fill-opacity: 1;"/><path class="point" transform="translate(47.83,99.57)" d="M3,0A3,3 0 1,1 0,-3A3,3 0 0,1 3,0Z" style="opacity: 1; stroke-width: 0px; fill: rgb(229, 134, 6); fill-opacity: 1;"/><path class="point" transform="translate(46.52,99.5)" d="M3,0A3,3 0 1,1 0,-3A3,3 0 0,1 3,0Z" style="opacity: 1; stroke-width: 0px; fill: rgb(229, 134, 6); fill-opacity: 1;"/><path class="point" transform="translate(47.94,99.02)" d="M3,0A3,3 0 1,1 0,-3A3,3 0 0,1 3,0Z" style="opacity: 1; stroke-width: 0px; fill: rgb(229, 134, 6); fill-opacity: 1;"/><path class="point" transform="translate(46.58,98.87)" d="M3,0A3,3 0 1,1 0,-3A3,3 0 0,1 3,0Z" style="opacity: 1; stroke-width: 0px; fill: rgb(229, 134, 6); fill-opacity: 1;"/><path class="point" transform="translate(47.95,98.08)" d="M3,0A3,3 0 1,1 0,-3A3,3 0 0,1 3,0Z" style="opacity: 1; stroke-width: 0px; fill: rgb(229, 134, 6); fill-opacity: 1;"/><path class="point" transform="translate(46.77,95.8)" d="M3,0A3,3 0 1,1 0,-3A3,3 0 0,1 3,0Z" style="opacity: 1; stroke-width: 0px; fill: rgb(229, 134, 6); fill-opacity: 1;"/><path class="point" transform="translate(47.73,95.23)" d="M3,0A3,3 0 1,1 0,-3A3,3 0 0,1 3,0Z" style="opacity: 1; stroke-width: 0px; fill: rgb(229, 134, 6); fill-opacity: 1;"/><path class="point" transform="translate(47.38,94.93)" d="M3,0A3,3 0 1,1 0,-3A3,3 0 0,1 3,0Z" style="opacity: 1; stroke-width: 0px; fill: rgb(229, 134, 6); fill-opacity: 1;"/><path class="point" transform="translate(47.05,94.33)" d="M3,0A3,3 0 1,1 0,-3A3,3 0 0,1 3,0Z" style="opacity: 1; stroke-width: 0px; fill: rgb(229, 134, 6); fill-opacity: 1;"/><path class="point" transform="translate(46.4,94)" d="M3,0A3,3 0 1,1 0,-3A3,3 0 0,1 3,0Z" style="opacity: 1; stroke-width: 0px; fill: rgb(229, 134, 6); fill-opacity: 1;"/><path class="point" transform="translate(47.01,93.67)" d="M3,0A3,3 0 1,1 0,-3A3,3 0 0,1 3,0Z" style="opacity: 1; stroke-width: 0px; fill: rgb(229, 134, 6); fill-opacity: 1;"/><path class="point" transform="translate(46.39,93.15)" d="M3,0A3,3 0 1,1 0,-3A3,3 0 0,1 3,0Z" style="opacity: 1; stroke-width: 0px; fill: rgb(229, 134, 6); fill-opacity: 1;"/><path class="point" transform="translate(46.64,93.13)" d="M3,0A3,3 0 1,1 0,-3A3,3 0 0,1 3,0Z" style="opacity: 1; stroke-width: 0px; fill: rgb(229, 134, 6); fill-opacity: 1;"/><path class="point" transform="translate(46.38,92.92)" d="M3,0A3,3 0 1,1 0,-3A3,3 0 0,1 3,0Z" style="opacity: 1; stroke-width: 0px; fill: rgb(229, 134, 6); fill-opacity: 1;"/><path class="point" transform="translate(46.24,92.21)" d="M3,0A3,3 0 1,1 0,-3A3,3 0 0,1 3,0Z" style="opacity: 1; stroke-width: 0px; fill: rgb(229, 134, 6); fill-opacity: 1;"/><path class="point" transform="translate(46.71,90.96)" d="M3,0A3,3 0 1,1 0,-3A3,3 0 0,1 3,0Z" style="opacity: 1; stroke-width: 0px; fill: rgb(229, 134, 6); fill-opacity: 1;"/><path class="point" transform="translate(47.39,90.76)" d="M3,0A3,3 0 1,1 0,-3A3,3 0 0,1 3,0Z" style="opacity: 1; stroke-width: 0px; fill: rgb(229, 134, 6); fill-opacity: 1;"/><path class="point" transform="translate(46.57,90.64)" d="M3,0A3,3 0 1,1 0,-3A3,3 0 0,1 3,0Z" style="opacity: 1; stroke-width: 0px; fill: rgb(229, 134, 6); fill-opacity: 1;"/><path class="point" transform="translate(47.29,90.51)" d="M3,0A3,3 0 1,1 0,-3A3,3 0 0,1 3,0Z" style="opacity: 1; stroke-width: 0px; fill: rgb(229, 134, 6); fill-opacity: 1;"/><path class="point" transform="translate(47.45,89.61)" d="M3,0A3,3 0 1,1 0,-3A3,3 0 0,1 3,0Z" style="opacity: 1; stroke-width: 0px; fill: rgb(229, 134, 6); fill-opacity: 1;"/><path class="point" transform="translate(47.22,88.44)" d="M3,0A3,3 0 1,1 0,-3A3,3 0 0,1 3,0Z" style="opacity: 1; stroke-width: 0px; fill: rgb(229, 134, 6); fill-opacity: 1;"/><path class="point" transform="translate(46.85,85.58)" d="M3,0A3,3 0 1,1 0,-3A3,3 0 0,1 3,0Z" style="opacity: 1; stroke-width: 0px; fill: rgb(229, 134, 6); fill-opacity: 1;"/><path class="point" transform="translate(46.99,84.96)" d="M3,0A3,3 0 1,1 0,-3A3,3 0 0,1 3,0Z" style="opacity: 1; stroke-width: 0px; fill: rgb(229, 134, 6); fill-opacity: 1;"/><path class="point" transform="translate(47.54,83.01)" d="M3,0A3,3 0 1,1 0,-3A3,3 0 0,1 3,0Z" style="opacity: 1; stroke-width: 0px; fill: rgb(229, 134, 6); fill-opacity: 1;"/><path class="point" transform="translate(46.98,82.58)" d="M3,0A3,3 0 1,1 0,-3A3,3 0 0,1 3,0Z" style="opacity: 1; stroke-width: 0px; fill: rgb(229, 134, 6); fill-opacity: 1;"/><path class="point" transform="translate(47.19,79.9)" d="M3,0A3,3 0 1,1 0,-3A3,3 0 0,1 3,0Z" style="opacity: 1; stroke-width: 0px; fill: rgb(229, 134, 6); fill-opacity: 1;"/><path class="point" transform="translate(47.35,76.92)" d="M3,0A3,3 0 1,1 0,-3A3,3 0 0,1 3,0Z" style="opacity: 1; stroke-width: 0px; fill: rgb(229, 134, 6); fill-opacity: 1;"/><path class="point" transform="translate(46.9,75)" d="M3,0A3,3 0 1,1 0,-3A3,3 0 0,1 3,0Z" style="opacity: 1; stroke-width: 0px; fill: rgb(229, 134, 6); fill-opacity: 1;"/><path class="point" transform="translate(47.11,67.61)" d="M3,0A3,3 0 1,1 0,-3A3,3 0 0,1 3,0Z" style="opacity: 1; stroke-width: 0px; fill: rgb(229, 134, 6); fill-opacity: 1;"/><path class="point" transform="translate(47.39,55.96)" d="M3,0A3,3 0 1,1 0,-3A3,3 0 0,1 3,0Z" style="opacity: 1; stroke-width: 0px; fill: rgb(229, 134, 6); fill-opacity: 1;"/></g></g></g><g class="scatterlayer mlayer"><g class="trace scatter trace56840e" style="stroke-miterlimit: 2; opacity: 1;"><g class="fills"/><g class="errorbars"/><g class="lines"/><g class="points"/><g class="text"><g class="textpoint" transform="translate(0,-2.5)"><text x="47.39" y="42.71" text-anchor="middle" style="font-family: 'Open Sans', verdana, arial, sans-serif; font-size: 10px; fill: rgb(68, 68, 68); fill-opacity: 1; white-space: pre;">ns</text></g></g></g><g class="trace scatter trace35e071" style="stroke-miterlimit: 2; opacity: 1;"><g class="fills"/><g class="errorbars"/><g class="lines"/><g class="points"/><g class="text"><g class="textpoint" transform="translate(0,-2.5)"><text x="20.56" y="6.25" text-anchor="middle" style="font-family: 'Open Sans', verdana, arial, sans-serif; font-size: 10px; fill: rgb(68, 68, 68); fill-opacity: 1; white-space: pre;">*</text></g></g></g></g></g></g><g class="zerolinelayer-above"/><path class="xlines-above crisp" d="M0,0" style="fill: none;"/><path class="ylines-above crisp" d="M0,0" style="fill: none;"/><g class="overlines-above"/><g class="xaxislayer-above"><g class="xtick"><text text-anchor="start" x="0" y="196" transform="translate(87.56,0) rotate(29.999999999999996,0,191)" style="font-family: 'Open Sans', verdana, arial, sans-serif; font-size: 10px; fill: rgb(68, 68, 68); fill-opacity: 1; white-space: pre;">True Distribution</text></g><g class="xtick"><text text-anchor="start" x="0" y="196" transform="translate(114.39,0) rotate(29.999999999999996,0,191)" style="font-family: 'Open Sans', verdana, arial, sans-serif; font-size: 10px; fill: rgb(68, 68, 68); fill-opacity: 1; white-space: pre;">Chance Distribution</text></g></g><g class="yaxislayer-above"><g class="ytick"><text text-anchor="end" x="66" y="3.5" transform="translate(0,183.70999999999998)" style="font-family: 'Open Sans', verdana, arial, sans-serif; font-size: 10px; fill: rgb(68, 68, 68); fill-opacity: 1; white-space: pre;">0</text></g><g class="ytick"><text text-anchor="end" x="66" y="3.5" style="font-family: 'Open Sans', verdana, arial, sans-serif; font-size: 10px; fill: rgb(68, 68, 68); fill-opacity: 1; white-space: pre;" transform="translate(0,145.79000000000002)">0.1</text></g><g class="ytick"><text text-anchor="end" x="66" y="3.5" style="font-family: 'Open Sans', verdana, arial, sans-serif; font-size: 10px; fill: rgb(68, 68, 68); fill-opacity: 1; white-space: pre;" transform="translate(0,107.87)">0.2</text></g><g class="ytick"><text text-anchor="end" x="66" y="3.5" style="font-family: 'Open Sans', verdana, arial, sans-serif; font-size: 10px; fill: rgb(68, 68, 68); fill-opacity: 1; white-space: pre;" transform="translate(0,69.96000000000001)">0.3</text></g></g><g class="overaxes-above"/></g></g><g class="polarlayer"/><g class="smithlayer"/><g class="ternarylayer"/><g class="geolayer"/><g class="funnelarealayer"/><g class="pielayer"/><g class="iciclelayer"/><g class="treemaplayer"/><g class="sunburstlayer"/><g class="glimages"/><defs id="topdefs-280ae9"><g class="clips"/><clipPath id="legend280ae9"><rect width="101" height="61" x="0" y="0"/></clipPath></defs><g class="layer-above"><g class="imagelayer"/><g class="shapelayer"/></g><g class="infolayer"><g class="legend" pointer-events="all" transform="translate(126,60)"><rect class="bg" shape-rendering="crispEdges" style="stroke: rgb(68, 68, 68); stroke-opacity: 1; fill: rgb(255, 255, 255); fill-opacity: 1; stroke-width: 0px;" width="101" height="61" x="0" y="0"/><g class="scrollbox" transform="" clip-path="url(#legend280ae9)"><text class="legendtitletext" text-anchor="start" x="2" y="13" style="font-family: 'Open Sans', verdana, arial, sans-serif; font-size: 10px; fill: rgb(68, 68, 68); fill-opacity: 1; white-space: pre;">Method</text><g class="groups" transform=""><g class="traces" transform="translate(0,27.5)" style="opacity: 1;"><text class="legendtext" text-anchor="start" x="40" y="3.9" style="font-family: 'Open Sans', verdana, arial, sans-serif; font-size: 10px; fill: rgb(68, 68, 68); fill-opacity: 1; white-space: pre;">Manual</text><g class="layers" style="opacity: 1;"><g class="legendfill"/><g class="legendlines"/><g class="legendsymbols"><g class="legendpoints"><path class="legendbox" d="M6,6H-6V-6H6Z" transform="translate(20,0)" style="stroke-width: 2px; fill: rgb(93, 105, 177); fill-opacity: 0.5; stroke: rgb(93, 105, 177); stroke-opacity: 1;"/></g></g></g><rect class="legendtoggle" x="0" y="-9.5" width="96" height="19" style="fill: rgb(0, 0, 0); fill-opacity: 0;"/></g></g><g class="groups" transform=""><g class="traces" transform="translate(0,46.5)" style="opacity: 1;"><text class="legendtext" text-anchor="start" x="40" y="3.9" style="font-family: 'Open Sans', verdana, arial, sans-serif; font-size: 10px; fill: rgb(68, 68, 68); fill-opacity: 1; white-space: pre;">Automated</text><g class="layers" style="opacity: 1;"><g class="legendfill"/><g class="legendlines"/><g class="legendsymbols"><g class="legendpoints"><path class="legendbox" d="M6,6H-6V-6H6Z" transform="translate(20,0)" style="stroke-width: 2px; fill: rgb(229, 134, 6); fill-opacity: 0.5; stroke: rgb(229, 134, 6); stroke-opacity: 1;"/></g></g></g><rect class="legendtoggle" x="0" y="-9.5" width="96" height="19" style="fill: rgb(0, 0, 0); fill-opacity: 0;"/></g></g></g><rect class="scrollbar" rx="20" ry="3" width="0" height="0" style="fill: rgb(128, 139, 164); fill-opacity: 1;" x="0" y="0"/></g><g class="g-gtitle"><text class="gtitle" x="113.5" y="30" text-anchor="middle" dy="0em" style="opacity: 1; font-family: 'Open Sans', verdana, arial, sans-serif; font-size: 12px; fill: rgb(68, 68, 68); fill-opacity: 1; white-space: pre;">TSNE Latent Space Silhouette Scores</text></g><g class="g-xtitle"/><g class="g-ytitle"><text class="ytitle" transform="rotate(-90,37,122.5)" x="37" y="122.5" text-anchor="middle" style="opacity: 1; font-family: 'Open Sans', verdana, arial, sans-serif; font-size: 10px; fill: rgb(68, 68, 68); fill-opacity: 1; white-space: pre;">Silhouette Score</text></g></g></svg>